<svg width="328" height="312" viewBox="0 0 328 312" fill="none" xmlns="http://www.w3.org/2000/svg">
<path d="M250.07 213.152C250.07 266.333 205.169 309.581 149.611 309.581C94.0529 309.581 49.1523 266.333 49.1523 213.152C49.1523 159.97 94.0529 116.723 149.611 116.723C205.169 116.723 250.07 159.97 250.07 213.152Z" fill="url(#paint0_linear_714_4833)" stroke="white" stroke-width="4"/>
<path d="M160.84 182.395L133.461 174.551L133.461 142.833L169.244 150.899C169.208 150.903 169.849 167.312 170.267 172.049L160.84 182.395Z" fill="#F2DBC1"/>
<path d="M213.888 183.043L206.18 224.323C206.279 226.469 208.165 270.328 208.849 288.89C177.392 312.169 134.437 313.455 103.183 296.822V273.149L94.0742 180.824L125.894 169.559L132.948 158.876L155.793 172.139L172.082 159.74L177.687 168.396L213.888 183.043Z" fill="#7687C1"/>
<path d="M176.608 170.865C176.695 170.975 175.48 172.255 173.528 174.321C171.577 176.39 168.902 179.263 166.07 182.562C165.474 183.265 164.89 183.952 164.326 184.616L163.95 185.059L163.612 184.592C161.419 181.555 159.521 178.856 158.196 176.898C156.869 174.938 156.114 173.719 156.207 173.641C156.298 173.563 157.22 174.639 158.676 176.489C160.131 178.337 162.12 180.958 164.345 183.97L163.632 183.946C164.196 183.275 164.78 182.579 165.376 181.868C168.228 178.546 170.998 175.733 173.074 173.791C175.154 171.85 176.525 170.761 176.608 170.865Z" fill="#17282F"/>
<path d="M158.551 307.969C158.511 307.969 158.468 307.502 158.424 306.611C158.391 305.648 158.347 304.352 158.292 302.72C158.193 299.26 158.055 294.391 157.884 288.409C157.476 276.254 156.915 259.595 156.296 241.192C155.69 222.747 155.33 206.044 155.361 193.952C155.357 187.907 155.45 183.014 155.563 179.634C155.632 178.003 155.687 176.706 155.727 175.742C155.779 174.853 155.825 174.386 155.867 174.386C155.908 174.386 155.941 174.855 155.968 175.745C155.982 176.708 156.001 178.005 156.025 179.637C156.068 183.097 156.128 187.965 156.203 193.949C156.386 206.034 156.88 222.729 157.485 241.174C158.089 259.612 158.589 276.309 158.726 288.4C158.808 294.444 158.802 299.337 158.755 302.718C158.717 304.35 158.687 305.647 158.664 306.611C158.63 307.502 158.592 307.969 158.551 307.969Z" fill="#17282F"/>
<path d="M190.812 244.527C190.842 244.589 189.977 245.101 188.386 245.978C186.797 246.858 184.473 248.079 181.579 249.548C175.794 252.488 167.706 256.358 158.625 260.286C149.54 264.21 141.187 267.444 135.093 269.639C132.047 270.738 129.57 271.592 127.845 272.144C126.122 272.699 125.16 272.977 125.137 272.913C125.116 272.848 126.037 272.448 127.719 271.781C129.57 271.055 131.97 270.115 134.857 268.983C140.882 266.624 149.179 263.293 158.249 259.376C167.313 255.455 175.429 251.693 181.283 248.918C184.088 247.589 186.42 246.486 188.218 245.633C189.86 244.864 190.782 244.467 190.812 244.527Z" fill="#17282F"/>
<path d="M106.423 176.597C105.496 176.597 79.2863 184.242 75.8101 197.385C72.3339 210.527 63.3248 224.173 63.3248 224.173L53.2539 238.289C53.2539 238.289 56.5151 264.086 75.0559 259.185C75.0559 259.185 87.4275 261.373 91.3672 248.675C95.3069 235.979 108.284 200.28 108.284 200.28L106.423 176.597Z" fill="#7687C1"/>
<path d="M198.566 176.805C198.566 176.805 224.019 181.227 225.249 186.113C226.478 190.999 250.285 220.169 250.285 220.169L263.378 223.69L266.868 230.913C271.004 239.473 268.761 249.909 261.165 255.651C260.687 256.011 260.218 256.331 259.763 256.6C252.689 260.789 235.305 259.548 227.894 250.838C220.877 242.591 203.634 219.104 203.634 219.104L196.188 192.421L198.566 176.805Z" fill="#7687C1"/>
<path d="M256.988 225.69L275.819 214.543L284.892 225.69L283.015 231.086L258.739 249.156C258.739 249.156 254.187 245.803 253.108 239.368C251.974 232.597 256.988 225.69 256.988 225.69Z" fill="#F2DBC1"/>
<path d="M251.165 220.077C251.163 220.256 249.562 220.118 247.19 220.882C244.828 221.61 241.784 223.433 239.337 226.35C236.888 229.279 235.391 232.479 234.339 234.779C233.3 237.097 232.683 238.557 232.548 238.507C232.43 238.464 232.815 236.925 233.702 234.514C234.601 232.124 236.03 228.784 238.592 225.716C241.164 222.646 244.462 220.806 247.001 220.215C249.559 219.589 251.19 219.989 251.165 220.077Z" fill="#17282F"/>
<path d="M275.386 221.285C275.213 220.938 273.827 212.963 279.887 207.762C285.947 202.561 291.4 200.741 294.69 199.267C297.98 197.794 304.818 192.072 306.031 193.46C307.242 194.846 307.762 196.927 306.031 199.441C304.299 201.954 294.383 205.731 295.766 208.917C296.333 210.222 299.452 210.45 299.452 210.45C299.452 210.45 311.398 211.23 316.419 210.797C321.439 210.363 325.942 211.316 325.681 213.05C325.422 214.784 324.47 215.737 320.315 216.084C316.159 216.431 309.407 216.17 309.06 217.124C308.714 218.078 310.1 218.684 312.524 218.511C314.947 218.338 326.374 218.338 327.153 219.638C327.932 220.938 327.326 222.932 325.769 223.365L323.084 224.319C323.084 224.319 324.643 226.486 323.345 227.699C322.046 228.912 319.102 228.479 319.102 228.479L303.953 228.046C303.953 228.046 303.087 228.96 303.52 229.586C303.953 230.214 315.813 229.346 315.9 230.647C315.986 231.947 317.025 232.553 313.476 233.421C309.926 234.287 301.01 234.287 297.807 233.421C294.604 232.553 281.186 231.947 281.186 231.947L275.386 221.285Z" fill="#F2DBC1"/>
<path d="M69.7095 228.123L51.9249 213.654L41.7109 224.904L42.9604 230.411L65.1963 250.93C65.1963 250.93 70.004 248.649 72.1808 242.571C74.3917 236.395 69.7095 228.123 69.7095 228.123Z" fill="#F2DBC1"/>
<path d="M51.6963 220.713C51.9087 220.392 54.2114 212.719 48.8013 206.91C43.3912 201.102 38.1897 198.684 35.0963 196.857C32.002 195.03 25.8799 188.621 24.5157 189.844C23.1514 191.066 22.3935 193.05 23.8195 195.718C25.2455 198.388 32.0554 201.512 31.813 204.939C31.6371 207.42 29.0696 207.291 29.0696 207.291C29.0696 207.291 17.121 206.679 12.1871 205.673C7.25418 204.668 2.67494 205.086 2.73108 206.818C2.78722 208.551 3.62092 209.597 7.70517 210.418C11.7894 211.238 18.5226 211.762 18.7547 212.738C18.9876 213.715 17.542 214.151 15.156 213.701C12.771 213.251 1.42862 211.932 0.503228 213.119C-0.421227 214.306 -0.0516383 216.335 1.44452 216.94L3.998 218.186C3.998 218.186 2.19869 220.135 3.34677 221.478C4.49392 222.819 7.46658 222.733 7.46658 222.733L22.5535 224.056C22.5535 224.056 23.3067 225.055 22.8043 225.619C22.3018 226.185 10.6311 223.964 10.3934 225.232C10.1567 226.499 9.05443 226.975 12.4762 228.236C15.8989 229.498 24.7496 230.527 28.0291 230.045C31.3096 229.563 44.6993 230.516 44.6993 230.516L51.6963 220.713Z" fill="#F2DBC1"/>
<path d="M81.5833 248.269C81.4353 248.286 81.1797 246.361 80.5979 243.303C80.0029 240.265 79.0429 236.026 76.7874 231.905C74.528 227.795 71.2361 224.902 68.5364 223.497C65.8292 222.048 63.8622 221.87 63.8989 221.686C63.9055 221.628 64.3959 221.615 65.271 221.747C66.146 221.874 67.3983 222.21 68.8448 222.879C71.7425 224.18 75.2824 227.139 77.6389 231.431C79.9831 235.718 80.8497 240.091 81.2778 243.19C81.6908 246.312 81.7021 248.258 81.5833 248.269Z" fill="#17282F"/>
<path d="M86.0765 228.733C85.8799 228.966 83.0953 225.993 78.5798 224.431C74.0864 222.795 70.1336 223.376 70.1152 223.067C70.0118 222.843 74.127 221.774 78.8879 223.495C83.6665 225.161 86.2896 228.621 86.0765 228.733Z" fill="#17282F"/>
<path d="M261.815 250.916C261.792 250.969 261.378 250.872 260.672 250.575C259.964 250.28 258.98 249.743 257.888 248.901C255.713 247.256 253.139 244.09 252.314 239.87C251.507 235.645 252.717 231.749 254.123 229.414C254.823 228.225 255.537 227.362 256.084 226.825C256.628 226.287 256.977 226.042 257.018 226.084C257.144 226.199 255.908 227.367 254.71 229.732C253.508 232.052 252.487 235.744 253.241 239.692C254.011 243.635 256.334 246.681 258.314 248.387C260.307 250.137 261.889 250.762 261.815 250.916Z" fill="#17282F"/>
<path d="M298.193 204.785C298.309 204.897 297.484 205.68 296.433 207.054C295.92 207.751 295.43 208.622 295.226 209.713C294.996 210.803 295.012 212.083 294.823 213.478C294.45 216.357 292.662 218.516 291.173 219.573C289.647 220.661 288.466 220.829 288.444 220.729C288.382 220.579 289.437 220.182 290.74 219.042C292.019 217.917 293.522 215.925 293.857 213.343C294.035 212.052 294.045 210.727 294.347 209.518C294.627 208.295 295.279 207.302 295.894 206.627C297.159 205.278 298.119 204.71 298.193 204.785Z" fill="#E9C7A2"/>
<path d="M24.8511 219.44C24.853 219.757 20.065 220.057 14.1659 219.717C8.26488 219.387 3.52244 218.546 3.55091 218.232C3.57843 217.902 8.34079 218.218 14.2124 218.546C20.0811 218.885 24.8492 219.109 24.8511 219.44Z" fill="#E9C7A2"/>
<path d="M35.4974 218.071C35.4731 218.169 34.3288 217.986 32.9474 216.866C31.5951 215.792 30.0778 213.596 30.1807 210.871C30.2419 209.539 30.613 208.368 30.8607 207.332C31.1269 206.295 31.2629 205.378 31.2309 204.598C31.1978 203.027 30.4945 202.217 30.6208 202.129C30.6801 202.021 31.6971 202.774 31.9381 204.54C32.0702 205.394 31.9905 206.438 31.7651 207.515C31.5563 208.595 31.2338 209.735 31.1833 210.908C31.091 213.265 32.315 215.269 33.437 216.375C34.5716 217.519 35.5673 217.924 35.4974 218.071Z" fill="#E9C7A2"/>
<path d="M300.867 221.742C300.89 221.517 305.874 221.688 312.001 222.123C318.128 222.559 323.076 223.094 323.055 223.319C323.033 223.544 318.049 223.373 311.921 222.938C305.795 222.503 300.846 221.967 300.867 221.742Z" fill="#E9C7A2"/>
<path d="M155.303 172.686C155.425 172.742 154.596 174.835 153.157 178.176C152.782 179.036 152.386 179.945 151.968 180.902C151.492 181.892 151.178 182.897 150.473 184.059C150.134 184.617 149.319 185.2 148.468 185.028C147.658 184.88 147.115 184.407 146.583 184.065C145.497 183.324 144.38 182.56 143.235 181.776C138.651 178.628 134.534 175.733 131.582 173.599C128.628 171.463 126.84 170.088 126.916 169.978C126.993 169.868 128.919 171.045 131.971 173.035C135.024 175.026 139.202 177.831 143.786 180.98C144.928 181.769 146.041 182.538 147.123 183.285C147.67 183.663 148.166 184.042 148.619 184.117C149.056 184.201 149.435 183.972 149.744 183.543C150.822 181.586 151.721 179.476 152.532 177.891C154.131 174.623 155.18 172.63 155.303 172.686Z" fill="#17282F"/>
<path d="M206.864 201.924C206.949 201.919 207.101 202.796 207.302 204.385C207.509 205.974 207.724 208.279 207.917 211.13C208.32 216.831 208.531 224.718 208.557 233.421C208.557 242.026 208.556 249.808 208.556 255.705C208.559 258.408 208.562 260.672 208.564 262.457C208.556 264.052 208.51 264.936 208.425 264.937C208.34 264.94 208.222 264.061 208.083 262.469C207.937 260.876 207.803 258.569 207.682 255.716C207.436 250.012 207.345 242.127 207.321 233.424C207.295 224.724 207.222 216.853 207.043 211.156C206.955 208.455 206.881 206.192 206.822 204.408C206.768 202.814 206.779 201.929 206.864 201.924Z" fill="#5F6FA7"/>
<path d="M95.8774 205.47C95.9494 205.458 96.1479 206.162 96.4451 207.446C96.7484 208.73 97.1166 210.599 97.5207 212.916C98.3352 217.551 99.1959 223.989 99.9127 231.114C100.628 238.24 101.154 244.696 101.549 249.367C101.719 251.536 101.864 253.382 101.983 254.901C102.072 256.21 102.087 256.938 102.014 256.945C101.941 256.953 101.787 256.239 101.572 254.942C101.353 253.645 101.092 251.762 100.801 249.432C100.215 244.773 99.5702 238.322 98.8545 231.205C98.1398 224.089 97.3994 217.659 96.7772 213.013C96.4872 210.856 96.2404 209.02 96.0368 207.509C95.8661 206.208 95.8054 205.481 95.8774 205.47Z" fill="#5F6FA7"/>
<path d="M192.435 78.4241C192.579 75.9589 194.966 74.3231 197.098 73.0789C197.765 72.6907 198.455 72.2925 199.221 72.2029C199.988 72.1133 200.856 72.4136 201.194 73.1071C201.537 73.8105 201.25 74.6383 201.209 75.4197C201.146 76.6258 201.69 77.7721 201.884 78.9633C202.453 82.4654 200.028 85.644 198.487 88.8409C196.615 92.7213 195.975 97.0811 195.723 101.381C195.635 102.878 195.58 104.42 194.963 105.786C194.346 107.151 193 108.312 191.504 108.21C192.44 101.22 192.72 94.1413 192.338 87.099C192.181 84.1841 192.267 81.2826 192.435 78.4241Z" fill="#F2DBC1" stroke="#CEAC87" stroke-miterlimit="10"/>
<path d="M200.565 75.3672C198.992 75.7454 197.929 77.2883 197.578 78.8677C197.228 80.447 197.446 82.0861 197.57 83.6986C197.695 85.3111 197.711 87.0017 197.008 88.4582" stroke="#CEAC87" stroke-miterlimit="10"/>
<path d="M105.752 79.876C104.875 78.504 103.29 77.789 101.794 77.1486C100.598 76.636 99.1744 76.1333 98.0579 76.8019C97.8074 76.9529 97.5818 77.1652 97.4756 77.4373C97.3164 77.8388 97.4358 78.2917 97.5453 78.7097C98.2238 81.2845 98.544 83.9521 98.4975 86.6131C98.4876 87.1457 98.4644 87.6882 98.6087 88.2008C98.826 88.9706 99.3917 89.5827 99.8662 90.2264C101.699 92.7132 102.267 95.8935 102.628 98.961C102.99 102.028 103.219 105.189 104.525 107.989C104.896 108.787 105.367 109.562 106.058 110.109C106.746 110.657 107.688 110.945 108.763 110.713C109.526 109.35 109.619 107.7 109.399 106.154C109.178 104.608 108.667 103.12 108.286 101.605C107.194 97.2788 107.162 92.7597 107.272 88.2987C107.342 85.3556 107.275 82.26 105.752 79.876Z" fill="#F2DBC1" stroke="#CEAC87" stroke-miterlimit="10"/>
<path d="M97.8398 78.4062C99.6266 79.5675 100.899 81.4936 101.264 83.5939C101.725 86.2433 100.799 89.0005 101.34 91.635" stroke="#CEAC87" stroke-miterlimit="10"/>
<path d="M192.093 75.7505C193.475 73.8327 194.872 71.8867 195.705 69.6753C196.778 66.8285 196.853 63.7212 197.004 60.6836C197.274 55.2205 197.828 49.7724 198.661 44.3675C198.89 42.8843 199.139 41.3747 198.903 39.8932C198.339 36.3695 195.17 33.7267 194.445 30.2329C191.793 27.2351 192.302 22.4971 189.684 19.6121C188.785 18.6217 187.599 17.9498 186.461 17.2431C184.682 16.1382 182.98 14.9138 181.281 13.6912C180.298 12.9828 179.312 12.2744 178.328 11.566C175.491 9.5238 172.65 7.47827 170.012 5.18555C167.205 1.53413 162.301 -0.438406 157.679 0.215234C156.677 0.356248 155.688 0.61339 154.676 0.64657C153.374 0.691363 152.091 0.367861 150.801 0.182055C147.775 -0.25094 144.643 0.0924692 141.781 1.16915C139.637 2.67385 136.794 3.30427 134 3.63274C131.207 3.96122 128.371 4.02758 125.627 4.65136C120.961 5.71145 116.685 8.41892 113.736 12.1865C109.256 16.4401 106.463 22.3195 102.705 27.4209C101.799 28.6502 100.817 29.8729 100.371 31.3345C99.9629 32.6733 100.041 34.1017 100.031 35.5018C99.9927 41.0777 98.5295 46.8012 100.159 52.1348C100.806 56.5112 100.21 61.1282 100.66 65.6556C101.001 69.0913 101.952 72.4657 103.455 75.573C104.24 77.1954 105.177 78.7566 105.728 80.472C106.368 82.4644 106.464 84.5846 106.456 87.4148C122.528 90.756 139.16 89.3691 155.516 87.9672C162.084 87.4048 168.693 86.8342 175.049 85.0823C181.404 83.3337 188.334 80.9713 192.093 75.7505Z" fill="#17282F"/>
<path d="M106.566 86.884C107.676 82.0115 108.019 76.9665 107.581 71.9879C107.328 69.1013 106.822 66.1217 107.698 63.3612C108.831 59.7927 112.139 57.0753 112.646 53.3658C112.966 51.0283 112.112 48.5531 112.91 46.3334C113.321 45.187 114.138 44.2348 115.002 43.3771C116.62 41.7745 118.469 40.4091 120.545 39.4685C122.643 38.4665 124.989 37.9903 127.313 38.0949C129.57 38.1961 131.789 38.8348 134.049 38.7833C135.879 38.7419 137.667 38.2475 139.416 37.7067C145.065 35.9597 150.557 33.6869 156.304 32.295C162.051 30.9032 168.199 30.427 173.714 32.222C177.377 33.4945 180.676 35.7922 183.14 38.785C183.714 39.4818 184.25 40.23 184.54 41.0843C185.594 44.1916 183.138 47.5113 183.596 50.7595C183.714 51.5924 184.022 52.3903 184.432 53.1269C185.044 54.2268 185.874 55.1874 186.693 56.143C187.966 57.6261 189.24 59.1324 190.137 60.8677C191.035 62.603 191.534 64.6104 191.118 66.6029C191.206 70.2244 191.904 73.7979 192.394 77.3879C193.832 87.9092 193.474 98.6727 191.304 109.065C189.708 119.11 185.058 128.651 178.034 136.221C173.475 143.107 166.251 148.178 158.225 150.128C150.199 152.075 141.455 150.881 134.329 146.871C126.89 142.674 121.731 135.457 116.853 128.447C114.914 125.658 112.968 122.849 111.54 119.767C109.152 114.617 108.293 108.909 107.566 103.278C107.205 100.481 106.87 97.6806 106.559 94.8769C106.258 92.128 106.009 89.3343 106.566 86.884Z" fill="#F2DBC1"/>
<path d="M187.051 68.7876C186.921 68.2783 186.512 67.8951 186.105 67.5633C183.228 65.2109 179.642 63.8687 176.727 61.5628C175.489 61.2409 174.32 61.5793 173.165 61.7751C171.425 62.0704 169.65 62.0439 167.889 62.16C164.384 62.3923 160.917 63.2018 157.67 64.5456C156.947 64.8442 156.217 65.1827 155.669 65.7434C155.122 66.3041 154.79 67.1353 155.07 67.9913C155.301 68.9934 156.454 69.5425 157.479 69.4877C158.506 69.433 159.447 68.9353 160.386 68.5189C166.931 65.624 174.595 66.4617 181.331 68.8805C183.22 69.5591 185.121 70.367 187.129 70.3985C187.087 69.8577 187.18 69.3003 187.051 68.7876Z" fill="#17282F"/>
<path d="M147.218 65.4268C147.294 66.2944 147.34 67.1853 147.101 68.0231C146.864 68.8609 146.292 69.6489 145.469 69.9342C144.683 70.2063 143.818 69.9873 143.017 69.76C140.706 69.1047 138.412 68.3914 136.136 67.6249C134.656 67.1256 133.179 66.603 131.651 66.2878C125.611 65.0402 119.204 67.2185 114.395 71.0806C115.08 68.9521 115.914 66.754 117.601 65.2858C118.764 64.2738 120.242 63.6964 121.729 63.285C125.307 62.2946 129.06 62.1685 132.773 62.1055C134.306 62.0789 135.857 62.0657 137.345 62.434C138.569 62.7376 139.716 63.2917 140.898 63.728C142.919 64.4729 145.048 64.876 147.218 65.4268Z" fill="#17282F"/>
<path d="M142.837 84.3047C142.112 86.0898 141.385 87.8748 140.66 89.6599C139.962 91.3786 139.252 93.1487 139.227 95.0051C139.202 96.8615 140.02 98.849 141.679 99.6818C142.343 100.015 143.404 99.9572 143.535 99.2273C143.605 98.8341 143.346 98.4674 143.224 98.0859C143.005 97.4024 143.277 96.5928 143.862 96.1797C144.448 95.7666 145.304 95.7849 146.039 96.3075C147.846 96.6957 148.677 99.3401 150.525 99.3135C151.658 99.2969 152.459 98.2551 153.187 97.3875C153.861 96.5845 154.651 95.8313 155.636 95.4763C156.622 95.1229 157.841 95.2523 158.553 96.0221C159.264 96.7919 159.191 98.2286 158.277 98.7395C157.979 98.9071 157.542 99.136 157.683 99.4479C157.715 99.5192 157.776 99.574 157.836 99.6238C159.087 100.636 161.116 100.148 162.106 98.8789C163.097 97.6098 163.196 95.8297 162.8 94.2702C162.401 92.7108 161.569 91.3056 160.817 89.8822C160.066 88.4588 159.374 86.9491 159.299 85.3416" stroke="#CEAC87" stroke-miterlimit="10"/>
<path d="M143.444 97.0021C143.864 97.4152 144.356 97.7537 144.892 98.0009C145.191 98.1386 145.513 98.248 145.843 98.2381C146.171 98.2281 146.511 98.0805 146.684 97.8001C146.909 97.4302 146.785 96.9242 146.491 96.6057C146.198 96.2871 145.773 96.1245 145.353 96.0184C145.113 95.957 144.864 95.9105 144.617 95.9305C144.321 95.9537 144.039 96.0698 143.786 96.2224C143.591 96.3386 143.397 96.4945 143.341 96.7135C143.283 96.9308 143.44 97.2095 143.444 97.0021Z" fill="#17282F"/>
<path d="M154.987 95.986C154.652 96.2813 154.284 96.6728 154.39 97.1074C154.519 97.635 155.218 97.7478 155.757 97.6864C156.389 97.6151 157.011 97.4542 157.598 97.2103C157.849 97.1058 158.101 96.9814 158.28 96.779C158.459 96.5766 158.557 96.2779 158.456 96.0258C158.376 95.8267 158.19 95.689 158.001 95.5861C156.946 95.0022 155.704 95.3556 154.987 95.986Z" fill="#17282F"/>
<path d="M137.842 118.139C137.381 117.448 137.661 116.48 138.191 115.842C138.721 115.201 139.456 114.77 140.064 114.201C141.2 113.136 141.842 111.634 142.952 110.541C144.367 109.146 146.522 108.549 148.453 109.018C149.477 109.267 150.479 109.795 151.521 109.649C152.388 109.528 153.133 108.952 153.989 108.771C155.431 108.466 156.841 109.309 158.075 110.105C160.333 111.898 162.584 113.698 164.831 115.505C165.371 115.94 165.94 116.417 166.133 117.084C166.41 118.043 165.823 119.022 165.214 119.813C164.401 120.87 163.495 121.867 162.422 122.658C161.096 123.636 159.545 124.276 157.949 124.689C153.83 125.756 149.336 125.311 145.505 123.455C144.785 123.106 144.088 122.71 143.363 122.373C142.461 121.953 141.512 121.625 140.651 121.124C139.437 120.414 138.594 119.266 137.842 118.139Z" fill="#99746C"/>
<path d="M138.828 117.382C138.448 117.284 138.199 117.868 138.418 118.193C138.637 118.518 139.065 118.613 139.451 118.679C140.629 118.878 141.824 119.058 143.015 118.98C144.261 118.897 145.5 118.535 146.739 118.694C147.451 118.787 148.136 119.049 148.851 119.096C149.579 119.142 150.306 118.961 151.034 118.978C151.643 118.991 152.24 119.142 152.849 119.18C154.377 119.273 155.857 118.646 157.385 118.532C158.629 118.439 159.87 118.688 161.113 118.781C162.357 118.873 163.679 118.789 164.724 118.109C164.821 118.046 164.917 117.974 164.97 117.873C165.142 117.541 164.771 117.196 164.447 117.009C162.67 115.977 160.839 115.044 159.009 114.112C158.244 113.722 157.47 113.329 156.633 113.137C155.842 112.954 155.023 112.957 154.21 112.962C152.104 112.974 149.999 112.986 147.894 112.996C147.215 112.999 146.529 113.004 145.872 113.18C145.1 113.387 144.412 113.82 143.737 114.246C141.998 115.351 140.256 116.453 138.828 117.382Z" fill="#5B372F"/>
<path d="M172.955 127.036C171.45 124.544 171.367 121.483 171.15 118.58C171.034 117.032 170.866 115.488 170.651 113.95C170.405 112.205 169.971 110.27 168.499 109.3C166.155 108.273 163.975 106.778 162.304 104.84C161.409 103.8 160.652 102.634 159.655 101.692C158.658 100.748 157.332 100.028 155.967 100.165C154.452 100.117 153.192 101.405 151.655 101.687C149.967 101.997 148.301 101.05 146.586 100.998C144.698 100.942 142.934 101.979 141.551 103.263C140.167 104.547 139.049 106.095 137.69 107.405C136.827 108.238 135.867 108.975 135.102 109.899C133.821 111.448 133.181 113.411 132.565 115.325C132.015 117.042 131.457 118.786 131.379 120.587C131.293 122.543 131.748 124.644 130.93 126.498C132.297 125.835 133.1 124.375 133.549 122.923C134.297 120.509 134.387 117.746 136.063 115.853C137.259 114.501 139.065 113.85 140.406 112.639C141.677 111.491 142.511 109.854 143.989 108.986C145.904 107.863 148.301 108.341 150.521 108.331C151.863 108.324 153.195 108.125 154.497 107.976C156.936 108.002 159.049 109.573 160.972 111.075C161.699 111.642 162.426 112.208 163.151 112.775C164.212 113.603 165.332 114.517 165.826 115.781C166.503 117.157 168.001 117.941 168.859 119.212C169.906 120.763 169.871 122.83 170.813 124.448C171.387 125.435 172.293 126.188 172.955 127.036Z" fill="#17282F"/>
<path d="M106.083 81.9057C107.209 87.7619 106.217 93.8089 106.607 99.7597C106.859 103.617 107.691 107.408 108.518 111.183C109.323 114.85 110.134 118.543 111.622 121.988C113.786 127 117.284 131.294 120.408 135.77C123.75 140.557 126.824 145.755 131.646 149.244C135.621 153.181 140.452 156.326 145.816 157.912C151.179 159.5 157.087 159.463 162.274 157.37C167.366 155.316 171.538 151.411 174.763 146.968C177.987 142.525 180.351 137.528 182.67 132.458C190.242 119.49 194.447 104.473 194.095 89.7013C194.152 85.3564 194.026 81.0082 193.717 76.6749C193.648 75.6928 193.472 74.5531 192.614 74.0703C192.123 74.8832 192.203 75.9035 192.285 76.8491C192.581 80.1804 192.73 83.5265 192.732 86.871C192.733 90.6253 192.511 94.5289 190.777 97.885C189.707 99.3798 188.616 100.87 187.307 102.16C186.184 103.267 184.911 104.211 183.758 105.287C180.407 108.413 178.159 112.55 176.447 116.801C174.735 121.051 173.502 125.484 171.621 129.694C171.075 132.387 169.153 134.761 166.633 135.853C165.277 136.44 163.797 136.667 162.333 136.851C156.883 137.536 151.367 137.706 145.885 137.354C144.163 137.243 142.428 137.079 140.784 136.551C136.479 135.167 133.348 131.499 130.679 127.85C129.569 126.332 128.496 124.787 127.348 122.917C125.34 116.155 121.792 109.856 117.049 104.635C114.146 101.44 110.707 98.4939 109.21 94.4443C107.686 90.3184 108.434 85.6782 107.317 81.4246C107.199 80.9767 106.961 80.4474 106.498 80.4176C106.219 81.0281 106.046 81.7166 106.083 81.9057Z" fill="#17282F"/>
<path d="M146.408 67.0918C148.274 68.4671 150.808 68.8852 153.018 68.1834C154.079 67.845 155.05 67.2727 156.082 66.8496C158.205 65.9787 160.531 65.7663 162.822 65.5971C167.494 65.0148 172.219 64.8638 176.932 65.1989C179.672 65.2305 182.211 66.6423 184.923 67.0321C186.745 67.2942 188.651 67.0951 190.331 67.7621C190.58 68.5119 190.569 69.3447 190.3 70.0863C190.234 70.2688 190.144 70.4563 189.983 70.5657C189.807 70.6869 189.58 70.6918 189.371 70.7333C188.414 70.9274 187.838 71.8946 187.47 72.7987C186.182 75.9608 185.958 79.4712 184.714 82.6498C184.138 84.123 183.231 85.6144 181.745 86.2266C177.574 87.0942 173.309 87.499 168.99 87.4542C167.189 87.5222 165.427 86.9897 163.647 86.7043C162.827 86.5716 161.996 86.492 161.193 86.278C160.39 86.0656 159.602 85.7073 159.03 85.1051C158.645 84.7003 158.371 84.2026 158.109 83.7082C157.44 82.454 156.803 81.1832 156.228 79.8743C155.775 79.0531 155.418 78.1805 155.168 77.2763C154.968 76.5613 154.836 75.8264 154.602 75.1213C154.411 74.544 154.146 73.9766 153.721 73.5403C153.452 73.2649 153.127 73.0509 152.785 72.8751C151.959 72.4504 151.022 72.2463 150.093 72.2878C149.794 72.301 149.494 72.3409 149.215 72.4487C148.434 72.7506 147.954 73.5237 147.578 74.262C146.747 76.8483 145.723 79.37 144.515 81.8037C143.943 82.9567 143.296 84.1296 142.256 84.8911C141.363 85.5431 140.265 85.8317 139.185 86.1071C136.151 86.3891 133.11 86.6712 130.062 86.6397C127.015 86.6081 123.949 86.2548 121.075 85.344C120.105 85.0786 119.138 84.7053 118.381 84.0417C117.522 83.2885 116.999 82.2168 116.666 81.1235C116.332 80.0303 116.168 78.8922 115.85 77.789C115.641 76.4684 115.463 75.1412 115.317 73.8107C115.181 72.5715 115.042 71.2443 114.265 70.3368C114.058 69.932 113.698 69.6168 113.288 69.4161C112.878 69.2153 112.424 69.1257 112.009 69.1025C111.74 68.9034 111.686 68.5269 111.681 68.1917C111.672 67.6791 111.722 67.1648 111.812 66.6588C111.848 66.4498 111.895 66.2341 112.011 66.0566C112.127 65.8775 112.328 65.7398 112.48 65.6087C114.386 66.1296 116.39 65.5257 118.343 65.2205C121.097 64.7908 123.937 64.9567 126.616 64.3396C130.956 63.8867 135.354 63.9978 139.664 64.6664C142.095 65.043 144.527 65.7049 146.408 67.0918Z" fill="black"/>
<path d="M140.826 84.4041C142.158 83.7786 142.918 82.3718 143.515 81.0264C144.681 78.3952 145.572 75.643 146.168 72.8277C146.377 71.8439 146.539 70.7772 146.11 69.8697C145.929 68.9075 145.119 68.2671 144.288 67.8374C143.191 67.2684 141.985 66.9466 140.776 66.6928C139.056 66.3311 137.309 66.1005 135.553 66.0026C130.52 65.6891 125.376 65.4551 120.435 66.6065C119.785 66.7574 119.126 66.9399 118.584 67.3298C117.349 68.2174 117.054 69.8996 116.847 71.3744C116.976 73.2225 116.762 75.0806 116.865 76.932C116.966 78.7818 117.431 80.7045 118.75 82.0367C119.337 82.7368 119.974 83.4236 120.783 83.8483C121.309 84.1237 121.888 84.2796 122.467 84.4157C125.361 85.0992 128.352 85.3696 131.308 85.139C134.619 85.3149 138.138 85.6649 140.826 84.4041Z" fill="#F2DBC1"/>
<path d="M143.013 69.7559C143.814 69.9832 144.678 70.2022 145.465 69.9301C145.674 69.8576 145.867 69.7527 146.042 69.6228C145.679 68.084 142.769 67.0191 139.949 66.5213C136.88 65.8578 129.829 65.5261 124.769 65.9407C120.207 66.4384 118.216 66.6872 117.387 69.0131C121.696 66.4922 126.79 65.2806 131.647 66.2837C133.175 66.5989 134.651 67.1214 136.131 67.6208C138.407 68.3872 140.702 69.1006 143.013 69.7559Z" fill="#17282F"/>
<path d="M156.017 73.9713C155.837 72.4865 155.703 70.8292 156.615 69.643C157.241 68.8301 158.241 68.4087 159.217 68.0919C163.809 66.5988 168.743 66.6552 173.539 66.7995C176.483 66.919 179.415 67.3503 182.27 68.0836C183.053 68.2843 183.904 68.563 184.349 69.2067C184.994 71.0067 185.228 72.9394 185.185 74.8506C185.143 76.7634 184.83 78.6613 184.407 80.4812C184.153 81.3289 183.896 82.1833 183.491 82.9697C183.086 83.756 182.516 84.481 181.754 84.9322C181.22 85.2491 180.613 85.4233 180.006 85.5461C179.068 85.7368 178.113 85.8165 177.159 85.8961C175.491 86.0355 173.826 86.1748 172.217 86.286C169.856 86.4767 167.485 86.1864 165.134 85.8978C164.424 85.8098 163.713 85.7219 163.014 85.566C161.861 85.3055 160.687 84.8062 160.056 83.8307C157.745 81.0701 156.441 77.5099 156.017 73.9713Z" fill="#F2DBC1"/>
<path d="M177.91 75.3788C175.994 73.7447 173.972 72.0575 171.515 71.5067C169.394 71.0306 167.125 71.4768 165.222 72.5236C164.247 73.0595 163.362 73.7447 162.483 74.4265C161.659 75.0652 160.834 75.7039 160.074 76.5284C162.817 76.2298 165.426 77.6632 168.144 78.1327C171.533 78.7199 175.161 77.7129 177.91 75.3788Z" fill="white" stroke="black" stroke-width="0.5" stroke-miterlimit="10"/>
<path d="M170.426 71.9365C169.295 71.5935 167.991 72.1255 167.319 73.0867C166.647 74.0479 166.582 75.3522 167.021 76.4345C167.187 76.8436 167.427 77.2343 167.78 77.5058C168.1 77.7516 168.493 77.8837 168.886 77.9809C169.814 78.2102 170.871 78.2395 171.653 77.6929C172.339 77.2141 172.678 76.3868 172.882 75.5833C172.996 75.1339 173.08 74.6698 173.033 74.2075C172.903 72.9253 171.625 71.865 170.426 71.9365Z" fill="#17282F"/>
<path d="M161.057 73.8416C162.1 72.5808 163.175 71.2918 164.596 70.4789C166.498 69.3889 168.811 69.2778 170.991 69.5117C173.474 69.7788 176.028 70.5253 177.793 72.2922C178.149 72.6488 178.47 73.0437 178.858 73.3639C179.427 73.8317 180.225 74.3211 180.105 75.0477C178.805 74.3792 177.999 73.0437 176.875 72.1063C175.839 71.242 174.548 70.736 173.244 70.3893C170.193 69.578 166.742 69.6328 164.105 71.3698C163.02 72.0848 162.124 73.0453 161.239 73.9976C161.107 74.0175 161.016 73.8051 161.057 73.8416Z" fill="#CEAC87"/>
<path d="M160.385 68.5165C159.446 68.9329 158.506 69.4306 157.479 69.4854C157.251 69.4975 157.018 69.4799 156.789 69.4343C157.479 68.3477 161.351 67.2694 164.669 66.9376C165.905 66.814 167.192 66.7368 168.492 66.7025C168.976 66.6824 169.461 66.6758 169.948 66.6818C174.64 66.6716 179.336 67.1985 182.337 68.0989C183.25 68.3726 183.914 68.6215 184.328 69.1772L184.577 69.9933C183.479 69.6904 182.403 69.2634 181.33 68.8782C177.699 67.5742 173.798 66.7298 169.948 66.6818C169.462 66.6829 168.976 66.6897 168.492 66.7025C165.7 66.8182 162.956 67.3794 160.385 68.5165Z" fill="#17282F"/>
<path d="M141.237 76.7161C139.048 75.7157 137.356 73.8593 135.224 72.7412C133.191 71.6761 130.787 71.3343 128.537 71.7922C126.288 72.2501 124.209 73.5043 122.754 75.2794C123.912 76.0525 124.542 77.4129 125.609 78.3087C127.351 79.7719 129.916 79.7305 132.122 79.1697C134.329 78.609 136.436 77.6086 138.702 77.3963C139.573 77.315 140.553 77.31 141.237 76.7161Z" fill="white" stroke="black" stroke-width="0.5" stroke-miterlimit="10"/>
<path d="M120.962 75.2918C121.395 74.0144 122.038 72.7469 123.125 71.9473C123.96 71.3351 124.983 71.0498 125.99 70.8092C127.501 70.4476 129.029 70.1589 130.561 69.8984C131.828 69.6844 133.132 69.4903 134.388 69.7624C136.644 70.2535 138.296 72.1281 139.78 73.8966C139.746 74.0724 139.483 74.036 139.327 73.9497C138.355 73.4072 137.553 72.6042 136.614 72.0053C133.968 70.3182 130.562 70.4442 127.478 71.0299C126.222 71.2688 124.958 71.5807 123.85 72.2177C122.74 72.8548 121.791 73.8568 121.463 75.0927C121.375 75.4212 121.247 75.8409 120.907 75.8575C120.842 75.5606 120.924 75.2354 120.962 75.2918Z" fill="#CEAC87"/>
<path d="M130.085 72.0496C129.087 71.9782 128.066 72.4333 127.439 73.229C126.813 74.0248 126.601 75.1389 126.887 76.1142C127.028 76.5917 127.278 77.0324 127.577 77.4262C127.86 77.7996 128.189 78.1383 128.574 78.4015C129.815 79.2483 131.611 79.134 132.738 78.1342C133.865 77.1344 134.224 75.3409 133.57 73.9717C132.916 72.6046 131.306 71.7844 130.085 72.0496Z" fill="#17282F"/>
<rect x="114.145" y="65.4297" width="3.60449" height="10" rx="1.80225" transform="rotate(92.4554 114.145 65.4297)" fill="black"/>
<rect width="3.60449" height="10" rx="1.80225" transform="matrix(0.0428423 0.999082 0.999082 -0.0428423 185 67.4297)" fill="black"/>
<defs>
<linearGradient id="paint0_linear_714_4833" x1="63.8203" y1="279.791" x2="216.662" y2="133.964" gradientUnits="userSpaceOnUse">
<stop stop-color="#D9B430"/>
<stop offset="1" stop-color="#303030" stop-opacity="0"/>
</linearGradient>
</defs>
</svg>
