<svg width="263" height="330" viewBox="0 0 263 330" fill="none" xmlns="http://www.w3.org/2000/svg">
<circle cx="131.478" cy="192.978" r="129.478" fill="url(#paint0_linear_765_1635)" stroke="white" stroke-width="4"/>
<path d="M120.197 167.191C121.407 173.766 121.568 192.365 120.197 198.902C118.733 205.882 125.154 215.57 120.197 220.689C111.929 229.217 109.619 218.619 100.608 226.35C98.4551 228.197 96.6314 230.458 94.256 232.013C88.9994 235.461 82.1031 234.871 75.9807 233.477C65.5596 231.101 66.3442 229.619 60.5513 220.638C56.1453 213.811 68.96 181.917 64.1173 175.389C80.0171 183.089 72.4176 207.792 89.9879 205.884C107.551 203.976 116.6 190.614 125.565 175.389C127.611 171.894 117.093 168.111 120.197 167.191Z" fill="#F2DBC1" stroke="black" stroke-width="0.4" stroke-miterlimit="10"/>
<path d="M140.741 110.562C140.604 108.064 140.796 105.546 141.295 103.097C141.405 102.577 141.528 102.036 141.863 101.625C142.979 100.236 145.319 101.153 146.906 100.339C148.275 99.6343 148.672 97.8963 148.897 96.3772C150.724 84.1974 151.552 71.8602 151.368 59.5436C151.313 55.9717 151.162 52.3452 150.04 48.9581C148.918 45.571 146.68 42.396 143.43 40.918C142.199 40.6443 140.905 39.4127 140.584 38.0852C140.262 36.7577 140.597 35.3755 140.734 34.0207C141.111 30.2094 139.687 26.1038 136.581 23.8663C133.522 21.6698 129.362 21.533 126.242 19.4118C123.799 17.7559 122.122 14.9641 119.351 13.9309C117.572 13.2671 115.608 13.4382 113.733 13.1987C109.375 12.6376 105.406 9.63372 103.688 5.5829C100.89 2.04528 96.408 -0.192254 91.9671 0.0130237C88.8538 0.156718 85.8841 1.40892 82.7775 1.66894C79.1784 1.97001 75.586 0.923106 71.9799 1.12154C67.3133 1.37472 63.0504 3.6533 58.7464 5.48027C49.7757 9.2779 39.9019 11.317 31.9645 16.9758C26.9146 20.575 22.8638 25.5564 20.3731 31.2289C18.0809 36.4361 17.1161 42.1155 16.1923 47.7332C14.1806 59.9678 12.2715 72.4282 13.8864 84.7175C14.9675 92.9149 17.5882 100.825 20.3321 108.105C30.7328 115.954 44.0964 119.019 57.1247 119.225C70.153 119.423 83.0581 116.973 95.9016 114.784C108.745 112.594 121.787 110.644 134.761 111.855C137.067 112.074 139.92 112.115 140.741 110.562Z" fill="#17282F"/>
<path d="M106.219 205.564C113.698 204.407 118.639 197.394 122.683 190.996C126.644 184.728 130.627 178.412 133.343 171.515C135.93 164.946 137.326 157.973 138.366 150.987C140.022 139.82 140.795 128.543 141.568 117.28C141.719 115.111 141.862 112.894 141.274 110.801C140.569 108.276 138.865 106.175 137.449 103.965C134.37 99.1681 132.515 93.5914 132.119 87.9052C131.947 85.4898 132.03 83.0196 131.345 80.6931C129.156 73.2552 120.212 69.9023 116.593 63.0461C115.717 61.3902 115.354 58.9884 116.907 57.9347C117.407 57.5926 118.023 57.4762 118.577 57.2367C121.677 55.9093 121.991 51.2768 120.007 48.5535C118.023 45.8301 114.656 44.5506 111.481 43.4147C97.0434 38.0364 80.6965 38.9602 66.6692 45.2348C63.5421 46.6376 60.4971 48.3003 57.1922 49.2035C49.9595 51.181 42.0222 49.3746 34.9195 51.79C27.858 54.1918 22.4934 60.9523 21.7613 68.3765C21.4123 71.8867 22.0212 75.4791 21.2617 78.9277C20.3311 83.1565 17.3888 87.2962 19.0174 91.2855C19.5032 100.756 19.989 110.233 20.4748 119.703C20.9128 128.215 21.3507 136.748 22.6576 145.164C23.4719 150.426 24.6351 155.667 26.6811 160.58C28.6107 165.22 31.2998 169.51 34.2011 173.615C41.2421 183.578 49.6243 192.597 58.8139 199.98C64.0553 203.559 69.6594 206.699 75.7356 208.526C81.8118 210.353 88.4081 210.805 94.5048 209.046C97.1803 208.273 99.7736 207.076 102.552 206.843C104.214 206.686 106.247 206.713 106.219 205.564Z" fill="#F2DBC1"/>
<path d="M119.436 91.829C117.41 90.1731 115.392 88.5104 113.366 86.8545C111.218 85.0891 109.035 83.31 106.49 82.1878C102.268 80.3267 97.3547 80.4703 92.9344 81.791C88.5141 83.1184 84.5043 85.5407 80.7067 88.1683C79.4203 89.0578 77.7302 90.0021 76.3959 89.1809C75.5611 88.6677 75.2326 87.6345 75.0342 86.6697C74.5142 84.0969 74.5347 81.4146 74.7605 79.1976C79.4545 75.5437 85.606 74.5036 91.4769 73.5798C95.0488 73.0188 98.7506 72.4645 102.24 73.4225C104.177 73.9562 105.963 74.9347 107.632 76.05C113.859 80.2035 118.717 86.3618 121.304 93.3823C120.62 92.8896 120.011 92.3012 119.436 91.829Z" fill="#17282F"/>
<path d="M22.8794 96.1809C25.5275 92.0686 25.5138 86.1702 29.4688 83.2895C30.8647 82.2699 32.5754 81.7978 34.2586 81.4215C40.6017 79.9914 47.1775 79.5945 53.6437 80.2445C54.2116 80.2993 54.7933 80.3745 55.2791 80.6756C55.8539 81.0383 56.196 81.6678 56.5108 82.2631C57.6877 84.5143 58.8646 86.7587 60.0347 89.0099C60.2331 89.3862 60.411 89.8994 60.11 90.2005C59.9321 90.3716 59.6583 90.3921 59.412 90.3921C52.8773 90.4811 46.6027 88.0656 40.1638 86.9435C35.9351 86.2045 30.9332 86.3071 28.1688 89.5915C26.0681 92.0959 25.7054 96.0167 22.9273 97.7342C22.5304 97.0568 22.6125 96.1467 22.8794 96.1809Z" fill="#17282F"/>
<path d="M58.5421 108.449C57.0025 110.687 56.0651 113.328 55.853 116.038C55.764 117.187 55.7914 118.364 55.4493 119.466C54.9566 121.046 53.7386 122.292 52.9859 123.77C51.0221 127.602 52.8354 132.891 56.7357 134.711C58.46 135.512 60.6291 135.635 62.5929 134.519C64.5157 132.911 67.3212 133.089 69.8187 133.349C71.9331 133.575 74.0405 133.801 76.1549 134.02" stroke="#CEAC87" stroke-width="0.4" stroke-miterlimit="10"/>
<path d="M81.7137 118.543C82.569 120.302 83.3559 122.101 84.0607 123.928C84.6902 125.557 85.265 127.274 85.0802 129.012C84.8955 130.743 83.7322 132.495 82.0216 132.817C81.3305 132.947 80.6188 132.837 79.9209 132.837C78.4839 132.837 77.0539 133.316 75.9043 134.165" stroke="#CEAC87" stroke-width="0.4" stroke-miterlimit="10"/>
<path d="M62.0934 130.959C61.1901 129.925 60.2869 128.892 59.3769 127.859C59.11 127.558 58.7337 127.223 58.3573 127.38C58.1315 127.476 58.0152 127.722 57.851 127.914C57.461 128.379 56.7562 128.55 56.4825 129.091C56.2361 129.577 56.4482 130.192 56.8383 130.576C57.2283 130.959 57.7552 131.15 58.2684 131.342C58.939 131.588 59.6232 131.835 60.3349 131.841C61.0602 131.848 61.8197 131.581 62.0934 130.959Z" fill="#17282F"/>
<path d="M69.2482 128.972C69.1798 128.055 69.6998 127.152 70.4457 126.605C71.1915 126.057 72.129 125.832 73.0527 125.797C73.6343 125.777 74.216 125.825 74.7771 125.996C76.3714 126.475 77.5551 127.912 78.0341 129.506C78.082 129.677 78.1299 129.869 78.0478 130.026C77.9315 130.266 77.6167 130.307 77.3498 130.32C76.5766 130.361 75.8103 130.396 75.0371 130.437C74.7634 130.45 74.4691 130.464 74.2296 130.334C73.9764 130.204 73.8122 129.944 73.6001 129.746C72.4642 128.678 70.4252 129.533 69.2482 128.972Z" fill="#17282F"/>
<path d="M91.5039 155.64C91.2781 154.08 89.9575 152.882 88.5342 152.191C87.1178 151.5 85.544 151.171 84.1071 150.515C82.2048 149.646 80.6037 148.236 78.8041 147.162C77.0045 146.087 74.8217 145.342 72.8305 145.985C71.5235 146.409 70.4082 147.401 69.0397 147.524C67.3838 147.675 65.8852 146.505 64.2293 146.313C61.6291 146.005 59.4258 148.085 57.6468 150.001C55.3271 152.499 52.9254 155.133 52.3438 158.568C62.0876 162.612 73.2547 163.146 83.3407 160.046C86.3651 159.123 89.3485 157.843 91.5039 155.64Z" fill="#99746C"/>
<path d="M57.6797 156.936C59.055 155.15 60.5741 153.269 62.7295 152.619C65.2955 151.845 68.0462 153.029 70.7217 152.858C72.2681 152.755 73.7392 152.208 75.2583 151.921C79.0833 151.195 83.2094 152.215 86.2543 154.644C85.4195 155.102 84.3932 154.801 83.4694 154.582C80.3287 153.85 77.0442 154.199 73.8351 154.562C71.3649 154.836 68.8947 155.116 66.4314 155.417C63.6122 155.766 60.7794 156.156 57.6797 156.936Z" fill="white"/>
<path d="M140.221 114.869C139.51 112.316 138.798 109.689 139.058 107.054C139.318 104.42 140.782 101.724 143.266 100.787C144.176 100.444 145.162 100.349 146.065 99.986C148.364 99.0486 149.89 96.4279 152.36 96.1747C153.9 96.0173 155.398 96.8863 156.377 98.0837C157.355 99.2812 157.909 100.759 158.402 102.224C159.381 105.132 160.215 108.218 159.682 111.242C159.066 114.725 156.726 117.619 155.316 120.863C154.119 123.627 153.605 126.638 152.976 129.587C152.045 133.918 150.841 138.195 149.356 142.376C148.775 144.025 148.042 145.783 146.516 146.646C144.224 147.946 141.152 146.44 139.886 144.134C138.62 141.828 138.702 139.037 138.962 136.416C139.722 128.916 141.98 121.212 140.221 114.869Z" fill="#F2DBC1"/>
<path d="M142.447 117.144C142.906 114.571 143.891 112.087 145.328 109.905C146.06 108.789 146.916 107.749 147.648 106.627C149.071 104.458 150.132 101.912 152.253 100.414C153.471 99.5518 155.263 99.1618 156.386 100.147" stroke="#CEAC87" stroke-width="0.4" stroke-miterlimit="10"/>
<path d="M152.141 106.465C150.909 109.701 151.99 113.301 152.934 116.633C153.29 117.878 153.618 119.151 153.646 120.444C153.673 121.607 153.447 122.764 153.126 123.879C152.223 127.006 150.526 129.901 148.24 132.214" stroke="#CEAC87" stroke-width="0.4" stroke-miterlimit="10"/>
<path d="M20.1196 111.622C19.7022 110.897 19.2847 110.178 18.8674 109.453C17.5467 109.467 16.2671 110.274 15.6855 111.451C15.5692 111.691 15.4734 111.944 15.5008 112.211C15.535 112.594 15.8087 112.902 16.0551 113.196C18.5868 116.2 19.5585 120.223 19.8527 124.144C20.0101 126.265 20.0101 128.482 20.9543 130.391C20.8517 125.39 20.7422 120.388 20.6396 115.386C20.6054 113.785 20.4822 112.252 20.1196 111.622Z" fill="#F2DBC1" stroke="#CEAC87" stroke-width="0.4" stroke-miterlimit="10"/>
<path d="M99.5271 164.429C99.5682 159.845 99.0345 155.26 97.9533 150.812C97.1801 147.637 95.839 144.189 92.8625 142.834C91.3639 142.15 89.6533 142.109 88.0795 141.623C85.404 140.795 83.3239 138.756 81.1137 137.031C78.9036 135.314 76.187 133.802 73.4363 134.335C71.8762 134.637 70.5008 135.567 68.9749 136.005C67.0453 136.559 64.89 136.279 63.234 135.252C61.2155 134.65 59.539 136.751 58.2663 138.427C57.0004 140.104 55.5087 141.609 53.8528 142.896C52.0738 144.278 50.0826 145.42 48.5704 147.09C45.4365 150.539 44.8891 155.568 44.8343 160.228C44.7933 163.724 44.9438 167.221 45.6691 171.361C46.8802 167.803 48.0914 164.251 49.3025 160.693C49.8841 158.989 50.4726 157.272 51.3416 155.691C52.3475 153.864 53.7092 152.27 55.064 150.682C56.583 148.91 58.15 147.09 60.2233 146.009C62.3787 144.887 64.8831 144.668 67.3054 144.702C74.4422 144.798 81.5379 146.926 87.881 150.771C89.9817 152.065 91.1655 154.432 93.0198 156.054C93.6357 156.594 94.3268 157.046 94.9221 157.614C95.7637 158.415 96.3795 159.42 96.9885 160.413C98.1791 162.363 99.4177 164.47 99.274 166.749C99.7666 165.818 99.7871 164.634 99.5271 164.429Z" fill="#17282F"/>
<path d="M77.2148 173.118C79.3908 172.824 81.293 171.072 81.7583 168.93C82.2236 166.789 81.2246 164.401 79.3702 163.231C79.0897 163.053 78.7818 162.895 78.4534 162.834C78.0633 162.758 77.6664 162.813 77.2764 162.868C74.5462 163.231 71.7955 163.388 68.9079 163.511C67.4436 164.127 65.9862 164.736 64.5219 165.352C64.0702 166.987 64.734 168.78 65.8767 170.032C67.0194 171.284 68.5726 172.078 70.1464 172.708C72.6303 173.686 75.2237 173.385 77.2148 173.118Z" fill="#17282F"/>
<path d="M134.333 99.3438C133.395 105.153 136.324 110.86 136.823 116.724C137.542 125.243 133.101 133.338 128.003 140.201C122.899 147.064 116.905 153.462 113.675 161.379C113.182 162.583 112.717 163.876 111.725 164.718C110.993 165.341 110.055 165.642 109.186 166.045C104.526 168.221 101.516 173.552 96.4179 174.243C92.2439 176.514 87.7415 178.164 83.0885 179.135C82.3564 179.286 81.5969 179.423 80.8715 179.251C80.0983 179.067 79.4551 178.554 78.7572 178.157C76.1775 176.699 72.9684 176.987 70.1082 177.767C67.248 178.547 64.4904 179.772 61.5412 180.079C57.7162 180.483 53.8228 179.272 50.6341 177.137C47.4386 174.995 44.9069 171.978 42.9499 168.673C41.1366 165.621 39.7681 162.282 37.558 159.504C35.3478 156.726 32.3918 154.618 30.079 151.922C25.3302 146.387 23.7017 138.887 22.5385 131.682C22.2648 130.005 21.7995 128.042 20.2257 127.398C19.2061 132.154 19.9109 137.087 20.6225 141.891C21.8132 149.958 23.0106 158.067 25.5424 165.819C29.08 176.631 35.2246 186.573 43.4152 194.469C48.944 200.156 55.4513 205.069 62.9234 207.724C65.161 208.517 67.4669 209.106 69.7729 209.694C74.1453 210.81 78.5451 211.925 83.0475 212.24C92.9487 212.938 102.85 209.674 111.287 204.432C113.346 203.153 115.358 201.729 116.959 199.902C117.972 198.746 118.807 197.439 119.635 196.146C120.976 194.052 122.317 191.958 123.651 189.864C128.414 182.42 133.211 174.906 136.591 166.976C139.601 152.709 140.662 138.107 141.716 123.566C141.935 120.522 142.154 117.463 141.846 114.432C141.251 108.752 138.739 103.285 134.333 99.3438Z" fill="#17282F"/>
<path d="M120.572 87.668C123.035 87.9348 125.491 88.2017 127.955 88.4686C130.582 88.756 133.271 89.057 135.632 90.2545C138.013 91.4656 139.854 93.4842 141.879 95.9338C140.668 96.5702 139.19 96.1459 137.89 95.7149C134.414 94.5585 130.938 93.4089 127.455 92.2525C125.663 91.6572 123.808 91.0551 121.933 91.2535C121.673 91.2809 121.393 91.3151 121.174 91.1782C120.989 91.0551 120.9 90.8361 120.818 90.624C120.421 89.5702 120.045 88.3112 120.572 87.668Z" fill="white"/>
<path d="M24.197 113.882C27.023 115.832 30.5264 116.523 33.9477 116.838C40.7629 117.468 47.6944 116.79 54.2565 114.84C54.8381 114.669 55.4403 114.47 55.8508 114.026C56.1382 113.718 56.3024 113.314 56.4598 112.924C57.0209 111.535 57.5888 110.146 58.1499 108.75C60.3464 105.746 61.9749 102.407 63.1723 98.9241C63.7334 97.3024 64.3219 95.4892 65.8204 94.6475C67.6816 93.6006 70.145 94.6407 71.4519 96.3308C72.7588 98.0209 73.2378 100.183 73.84 102.229C75.2701 107.108 77.7608 111.932 82.01 114.717C90.9738 116.79 100.616 116.623 109.518 113.852C111.984 113.084 113.041 112.582 114.033 111.042C115.026 109.51 115.416 107.669 115.758 105.876C116.285 103.057 116.722 100.217 117.051 97.364C117.181 96.235 117.304 95.0923 117.728 94.0386C118.153 92.9848 118.919 92.0131 119.993 91.6299C120.602 91.411 121.382 91.3015 121.615 90.6994C121.704 90.4667 121.683 90.1998 121.656 89.9467C121.533 88.9066 121.314 87.8802 121.006 86.8812C111.721 86.9496 102.835 83.5225 93.0681 84.0371C86.8994 84.3621 81.8937 84.8968 76.8575 87.1754C75.1743 87.9349 73.5936 88.9203 71.8624 89.5566C68.8243 90.672 65.3757 90.6378 62.2486 89.4266C55.4266 86.1627 47.6397 84.9516 40.2497 85.8343C34.6935 85.8616 29.1373 86.5596 23.7385 87.8939C21.5215 88.4413 19.2429 89.105 16.9917 88.6945C16.7727 88.6534 16.5401 88.6055 16.3417 88.6876C16.0885 88.7903 15.9516 89.0708 15.8422 89.324C15.4521 90.2272 15.0621 91.192 15.1853 92.1705C15.3084 93.149 16.1637 94.107 17.2791 94.148C16.9233 95.7013 17.1628 97.3777 18.2508 99.102C19.674 103.406 21.2136 107.669 22.8558 111.891C23.2801 113.034 23.9301 114.327 24.197 113.882Z" fill="black"/>
<path d="M113.739 106.115C113.117 109.225 111.042 111.92 107.976 112.824C106.218 113.344 104.155 113.708 102.322 113.852C99.7557 114.057 97.5285 114.593 94.9625 114.743C92.8619 114.866 90.7543 114.613 88.6605 114.36C86.2793 114.073 83.7954 113.751 81.7974 112.423C80.0525 111.26 78.8551 109.447 77.8492 107.613C76.5902 104.322 75.4953 100.839 74.6263 97.3013C74.3184 96.0491 74.0311 94.7696 74.0653 93.4764C74.0926 92.1831 74.9748 91.2309 75.5906 90.2046C85.1497 85.6953 95.6878 85.2994 106.205 86.3532C108.655 86.5995 111.398 87.0717 112.603 89.275C113.91 90.8762 114.17 93.0658 114.307 95.1323C114.484 97.794 114.714 98.8458 114.659 101.514C114.625 102.637 114.145 104.599 113.739 106.115Z" fill="#F2DBC1"/>
<path d="M52.8168 113.785C54.8764 113.621 56.2175 111.595 57.155 109.748C59.2283 105.67 60.98 101.311 61.2263 96.7401C61.3837 93.832 60.72 90.5613 58.3251 88.9054C56.7376 88.0637 54.8217 87.7147 52.9468 87.4889C44.5031 86.4625 35.9361 87.4889 27.595 89.138C26.1854 89.4185 24.728 89.7333 23.5579 90.5681C22.3878 91.4029 21.5598 92.8946 22.0183 93.9757C21.4777 98.5192 21.7993 103.158 22.9694 107.579C23.5578 109.803 24.5021 112.156 26.8628 113.21C29.8804 114.476 33.2128 114.702 36.4767 114.921C42.2039 115.297 47.808 114.175 52.8168 113.785Z" fill="#F2DBC1" stroke="black" stroke-miterlimit="10"/>
<path d="M107.374 99.3399C106.293 98.3956 105.205 97.4582 104.124 96.5139C103.125 95.6449 102.112 94.769 100.956 94.1326C97.4594 92.2099 92.8475 92.812 89.7342 95.2959C88.8446 96.0075 88.0646 96.8491 87.2982 97.6908C86.0665 99.0319 84.8349 100.373 83.918 101.967C86.1008 101.276 88.4409 102.05 90.6716 102.556C94.565 103.445 98.6364 103.534 102.564 102.809C103.618 102.611 104.692 102.351 105.588 101.762C106.485 101.174 107.19 100.195 107.374 99.3399Z" fill="white" stroke="black" stroke-width="0.5" stroke-miterlimit="10"/>
<path d="M92.1985 94.0551C90.7684 95.4031 91.0148 98.0854 92.6707 99.1528C93.2865 99.5497 94.0187 99.7276 94.744 99.8302C95.7499 99.9739 96.8652 99.9603 97.6726 99.3376C98.5211 98.6807 98.7948 97.5312 98.9864 96.4706C99.1438 95.6084 99.3793 95.1097 98.6648 93.9593C98.1447 93.3777 97.0802 93.1048 96.3001 93.0569C94.5347 92.9474 92.9444 93.3503 92.1985 94.0551Z" fill="#17282F"/>
<path d="M35.0156 103.832C35.4672 100.658 38.1906 98.0573 41.3108 97.3252C44.431 96.593 47.8044 97.5441 50.3978 99.4395C51.5473 100.281 52.6284 101.328 54.0175 101.636C54.4075 101.718 54.8317 101.745 55.1739 101.951C55.516 102.156 55.7487 102.635 55.5297 102.97C55.3244 103.285 54.8796 103.292 54.5033 103.278C49.3919 103.128 44.6637 105.837 39.6275 106.754C38.5875 106.946 37.4174 107.035 36.5552 106.426C35.5972 105.755 35.3304 104.483 35.0156 103.832Z" fill="white" stroke="black" stroke-width="0.5" stroke-miterlimit="10"/>
<path d="M39.706 98.1114C39.0902 98.7888 38.7275 99.7057 38.8028 100.609C38.8781 101.512 39.4255 102.395 40.2534 102.778C41.3072 103.271 42.5731 102.929 43.5652 102.326C45.0227 101.451 46.138 100.034 46.6649 98.4193C46.7265 98.2346 46.7744 98.0225 46.6855 97.8514C46.6034 97.694 46.4254 97.6051 46.2544 97.5435C44.0442 96.695 41.143 96.5308 39.706 98.1114Z" fill="#17282F"/>
<path d="M84.2305 95.5604C86.5775 94.8214 88.2539 92.8028 90.3203 91.4754C93.639 89.3542 97.9978 89.142 101.679 90.5379C105.36 91.9338 108.378 94.8214 110.342 98.2358" stroke="#CEAC87" stroke-width="0.4" stroke-miterlimit="10"/>
<path d="M31.3184 104.736C32.2353 101.301 33.3437 97.5857 36.2587 95.5603C37.8256 94.4723 39.7553 94.0139 41.6575 93.9591C44.2098 93.8838 46.7758 94.5202 48.9996 95.7724C51.0182 96.9083 52.7493 98.53 54.8774 99.4469" stroke="#CEAC87" stroke-width="0.4" stroke-miterlimit="10"/>
<path d="M22.9273 97.7307C25.7054 96.0132 26.0681 92.0925 28.1688 89.5881C28.246 89.4964 28.3249 89.4071 28.4055 89.3203C27.2005 89.5037 26.5775 89.662 25.4414 89.9788C24.7236 92.1149 24.071 94.327 22.8794 96.1775C22.6125 96.1433 22.5304 97.0533 22.9273 97.7307Z" fill="#17282F"/>
<path d="M45.4818 222.987L45.4984 222.97L45.5105 222.949L54.2868 208.198L89.0114 234.374L89.1411 234.472L89.2635 234.365L122.298 205.477L134.959 230.668L134.999 230.748L135.085 230.771L197.565 247.781L195.139 302.895C113.475 342.361 44.8528 297.659 18.7602 250.382L45.4818 222.987Z" fill="#7687C1" stroke="black" stroke-width="0.4"/>
<path d="M194.047 237.548C185.853 227.364 112.067 214.709 112.067 214.709C100.754 236.675 83.4484 236.913 66.8943 212.222L11.6887 235.542C37.526 308.678 119.261 340.036 186.751 307.803L194.047 237.548Z" fill="#7687C1"/>
<path d="M23.015 230.335C36.1436 231.084 21.1332 236.135 24.8967 248.766C25.6243 251.207 26.0669 258.229 26.7955 264.633C19.0511 253.966 13.2336 241.132 10.5419 233.161C17.0865 231.36 23.015 230.335 23.015 230.335Z" fill="#7687C1"/>
<path d="M156.575 276.623C157.162 274.468 157.523 273.29 157.602 273.31C157.682 273.331 157.472 274.55 157.027 276.729C156.534 278.897 155.99 282.069 155.401 285.989C154.91 289.926 154.357 294.623 154.282 299.867C154.152 305.109 154.671 311.283 155.064 317.336C154.546 317.489 152.907 317.749 152.372 317.75C151.98 311.677 152.996 305.116 153.188 299.835C153.325 294.546 153.967 289.815 154.568 285.865C155.271 281.93 155.942 278.766 156.575 276.623Z" fill="#17282F"/>
<path d="M24.082 329.07C23.9746 328.973 23.8694 328.875 23.762 328.777C23.7529 328.823 23.746 328.866 23.7369 328.907C23.8535 328.961 23.9678 329.016 24.082 329.07Z" fill="#CC4341"/>
<path d="M23.7503 328.906C23.7594 328.865 23.7662 328.822 23.7754 328.777C23.6817 328.693 23.5903 328.609 23.4943 328.525C23.4897 328.615 23.4875 328.699 23.4829 328.781C23.572 328.822 23.6634 328.863 23.7503 328.906Z" fill="#0F191D"/>
<path d="M153.191 299.829C152.999 305.109 153.33 311.464 153.723 317.537C150.369 318.126 148.479 318.369 145.13 318.676C145.072 315.212 145.306 310.618 145.836 304.192C147.158 288.13 151.663 280.977 157.329 273.857L157.471 273.574C157.302 274.034 156.998 275.076 156.578 276.616C155.945 278.759 155.274 281.923 154.57 285.858C153.97 289.808 153.328 294.539 153.191 299.829Z" fill="#5F6FA7"/>
<path d="M38.9069 228.993C38.7373 229.203 41.082 231.659 44.8491 235.624C48.6145 239.592 53.7776 245.105 59.2427 251.434C60.393 252.781 61.5185 254.1 62.607 255.374L63.3332 256.223L63.9852 255.328C68.2188 249.501 71.88 244.324 74.4385 240.566C76.9988 236.806 78.4548 234.468 78.2763 234.318C78.0996 234.168 76.3203 236.234 73.5109 239.781C70.7032 243.327 66.8653 248.356 62.5716 254.134L63.9481 254.089C62.8597 252.8 61.7323 251.466 60.582 250.102C55.078 243.729 49.733 238.332 45.7256 234.606C41.7128 230.882 39.0659 228.794 38.9069 228.993Z" fill="#17282F"/>
<path d="M80.0242 232.486C79.7884 232.593 81.3883 236.609 84.1656 243.019C84.8894 244.668 85.6531 246.413 86.4586 248.249C87.3783 250.148 87.9841 252.076 89.3447 254.304C89.9995 255.375 91.5705 256.493 93.214 256.164C94.7777 255.88 95.8243 254.973 96.8511 254.317C98.9463 252.894 101.103 251.43 103.313 249.926C112.158 243.886 120.103 238.332 125.801 234.237C131.501 230.141 134.951 227.503 134.804 227.291C134.657 227.081 130.94 229.337 125.05 233.156C119.158 236.976 111.095 242.357 102.25 248.398C100.046 249.911 97.8978 251.386 95.8098 252.82C94.754 253.544 93.7963 254.272 92.9219 254.416C92.0784 254.578 91.3473 254.137 90.7505 253.314C88.6716 249.561 86.9356 245.513 85.3701 242.472C82.2845 236.203 80.26 232.38 80.0242 232.486Z" fill="#17282F"/>
<path d="M192.411 236.125C201.729 242.111 207.936 252.069 211.475 262.56C214.27 270.845 215.444 278.891 216.414 287.603C199.449 302.511 179.658 313.485 157.297 317.419C157.027 315.303 155.898 309.94 157.903 309.209C156.989 304.002 157.364 298.574 158.984 293.539C160.427 289.068 162.845 284.827 163.192 280.144C163.451 276.643 162.523 273.134 162.778 269.633C163.091 265.315 161.944 259.955 164.232 256.277C165.194 249.785 171.445 238.486 185.148 236.803C186.691 237.005 189.716 236.125 192.411 236.125Z" fill="#7687C1" stroke="black" stroke-width="0.4" stroke-miterlimit="10"/>
<path d="M82.4056 263.581C78.7033 266.409 74.3903 268.919 72.1786 273.058C68.8984 280.914 64.9628 291.571 61.6826 299.427C49.4424 291.191 42.0601 283.902 31.8672 272.182C34.5094 267.979 38.6739 263.267 40.4639 259.971C42.4112 256.388 44.3633 252.782 45.6759 248.921C46.7337 245.801 47.3636 242.555 47.9887 239.319C49.0417 233.877 50.0898 228.434 50.9649 223.106L53.5469 216.082C54.0037 214.851 54.4557 213.605 54.6913 212.312C55.0807 210.163 54.8451 207.932 55.3115 205.797C55.9846 202.729 58.0858 199.849 57.5377 196.757C57.4319 196.171 57.2299 195.579 57.3453 194.993C57.4607 194.411 58.0666 193.863 58.7878 194.175C60.663 193.969 62.2785 195.483 63.3315 197.051C66.2693 201.417 67.0867 207.143 65.4808 212.187C66.7934 211.038 67.4233 209.312 68.3801 207.855C70.0678 205.287 72.7556 203.58 74.9914 201.474C77.8426 198.787 79.9726 195.416 82.6844 192.579C85.3962 189.742 89.012 187.367 92.8393 187.718C93.623 187.728 94.2673 188.319 94.7866 188.906C95.503 189.718 96.1425 190.593 96.6955 191.517C96.9022 191.858 97.0994 192.219 97.335 193.026C97.6283 191.964 98.8784 191.377 99.965 191.55C101.052 191.723 101.96 192.483 102.624 193.363C103.287 194.238 103.759 195.243 104.355 196.171C104.653 196.637 104.985 197.094 105.095 197.633C105.235 198.325 104.98 199.027 104.879 199.724C104.624 201.498 105.302 203.518 104.196 205.268C105.932 207.46 107.153 210.062 107.73 212.802C107.865 213.456 107.966 214.134 107.836 214.788C107.711 215.413 107.384 215.976 107.057 216.519C105.307 219.428 103.384 222.231 101.297 224.909C100.648 225.741 99.9746 226.578 99.6333 227.573C99.3015 228.535 99.3063 229.573 99.3159 230.588C99.3448 233.405 99.4121 236.223 99.2871 239.118C96.4118 248.772 90.4112 257.465 82.4056 263.581Z" fill="#F2DBC1" stroke="black" stroke-width="0.4" stroke-miterlimit="10"/>
<path d="M85.8446 208.565C89.095 205.021 91.9654 201.131 94.3887 196.977C95.1436 195.679 95.9562 194.27 97.341 193.684C96.2735 195.083 95.2879 196.549 94.3935 198.064C92.1433 201.872 90.3499 206.146 86.8928 208.906C86.6139 209.127 86.2581 209.349 85.9264 209.224C85.5898 209.099 85.6331 208.45 85.8446 208.565Z" fill="#CEAC87" stroke="#CEAC87" stroke-miterlimit="10"/>
<path d="M95.5358 218.773C95.7474 216.984 96.7523 215.383 97.8822 213.979C99.0121 212.575 100.296 211.282 101.229 209.738C102.157 208.209 102.729 206.435 103.96 205.137C102.859 210.503 97.2139 213.96 95.8435 219.263C95.5406 219.33 95.2569 218.927 95.5358 218.773Z" fill="#CEAC87" stroke="#CEAC87" stroke-miterlimit="10"/>
<path d="M61.5586 215.377C62.1981 214.069 63.5732 213.151 65.0253 213.055L61.5586 215.377Z" fill="#CEAC87"/>
<path d="M61.5586 215.377C62.1981 214.069 63.5732 213.151 65.0253 213.055" stroke="#CEAC87" stroke-miterlimit="10"/>
<path d="M57.8116 194.652C57.35 194.849 56.8932 195.042 56.4316 195.239C56.6095 197.494 56.6961 199.754 56.6961 202.014C57.6337 200.331 58.1001 198.388 58.0328 196.46C58.0087 195.816 57.9077 195.124 57.8116 194.652Z" fill="white"/>
<path d="M94.0713 188.494C94.5164 188.24 95.3887 188.206 95.8792 188.653C96.3696 189.1 96.6148 189.749 96.8408 190.37C97.0524 190.956 97.2639 191.543 97.4803 192.134C97.6293 192.553 97.6466 193.159 97.4013 193.529C96.8003 192.202 96.1416 191.072 95.2377 189.923C95.0405 189.673 94.8502 189.182 94.5617 189.047C94.3982 188.97 94.2203 188.937 94.0761 188.831C93.9318 188.725 93.8405 188.514 93.9463 188.369C93.9463 188.396 94.0356 188.481 94.0713 188.494Z" fill="white"/>
<path d="M193.804 237.049L189.717 233.924L188.996 233.683C165.142 225.743 151.488 222.197 128.479 217.941" stroke="#17282F" stroke-width="0.4"/>
<path d="M163.801 257.281C163.985 257.324 164.358 255.083 165.883 251.835C167.372 248.605 170.248 244.392 174.732 241.284C179.22 238.181 184.177 236.973 187.723 236.715C191.301 236.432 193.529 236.872 193.555 236.687C193.567 236.623 193.025 236.448 192.017 236.266C191.009 236.083 189.522 235.935 187.681 235.984C184.026 236.059 178.828 237.195 174.144 240.435C169.463 243.677 166.572 248.144 165.215 251.538C164.52 253.245 164.132 254.687 163.951 255.695C163.765 256.703 163.739 257.271 163.801 257.281Z" fill="#17282F"/>
<path d="M46.669 220.699L24.311 230.556L22.8685 230.316C18.6364 231.111 14.9943 231.905 11.6816 232.786" stroke="black" stroke-width="0.4"/>
<defs>
<linearGradient id="paint0_linear_765_1635" x1="21.3887" y1="281.993" x2="225.001" y2="95.3655" gradientUnits="userSpaceOnUse">
<stop stop-color="#D9B430"/>
<stop offset="1" stop-color="#303030" stop-opacity="0"/>
</linearGradient>
</defs>
</svg>
