<svg width="227" height="325" viewBox="0 0 227 325" fill="none" xmlns="http://www.w3.org/2000/svg">
<circle cx="113.498" cy="211.451" r="111.197" fill="url(#paint0_linear_714_2804)" stroke="white" stroke-width="4"/>
<path d="M64.0234 188.515L129.956 186.977L130.655 202.498L74.2315 218.929L64.0234 188.515Z" fill="#5F6FA7"/>
<path fill-rule="evenodd" clip-rule="evenodd" d="M64.5794 175.789C64.4647 182.407 65.4394 192.902 67.2922 200.366C66.4843 203.184 70.3203 207.751 69.5123 210.569C68.6132 220.161 76.8758 215.128 82.2636 231.808C86.808 229.163 91.1504 226.493 93.4342 223.566C88.4844 216.778 97.5756 218.952 103.268 214.831C111.653 210.636 119.395 200.176 127.2 190.169C127.2 186.416 129.858 170.636 130.303 166.699C111.521 169.974 83.3615 172.514 64.5794 175.789Z" fill="#F2DBC1"/>
<path d="M53.3868 209.4L29.403 234.239L12.7752 252.345L19.5573 264.93C81.0277 309.954 97.8855 336.82 185.193 269.265L186.797 231.239L142.048 205.038L130.134 186.978L91.7148 219.417L64.0369 188.44L53.3868 209.4Z" fill="#7687C1"/>
<path d="M181.484 222.789C174.309 213.822 126.111 201.425 126.111 201.425C116.203 220.766 86.8276 224.478 72.3308 202.738L28.1502 212.241L25.289 273.461C41.51 294.576 62.9749 308.14 86.2576 314.243C114.854 321.914 155.966 318.488 179.738 293.737L181.484 222.789Z" fill="#7687C1"/>
<path d="M180.277 221.418C188.011 226.264 195.167 235.103 197.239 247.14C197.38 247.962 202.213 272.601 202.465 275.134C192.257 288.069 176.385 302.612 152.264 311.352C153.712 293.987 155.907 262.494 159.204 252.035C165.972 230.562 174.178 217.597 180.277 221.418Z" fill="#7687C1"/>
<path d="M28.1404 212.046C39.6309 212.706 32.2497 223.612 35.5436 234.747C37.9395 242.839 61.8553 308.278 42.0683 291.358C22.2814 274.438 9.55641 250.805 5.33387 230.04C1.11134 209.274 28.1404 212.046 28.1404 212.046Z" fill="#7687C1"/>
<path d="M151.835 259.767C152.314 257.45 152.616 256.181 152.699 256.198C152.781 256.216 152.635 257.52 152.302 259.856C151.92 262.182 151.543 265.575 151.16 269.765C150.879 273.967 150.577 278.979 150.793 284.545C150.953 290.112 151.452 296.219 152.19 302.618C152.437 304.641 153.773 308.77 154.01 310.727L151.492 311.706C151.222 309.536 151.258 305.021 150.983 302.761C150.243 296.341 149.774 290.182 149.675 284.57C149.52 278.952 149.91 273.9 150.303 269.677C150.801 265.467 151.309 262.074 151.835 259.767Z" fill="#17282F"/>
<path d="M38.5322 248.455C38.7177 247.128 38.8552 246.398 38.9303 246.403C39.0074 246.409 39.0094 247.149 38.9532 248.483C38.8698 250.009 38.7656 251.895 38.6447 254.128C38.3175 259.098 37.8944 265.577 37.4255 272.74C37.0717 277.598 36.6695 282.147 36.2525 286.047L35.3869 285.138C35.6893 281.433 36.0119 277.191 36.3416 272.682C36.8731 265.419 37.3921 258.838 37.8798 254.082C38.1237 251.705 38.3425 249.782 38.5322 248.455Z" fill="#17282F"/>
<path d="M149.678 284.494C149.769 290.109 150.244 296.271 151.001 302.694C151.264 304.81 152.072 309.318 152.332 311.356C148.975 312.684 145.549 313.593 143.312 314.292C142.182 306.916 141.728 302.385 142.109 289.536C142.617 272.416 147.003 264.573 152.623 256.7L152.757 256.391C152.604 256.89 152.339 258.013 151.979 259.67C151.427 261.979 150.89 265.376 150.363 269.59C149.946 273.816 149.528 278.873 149.678 284.494Z" fill="#5F6FA7"/>
<path d="M56.7235 213.597C56.575 213.782 58.6282 215.946 61.927 219.438C65.2242 222.933 69.7453 227.789 74.531 233.364C75.5382 234.551 76.5238 235.713 77.4769 236.834L78.1129 237.582L78.6838 236.794C82.391 231.661 85.597 227.101 87.8374 223.791C90.0794 220.479 91.3543 218.419 91.1981 218.288C91.0433 218.156 89.4852 219.975 87.0251 223.1C84.5665 226.223 81.2058 230.653 77.446 235.743L78.6513 235.702C77.6982 234.567 76.711 233.392 75.7038 232.19C70.8841 226.577 66.2036 221.823 62.6944 218.541C59.1806 215.261 56.8628 213.422 56.7235 213.597Z" fill="#17282F"/>
<path d="M92.7341 216.673C92.5276 216.768 93.9286 220.306 96.3606 225.951C96.9944 227.404 97.6632 228.941 98.3685 230.559C99.1738 232.232 99.7044 233.93 100.896 235.892C101.469 236.836 102.845 237.82 104.284 237.531C105.653 237.28 106.57 236.481 107.469 235.903C109.304 234.65 111.192 233.36 113.127 232.035C120.872 226.716 127.83 221.824 132.819 218.217C137.81 214.608 140.832 212.284 140.703 212.098C140.574 211.912 137.32 213.9 132.162 217.264C127.002 220.629 119.942 225.369 112.196 230.69C110.266 232.023 108.385 233.322 106.557 234.585C105.633 235.223 104.794 235.864 104.028 235.991C103.29 236.133 102.649 235.745 102.127 235.02C100.306 231.714 98.7862 228.148 97.4154 225.47C94.7134 219.948 92.9406 216.58 92.7341 216.673Z" fill="#17282F"/>
<path d="M86.7263 314.441C86.7962 314.441 86.87 314.112 86.9459 313.483C87.0038 312.803 87.0797 311.887 87.1755 310.735C87.3472 308.292 87.5868 304.854 87.8823 300.63C88.591 292.047 89.5632 280.284 90.6373 267.29C91.6875 254.265 92.3124 242.471 92.2585 233.933C92.2665 229.664 92.1048 226.209 91.9091 223.822C91.7893 222.671 91.6935 221.755 91.6236 221.075C91.5338 220.446 91.4539 220.117 91.382 220.117C91.3101 220.117 91.2523 220.448 91.2064 221.076C91.1824 221.757 91.1485 222.672 91.1065 223.825C91.0327 226.268 90.9288 229.705 90.7991 233.931C90.4816 242.464 89.6252 254.252 88.575 267.277C87.5269 280.296 86.6604 292.086 86.4228 300.624C86.2811 304.892 86.2911 308.346 86.3729 310.734C86.4388 311.886 86.4907 312.802 86.5306 313.483C86.5885 314.112 86.6544 314.441 86.7263 314.441Z" fill="#17282F"/>
<path d="M38.5146 104.307C38.5644 103.019 37.8572 101.795 36.9063 100.92C35.9584 100.046 34.7815 99.4676 33.6252 98.8983C32.6186 98.4052 31.5679 97.9004 30.4468 97.8946C29.3258 97.8887 28.1166 98.5373 27.8613 99.629C27.7058 100.295 27.9259 100.982 28.1137 101.639C28.7153 103.723 29.0558 105.88 29.1262 108.046C29.1702 109.428 29.1145 110.866 29.675 112.134C30.0683 113.02 30.7345 113.751 31.3038 114.535C33.8307 117.995 34.4998 122.432 35.1161 126.541C35.3567 128.751 35.9672 130.899 36.5717 133.038C36.7889 133.802 37.0061 134.568 37.2233 135.331C37.6899 136.977 38.3913 138.867 40.0318 139.351C40.7538 137.423 39.9027 135.313 39.4008 133.314C39.0135 131.768 38.8374 130.177 38.7405 128.586C38.2357 120.46 38.2123 112.319 38.5146 104.307Z" fill="#F2DBC1" stroke="#CEAC87" stroke-width="0.4" stroke-miterlimit="10"/>
<path d="M28.5028 101.627C28.3971 101.134 28.3824 100.62 28.4558 100.121C28.8696 100.265 29.1924 100.588 29.4976 100.902C31.0003 102.445 32.541 104.048 33.3363 106.052C33.7208 107.024 33.9174 108.06 34.0143 109.099C34.2461 111.552 33.9262 114.055 33.0927 116.374C32.1125 114.548 30.1051 113.263 29.7148 111.229C29.5446 110.343 29.7119 109.427 29.6914 108.523C29.6356 106.067 28.9518 103.728 28.5028 101.627Z" fill="#CEAC87"/>
<path d="M148.356 97.294C150.51 94.9286 153.139 93.0004 156.042 91.6505C156.802 91.2953 157.697 90.9843 158.457 91.3423C159.505 91.8383 159.64 93.2323 159.79 94.3827C160.092 96.6601 161.025 98.8671 160.92 101.162C160.779 104.164 158.903 106.756 157.41 109.365C153.594 116.027 151.986 123.736 151.291 131.378C151.194 132.429 151.106 133.515 150.604 134.445C150.102 135.373 149.066 136.103 148.03 135.898C147.751 133.77 148.136 131.619 148.438 129.494C149.225 123.995 149.471 118.424 149.398 112.869C149.327 107.601 148.969 102.333 148.356 97.294Z" fill="#F2DBC1" stroke="#CEAC87" stroke-width="0.4" stroke-miterlimit="10"/>
<path d="M154.584 110.394C155.397 107.438 154.484 104.316 154.417 101.252C154.402 100.536 154.435 99.8049 154.705 99.1387C155.063 98.2494 155.799 97.5803 156.509 96.9405C157.179 96.3418 157.848 95.7402 158.514 95.1415C158.693 94.9801 158.934 94.8099 159.151 94.9155C159.262 94.9684 159.33 95.0828 159.377 95.1973C159.688 95.9339 159.438 96.7732 159.471 97.5715C159.503 98.3257 159.794 99.0447 159.946 99.7843C160.284 101.404 159.961 103.109 159.327 104.638C158.693 106.167 157.76 107.553 156.835 108.926C156.539 109.366 156.237 109.812 155.852 110.176C155.676 110.344 155.468 110.499 155.224 110.52C154.986 110.537 154.713 110.364 154.584 110.394Z" fill="#CEAC87"/>
<path d="M147.916 95.2271C148.272 93.9094 149.302 92.9058 150.106 91.8052C151.872 89.387 152.609 86.3612 152.911 83.3824C153.214 80.4036 153.129 77.3925 153.448 74.4137C153.824 70.9272 154.757 67.5023 154.901 63.9982C155.004 61.4596 154.693 58.924 154.687 56.3854C154.681 54.1638 154.913 51.9422 155.374 49.7675C155.368 46.237 152.908 43.4548 151.071 40.658C149.642 38.4862 148.521 36.112 147.755 33.6262C146.76 30.4068 146.241 26.8 143.834 24.4433C142.558 23.1931 140.882 22.4477 139.391 21.4587C137.284 20.0617 135.552 18.1835 133.621 16.5547C131.053 14.3888 128.118 12.6573 124.981 11.457C123.035 10.7145 121.007 10.1686 119.161 9.20599C114.404 6.72318 111.056 1.58438 105.805 0.469166C101.547 0.357644 97.227 1.88079 92.8278 1.70764C88.5724 1.54036 84.446 -0.205832 80.1936 0.0201455C75.4246 0.272536 71.1721 2.94905 66.6496 4.48687C63.6796 5.49643 60.557 6.0247 57.6252 7.14285C52.5392 9.0886 48.2515 12.7541 44.8002 16.9655C41.346 21.1769 38.6518 25.9459 35.9753 30.6915C34.37 33.5323 32.2951 36.1003 31.2767 39.1436C30.8512 40.4202 30.6194 41.7556 30.4139 43.085C28.5093 55.3847 28.4975 67.9748 30.3787 80.2774C30.8512 83.3677 31.444 86.4522 32.436 89.4192C34.4492 95.4355 38.1118 101.056 38.9482 107.615C42.9513 114.779 51.7644 117.781 59.9436 118.459C68.5073 119.172 77.2265 117.992 85.2913 115.028C95.8887 111.134 105.427 104.205 116.538 102.212C121.955 101.241 127.517 101.496 132.993 100.947C138.469 100.398 144.133 98.8986 147.916 95.2271Z" fill="#17282F"/>
<path d="M39.8503 112.62C40.3903 105.395 40.9303 98.1019 39.912 90.9293C39.6948 89.4032 39.4072 87.8536 39.6332 86.3305C40.2142 82.3891 43.9238 79.7507 45.8109 76.2407C46.7089 74.5679 47.1902 72.6691 47.1961 70.7703C47.2019 68.5722 46.5856 66.3946 46.7383 64.2023C46.8909 62.01 48.1587 59.624 50.4478 59.4362C54.2278 56.9534 58.7561 55.1867 63.2199 55.8969C65.0542 56.1904 66.7974 56.8859 68.5906 57.3701C73.1307 58.5969 78.0376 58.4384 82.4867 56.9152C86.7744 55.4479 90.5398 52.7948 94.5399 50.6642C98.54 48.5306 103.077 46.8754 107.482 47.8174C115.729 48.1109 124.316 47.5093 131.897 50.7728C134.089 51.7148 136.217 53.0325 137.373 55.0341C137.725 56.883 137.17 58.7847 136.44 60.5191C135.709 62.2536 134.787 63.9264 134.353 65.7577C133.417 69.6962 135.025 74.1189 137.972 76.5812C139.917 78.1689 141.863 79.7537 143.806 81.3414C144.331 81.7698 144.871 82.2159 145.176 82.8205C145.517 83.4926 145.526 84.2791 145.532 85.0333C145.549 87.3694 145.596 89.7113 145.857 92.0327C146.245 95.4987 147.102 98.8913 147.7 102.325C148.237 105.404 148.572 108.517 148.904 111.625C149.012 112.644 149.121 113.671 149.006 114.686C148.745 116.996 147.351 119.091 147.287 121.915C147.932 138.784 140.035 154.819 130.658 168.859C125.381 176.757 119.212 184.596 110.567 188.522C104.166 191.428 96.7879 191.924 89.9323 190.368C83.0766 188.813 76.7492 185.271 71.496 180.601C66.7651 176.399 62.8913 171.316 58.2426 167.022C55.927 164.883 53.4119 162.928 51.4104 160.492C49.359 157.995 47.9122 155.057 46.6502 152.081C41.397 139.699 38.8437 126.064 39.8503 112.62Z" fill="#F2DBC1"/>
<path d="M48.094 98.9633C52.0999 97.5224 56.1264 96.0755 60.3114 95.3007C64.4964 94.526 68.8839 94.4438 72.9456 95.7146C75.402 96.4805 77.7587 97.7395 80.3295 97.854C83.0354 97.9743 85.6473 96.7916 87.8807 95.2567C88.274 94.9838 88.6936 94.6551 88.7729 94.1826C88.8785 93.5487 88.3326 93.0028 87.8073 92.633C82.7067 89.038 75.7513 90.2148 69.7027 88.6887C68.8546 88.4745 68.0064 88.2045 67.1318 88.181C66.3805 88.1634 65.641 88.3277 64.9102 88.5038C60.3056 89.622 55.83 91.2566 51.5335 93.2552C50.1307 93.9067 48.722 94.614 47.5921 95.6735C46.4652 96.7329 45.6346 98.2062 45.6816 99.7557C46.7821 99.6736 47.7594 99.0837 48.094 98.9633Z" fill="#17282F"/>
<path d="M84.1319 113.859C82.0805 116.721 80.1759 119.779 79.3336 123.198C79.0254 124.451 78.864 125.763 79.0783 127.037C79.2925 128.31 79.9176 129.546 81.0944 130.294C81.6256 130.676 82.3623 130.62 82.9727 130.388C83.5831 130.156 84.1261 129.772 84.7277 129.519C86.1217 128.929 87.8092 129.106 89.0506 129.971C90.562 131.022 91.4659 133.009 93.2532 133.443C94.9202 133.848 96.5548 132.692 97.7434 131.45C98.932 130.209 100.068 128.75 101.72 128.287C103.199 127.873 104.901 128.431 105.846 129.64C106.131 130.007 106.357 130.426 106.709 130.728C107.061 131.031 107.61 131.18 108.138 130.828C109.474 130.649 110.457 129.384 110.718 128.064C110.979 126.743 110.662 125.381 110.287 124.09C109.397 121.017 108.147 118.012 106.24 115.444" stroke="#CEAC87" stroke-width="0.4" stroke-miterlimit="10"/>
<path d="M84.1248 129.921C85.4337 130.629 87.0244 130.802 88.4565 130.391C88.6297 130.341 88.8292 130.25 88.8498 130.071C88.8674 129.913 88.7324 129.783 88.6033 129.692C87.4734 128.903 85.9473 129.009 84.6149 129.358C84.4183 129.411 84.1952 129.487 84.1131 129.675C84.0309 129.863 84.2451 130.139 84.1248 129.921Z" fill="#17282F"/>
<path d="M100.499 128.92C100.367 129.207 100.238 129.498 100.105 129.785C101.634 130.196 103.293 130.123 104.781 129.58C104.904 129.536 105.03 129.483 105.106 129.375C105.303 129.096 105.004 128.735 104.713 128.559C103.574 127.872 102.081 127.819 100.895 128.421C100.596 128.57 100.29 128.811 100.499 128.92Z" fill="#17282F"/>
<path d="M124.696 162.244C123.375 155.529 122.028 148.73 119.058 142.561C118.612 141.674 117.838 141.029 117.033 140.518C116.024 139.875 114.929 139.385 113.837 138.898C110.545 137.425 107.249 135.952 103.956 134.478C103.299 134.02 102.756 133.742 102.21 133.46C101.274 132.979 100.238 132.483 99.2105 132.709C98.5326 132.858 97.9662 133.301 97.3557 133.627C95.8414 134.434 93.9573 134.511 92.3842 133.83C91.3658 133.387 90.2917 132.632 89.2557 133.023C86.1419 134.273 83.0164 135.453 79.8909 136.632C78.5644 137.131 77.2349 137.636 75.9788 138.291C75.3508 138.619 74.7345 138.995 74.2708 139.529C73.8276 140.046 73.5547 140.682 73.2876 141.31C71.9875 144.363 70.6874 147.415 69.3902 150.464C68.8649 151.694 68.3337 152.964 68.3132 154.3C68.2956 155.386 68.6184 156.445 68.7974 157.516C69.0469 159.01 69.0175 160.551 68.8972 162.382C70.3323 161.434 71.2802 159.899 71.9376 158.309C72.595 156.718 73.003 155.036 73.6339 153.437C75.1336 149.639 78.6048 148.11 82.1059 146.006C85.6071 143.901 86.6519 142.182 90.9103 142.561C95.1657 144.391 97.1855 141.932 99.2105 141.897C100.519 141.873 101.722 142.452 102.943 142.924C106.062 144.124 109.399 145.231 112.481 146.593C115.248 147.312 117.521 148.997 118.492 151.887C119.067 152.788 119.948 153.455 120.54 154.344C120.898 154.881 121.142 155.485 121.392 156.078C122.248 158.124 123.208 160.128 124.265 162.08C124.306 162.156 124.367 162.244 124.455 162.241C124.543 162.238 124.549 162.068 124.696 162.244Z" fill="#17282F"/>
<path d="M146.218 94.9639C147.339 101.236 147.826 107.622 147.668 113.993C147.589 117.119 147.351 120.279 146.397 123.258C144.498 129.177 139.949 133.876 135.039 137.691C133.393 138.971 131.67 140.198 130.373 141.832C128.915 143.669 128.078 145.917 127.424 148.168C126.059 152.852 125.358 157.759 123.333 162.2C121.308 166.637 117.557 170.702 112.723 171.359C107.03 172.131 101.794 168.096 96.0891 167.429C91.7104 166.919 87.1293 168.547 83.992 171.876C80.7579 172.348 77.603 170.684 74.9646 168.756C71.3607 166.117 68.2029 162.869 65.9637 158.828C63.5161 156.952 62.2747 153.909 61.5028 150.924C60.731 147.94 60.3113 144.832 59.0112 142.038C56.7632 137.192 52.2172 133.914 48.2112 130.381C46.4709 128.846 44.7834 127.202 43.589 125.213C41.9778 122.533 41.3468 119.381 40.9829 116.276C40.616 113.127 40.4957 109.946 40.6248 106.776C40.6571 106.01 40.6894 105.195 40.3079 104.528C39.9264 103.862 38.952 103.478 38.321 104.103C38.3064 109.515 38.2946 114.923 38.2799 120.335C38.2711 123.631 38.2653 126.935 38.6086 130.213C38.9403 133.377 39.5977 136.494 40.2521 139.605C41.1795 144.001 42.1128 148.421 43.7005 152.623C46.4445 159.884 51.0492 166.27 55.7154 172.474C58.392 176.031 61.1037 179.562 64.2292 183.483C69.7084 191.142 78.95 195.166 88.0508 197.59C90.6745 198.288 93.3334 198.887 96.0363 199.134C104.618 199.914 113.337 197.032 120.263 191.908C127.189 186.784 132.383 179.532 135.767 171.468C139.864 165.032 142.696 157.885 145.352 150.733C146.649 147.238 147.914 143.716 148.671 140.068C149.575 135.713 149.746 131.241 149.869 126.794C149.992 122.328 150.074 117.858 150.432 113.52C150.57 107.61 149.493 101.743 148.422 95.9265C148.284 95.184 147.991 94.2801 147.242 94.1745C146.826 94.107 146.112 94.3681 146.218 94.9639Z" fill="#17282F"/>
<path d="M91.5805 97.6238C91.7624 96.5145 91.5981 95.3494 91.1109 94.3339C90.6795 93.433 90.0191 92.667 89.4762 91.8277C87.6713 89.0337 87.3016 85.3653 88.5136 82.2662C88.6486 81.9169 88.8188 81.5589 89.127 81.3476C89.4351 81.1363 89.9194 81.1363 90.1336 81.4415C90.251 81.6117 90.2627 81.8289 90.2627 82.0343C90.251 83.5076 89.6934 85.0014 90.069 86.4247C90.2598 87.1555 90.6824 87.7982 91.0493 88.4556C92.2731 90.6479 92.9422 93.1454 92.9803 95.6546C92.9921 96.5409 92.8894 97.5211 92.2437 98.1286C91.8035 97.7559 91.5687 97.1543 91.5805 97.6238Z" fill="#E3C7A7"/>
<path d="M96.1579 86.7967C95.7265 87.5979 95.7764 88.5752 96.0024 89.4556C96.2254 90.3361 96.607 91.1725 96.8153 92.0588C97.2174 93.7874 96.9327 95.5893 96.9767 97.3619C96.9855 97.7288 97.1675 98.2277 97.5255 98.1484C97.6752 98.1162 97.7809 97.9812 97.8513 97.8462C98.3355 96.9423 97.9041 95.8476 97.8102 94.8263C97.6517 93.1476 98.4353 91.4131 97.9364 89.8049C97.7427 89.1827 97.37 88.628 97.1998 88C97.1176 87.6977 97.0824 87.3749 96.9269 87.1019C96.7713 86.829 96.4426 86.6177 96.1579 86.7967Z" fill="#E3C7A7"/>
<path d="M104.965 80.0211C104.812 81.2244 105.018 82.4393 105.226 83.6338C105.434 84.8283 105.64 86.0227 105.848 87.2172C106.418 87.0558 106.629 86.3221 106.5 85.7439C106.371 85.1658 106.016 84.6639 105.828 84.1034C105.408 82.8531 105.842 81.4122 105.329 80.1972C105.276 80.071 105.203 79.9389 105.076 79.8861C104.947 79.8362 104.762 79.9184 104.965 80.0211Z" fill="#E3C7A7"/>
<path d="M97.6367 94.0348C98.1004 92.0333 100.366 91.0941 102.359 90.5806C106.908 89.4096 111.586 88.8491 116.255 88.3384C118.661 88.0743 121.097 87.8248 123.489 88.1799C125.511 88.4793 127.442 89.2012 129.353 89.9349C132.141 91.0061 134.917 92.1096 137.679 93.2453C139.322 93.9203 141.201 94.9094 141.409 96.6732C137.553 96.0833 133.978 94.2637 130.136 93.5916C123.533 92.4383 116.892 94.745 110.309 96.0187C109.302 96.2124 108.281 96.3855 107.26 96.3034C106.441 96.2388 105.643 96.0099 104.824 95.9512C103.509 95.8544 102.191 96.1918 100.874 96.1214C99.5502 96.051 98.1004 95.3936 97.6367 94.0348Z" fill="#17282F"/>
<path fill-rule="evenodd" clip-rule="evenodd" d="M86.793 155.035C93.7737 155.459 99.4252 155.529 105.721 154.675C106.81 155.486 103.149 159.255 96.6582 159.681C89.7063 159.697 86.9083 156.792 86.793 155.035Z" fill="#17282F"/>
<path d="M114.356 151.851C114.943 151.537 115.527 151.223 116.114 150.906C116.287 150.812 116.469 150.715 116.587 150.554C116.868 150.172 116.675 149.621 116.384 149.248C115.724 148.406 114.667 147.995 113.664 147.622C110.714 146.525 107.762 145.427 104.812 144.326C102.77 143.566 99.9999 142.337 98.5114 142.698C95.7445 144.165 94.2207 144.467 92.0079 143.88C90.9719 143.604 89.9594 143.114 88.8912 143.173C87.9491 143.226 87.0892 143.701 86.2675 144.165C83.6732 145.629 81.0817 147.094 78.4874 148.555C77.1873 149.289 75.7434 150.231 75.6172 151.992C78.5432 152.092 81.0407 154.04 83.8052 154.997C85.8537 155.704 88.046 155.863 90.2089 156.016C93.1231 156.221 96.0403 156.426 99.0719 156.517C104.572 156.705 109.684 154.357 114.356 151.851Z" fill="#99746C"/>
<path d="M75.9473 151.337C82.3187 149.864 90.7569 149.342 95.7101 149.867C101.175 149.342 106.633 149.139 111.925 150.433C113.128 150.727 114.428 151.073 115.573 150.595C115.705 150.539 115.84 150.469 115.919 150.348C116.189 149.946 115.664 149.471 115.197 149.342C114.273 149.086 113.289 149.192 112.333 149.122C110.874 149.013 109.48 148.488 108.06 148.136C105.148 147.416 102.061 147.428 99.1614 148.209C97.2919 148.96 95.1936 148.86 93.2038 148.552C91.214 148.244 89.2418 147.739 87.3489 147.716C84.7406 147.91 81.3649 148.972 78.4155 149.773C77.3795 150.055 76.188 150.507 75.918 151.543C76.053 151.557 76.1909 151.572 75.9473 151.337Z" fill="#5B372F"/>
<rect x="45.7812" y="90.2383" width="3.52173" height="10.2717" rx="1" transform="rotate(97.3696 45.7812 90.2383)" fill="white"/>
<rect width="3.52173" height="6.07173" rx="1" transform="matrix(0.12827 0.991739 0.991739 -0.12827 144.32 92.5078)" fill="white"/>
<path d="M89.9822 92.7692C93.2192 94.5535 97.4453 94.3774 100.462 92.4405C101.296 91.8564 102.135 91.2724 103.057 90.841C103.978 90.4096 104.967 90.1396 105.962 89.9136C108.518 89.3296 111.133 89.0068 113.768 89.0214C117.064 88.8013 120.363 88.6693 123.676 88.6605C128.657 88.8072 133.481 90.4331 138.491 90.9966C140.504 91.2196 142.515 91.4426 144.528 91.6686C144.751 91.6921 144.989 91.7273 145.147 91.8829C145.306 92.0384 145.341 92.2791 145.361 92.5021C145.449 93.497 145.388 94.5007 145.179 95.4779C145.141 95.6599 145.091 95.8536 144.959 95.9857C144.824 96.1207 144.628 96.1676 144.446 96.2234C143.448 96.5257 142.576 97.2183 142.054 98.1192C141.432 99.1904 141.32 100.476 141.209 101.758C140.563 104.767 139.715 107.731 138.67 110.621C138.353 111.499 138.016 112.376 137.517 113.166C137.018 113.955 136.34 114.654 135.512 115.103C132.68 116.567 129.434 116.963 126.276 117.301C123.089 117.747 119.855 117.656 116.653 117.562C114.2 117.498 111.752 117.233 109.349 116.638C108.057 116.547 106.854 115.892 105.906 115.009C104.958 114.128 104.239 113.031 103.588 111.913C102.012 109.207 100.767 106.304 99.8958 103.296C99.4086 101.618 98.9772 99.7979 97.683 98.6211C96.5971 97.635 94.9771 97.277 93.5773 97.7172C92.1774 98.1545 91.0504 99.3724 90.6014 100.825C89.4862 104.467 87.737 107.883 85.8676 111.202C85.1897 112.409 84.4736 113.627 83.4317 114.539C82.3224 115.514 80.902 116.077 79.4551 116.376C78.0083 116.673 76.5233 116.72 75.0471 116.784C71.3522 116.952 67.6485 116.943 63.939 116.802C61.9932 116.688 60.0533 116.432 58.1428 116.036C55.9182 115.578 53.5763 114.83 52.1705 113.004C49.6495 108.855 49.1829 103.836 48.2203 99.0789C48.0618 98.3012 47.8857 97.5147 47.5042 96.8191C47.1227 96.1236 46.5035 95.522 45.7316 95.3371C45.2914 95.2314 44.7485 95.2226 44.5049 94.8411C44.3934 94.665 44.3757 94.4478 44.3669 94.2365C44.3053 92.8954 44.4257 91.5483 44.7866 90.2042C46.0016 90.1895 47.2196 90.1719 48.4316 90.0838C53.8345 89.6788 59.1494 87.7888 64.5553 88.3142C67.7131 88.1469 70.8768 88.3406 74.0316 88.5313C75.6839 88.6311 77.3391 88.7338 78.9885 88.8776C81.0076 89.0567 83.0326 89.3061 84.9666 89.9107C86.8948 90.5064 88.4209 91.9093 89.9822 92.7692Z" fill="black" stroke="black" stroke-miterlimit="10"/>
<path d="M111.463 115.331C110.571 115.155 109.688 114.917 108.828 114.621C108.276 114.43 107.724 114.21 107.252 113.866C106.653 113.429 106.213 112.813 105.805 112.191C102.829 107.636 101.171 102.233 101.133 96.8419C101.262 95.8616 101.532 94.8579 102.181 94.1125C102.63 93.596 103.228 93.2321 103.836 92.9181C104.429 92.6099 105.039 92.337 105.77 92.1169C110.641 91.0956 115.61 90.5292 120.664 90.5556C126.26 90.7229 131.989 90.9136 137.14 93.0002C137.591 93.1 137.864 93.552 138.052 93.9746C139.074 96.252 139.182 98.8258 139.173 101.273C139.22 103.416 138.695 105.523 138.176 107.601C137.691 109.529 137.148 111.566 135.737 112.954C134.287 114.427 132.156 114.976 130.12 115.319C127.643 115.733 125.13 115.933 122.68 115.871C118.918 116.091 115.108 116.047 111.463 115.331Z" fill="#F2DBC1" stroke="black" stroke-miterlimit="10"/>
<path d="M106.977 102.451C106.962 101.407 108.077 100.758 109.034 100.338C111.737 99.1528 114.499 97.9495 117.436 97.6854C121.847 97.2892 126.358 99.1586 129.36 102.416C124.885 102.314 120.406 104.676 116.072 103.552C114.883 103.244 113.774 102.683 112.6 102.316C111.426 101.95 110.12 101.785 108.993 102.269C108.3 102.569 107.432 103.077 106.977 102.451Z" fill="white" stroke="black" stroke-width="0.4" stroke-miterlimit="10"/>
<path d="M115.606 97.9772C115.345 98.3822 115.075 98.8048 115.028 99.2832C115.005 99.5092 115.031 99.7381 115.078 99.9611C115.325 101.141 116.143 102.183 117.229 102.702C118.315 103.222 119.645 103.204 120.716 102.655C121.012 102.503 121.294 102.312 121.502 102.051C121.761 101.731 121.893 101.332 122.001 100.935C122.245 100.046 122.356 98.9809 121.722 98.3118C121.227 97.7865 120.434 97.6896 119.712 97.6661C118.342 97.6221 116.971 97.7248 115.606 97.9772Z" fill="#17282F"/>
<path d="M107.602 99.3491C109.798 98.0284 112.095 96.6755 114.649 96.47C115.717 96.3849 116.791 96.5053 117.856 96.6256C119.626 96.8252 121.399 97.0247 123.168 97.2243C124.515 97.3769 125.868 97.5295 127.177 97.8875C128.78 98.3248 130.285 99.0614 131.75 99.845C132.384 100.185 133.117 100.775 132.894 101.456C131.665 101.474 130.687 100.505 129.689 99.7863C126.995 97.8406 123.494 97.5148 120.178 97.2566C118.86 97.1538 117.539 97.0511 116.222 97.145C114.49 97.2712 112.788 97.7408 111.227 98.5009C110.238 98.9822 109.269 99.5897 108.178 99.7042C107.881 99.7306 107.488 99.4165 107.602 99.3491Z" fill="#CEAC87"/>
<path d="M110.309 96.0189C116.892 94.7452 123.533 92.4385 130.137 93.5918C133.078 94.1065 135.864 95.294 138.739 96.087L137.565 93.1784L133.456 91.8577C124.358 90.0969 116.141 90.3904 105.722 92.0045C103.152 93.1846 101.891 93.9395 101.32 96.1311C102.489 96.1214 103.658 95.8655 104.824 95.9514C105.643 96.0101 106.441 96.239 107.26 96.3036C108.281 96.3857 109.303 96.2126 110.309 96.0189Z" fill="#17282F"/>
<path d="M53.0513 111.257C51.6602 109.346 50.8913 107.036 50.5479 104.697C50.2045 102.358 50.2632 99.9811 50.4041 97.6216C50.4716 96.4682 50.5655 95.3031 50.947 94.2143C51.3315 93.1255 52.0446 92.1071 53.0865 91.5378C57.3184 89.6801 62.0874 89.6067 66.6715 89.6302C71.2175 89.5744 75.7723 89.9677 80.1656 90.8862C82.1525 91.1944 84.107 91.7256 85.9765 92.4652C86.6896 92.7469 87.4057 93.0697 87.9663 93.5921C88.5268 94.1145 88.9142 94.8776 88.7909 95.6523C88.8555 102.121 86.4519 108.583 82.2464 113.39C80.8993 114.611 78.9976 114.99 77.1898 115.183C74.5661 115.468 71.9189 115.471 69.1984 115.433C66.3106 115.409 63.4228 115.172 60.5701 114.722C59.1615 114.499 57.7528 114.224 56.4292 113.695C55.1056 113.17 53.8642 112.372 53.0513 111.257Z" fill="#F2DBC1" stroke="black" stroke-miterlimit="10"/>
<path d="M72.9496 95.7092C68.8879 94.4384 64.5004 94.5206 60.3154 95.2954C56.9846 95.912 53.7542 96.9544 50.5547 98.0806C50.5547 96.2554 50.7014 94.6413 51.5375 93.2498C54.0852 92.0648 56.6958 91.0076 59.359 90.1102C62.147 89.6522 68.6819 89.4887 74.1796 90.1102C81.81 90.9728 87.6796 92.2935 88.5719 94.6413C88.3949 94.8822 88.1344 95.078 87.8847 95.2514C85.6513 96.7863 83.0394 97.969 80.3335 97.8486C77.7626 97.7342 75.406 96.4752 72.9496 95.7092Z" fill="#17282F"/>
<path d="M58.1211 103.985C60.4396 102.403 62.8255 100.862 65.4668 99.9057C68.1081 98.9489 71.0517 98.6085 73.7282 99.4566C74.9227 99.8352 76.032 100.437 77.1678 100.962C78.3622 101.514 79.5978 101.983 80.8568 102.365C80.7746 102.882 80.0145 102.808 79.5127 102.656C77.6872 102.101 75.7092 102.453 73.8808 102.999C72.0525 103.545 70.2652 104.287 68.3723 104.528C66.5439 104.76 64.6891 104.513 62.8637 104.267C61.4315 104.073 59.9964 103.879 58.1211 103.985Z" fill="white" stroke="black" stroke-width="0.4" stroke-miterlimit="10"/>
<path d="M65.1018 99.9754C64.9785 100.656 65.2838 101.352 65.7152 101.895C66.7218 103.16 68.4915 103.779 70.0557 103.365C71.617 102.951 72.8643 101.501 72.9875 99.8903C73.0081 99.6144 72.9758 99.2916 72.7439 99.1419C72.6119 99.0568 72.4446 99.0509 72.289 99.048C70.7835 99.0245 69.278 99.0832 67.7783 99.2212C66.8715 99.3033 65.9147 99.4354 65.1018 99.9754Z" fill="#17282F"/>
<path d="M55.003 102.712C56.5995 100.793 59.0999 99.8741 61.5475 99.3899C63.9951 98.9086 66.522 98.7794 68.905 98.0428C69.8735 97.7434 70.8214 97.3443 71.831 97.2621C73.0958 97.1594 74.3461 97.5644 75.517 98.0545C77.1282 98.7266 78.669 99.5689 80.1041 100.561C80.2949 100.693 80.4885 100.998 80.286 101.116C77.542 100.432 75.2676 98.1719 72.4443 98.0399C71.5463 97.9988 70.6541 98.1807 69.7737 98.3597C66.6951 98.9937 63.6195 99.6246 60.5409 100.259C59.8424 100.402 59.1263 100.552 58.5188 100.928C57.5357 101.538 56.9018 102.697 55.7895 103.026C55.5811 103.088 55.3346 103.108 55.1644 102.976C54.9942 102.844 54.9942 102.512 55.003 102.712Z" fill="#CEAC87"/>
<defs>
<linearGradient id="paint0_linear_714_2804" x1="18.7157" y1="288.09" x2="194.018" y2="127.411" gradientUnits="userSpaceOnUse">
<stop stop-color="#D9B430"/>
<stop offset="1" stop-color="#303030" stop-opacity="0"/>
</linearGradient>
</defs>
</svg>
