<svg width="222" height="325" viewBox="0 0 222 325" fill="none" xmlns="http://www.w3.org/2000/svg">
<circle cx="110.536" cy="214.59" r="108.407" fill="url(#paint0_linear_765_1902)" stroke="white" stroke-width="4"/>
<path d="M152.867 201.301L163.422 238.24C163.422 238.24 161.678 254.9 163.422 306.741C138.557 320.993 85.2976 336.644 36.4138 290.783C18.2497 272.711 7.62424 251.094 3.10742 217.97C7.69225 215.443 42.1165 197.51 42.1165 197.51L50.5186 181.929L105.494 185.135L112.167 195.646C112.167 195.646 122.813 197.763 131.982 198.774C141.151 199.785 152.867 201.301 152.867 201.301Z" fill="#7687C1"/>
<path d="M111.789 285.674C113.619 297.607 112.879 305.152 114.277 319.016H115.028C113.629 305.134 114.619 297.474 112.735 285.529C110.744 273.601 108.734 262.89 106.563 253.999C106.037 251.775 105.536 249.656 105.061 247.648C104.516 245.664 104.002 243.789 103.519 242.032C102.566 238.525 101.734 235.508 100.898 233.085C100.117 230.713 99.5028 228.841 99.0573 227.486L98.5532 226.038C98.4347 225.715 98.3648 225.551 98.3479 225.557C98.331 225.562 98.3659 225.737 98.4528 226.072C98.5599 226.462 98.693 226.948 98.8577 227.549L100.511 233.198C101.285 235.634 102.06 238.663 102.959 242.179C103.415 243.937 103.902 245.815 104.419 247.803C104.87 249.812 105.347 251.933 105.847 254.158C107.922 263.053 109.854 273.758 111.789 285.674Z" fill="#0F191D"/>
<path d="M98.2309 225.696C98.1917 225.748 97.6131 225.371 96.5182 224.713C95.2746 223.972 93.6991 223.033 91.7881 221.897C89.7562 220.699 87.2955 219.265 84.5317 217.569C81.7886 215.839 78.6594 213.996 75.6363 211.373L76.412 211.24C74.304 215.311 73.0062 220.344 73.224 225.609L73.2263 225.673L73.2575 226.863L72.3504 226.096C63.5357 218.633 55.6246 211.779 50.127 206.57C47.3735 203.974 45.1963 201.817 43.7372 200.283C42.2746 198.754 41.5093 197.867 41.5589 197.82C41.6154 197.767 42.4798 198.556 44.0277 199.993C45.7242 201.542 47.9498 203.573 50.6364 206.025C56.2516 211.083 64.2226 217.832 73.0408 225.296L72.166 225.718L72.1648 225.653C71.9378 220.19 73.3105 214.981 75.5349 210.79L75.8311 210.232L76.3106 210.657C79.1689 213.191 82.29 215.106 84.9777 216.872C87.6655 218.574 90.0616 220.092 92.1062 221.386C94.0978 222.653 95.6572 223.694 96.6968 224.446C97.7422 225.193 98.2597 225.659 98.2309 225.696Z" fill="#17282F"/>
<path d="M112.207 195.65C112.269 195.621 112.701 196.388 113.361 197.827C114.015 199.268 114.902 201.379 115.916 204.018C116.921 206.66 118.087 209.815 119.166 213.411C119.437 214.31 119.689 215.24 119.897 216.222C119.982 216.73 120.107 217.2 120.036 217.894C119.983 218.27 119.518 218.567 119.161 218.473C118.984 218.452 118.774 218.306 118.707 218.21L118.591 218.061L118.122 217.462C116.867 215.85 115.571 214.185 114.244 212.48C112.501 210.222 110.815 208.038 109.236 205.992L110.099 205.923C106.966 211.798 104.118 216.817 101.963 220.315C100.888 222.064 99.9854 223.434 99.3296 224.35C98.6772 225.268 98.275 225.734 98.2289 225.702C98.1747 225.665 98.4778 225.136 99.0345 224.164C99.6845 223.018 100.471 221.632 101.401 219.992C103.393 216.417 106.119 211.347 109.192 205.454L109.56 204.747L110.055 205.384C111.635 207.412 113.323 209.577 115.066 211.816C116.382 213.518 117.664 215.178 118.907 216.787L119.369 217.387L119.483 217.536L119.297 217.722L119.299 217.718L119.307 217.737L119.314 217.747L119.304 217.742L119.034 217.673C119.054 217.37 118.989 216.864 118.902 216.413C118.717 215.484 118.48 214.566 118.226 213.676C117.212 210.112 116.121 206.933 115.209 204.27C114.324 201.776 113.577 199.672 112.978 197.982C112.439 196.501 112.137 195.682 112.207 195.65Z" fill="#17282F"/>
<path d="M24.8685 254.265C24.6979 254.288 24.3741 252.268 23.5489 249.09C22.7294 245.914 21.3014 241.598 19.0608 237.124C16.8053 232.653 14.1878 228.924 12.1236 226.363C10.0617 223.798 8.63025 222.325 8.75127 222.204C8.8331 222.115 10.4582 223.405 12.6976 225.885C14.9382 228.356 17.7112 232.096 20.0105 236.653C22.296 241.216 23.6376 245.663 24.2796 248.925C24.9284 252.191 24.9884 254.254 24.8685 254.265Z" fill="#17282F"/>
<path d="M20.3013 309.531C20.0558 309.227 19.9959 308.595 19.9395 307.957C20.0616 308.487 20.1815 309.008 20.3013 309.531Z" fill="#A7A9A8"/>
<path d="M79.8171 237.859C67.3258 228.149 56.5068 216.984 47.502 204.059C48.3053 204.838 49.1812 205.677 50.1252 206.567C55.6228 211.775 63.5339 218.629 72.3486 226.092L73.2556 226.859L73.2245 225.669L73.2222 225.605C73.0148 220.578 74.1881 215.76 76.1301 211.792C78.9976 214.194 81.9367 215.93 84.5299 217.565C85.626 218.237 86.6748 218.869 87.6671 219.46C90.5358 221.27 93.4725 222.985 96.4472 224.667C96.4703 224.681 96.4933 224.695 96.5164 224.709C96.5671 224.739 96.6178 224.77 96.6674 224.8C90.5692 223.963 84.4711 223.126 78.373 222.291C78.1459 227.513 78.6334 232.765 79.8171 237.859Z" fill="#5F6FA7"/>
<path d="M73.2571 226.863L72.3501 226.096C63.5354 218.633 55.6243 211.779 50.1266 206.57C49.1827 205.681 48.3068 204.842 47.5034 204.062C47.213 203.645 46.9237 203.226 46.6367 202.804C55.5079 210.195 63.9169 218.632 72.7869 226.022C72.4077 218.307 73.6882 216.358 75.9737 211.015C79.6711 214.14 83.6001 216.897 87.6686 219.464C86.6763 218.873 85.6274 218.241 84.5314 217.569C81.9381 215.934 78.9991 214.198 76.1316 211.796C74.1895 215.764 73.0162 220.582 73.2237 225.609L73.226 225.673L73.2571 226.863ZM96.6861 224.806C96.6804 224.805 96.6746 224.804 96.6688 224.804C96.6193 224.774 96.5686 224.743 96.5179 224.713C96.4948 224.699 96.4718 224.685 96.4487 224.671C96.5282 224.716 96.6078 224.761 96.6861 224.806Z" fill="#0F191D"/>
<path d="M173.524 225.528C173.524 225.528 201.357 265.553 205.109 267.46L198.363 277.211L190.317 286.349C187.452 289.555 183.088 293.987 175.853 298.574C155.349 282.362 125.595 252.505 125.595 252.505L140.208 206.728C140.208 206.728 149.099 195.964 155.675 200.648C162.25 205.332 173.524 225.528 173.524 225.528Z" fill="#7687C1"/>
<path d="M168.891 87.277C169.712 87.4694 170.555 86.876 170.924 86.12C171.292 85.3613 171.295 84.486 171.273 83.6433C171.165 79.7983 170.642 75.9641 169.718 72.2302C169.225 70.2358 168.661 67.9543 169.826 66.2607C170.514 65.2609 171.68 64.6973 172.512 63.8139C173.574 62.6867 174.018 61.1232 174.343 59.6085C175.744 53.0375 175.47 46.117 173.555 39.6761C173.113 38.1912 172.563 36.6928 171.539 35.533C170.799 34.693 169.837 34.0644 169.122 33.2027C168.13 32.0077 167.686 30.4632 167.011 29.0623C165.77 26.4881 163.673 24.3366 161.128 23.0306C159.069 21.9738 156.736 21.4589 154.825 20.1529C150.905 17.473 149.094 11.7393 144.372 10.8641C143.233 9.93198 142.234 8.83998 141.09 7.91327C137.242 4.79714 132.007 3.80811 127.073 4.23624C126.027 4.32566 124.957 4.47198 123.946 4.19831C122.507 3.8054 121.434 2.63753 120.166 1.85173C119.139 1.21766 117.977 0.835597 116.806 0.5565C111.91 -0.611371 106.479 0.0172696 102.309 2.83804C101.233 3.56424 100.253 4.42592 99.1605 5.12772C97.8789 5.95147 96.4509 6.55031 94.8576 6.8565C89.888 9.16514 84.13 8.80205 78.7838 10.0079C72.015 11.5361 66.0103 15.5952 61.2088 20.6054C56.4072 25.6156 52.6977 31.5606 49.2673 37.6222C45.8151 44.5915 44.3031 52.3411 43.0513 60.0177C41.6991 68.3147 40.6125 76.6551 39.5531 85.0686C39.8593 92.4308 40.1628 99.7957 40.4689 107.158C40.6667 111.943 40.8673 116.742 41.6585 121.465C42.7342 127.884 44.8938 134.079 46.0454 140.484C47.0941 146.324 47.2973 152.274 47.4978 158.203C48.6115 157.913 49.5274 157.143 50.5598 156.637C53.2911 155.298 56.5156 155.9 59.5586 155.87C64.7856 155.821 69.7795 153.824 74.5892 151.773C85.0025 147.329 95.2397 142.473 105.268 137.219C113.869 132.716 122.342 127.903 130.14 122.123C134.823 118.652 139.248 114.845 143.61 110.981C152.276 103.316 160.727 95.4087 168.891 87.277Z" fill="#17282F"/>
<path d="M53.3186 183.921C54.5461 190.672 63.2068 204.652 98.5315 225.178L108.079 207.175C111.842 204.273 107.192 182.148 120.419 194.48C129.179 186.771 138.406 179.612 147.627 172.459C150.158 171.315 151.905 169.351 153.366 167.291C156.414 162.989 158.514 158.014 159.468 152.827C160.167 149.023 160.257 145.137 160.406 141.273C160.712 133.347 161.281 125.435 161.85 117.523L161.85 117.523C162.099 114.027 162.357 110.502 163.356 107.145C165.283 102.866 168.191 99.1539 169.64 94.8103C170.025 93.656 170.307 92.4448 170.261 91.2281C170.225 90.2472 169.979 89.2907 169.8 88.3288C169.491 86.672 169.375 84.9883 169.258 83.3072L169.258 83.3023C168.841 77.2299 168.421 71.1548 167.947 65.2965C167.25 59.8067 164.112 54.6718 159.465 51.6126C156.04 49.1414 151.298 49.4964 147.524 47.5969C145.711 46.6837 144.194 45.2882 142.579 44.058C137.444 40.1507 131.087 37.8718 124.695 37.7878C115.774 35.8992 106.315 36.6281 97.8473 40.2266C97.094 40.6818 96.17 40.7197 95.3272 40.969C94.4845 41.2183 93.6093 41.8497 93.6147 42.7303C93.6175 43.3915 94.1161 43.9334 94.574 44.4103C96.6198 46.5428 98.6222 49.2173 98.2293 52.1437C97.8662 54.8453 95.5928 56.8233 93.2679 59.0317C90.1084 60.9962 86.5777 62.2915 83.3424 64.1259C80.107 65.9631 77.0505 68.5102 75.7661 72.0029C75.2973 73.2792 75.0833 74.6313 74.853 75.9699C74.1403 80.1103 73.2542 84.2182 72.1947 88.2827C71.894 89.4343 71.5525 90.6347 70.7315 91.4991C70.2871 91.9678 69.7235 92.312 69.2981 92.797C68.6451 93.5422 68.3849 94.542 68.1438 95.504C67.2984 98.8829 66.4502 102.259 65.6048 105.638C65.3799 106.54 65.0466 107.573 64.1768 107.909C63.3422 108.231 62.3695 107.703 61.9088 106.939C61.4482 106.172 61.3804 105.24 61.3696 104.346C61.3046 99.414 62.5321 94.5041 62.1825 89.5833C62.0687 87.9629 61.7056 86.2125 60.4673 85.1611C59.229 84.1098 56.9013 84.3293 56.4081 85.8792C54.6685 84.0637 52.9073 82.232 50.791 80.8744C48.6747 79.5169 46.1358 78.6633 43.6456 79.0156C41.1554 79.3678 38.7844 81.1129 38.1503 83.6735C35.3865 86.9956 34.2809 91.6318 35.2537 95.8427C35.7387 97.9373 36.6926 99.8937 37.3212 101.95C38.0338 104.286 38.3156 106.725 38.7627 109.123C39.6027 113.643 41.0334 118.054 43.0061 122.208C44.0683 124.449 45.5667 126.831 47.9838 127.633C47.7209 145.598 55.3102 165.804 53.3186 183.921Z" fill="#FDE6CD"/>
<path d="M87.7755 82.3652C94.4006 79.7612 101.145 77.1301 108.242 76.5584C116.525 75.5341 125.299 77.4309 132.572 81.8504C133.488 82.4058 134.404 83.0101 135.447 83.2513C135.929 80.4847 136.33 77.588 134.68 75.6398C133.984 74.8187 133.011 74.2931 132.043 73.8216C126.432 71.0848 120.227 69.5674 113.913 69.3994C109.987 69.3615 106.109 70.4453 102.535 72.0739C98.961 73.7024 95.6606 75.8647 92.4226 78.0893C90.6071 79.3385 88.7726 80.6446 87.7755 82.3652Z" fill="#17282F"/>
<path d="M168.638 97.4924C168.188 92.7613 163.888 88.7049 159.138 88.5315C154.967 88.3797 150.683 90.8266 146.784 89.3308C146.494 89.2198 146.199 89.0788 146.012 88.8295C145.833 88.5938 145.768 88.2903 145.757 87.995C145.709 86.8434 146.359 85.7487 147.245 85.0116C148.128 84.2746 149.226 83.8437 150.318 83.4834C155.526 81.7627 161.452 81.4186 166.337 83.9115C167.077 84.2881 167.801 84.7407 168.307 85.3991C168.779 86.0088 169.036 86.7594 169.229 87.5045C170.074 90.748 169.882 94.2516 168.638 97.4924Z" fill="#17282F"/>
<path d="M124.946 89.2972C123.843 84.8018 119.575 81.2793 114.953 81.0489C111.143 80.8593 107.55 82.6612 104.163 84.4143C103.038 84.9969 101.911 85.5795 100.786 86.1621C100.45 86.3355 100.058 86.6851 100.247 87.0102C101.962 86.154 103.678 85.2977 105.396 84.4415C107.384 83.4497 109.39 82.4498 111.541 81.8916C113.693 81.3334 116.026 81.2413 118.096 82.0461C119.732 82.6829 121.147 83.8778 122.049 85.3844C122.8 86.639 123.223 88.1185 124.252 89.159C124.382 89.2891 124.545 89.4218 124.726 89.4029C124.908 89.3839 125.043 89.1265 124.946 89.2972Z" fill="#CEAC87"/>
<path d="M159.982 103.758C157.625 102.869 155.267 101.981 152.91 101.092C152.308 100.864 151.707 100.637 151.146 100.328C150.222 99.8182 149.417 99.0893 148.824 98.2168C148.675 98 148.534 97.7561 148.545 97.4933C148.564 96.927 149.214 96.6289 149.756 96.4609C150.488 96.236 151.219 96.0111 151.954 95.7862C153.27 95.3825 154.606 94.9733 155.986 94.9327C157.362 94.892 158.809 95.2659 159.79 96.2333C160.755 97.1844 161.153 98.6043 161.099 99.9591C161.042 101.311 160.581 102.617 159.982 103.758Z" fill="white" stroke="black" stroke-width="0.4" stroke-miterlimit="10"/>
<path d="M159.524 96.1238C159.984 96.4544 160.139 97.0749 160.139 97.6412C160.139 98.0883 160.063 98.5435 159.862 98.9446C159.472 99.7222 158.621 100.226 157.754 100.259C156.884 100.291 156.025 99.8794 155.454 99.2237C154.882 98.5706 154.589 97.6927 154.584 96.8229C154.578 96.2132 154.749 95.5439 155.256 95.2052C155.63 94.9559 156.109 94.9397 156.559 94.9749C157.34 95.0372 158.106 95.2323 158.822 95.5493C159.212 95.7255 159.613 95.9639 159.524 96.1238Z" fill="#17282F"/>
<path d="M164.128 102.381C165.006 99.465 164.055 96.0806 161.784 94.0511C160.93 93.287 159.92 92.7152 158.874 92.2492C157.234 91.523 155.424 91.046 153.652 91.3062C151.877 91.5663 150.157 92.6773 149.539 94.36C151.436 93.6148 153.368 92.8832 155.392 92.6583C157.419 92.4334 159.578 92.7667 161.215 93.9806C162.448 94.8938 163.312 96.2703 163.681 97.7579C164.068 99.3241 163.924 100.966 163.74 102.568C163.96 102.665 164.244 102.446 164.128 102.381Z" fill="#CEAC87"/>
<path d="M143.197 90.4609C144.736 94.1244 147.159 97.3354 149.356 100.647C151.554 103.958 153.584 107.516 154.174 111.447C154.44 113.228 154.386 115.124 153.556 116.723C153.321 117.176 153.02 117.625 152.996 118.135C152.979 118.493 153.107 118.842 153.18 119.194C153.586 121.164 152.237 123.159 150.486 124.148C148.736 125.137 146.668 125.348 144.666 125.535" stroke="black" stroke-width="0.4" stroke-miterlimit="10"/>
<path d="M145.382 122.887C146.894 122.187 148.406 121.488 149.921 120.787C150.013 120.743 150.111 120.7 150.211 120.708C150.552 120.735 150.574 121.226 150.49 121.556C150.295 122.337 149.978 123.236 149.206 123.461C148.91 123.548 148.596 123.513 148.29 123.48C147.547 123.396 146.805 123.315 146.062 123.231C145.894 123.212 145.713 123.187 145.596 123.065C145.482 122.944 145.496 122.697 145.382 122.887Z" fill="#17282F"/>
<path d="M142.597 119.422C142.855 118.49 142.367 117.409 141.497 116.986C141.188 116.835 140.847 116.761 140.508 116.696C138.086 116.214 135.395 115.965 133.309 117.284C132.658 117.696 132.068 118.298 131.927 119.057C131.913 119.122 131.908 119.195 131.946 119.252C131.984 119.306 132.054 119.328 132.119 119.344C134.13 119.84 136.238 119.387 138.246 118.88C138.725 118.759 139.208 118.637 139.703 118.631C140.654 118.626 141.543 119.062 142.391 119.49C142.511 119.417 142.581 119.263 142.597 119.422Z" fill="#17282F"/>
<path d="M131.012 120.916C129.809 121.174 128.562 121.431 127.362 121.168C125.386 120.737 123.891 118.849 123.696 116.835C123.5 114.822 124.49 112.79 126.048 111.5" stroke="black" stroke-width="0.4" stroke-miterlimit="10"/>
<path d="M149.438 144.436C147.384 142.978 145.636 141.095 144.33 138.943C143.658 137.835 143.013 136.573 141.815 136.077C140.157 135.388 138.106 136.478 136.515 135.646C135.905 135.326 135.461 134.768 134.905 134.361C133.545 133.367 131.673 133.402 130.042 133.836C128.413 134.269 126.888 135.055 125.246 135.443C122.254 136.15 118.983 135.521 116.152 136.719C116.043 136.765 115.932 136.816 115.859 136.909C115.686 137.128 115.827 137.478 116.068 137.624C116.306 137.77 116.604 137.778 116.883 137.8C119.544 138.006 121.739 139.843 124.037 141.198C126.148 142.442 128.473 143.317 130.879 143.778C132.201 144.03 133.543 144.16 134.884 144.287C139.027 144.68 143.17 145.075 147.313 145.468C147.795 145.514 148.313 145.552 148.736 145.317C149.161 145.081 149.397 144.452 149.438 144.436Z" fill="#99746C"/>
<path d="M147.402 144.6C145.957 144.679 144.651 143.779 143.567 142.823C142.484 141.866 141.44 140.774 140.069 140.314C138.966 139.943 137.769 140.024 136.609 139.929C133.449 139.669 130.564 138.105 127.518 137.222C123.695 136.116 119.562 136.108 115.736 137.198C116.387 137.851 117.397 138.013 118.313 137.91C119.229 137.807 120.104 137.477 121.004 137.282C125.109 136.401 129.201 138.387 133.23 139.563C135.102 140.111 137.026 140.484 138.966 140.685C139.606 140.75 140.262 140.802 140.847 141.067C141.89 141.544 142.508 142.609 143.286 143.452C144.215 144.46 145.521 145.21 146.892 145.156C147.128 145.148 147.399 145.088 147.505 144.88C147.608 144.668 147.323 144.359 147.402 144.6Z" fill="#80564D"/>
<path d="M152.579 153.241C152.863 150.62 153.747 148.106 154.229 145.515C154.711 142.925 154.757 140.107 153.47 137.809C151.923 135.043 148.726 133.495 147.2 130.718C146.482 129.409 146.181 127.903 145.471 126.586C145.23 126.139 144.929 125.702 144.488 125.456C143.084 124.664 141.274 126.152 139.762 125.591C138.933 125.282 138.448 124.45 137.822 123.824C137.196 123.199 136.096 122.792 135.505 123.448C132.974 123.589 130.487 124.391 128.346 125.748C127.709 126.152 127.097 126.61 126.392 126.884C125.672 127.163 124.891 127.239 124.124 127.312C121.523 127.558 118.925 127.802 116.323 128.049C114.987 128.176 113.635 128.304 112.37 128.753C111.104 129.203 109.918 130.013 109.297 131.292C108.175 133.363 106.88 135.338 105.623 137.297C103.279 140.858 100.886 144.385 98.4475 147.881C99.0111 148.865 100.501 148.518 101.507 147.989C103.279 147.057 104.962 145.963 106.639 144.868C109.256 143.161 111.917 141.416 113.895 138.999C114.733 137.977 115.451 136.831 116.491 136.018C117.686 135.083 119.196 134.671 120.664 134.295C124.642 133.279 128.701 132.387 132.804 132.471C136.906 132.555 141.109 133.704 144.233 136.368C145.534 137.476 146.612 138.812 147.799 140.042C148.644 140.92 149.571 141.781 149.999 142.922C150.56 144.41 150.17 146.06 150.129 147.648C150.091 149.195 150.395 150.729 150.761 152.233C150.891 152.767 151.078 153.363 151.568 153.609C152.067 153.853 152.828 153.341 152.579 153.241Z" fill="#17282F"/>
<path d="M61.1008 103.191C60.269 114.404 59.4371 125.614 58.6025 136.827C58.299 140.929 58.0145 145.183 59.456 149.036C61.1171 153.472 64.8185 156.759 67.8588 160.393C74.427 168.237 78.245 178.233 85.553 185.392C95.53 195.169 111.596 198.019 124.418 192.478C131.731 189.318 137.76 183.853 143.646 178.485C148.553 174.009 153.544 169.427 156.777 163.628C160.635 156.71 161.687 148.595 162.109 140.685C162.47 133.949 162.424 127.194 161.977 120.463C160.646 121.064 160.096 122.636 159.755 124.056C157.611 132.96 158.126 142.552 154.392 150.914C153.113 153.781 151.368 156.412 149.631 159.027C148.063 161.39 145.534 164.083 142.578 162.961C134.606 163.425 126.629 162.411 118.706 161.401C114.11 160.813 109.265 160.127 105.621 157.266C101.337 153.903 99.6379 148.294 98.2261 143.035C96.8144 137.775 95.2563 132.161 91.1213 128.619C86.5772 124.728 79.9033 124.224 75.1857 120.547C71.7444 117.864 69.6932 113.732 68.585 109.51C68.0755 107.565 67.6935 105.476 66.3657 103.966C65.038 102.457 62.3473 101.931 61.1008 103.191Z" fill="#17282F"/>
<path d="M58.0599 116.918C58.8132 119.736 58.3147 122.866 56.7214 125.31C56.4152 125.781 56.0602 126.237 55.5941 126.554C55.0143 126.946 54.307 127.098 53.6134 127.193C51.6787 127.459 49.6924 127.35 47.7984 126.879" stroke="#CEAC87" stroke-width="0.4" stroke-miterlimit="10"/>
<path d="M55.6946 113.845C56.5264 113.514 57.193 112.788 57.4531 111.929C57.7133 111.07 57.5615 110.097 57.0521 109.36C56.7757 108.959 56.4072 108.631 56.1227 108.238C55.4372 107.29 55.3071 106.049 55.3667 104.878C55.448 103.29 55.8409 101.719 56.5156 100.277" stroke="#CEAC87" stroke-width="0.4" stroke-miterlimit="10"/>
<path d="M55.7969 102.117C54.4827 99.6322 53.9272 96.8304 53.3501 94.0774C52.7729 91.327 52.1415 88.5279 50.7054 86.1136C49.2693 83.6966 46.8739 81.686 44.0775 81.4177C43.4678 81.3581 42.8392 81.3879 42.262 81.5966C41.5088 81.8703 40.8991 82.4366 40.3626 83.0354C37.6664 86.0432 36.3658 90.2567 36.8996 94.2616C37.3087 97.3263 38.7124 100.171 39.3329 103.201C39.9696 106.309 39.7773 109.579 40.7826 112.587" stroke="#CEAC87" stroke-width="0.4" stroke-miterlimit="10"/>
<path d="M42.3773 97.1211C40.9899 100.665 40.7271 104.64 41.6321 108.339C41.8407 109.195 42.1198 110.052 42.6292 110.77C43.1387 111.488 43.9163 112.057 44.7916 112.146C45.1899 112.187 45.7237 112.225 45.7969 112.618" stroke="#CEAC87" stroke-width="0.4" stroke-miterlimit="10"/>
<path d="M53.0137 96.4453C52.4392 96.448 51.8648 96.4507 51.2876 96.4534" stroke="#CEAC87" stroke-width="0.4" stroke-miterlimit="10"/>
<path d="M147.883 85.4322C145.515 85.9227 142.957 85.4241 140.946 84.0774C140.038 83.4704 139.25 82.7063 138.407 82.0126C133.757 78.192 127.69 76.6637 121.916 75.3278C115.239 73.6234 108.256 73.1303 101.431 73.8104C99.3715 74.0868 97.3094 74.3605 95.2311 74.4282C93.2124 74.4932 91.1937 74.3578 89.1749 74.2954C84.2786 74.141 79.3659 74.3957 74.5644 75.1327C72.3451 75.3441 70.1124 75.5554 67.9609 76.1434C65.8094 76.7314 63.7229 77.7178 62.1432 79.2867C62.0836 79.3463 62.0213 79.414 62.0213 79.498C62.0213 79.6552 62.2164 79.7229 62.3708 79.7446C68.9174 80.6496 75.5127 79.0455 82.0864 78.3572C86.9503 77.8478 91.8521 77.8397 96.7431 77.8343C98.0058 77.8316 99.3471 77.8532 100.412 78.5307C102.068 79.5847 102.463 81.8175 102.442 83.7793C102.414 86.34 101.946 88.8762 101.845 91.4341C101.745 93.9921 102.049 96.6665 103.298 98.7855C103.907 99.5361 104.715 100.102 105.547 100.593C109.362 102.845 113.803 103.736 118.19 104.544C120.856 104.945 123.55 105.194 126.243 105.161C127.11 105.151 127.986 105.11 128.823 104.882C129.66 104.655 130.462 104.218 131.02 103.541C133.638 100.533 135.857 97.1759 137.594 93.5883C138.128 92.4855 138.624 91.3501 139.548 90.4424C139.889 89.3829 140.919 88.5836 142.03 88.5131C143.141 88.4427 144.263 89.1065 144.734 90.1145C145.257 91.2309 144.994 92.5451 145.176 93.7645C145.444 95.5718 146.666 97.0784 147.945 98.3845C147.376 95.4065 147.398 92.3175 148.005 89.3477C148.222 88.2909 148.547 87.1881 149.346 86.4646C149.858 85.9985 150.522 85.7357 151.186 85.5406C153.757 84.79 156.502 84.9526 159.16 85.2669C162.279 85.6354 165.376 86.1963 168.428 86.9496C171.216 87.6379 174.015 88.5077 176.394 90.1172C176.952 90.4939 177.497 90.922 177.868 91.4856C178.331 92.1874 178.497 93.0464 178.583 93.8837C179.093 98.7774 177.364 103.625 175.267 108.077C174.541 109.619 173.676 111.234 172.167 112.025C170.939 112.667 169.482 112.654 168.1 112.589C163.203 112.358 158.236 111.646 153.828 109.5C153.768 109.855 153.706 110.22 153.784 110.573C154.009 111.581 155.185 112.001 156.188 112.244C160.491 113.296 164.902 114.274 169.311 113.84C170.574 113.716 171.847 113.467 172.95 112.843C174.711 111.843 175.825 110.014 176.733 108.204C178.042 105.587 179.085 102.839 179.838 100.013C180.223 98.5714 180.74 96.8725 182.166 96.4199C182.531 96.3034 182.943 96.279 183.236 96.0325C183.474 95.8319 183.586 95.5258 183.688 95.2331C183.987 94.3768 184.263 93.3499 183.718 92.6264C183.466 92.2904 183.079 92.0872 182.702 91.8975C178.963 89.9953 175.172 88.188 171.403 86.554C167.224 85.2046 162.881 84.4432 158.537 83.8118C157.345 83.6384 156.145 83.4731 154.939 83.4731C152.411 83.4677 150.175 84.9553 147.883 85.4322Z" fill="black" stroke="black" stroke-miterlimit="10"/>
<path d="M178.5 93.6602C175.817 93.8092 173.145 94.1316 170.503 94.6221C170.249 94.6682 169.98 94.7251 169.788 94.8958C169.647 95.0204 169.563 95.1938 169.479 95.3645C168.981 96.3888 168.485 97.4158 167.986 98.44C168.672 98.7516 169.43 98.2856 170.135 98.0254C170.693 97.8222 171.289 97.7463 171.877 97.6732C173.384 97.4862 174.893 97.2993 176.4 97.1123C176.955 97.0445 177.511 96.9741 178.063 96.9063C178.204 96.8901 178.361 96.863 178.451 96.7519C178.529 96.6543 178.535 96.5189 178.538 96.3915C178.554 95.4783 178.567 94.5625 178.5 93.6602Z" fill="white"/>
<path d="M137.896 87.3401C138.319 86.1072 137.842 84.7035 136.996 83.7145C136.148 82.7255 134.98 82.0724 133.815 81.4871C126.689 77.905 118.706 76.0407 110.732 76.0949C110.024 76.1003 109.304 76.122 108.64 76.3686C108.106 76.5664 107.629 76.9078 107.25 77.3359C104.291 82.3542 102.974 88.3237 103.537 94.1224C103.629 95.0762 103.778 96.0462 104.234 96.889C104.933 98.1842 106.252 99.0106 107.558 99.688C112.249 102.116 117.495 103.357 122.76 103.769C124.8 103.929 126.946 103.948 128.775 103.026C130.661 102.078 131.94 100.271 133.127 98.5229C135.495 95.0355 136.617 91.0794 137.896 87.3401Z" fill="#FDE6CD" stroke="black" stroke-miterlimit="10"/>
<path d="M103.751 88.8899C104.762 88.1474 105.77 87.4049 106.781 86.6625C108.929 85.0828 111.241 83.4407 113.904 83.2781C115.676 83.1697 117.481 83.7713 118.836 84.9175C120.372 86.2181 121.272 88.1122 122.619 89.6106C123.017 90.055 123.461 90.4723 123.746 90.998C124.03 91.5237 124.131 92.1984 123.505 92.51C117.668 92.7864 111.783 91.987 106.23 90.1661C105.361 89.8789 104.475 89.5537 103.751 88.8899Z" fill="white" stroke="black" stroke-width="0.4" stroke-miterlimit="10"/>
<path d="M117.035 83.7616C117.937 84.1708 118.829 84.6829 119.425 85.4769C120.021 86.2681 120.262 87.3926 119.796 88.2678C119.414 88.9859 118.642 89.414 117.867 89.6606C117.23 89.8638 116.542 89.9722 115.897 89.8042C115.157 89.6118 114.556 89.0807 114.044 88.5117C113.523 87.9318 113.055 87.268 112.905 86.5038C112.681 85.3468 113.307 84.076 114.361 83.5476C115.415 83.0192 116.81 83.2874 117.035 83.7616Z" fill="#17282F"/>
<path d="M124.941 89.2784C124.943 89.2847 124.944 89.2909 124.946 89.2972C124.995 89.2121 124.985 89.2334 124.941 89.2784C123.831 84.792 119.569 81.2789 114.953 81.0489C111.215 80.8629 107.687 82.5933 104.356 84.3141L104.163 85.0562L105.396 84.4415L105.396 84.4413C107.385 83.4496 109.39 82.4498 111.541 81.8916C113.693 81.3334 116.026 81.2413 118.096 82.0461C119.732 82.6829 121.147 83.8778 122.049 85.3844C122.8 86.639 123.223 88.1185 124.252 89.159C124.382 89.2891 124.545 89.4218 124.726 89.4029C124.818 89.3934 124.897 89.3238 124.941 89.2784Z" fill="#CEAC87"/>
<path d="M132.567 81.8515C125.294 77.432 116.52 75.5353 108.237 76.5595C109.021 76.2817 109.476 76.2019 110.287 76.1717C122.623 75.4647 135.345 81.8515 135.551 82.6112L135.442 83.2524C134.398 83.0113 133.483 82.407 132.567 81.8515Z" fill="#17282F"/>
<path d="M143.56 286.889C145.826 293.525 148.734 299.988 150.014 306.883C150.308 308.468 150.874 310.759 151.381 312.392C162.974 308.504 183.228 294.525 189.502 287.091C187.774 284.601 186.191 281.759 184.585 279.199C174.147 262.568 164.08 245.702 154.398 228.619C151.925 224.254 149.414 219.677 149.146 214.67C148.957 211.152 149.894 207.686 150.452 204.211C151.009 200.735 151.153 196.994 149.447 193.978C148.572 191.865 147.823 189.582 148.188 187.326C148.386 186.107 148.901 184.954 149.056 183.73C149.181 182.747 149.07 181.749 149.004 180.758C148.72 176.495 149.292 172.179 150.673 168.137C150.845 167.635 151.03 167.118 150.976 166.591C150.922 166.064 150.543 165.527 150.014 165.489C149.548 165.456 149.146 165.805 148.849 166.165C148.444 166.659 148.124 167.224 147.908 167.826C147.706 168.388 147.593 168.986 147.324 169.52C146.95 170.264 146.301 170.826 145.698 171.4C144.557 172.49 143.524 173.697 142.816 175.071C141.338 172.916 139.839 170.713 139.117 168.202C138.804 167.118 138.644 165.995 138.357 164.904C137.101 160.113 133.543 156.249 131.938 151.762C129.766 148.618 125.702 147.569 122.326 145.778C119.785 144.43 117.505 142.564 114.801 141.585C113.116 140.976 111.328 140.733 109.554 140.493C107.596 140.23 105.641 139.966 103.683 139.703C102.372 139.526 101.024 139.35 99.7391 139.67C99.2097 139.801 98.6732 140.039 98.3626 140.489C98.0732 140.907 98.0285 141.451 98.0614 141.959C98.1885 143.846 99.2827 145.566 100.685 146.835C102.087 148.103 103.789 148.988 105.473 149.849C106.554 150.399 107.636 150.95 108.775 151.364C109.878 151.767 111.031 152.042 112.069 152.588C113.008 153.082 113.82 153.781 114.636 154.456C116.107 155.675 117.625 156.837 119.18 157.946C119.41 158.108 119.648 158.28 119.789 158.524C119.89 158.696 119.935 158.894 119.978 159.089C120.356 160.788 120.733 162.485 121.109 164.184C121.561 166.219 122.013 168.334 121.42 170.315C119.899 169.99 118.379 169.664 116.858 169.337L116.036 169.16C113.231 168.558 110.424 167.955 107.617 167.353C105.358 166.868 103.015 166.381 100.756 166.875C99.6074 167.127 98.4003 167.755 98.1485 168.962C97.0026 170.238 96.9602 172.118 96.6285 173.8C96.3084 175.424 95.6684 176.963 95.0755 178.523C94.1013 178.68 93.3295 179.485 92.9366 180.391C92.5436 181.299 92.4636 182.304 92.3907 183.29C92.3059 184.403 92.2236 185.514 92.1389 186.624C92.0754 187.46 92.0118 188.302 92.1036 189.137C92.1554 189.61 92.2565 190.086 92.1883 190.556C92.1201 191.027 91.8354 191.507 91.3224 191.676C90.0118 193.041 88.9153 194.608 88.0823 196.307C87.7905 196.9 87.5269 197.516 87.0987 198.015C86.8163 198.345 86.4704 198.613 86.1904 198.945C85.2751 200.029 85.2234 201.578 85.2328 202.997C85.2469 204.973 85.2963 206.947 85.3833 208.922C85.4304 209.98 85.5881 211.213 86.5057 211.745C87.0775 212.077 87.7976 212.023 88.4376 211.853C90.56 211.291 92.3059 209.489 92.8001 207.35C93.0777 206.15 93.0377 204.766 93.8919 203.879C95.8167 207.131 97.7391 210.38 99.6639 213.632C99.8098 213.877 99.965 214.134 100.217 214.27C100.607 214.484 101.09 214.336 101.511 214.183C102.085 213.976 102.671 213.762 103.146 213.378C104.273 212.472 104.516 210.865 104.518 209.42C104.521 207.976 104.377 206.456 105.012 205.157C105.186 206.227 105.702 207.239 106.325 207.799C108.622 218.67 114.408 228.487 120.914 237.492C121.573 238.403 122.241 239.309 122.985 240.151C123.434 240.659 123.912 241.144 124.389 241.629C126.375 243.645 128.361 245.659 130.378 247.617C137.006 259.761 139.084 273.797 143.56 286.889Z" fill="#FDE6CD" stroke="black" stroke-width="0.4" stroke-miterlimit="10"/>
<path d="M106.32 140.204C106.725 140.291 107.12 140.425 107.494 140.607C107.6 140.658 107.711 140.72 107.765 140.825C107.871 141.035 107.694 141.275 107.525 141.437C105.515 143.362 102.492 144.164 99.7904 143.487C99.0398 143.298 98.2445 142.936 97.9504 142.223C97.7362 141.703 97.8445 141.084 98.1551 140.614C98.5386 140.03 99.1951 139.665 99.8751 139.505C100.555 139.345 101.263 139.369 101.96 139.425C103.475 139.543 104.953 139.912 106.32 140.204Z" fill="white" stroke="black" stroke-width="0.4" stroke-miterlimit="10"/>
<path d="M136.213 173.286C134.747 173.248 133.3 172.947 131.864 172.648C128.302 171.907 124.742 171.163 121.179 170.422" stroke="black" stroke-width="0.4" stroke-miterlimit="10"/>
<path d="M118.32 179.851C114.4 179.903 110.534 179.053 106.659 178.47C102.783 177.886 98.7573 177.576 94.9971 178.679" stroke="black" stroke-width="0.4" stroke-miterlimit="10"/>
<path d="M111.537 188.938C106.984 189.867 102.28 189.314 97.6331 189.34C95.5648 189.352 93.2635 189.587 91.8893 191.133" stroke="black" stroke-width="0.4" stroke-miterlimit="10"/>
<path d="M105.006 205.052C104.251 204.744 104.321 203.414 103.535 203.198C103.38 203.155 103.208 203.165 103.072 203.08C102.945 203 102.876 202.854 102.818 202.715C102.62 202.264 102.425 201.809 102.227 201.358C101.728 201.697 101.076 201.689 100.476 201.633C98.0433 201.405 95.6691 200.562 93.6337 199.207" stroke="black" stroke-width="0.4" stroke-miterlimit="10"/>
<path d="M96.5977 200.824C96.0823 202.027 95.0305 202.947 93.8376 203.481C92.6446 204.015 91.3175 204.189 90.0115 204.187" stroke="black" stroke-width="0.4" stroke-miterlimit="10"/>
<path d="M101.054 201.773C102.39 203.098 103.315 204.774 104.171 206.447C104.336 206.767 104.501 207.103 104.508 207.463" stroke="black" stroke-width="0.4" stroke-miterlimit="10"/>
<path d="M149.982 165.633C149.347 166.494 148.989 167.555 148.975 168.626C148.973 168.72 148.978 168.821 149.025 168.901C149.067 168.972 149.14 169.019 149.211 169.059C149.406 169.172 149.615 169.259 149.832 169.32C149.999 169.367 150.187 169.395 150.335 169.306C150.488 169.214 150.549 169.024 150.599 168.852C150.7 168.489 150.799 168.125 150.888 167.758C151.015 167.242 151.126 166.682 150.914 166.195C150.822 165.981 150.66 165.786 150.441 165.706C150.225 165.626 149.947 165.682 149.982 165.633Z" fill="white" stroke="black" stroke-width="0.4" stroke-miterlimit="10"/>
<path d="M142.989 175.617C143.462 176.944 143.659 178.37 143.565 179.775" stroke="black" stroke-width="0.4" stroke-miterlimit="10"/>
<defs>
<linearGradient id="paint0_linear_765_1902" x1="18.0898" y1="289.339" x2="189.071" y2="132.622" gradientUnits="userSpaceOnUse">
<stop stop-color="#D9B430"/>
<stop offset="1" stop-color="#303030" stop-opacity="0"/>
</linearGradient>
</defs>
</svg>
