<svg width="442" height="341" viewBox="0 0 442 341" fill="none" xmlns="http://www.w3.org/2000/svg">
<circle cx="226.361" cy="215.362" r="104.383" transform="rotate(-11.434 226.361 215.362)" fill="url(#paint0_linear_691_5051)" stroke="white" stroke-width="4"/>
<path d="M237.423 182.977L204.223 173.465L204.223 135.003L247.615 144.784C247.571 144.788 248.348 164.687 248.855 170.432L237.423 182.977Z" fill="#F2DBC1"/>
<path d="M257.854 165.998C268.883 158.263 273.977 153.046 287.047 146.965L304.414 213.544C297.683 219.389 299.856 228.192 297.468 238.439C297.555 240.324 295.981 268.261 295.5 291.003C261 323.001 206.5 327.003 167.506 299V293.026L153.437 214.509C151.136 194.53 158.076 179.182 170.484 151.79L195.047 167.409L203.601 154.454L231.303 170.537L251.056 155.502L257.854 165.998Z" fill="#7687C1"/>
<path d="M256.545 168.992C256.651 169.125 255.178 170.677 252.811 173.183C250.445 175.691 247.2 179.176 243.766 183.176C243.043 184.028 242.336 184.862 241.652 185.667L241.196 186.203L240.786 185.638C238.126 181.954 235.825 178.682 234.218 176.307C232.609 173.93 231.694 172.452 231.806 172.358C231.917 172.263 233.035 173.569 234.801 175.811C236.565 178.052 238.976 181.231 241.675 184.883L240.81 184.854C241.494 184.04 242.202 183.197 242.925 182.334C246.383 178.306 249.742 174.894 252.26 172.54C254.782 170.186 256.445 168.866 256.545 168.992Z" fill="#17282F"/>
<path d="M234.722 318C234.675 318 234.626 317.493 234.575 316.527C234.536 315.481 234.485 314.074 234.42 312.303C234.305 308.547 234.144 303.261 233.945 296.768C233.468 283.575 232.815 265.492 232.092 245.516C231.386 225.494 230.966 207.363 231.002 194.238C230.997 187.676 231.106 182.365 231.237 178.696C231.318 176.925 231.382 175.517 231.429 174.472C231.489 173.506 231.543 172.999 231.592 173C231.64 173 231.679 173.509 231.71 174.474C231.726 175.52 231.749 176.928 231.777 178.699C231.826 182.455 231.896 187.74 231.984 194.235C232.197 207.353 232.773 225.474 233.479 245.496C234.184 265.51 234.767 283.634 234.926 296.758C235.022 303.32 235.015 308.631 234.96 312.301C234.916 314.072 234.881 315.48 234.854 316.527C234.815 317.493 234.771 318 234.722 318Z" fill="#17282F"/>
<path d="M273.769 258.318C273.806 258.392 272.757 259.014 270.828 260.076C268.901 261.144 266.082 262.625 262.573 264.407C255.558 267.971 245.75 272.664 234.738 277.427C223.721 282.186 213.592 286.107 206.202 288.77C202.509 290.101 199.505 291.137 197.413 291.806C195.323 292.48 194.157 292.817 194.129 292.739C194.103 292.66 195.22 292.175 197.261 291.367C199.505 290.486 202.415 289.346 205.916 287.974C213.223 285.113 223.283 281.073 234.282 276.324C245.273 271.569 255.116 267.007 262.214 263.642C265.615 262.031 268.443 260.692 270.624 259.659C272.615 258.726 273.733 258.245 273.769 258.318Z" fill="#17282F"/>
<path d="M230.702 171.199C230.851 171.267 229.845 173.806 228.1 177.857C227.645 178.9 227.165 180.002 226.659 181.163C226.081 182.364 225.701 183.582 224.846 184.991C224.434 185.668 223.447 186.374 222.414 186.166C221.432 185.987 220.774 185.413 220.129 184.999C218.812 184.099 217.457 183.173 216.069 182.223C210.51 178.406 205.518 174.895 201.937 172.307C198.356 169.717 196.188 168.05 196.28 167.916C196.373 167.783 198.708 169.209 202.409 171.623C206.112 174.037 211.178 177.439 216.737 181.257C218.121 182.214 219.471 183.146 220.783 184.053C221.447 184.51 222.048 184.97 222.598 185.061C223.128 185.163 223.587 184.885 223.962 184.365C225.269 181.992 226.359 179.433 227.343 177.512C229.282 173.549 230.554 171.132 230.702 171.199Z" fill="#17282F"/>
<path d="M293.231 206.65C293.334 206.644 293.519 207.707 293.762 209.635C294.013 211.561 294.275 214.356 294.508 217.814C294.997 224.727 295.252 234.291 295.284 244.845C295.284 255.279 295.283 264.715 295.283 271.867C295.287 275.144 295.29 277.89 295.293 280.054C295.283 281.988 295.228 283.06 295.125 283.062C295.022 283.066 294.878 282 294.71 280.069C294.533 278.137 294.37 275.339 294.224 271.88C293.925 264.963 293.815 255.402 293.786 244.848C293.754 234.298 293.665 224.753 293.449 217.845C293.342 214.569 293.252 211.825 293.181 209.662C293.115 207.729 293.128 206.656 293.231 206.65Z" fill="#5F6FA7"/>
<path d="M158.645 210.962C158.733 210.948 158.973 211.801 159.334 213.359C159.702 214.915 160.148 217.182 160.638 219.992C161.626 225.612 162.67 233.418 163.539 242.059C164.407 250.7 165.044 258.529 165.523 264.193C165.73 266.823 165.906 269.062 166.049 270.904C166.157 272.491 166.175 273.374 166.086 273.383C165.998 273.392 165.812 272.527 165.551 270.954C165.286 269.38 164.969 267.097 164.616 264.272C163.905 258.622 163.123 250.8 162.256 242.169C161.389 233.54 160.491 225.742 159.737 220.108C159.385 217.494 159.086 215.266 158.839 213.434C158.632 211.856 158.558 210.975 158.645 210.962Z" fill="#5F6FA7"/>
<path d="M262.132 108.38C263.701 107.437 264.78 105.721 264.949 103.897C264.757 101.94 265.388 100.103 265.812 98.2662C266.26 96.3197 266.478 94.3271 266.873 92.3688C267.198 90.7611 267.651 89.1565 268.491 87.7471C269.06 86.791 269.8 85.938 270.3 84.9439C270.74 84.0704 270.983 83.1099 271.143 82.1451C271.273 81.363 271.348 80.5535 271.158 79.7845C270.941 78.9085 270.384 78.0705 270.532 77.1802C270.587 76.8476 270.741 76.5225 270.697 76.1886C270.61 75.5352 269.861 75.2275 269.228 75.046C268.191 74.8035 267.129 75.161 266.269 75.7161C265.408 76.2707 264.686 77.0142 263.874 77.6378C263.362 78.0307 262.738 78.3919 262.128 78.2483C260.696 81.0223 260.276 84.1917 259.881 87.2883C259.433 90.7903 258.987 94.3402 259.449 97.8403C259.667 99.4996 260.088 101.127 260.292 102.788C260.537 104.773 260.545 106.979 261.89 108.458C262.001 108.392 262.114 108.328 262.132 108.38Z" fill="#F2DBC1" stroke="#CEAC87" stroke-width="0.4" stroke-miterlimit="10"/>
<path d="M264.91 100.619C264.283 99.9876 263.605 99.2093 263.75 98.3314C263.878 97.5587 264.593 97.0483 265.086 96.4402C266.035 95.2702 266.186 93.6656 266.355 92.1406C267.053 90.2146 266.722 88.0909 266.46 86.0592C266.197 84.0275 266.039 81.8435 267.019 80.0456C267.39 79.3667 267.906 78.7798 268.433 78.2141C268.93 77.6813 269.53 77.123 270.259 77.1411" fill="#F2DBC1"/>
<path d="M264.91 100.619C264.283 99.9876 263.605 99.2093 263.75 98.3314C263.878 97.5587 264.593 97.0483 265.086 96.4402C266.035 95.2702 266.186 93.6656 266.355 92.1406C267.053 90.2146 266.722 88.0909 266.46 86.0592C266.197 84.0275 266.039 81.8435 267.019 80.0456C267.39 79.3667 267.906 78.7798 268.433 78.2141C268.93 77.6813 269.53 77.123 270.259 77.1411" stroke="#CEAC87" stroke-width="0.4" stroke-miterlimit="10"/>
<path d="M180.86 83.2653C180.647 82.6162 179.859 82.4111 179.256 82.0903C178.507 81.6924 177.946 81.006 177.209 80.5858C176.1 79.9535 174.628 80.025 173.586 80.7623C173.445 80.8618 173.307 80.9781 173.233 81.1341C173.059 81.5034 173.293 81.9237 173.481 82.2861C174.727 84.6933 174.034 87.7141 175.105 90.204C175.489 91.0992 176.086 91.8838 176.573 92.7274C177.618 94.5378 178.146 96.5925 178.662 98.618C178.955 99.7675 179.248 100.919 179.463 102.086C179.735 103.565 179.881 105.067 180.224 106.531C180.567 107.996 181.125 109.445 182.112 110.58C182.536 109.457 182.265 108.204 182.352 107.008C182.431 105.924 182.806 104.887 183.165 103.861C183.962 101.586 184.704 99.2739 185.012 96.8835C185.32 94.493 185.178 92.0007 184.255 89.7738C183.3 87.4673 181.602 85.5226 180.86 83.2653Z" fill="#F2DBC1" stroke="#CEAC87" stroke-width="0.4" stroke-miterlimit="10"/>
<path d="M173.59 81.5391C174.753 81.7125 175.503 82.826 176.105 83.8362C176.685 84.8092 177.272 85.7977 177.567 86.8912C178.284 89.5415 177.214 92.4833 178.172 95.0559" fill="#F2DBC1"/>
<path d="M173.59 81.5391C174.753 81.7125 175.503 82.826 176.105 83.8362C176.685 84.8092 177.272 85.7977 177.567 86.8912C178.284 89.5415 177.214 92.4833 178.172 95.0559" stroke="#CEAC87" stroke-width="0.4" stroke-miterlimit="10"/>
<path d="M178.176 86.4375C178.284 87.1487 178.707 87.7667 179.12 88.356C179.478 88.8689 179.836 89.3812 180.195 89.8941" fill="#F2DBC1"/>
<path d="M178.176 86.4375C178.284 87.1487 178.707 87.7667 179.12 88.356C179.478 88.8689 179.836 89.3812 180.195 89.8941" stroke="#CEAC87" stroke-width="0.4" stroke-miterlimit="10"/>
<path d="M181.791 91.2789C180.257 88.901 181.175 85.7527 180.666 82.9694C180.327 81.1205 179.357 79.4574 178.695 77.6981C177.095 73.4382 177.346 68.6991 178.189 64.2272C179.032 59.7554 180.441 55.3967 181.112 50.8956C181.5 48.2951 181.639 45.6573 181.525 43.03C181.391 39.9004 180.925 36.6197 182.493 33.9048C182.646 26.2685 187.91 18.9904 195.114 16.4526C196.176 16.0784 197.269 15.7998 198.329 15.4206C203.873 13.4356 208.621 8.69141 214.508 8.80705C216.255 8.84124 217.973 9.31932 219.72 9.32057C221.291 9.32243 222.833 8.93947 224.39 8.73431C229.918 8.00693 235.716 9.62831 240.226 12.8561C242.575 15.9634 244.959 19.1073 248.011 21.5275C249.614 22.7982 251.398 23.8682 252.766 25.3882C254.481 27.2949 255.41 29.7612 256.303 32.1647C257.547 35.5125 258.79 38.8609 260.033 42.2087C263.593 51.7971 267.196 62.2136 264.324 72.0307C263.472 74.9452 262.047 77.8852 262.59 80.873C262.695 81.4506 262.865 82.0866 262.568 82.5933C262.313 83.0291 261.793 83.2212 261.311 83.3698C255.448 85.1795 249.221 85.2889 243.107 85.8099C228.617 87.044 214.451 90.6491 200.179 93.4368C197.096 94.0392 193.965 94.6062 190.832 94.3799C187.7 94.1543 183.553 94.0125 181.791 91.2789Z" fill="#17282F"/>
<path d="M181.913 90.382C182.268 84.4697 181.932 78.5157 180.913 72.6805C180.745 71.72 180.558 70.7458 180.664 69.776C181.103 65.7655 186.206 63.4577 186.537 59.4366C186.661 57.9328 186.07 56.4767 185.68 55.0195C185.29 53.5623 185.131 51.8855 186.001 50.6521C186.525 49.9079 187.349 49.4392 188.165 49.037C189.905 48.1803 191.74 47.5151 193.777 46.8324C201.966 46.263 209.961 44.1523 218.065 42.8443C222.232 42.1716 226.431 41.7109 230.629 41.2701C237.293 40.5701 244.162 39.9354 250.587 41.8396C251.764 42.1884 252.972 42.6584 253.76 43.5996C254.992 45.0706 254.85 47.2614 254.254 49.0854C253.659 50.9095 252.679 52.6254 252.514 54.3885C251.957 57.3465 253.168 60.5694 255.536 62.4288C256.991 63.5721 258.864 64.2634 259.907 65.7922C261.136 67.5938 260.845 69.9756 260.739 72.154C260.325 80.6805 263.531 89.2934 261.656 97.6869C261.894 102.091 259.784 106.225 258.252 110.361C256.275 115.698 255.208 121.334 253.303 126.698C251.398 132.062 248.485 137.322 243.776 140.52C241.102 142.336 237.991 143.392 234.877 144.258C229.181 145.843 223.229 146.868 217.357 146.18C211.484 145.493 205.664 142.936 201.936 138.277C198.027 135.888 195.342 131.949 193.065 127.973C190.627 123.717 188.515 119.285 186.406 114.857C185.422 112.793 184.436 110.723 183.721 108.551C181.8 102.726 181.548 96.4435 181.913 90.382Z" fill="#F2DBC1"/>
<path d="M188.527 81.1961C194.007 76.733 201.825 75.3261 208.517 77.6003C209.663 77.9894 210.772 78.4762 211.905 78.8971C212.07 78.9587 212.262 79.0165 212.415 78.9288C212.559 78.8461 212.609 78.6652 212.639 78.5017C213.036 76.2941 211.741 73.8962 209.677 73.0178C208.533 72.531 207.256 72.4881 206.013 72.4589C200.788 72.3383 195.364 72.388 190.631 74.6006C189.363 75.1931 188.133 75.9627 187.31 77.0942C186.487 78.2257 186.136 79.7768 186.703 81.0562C186.761 81.1874 186.833 81.3192 186.95 81.4019C187.514 81.7985 188.287 80.7075 188.527 81.1961Z" fill="#17282F"/>
<path d="M213.574 89.7092C213.367 90.7704 212.813 91.726 212.286 92.6703C211.474 94.1251 210.695 95.637 210.427 97.2814C210.16 98.9258 210.478 100.745 211.747 102.137C212.789 101.784 213.863 101.426 214.961 101.487C216.125 101.55 217.252 102.107 218.01 102.992C218.744 103.849 219.193 105.033 220.218 105.505C221.234 105.973 222.46 105.536 223.326 104.828C224.191 104.12 224.823 103.169 225.62 102.385C226.503 101.518 227.592 100.861 228.77 100.484C229.3 100.315 229.888 100.204 230.404 100.41C230.921 100.617 231.296 101.25 231.066 101.765C232.631 101.599 233.69 99.9447 233.756 98.3725C233.823 96.8002 233.156 95.3019 232.519 93.8627C231.836 92.3178 231.173 90.7648 230.53 89.2031" stroke="#CEAC87" stroke-width="0.4" stroke-miterlimit="10"/>
<path d="M212.43 101.79C213.596 101.333 214.913 101.48 216.126 101.793C216.663 101.931 217.212 102.11 217.621 102.485C217.755 102.606 217.878 102.77 217.857 102.95C217.83 103.173 217.582 103.314 217.357 103.306C217.132 103.298 216.926 103.184 216.727 103.08C215.424 102.404 213.948 102.065 212.481 102.106C212.417 101.972 212.489 101.793 212.43 101.79Z" fill="#17282F"/>
<path d="M225.645 102.566C226.55 101.405 227.962 100.655 229.431 100.553C230.014 100.513 230.72 100.651 230.938 101.194C231.007 101.365 231.004 101.587 230.866 101.71C230.798 101.77 230.708 101.799 230.621 101.822C229.768 102.054 228.867 102.024 227.991 102.142C227.344 102.23 226.708 102.4 226.103 102.649C225.984 102.697 225.858 102.75 225.731 102.732C225.604 102.714 225.482 102.593 225.645 102.566Z" fill="#17282F"/>
<path d="M180.641 82.238C181.557 86.9796 180.766 91.863 180.739 96.6923C180.721 100.048 181.075 103.394 181.453 106.728C181.931 110.935 182.458 115.173 183.818 119.182C186.599 127.383 192.619 134.012 198.405 140.574C200.405 143.582 203.63 145.512 206.77 147.294C211.819 150.157 217.066 152.943 222.804 153.815C228.388 154.664 234.224 153.601 239.215 150.959C244.206 148.316 248.34 144.124 250.992 139.253C253.378 134.152 255.593 128.97 257.631 123.72C259.515 118.866 261.258 113.916 261.974 108.85C262.554 104.455 263.135 100.059 263.716 95.664C263.844 94.6905 263.973 93.7132 263.964 92.7309C263.956 91.8189 263.829 90.9124 263.697 90.0104C263.037 85.518 262.227 81.0368 261.987 76.5028C261.965 76.0963 261.941 75.666 261.712 75.3291C261.484 74.9921 260.972 74.8125 260.62 75.2159C260.867 78.404 261.114 81.5914 261.361 84.7794C261.68 88.887 261.994 93.0629 261.13 97.0914C260.408 100.459 258.885 103.599 257.115 106.503C252.946 108.943 249.799 112.839 247.4 117.032C245.001 121.224 243.27 125.758 241.302 130.169C240.764 131.373 240.19 132.596 239.258 133.53C237.527 135.263 234.911 135.684 232.476 135.957C226.431 136.635 220.226 136.938 214.341 135.4C208.455 133.861 202.869 130.238 200.202 124.771C198.69 121.671 198.177 118.153 196.616 115.076C193.232 108.402 185.319 104.509 183.158 97.3451C182.098 93.8319 182.616 90.0688 182.661 86.3996C182.682 84.6837 182.304 82.5587 180.641 82.238Z" fill="#17282F" stroke="black" stroke-width="0.4" stroke-miterlimit="10"/>
<path d="M237.271 114.49C239.039 116.876 240.825 119.293 241.94 122.045C242.672 123.852 243.164 125.875 244.608 127.184C244.747 125.923 244.268 124.687 243.829 123.497C242.234 119.171 241.066 114.689 240.348 110.136C240.16 108.935 239.357 108.041 238.438 107.519C237.519 106.996 236.473 106.754 235.486 106.375C233.242 105.513 231.058 103.896 228.695 104.33C226.481 104.737 224.882 106.861 222.668 107.263C220.463 107.664 218.384 104.94 216.567 104.94C212.689 106.037 208.754 106.908 206.044 109.561C203.265 112.281 202.316 116.447 202.625 120.323C202.717 121.486 202.91 122.649 202.822 123.812C202.734 124.974 202.321 126.173 201.18 127.013C203.001 127.161 204.013 124.999 204.523 123.243C205.655 119.341 207.206 115.139 210.733 113.119C214.056 111.216 218.164 111.799 221.989 111.597C224.452 111.467 226.921 110.989 229.368 111.29C232.384 111.662 235.771 112.467 237.271 114.49Z" fill="#17282F"/>
<path d="M215.755 71.3855C216.889 71.4794 217.83 72.2553 218.858 72.7427C220.616 73.577 222.667 73.5646 224.582 73.2102C225.357 73.0666 226.136 72.8639 226.81 72.4536C227.457 72.0595 228.019 71.4707 228.807 71.2917C230.383 71.2121 231.897 70.6774 233.455 70.4269C234.074 70.3268 234.7 70.2721 235.326 70.2236C238.258 69.9948 241.201 69.8978 244.161 69.9389C244.849 69.8643 245.543 69.919 246.232 69.9737C249 70.1931 251.784 70.4151 254.474 71.1014C254.916 71.2146 255.357 71.3402 255.807 71.4166C256.263 71.495 256.727 71.5223 257.189 71.5497C257.692 71.5795 258.195 71.6093 258.698 71.6392C259.033 71.6591 259.375 71.6808 259.79 71.8928C259.771 72.7477 259.751 73.6031 259.731 74.458C259.729 74.5686 259.723 74.6892 259.652 74.7744C259.579 74.862 259.458 74.8882 259.347 74.9174C258.528 75.1319 257.871 75.7722 257.458 76.512C257.045 77.2518 256.847 78.0893 256.678 78.9192C256.013 82.1738 255.68 85.6099 253.894 88.4087C253.125 89.5278 251.752 90.0506 250.436 90.3857C247.081 91.2405 243.58 91.2872 240.166 91.3636C237.239 91.4221 234.302 90.9682 231.515 90.0519C230.192 89.5427 229.309 88.3068 228.563 87.1013C227.907 86.0419 227.292 84.9484 226.878 83.7734C226.245 81.9761 226.095 80.0209 225.209 78.2515C225.071 77.6236 224.587 77.1076 224.011 76.8216C223.436 76.5356 222.776 76.4586 222.133 76.4809C221.642 76.4983 221.14 76.5754 220.714 76.8191C219.836 77.3196 219.476 78.379 219.193 79.4047C218.339 80.9061 218.066 82.6618 217.429 84.267C217.151 84.9677 216.804 85.6385 216.441 86.2987C215.947 87.1958 215.417 88.0842 214.71 88.8259C214.005 89.5676 213.104 90.1594 212.09 90.331C208.662 91.5389 204.934 91.4668 201.282 91.3798C198.281 91.5104 195.254 91.0335 192.471 89.9947C191.474 89.7155 190.696 88.9204 190.146 88.0438C189.332 86.7457 188.922 85.2406 188.518 83.7504C188.13 81.9251 187.81 80.0855 187.557 78.2366C187.486 77.7194 187.419 77.194 187.221 76.711C187.023 76.2279 186.674 75.7822 186.191 75.5869C185.897 75.4682 185.573 75.4483 185.264 75.3781C184.954 75.3078 184.635 75.1673 184.477 74.8931C184.397 74.7551 184.365 74.5953 184.334 74.4393C184.173 73.6199 184.03 72.6998 184.528 72.0302C184.76 71.8158 185.092 71.7517 185.406 71.7107C186.489 71.5683 187.59 71.587 188.673 71.444C190.393 71.2164 192.036 70.5842 193.744 70.2982C196.298 70.1067 198.858 69.9867 201.431 69.8438C203.716 69.9252 206.002 70.0066 208.287 70.0874C210.855 70.1776 213.28 71.1798 215.755 71.3855Z" fill="black" stroke="black" stroke-width="0.4" stroke-miterlimit="10"/>
<path d="M84.2062 117.922C85.899 118.164 86.9136 119.851 88.0743 121.107C90.3578 123.577 93.7547 124.65 97.036 125.388C100.317 126.125 103.734 126.658 106.621 128.383C109.066 129.843 111.148 132.156 113.96 132.609C115.04 132.783 116.144 132.66 117.236 132.717C119.467 132.835 121.65 133.732 123.347 135.355C125.278 135.401 127.196 135.925 128.883 136.865C129.269 137.08 129.655 137.321 130.09 137.398C130.962 137.551 131.805 137.02 132.686 136.935C134.464 136.764 135.907 138.374 137.647 138.776C139.672 139.244 141.72 138.018 143.797 138.085C145.383 138.136 146.921 138.998 148.175 140.485C148.485 140.698 149.042 142.401 149.785 142.371C150.329 146.039 172.104 149.841 171.5 153.5C167.351 178.638 161.502 199.423 157 224.5C153.321 223.784 121.344 219.616 118.976 216.711C117.794 215.26 116.259 214.142 114.716 213.083C103.97 205.712 91.9761 200.396 80.5991 194.041C75.6927 191.301 70.8982 188.365 66.1056 185.431C65.0475 184.783 63.9775 184.126 63.1134 183.236C62.4531 182.557 61.9284 181.758 61.2856 181.062C57.9515 177.452 52.0199 177.139 48.8555 173.38C48.1878 172.587 47.6668 171.661 46.8804 170.985C46.0939 170.309 44.9071 169.936 44.097 170.526C41.9684 170.042 40.6187 167.923 39.9466 165.846C39.2746 163.769 39.0265 161.528 37.9578 159.624C37.8012 159.345 37.6053 159.056 37.3026 158.95C36.7704 158.762 36.2457 159.215 35.7011 159.363C34.3141 159.742 33.1086 158.129 31.6719 158.107C31.2815 158.102 30.9004 158.216 30.5124 158.262C29.2206 158.414 27.8684 157.725 27.233 156.59C26.7587 155.742 26.6747 154.723 26.2215 153.864C25.6427 152.766 24.5429 152.064 23.524 151.355C22.3596 150.546 21.2299 149.654 20.377 148.521C18.9962 146.687 18.4361 144.356 17.2611 142.56C13.8119 140.992 11.2126 138.053 8.72211 135.198C7.87163 134.223 7.00375 133.218 6.55426 132.004C6.14146 130.89 6.11162 129.677 5.94438 128.5C5.08769 122.483 0.632019 117.381 0.0600621 111.329C-0.202292 108.555 0.400126 105.705 1.7635 103.275C2.30064 102.317 2.96585 101.41 3.84306 100.75C5.67208 99.3742 8.12652 99.2517 10.415 99.2325C20.1662 99.1498 29.9243 99.9356 39.5369 101.578C39.7297 101.611 39.9591 101.632 40.089 101.487C40.2189 101.341 40.0187 101.035 39.8751 101.168" fill="#7687C1"/>
<path d="M39.8516 101.47C49.8596 100.374 59.617 104.664 68.5526 109.303C73.957 112.108 79.2756 115.079 84.4984 118.211" stroke="black" stroke-width="0.4" stroke-miterlimit="10"/>
<path d="M286.498 147.5C286.155 146.002 299.98 136.091 301.43 135.578C305.154 134.259 309.049 133.423 312.986 133.097C313.531 133.052 314.101 133.01 314.567 132.724C315.322 132.262 315.598 131.309 316.176 130.64C317.848 128.703 321.048 129.81 323.48 129.015C324.553 128.664 325.456 127.938 326.333 127.228C330.722 123.672 335.111 120.117 339.499 116.561C341.793 114.703 344.125 112.822 346.834 111.649C347.964 111.16 349.149 110.798 350.245 110.236C353.21 108.714 355.234 105.889 357.54 103.484C359.846 101.078 362.927 98.9054 366.345 99.2958C368.794 100.276 371.568 99.3667 373.962 98.2588C377.923 96.4248 381.604 94.0499 385.272 91.6832C388.182 89.8044 391.133 87.8921 393.242 85.1684C397.937 80.5598 402.27 75.5813 406.185 70.2938C407.492 68.5294 408.765 66.7073 409.561 64.6607C409.722 64.2491 409.863 63.8009 409.758 63.3719C409.554 62.5438 408.569 62.2 407.721 62.108C406.873 62.016 405.92 61.998 405.324 61.3874C407.263 60.1155 409.654 59.5497 412.178 59.8003C415.524 61.84 418.871 63.8798 422.217 65.9202C423.918 66.9572 425.626 67.9973 427.448 68.8017C430.818 70.2895 434.672 71.0336 437.313 73.6019C440.154 76.3653 440.909 80.5741 441.519 84.4902C441.821 86.4267 442.091 88.5424 441.099 90.2321C440.185 91.7901 438.406 92.6126 437.197 93.9548C435.984 95.3014 435.412 97.0888 434.834 98.8071C432.375 106.125 429.247 113.219 425.502 119.97C424.472 121.828 423.388 123.674 422.686 125.679C421.911 127.89 421.527 130.41 419.752 131.989C418.197 133.665 416.615 135.363 414.664 136.554C413.046 137.544 411.215 138.157 409.63 139.197C407.03 140.902 405.288 143.607 403.132 145.847C399.495 149.628 394.676 152.079 390.895 155.717C389.14 157.407 387.624 159.338 385.806 160.96C382.752 163.686 378.93 165.466 375.979 168.305C373.939 170.266 372.386 172.665 370.624 174.877C368.799 177.169 366.737 179.273 364.616 181.286C362.143 183.45 359.67 185.614 357.197 187.779C351.354 192.892 345.51 198.006 339.734 203.196C338.089 204.673 334.537 201.605 333 203.196C331.316 204.938 323.911 203.032 322.5 205C320.345 208.005 305.359 211.031 304 213.325C294.915 207.488 297.262 208.294 294 198C291.265 189.367 289.041 182.424 287.5 173.5C285.628 162.666 288.768 157.385 286.498 147.5Z" fill="#7687C1"/>
<path d="M154.902 52.8563C157.045 51.2754 158.89 49.2934 160.314 47.0435C161.644 44.9416 162.598 42.6276 163.546 40.328C165.887 34.6457 168.228 28.9628 170.57 23.2806C171.139 21.9016 171.732 20.4836 172.792 19.4341C174.186 18.0521 176.186 17.4994 177.826 16.4202C179.527 15.3005 180.792 13.648 182.254 12.2306C183.799 10.7329 185.571 9.49327 187.335 8.26046C188.553 7.40936 189.788 6.54893 191.181 6.03355C192.574 5.51817 194.167 5.37704 195.55 6.09696C196.641 6.63162 197.351 7.72704 197.806 8.85355C198.26 9.98005 198.514 11.1812 198.995 12.2965C199.335 13.0811 199.786 13.8171 200.389 14.5669C199.008 15.3589 197.41 15.6642 195.898 16.164C191.851 17.5025 188.347 20.3213 185.992 23.8743C183.637 27.4272 182.413 31.684 182.305 35.9457C182.229 38.9621 182.676 42.1011 181.531 44.9055C181.403 48.3814 181.273 51.8778 180.546 55.2791C179.794 58.8028 178.407 62.1985 178.056 65.7844C177.937 66.9943 177.933 68.2389 177.611 69.3461C175.907 69.8857 174.064 70.4266 172.368 69.864C172.026 69.7508 171.683 69.5917 171.324 69.6221C171.024 69.6476 170.752 69.803 170.491 69.9535C167.379 71.7465 164.14 73.3175 160.847 74.6C154.584 77.0532 148.274 79.5301 142.732 83.052C135.802 86.807 128.814 90.452 121.769 93.985C108.101 100.84 93.9238 107.482 83.4197 118.28C78.5232 121.823 72.2441 123.027 66.205 122.789C60.1659 122.551 54.2691 120.98 48.4308 119.418C46.1734 118.814 43.9161 118.211 41.6587 117.607C36.894 116.332 32.1294 115.058 27.333 113.677C21.9597 111.964 16.7866 109.624 11.9517 106.72C10.5156 105.857 9.10935 104.946 7.71178 104.022C6.72578 103.369 5.6832 102.635 5.28966 101.52C4.89675 100.405 5.57564 98.866 7.02232 98.7963C12.9383 95.8793 18.855 92.9623 24.822 89.9446C28.4695 88.437 32.117 86.9294 35.7644 85.4225C44.2083 81.9329 52.6664 78.4377 61.3284 75.7265C77.8468 70.1686 94.778 65.8373 112.042 62.699C121.24 61.4836 130.399 59.9741 139.425 58.1662C142.755 57.3568 146.057 56.4286 149.321 55.3835C151.338 54.7394 153.349 54.0027 154.902 52.8563Z" fill="#F2DBC1" stroke="black" stroke-width="0.4" stroke-miterlimit="10"/>
<path d="M182.551 16.2565C184.865 14.1198 187.425 12.2497 190.165 10.6967C191.612 9.8767 193.322 9.12632 194.889 9.68584C195.949 10.0645 196.72 10.9752 197.383 11.8854C198.135 12.9174 198.819 13.9991 199.428 15.1213" stroke="black" stroke-width="0.4" stroke-miterlimit="10"/>
<path d="M194.922 5.875C195.773 6.12243 196.402 6.86287 196.776 7.66672C197.149 8.47057 197.315 9.35213 197.563 10.2026C197.964 11.579 198.584 12.8833 199.007 14.2536" stroke="black" stroke-width="0.4" stroke-miterlimit="10"/>
<path d="M250.698 25.6576C249.205 25.3815 247.989 24.3004 247.028 23.1248C246.067 21.9498 245.27 20.6312 244.167 19.5886C242.326 17.8497 239.609 16.8208 238.706 14.4547C238.113 12.9017 238.483 11.1653 238.342 9.50972C238.197 7.81437 237.51 6.17745 237.561 4.47712C237.613 2.77679 238.846 0.883738 240.551 1.00559C241.735 1.04103 242.915 1.15977 244.095 1.27851C246.084 1.47869 248.072 1.67888 250.061 1.87969C251.057 1.97978 252.059 2.08174 253.079 2.31922C255.413 3.01179 257.825 3.39538 260.229 3.77772C261.338 3.95428 262.453 4.13084 263.577 4.13084C264.178 4.13084 264.782 4.07986 265.382 4.12524C266.796 4.23155 268.16 4.89241 269.12 5.93623C269.65 6.51316 270.06 7.19952 270.634 7.70309C271.735 8.43171 272.559 9.56816 272.91 10.8408C273.265 12.1246 273.164 13.5551 273.834 14.8351C275.233 19.2722 276.48 23.7571 277.583 28.2401C278.088 29.5699 278.232 31.0072 278.625 32.3743C279.172 34.2786 280.188 36.0087 281.308 37.7482C282.352 39.3491 283.859 40.6435 285.6 41.4324C286.557 41.8663 287.575 42.148 288.587 42.4277C292.957 43.635 297.392 44.8523 301.999 44.9369C307.933 45.244 313.868 45.5517 319.803 45.8588C326.287 46.1946 332.776 46.5309 339.227 47.272C347.837 48.2617 356.347 49.9701 364.928 51.6188C378.709 54.7192 392.158 59.2998 406.085 61.6616C407.21 61.8525 408.398 62.0552 409.267 62.7813C409.899 63.2407 409.844 64.1994 409.609 64.9454C409.232 66.1428 408.573 67.2295 407.891 68.2833C405.096 72.601 401.809 76.5785 398.442 80.466C395.281 84.1147 391.991 87.7379 387.908 90.2782C385.025 93.0441 381.529 95.072 378.07 97.0726C376.951 97.7198 375.828 98.3695 374.629 98.8538C370.964 100.336 366.66 100.146 363.1 98.3608C358.714 96.5852 354.615 94.1805 350.534 91.7845C349.455 91.151 348.376 90.5175 347.223 89.8448C339.932 86.3323 332.479 83.1561 324.828 80.2882C322.808 79.7709 320.892 78.9217 318.974 78.1036C313.481 75.761 307.892 73.6504 302.317 71.5186C298.046 70.2547 294.196 67.7362 289.754 66.7838C286.204 65.288 282.461 64.3063 278.714 63.4117C277.104 63.0275 275.481 62.6557 273.96 62.0042C270.502 60.5233 267.667 57.6449 263.991 56.644C262.615 56.0142 261.886 54.5209 261.293 53.1283C258.261 45.9931 256.005 38.5378 252.755 31.4996C252.061 29.9976 251.311 28.4732 251.172 26.8245C251.129 26.3047 250.991 25.6091 250.698 25.6576Z" fill="#F2DBC1" stroke="black" stroke-width="0.4" stroke-miterlimit="10"/>
<path d="M248.996 1.75781C252.073 2.53804 255.081 3.56321 258.085 4.58651C260.009 5.24178 261.932 5.89766 263.856 6.55293" stroke="black" stroke-width="0.4" stroke-miterlimit="10"/>
<path d="M238.501 10.6864C238.357 9.70533 238.306 8.68389 238.61 7.74016C238.915 6.79643 239.634 5.93974 240.595 5.69666C241.439 5.48342 242.319 5.75696 243.185 5.84649C245.39 6.07403 247.756 5.11475 249.763 6.05662" stroke="black" stroke-width="0.4" stroke-miterlimit="10"/>
<path d="M251.039 25.5081C250.65 24.7651 250.27 24.0073 250.079 23.191C249.888 22.3747 249.9 21.4839 250.274 20.7335C249.483 20.182 248.681 19.6188 248.086 18.8597C247.492 18.1006 247.128 17.1022 247.414 16.0416C246.431 15.9924 245.459 15.7512 244.566 15.3359C245.155 16.3866 246.43 16.8 247.59 17.1245" stroke="black" stroke-width="0.4" stroke-miterlimit="10"/>
<path d="M240.762 11.1797C241.331 12.2216 242.094 13.1424 242.852 14.0556C243.084 14.3348 243.316 14.6139 243.547 14.8931C243.755 15.1436 243.968 15.3985 244.245 15.5695" stroke="black" stroke-width="0.4" stroke-miterlimit="10"/>
<path d="M247.863 16.5908C248.822 14.5958 250.524 12.9694 252.559 12.1016C252.397 12.3204 252.235 12.5392 252.073 12.7574" stroke="black" stroke-width="0.4" stroke-miterlimit="10"/>
<path d="M249.18 18.7871C249.798 17.2104 250.983 15.9067 252.336 14.889C253.689 13.8713 255.216 13.1122 256.733 12.3594C256.758 12.4327 256.719 12.5216 256.649 12.5546" stroke="black" stroke-width="0.4" stroke-miterlimit="10"/>
<path d="M250.527 18.6158C251.825 17.5036 253.577 17.1082 255.262 16.8197C256.948 16.5312 258.696 16.2956 260.16 15.4141" stroke="black" stroke-width="0.4" stroke-miterlimit="10"/>
<path d="M195.375 89.4086C194.295 89.2085 193.176 88.9909 192.289 88.3443C191.817 88.0005 191.432 87.5485 191.103 87.0661C190.237 85.7997 189.732 84.317 189.419 82.815C188.834 80.0118 188.893 77.0761 189.586 74.327C189.833 73.6282 190.356 73.0494 190.974 72.6404C191.592 72.2313 192.301 71.9807 193.015 71.7806C194.843 71.4293 196.698 71.2378 198.55 71.0457C199.099 70.9891 199.649 70.9319 200.201 70.9096C201.017 70.8772 201.833 70.9208 202.648 70.9711C204.484 71.0849 206.317 71.2328 208.155 71.4374C210.74 71.4287 213.422 71.5437 215.726 72.7156C216.865 73.295 217.96 74.2729 218.019 75.5393C217.966 78.8461 217.046 82.1062 215.601 85.0804C214.996 86.3244 214.282 87.5461 213.259 88.455C212.755 89.0002 212.081 89.3682 211.375 89.6026C210.669 89.837 209.93 89.947 209.192 90.0378C207.021 90.3057 204.832 90.4245 202.594 90.3816C200.498 90.394 198.401 90.1945 196.345 89.786C195.983 89.7151 195.61 89.6312 195.375 89.4086Z" fill="#F2DBC1" stroke="black" stroke-width="0.4" stroke-miterlimit="10"/>
<path d="M196.07 84.2078C197.528 83.0204 199.155 82.0083 200.95 81.4463C202.744 80.8842 204.718 80.7935 206.496 81.4065C207.666 81.8099 208.746 82.5093 209.972 82.6729C210.584 82.7543 211.38 82.8196 211.541 83.4164C210.965 83.3032 210.379 83.251 209.792 83.2616C207.149 83.3088 204.666 84.6075 202.029 84.7729C200.822 84.8488 199.615 84.6846 198.416 84.5211C197.682 84.4211 196.948 84.321 196.07 84.2078Z" fill="white" stroke="black" stroke-width="0.4" stroke-miterlimit="10"/>
<path d="M200.566 81.5732C200.369 82.129 200.171 82.7383 200.364 83.2953C200.629 84.0575 201.515 84.4063 202.317 84.4933C203.177 84.5866 204.086 84.4771 204.821 84.0196C205.191 83.7896 205.514 83.4663 205.684 83.0653C205.855 82.6618 205.861 82.2086 205.838 81.7709C205.83 81.6391 205.82 81.503 205.759 81.3861C205.606 81.0933 205.217 81.0354 204.886 81.0243C203.644 80.982 202.397 81.0951 201.182 81.36C200.921 81.4166 200.605 81.4601 200.566 81.5732Z" fill="#17282F"/>
<path d="M193.316 83.0233C194.823 80.9885 197.493 80.2568 199.976 79.7613C201.775 79.4026 203.595 79.0973 205.429 79.1097C207.225 79.1216 209.192 79.54 210.284 80.9649C207.566 79.7401 204.506 79.2813 201.548 79.6562C198.589 80.0305 195.74 81.2365 193.316 83.0233Z" fill="#CEAC87"/>
<path d="M211.906 78.8971C210.773 78.4762 209.663 77.9894 208.518 77.6003C202.06 75.4054 194.552 76.6394 189.109 80.7406C188.959 78.6223 188.984 77.4246 189.363 75.2756C189.772 75.0251 190.199 74.8026 190.632 74.6006C195.365 72.388 200.789 72.3383 206.013 72.4589C207.257 72.4881 208.534 72.531 209.678 73.0178C211.742 73.8962 213.037 76.2941 212.64 78.5017C212.61 78.6652 212.56 78.8461 212.416 78.9288C212.263 79.0165 212.071 78.9587 211.906 78.8971Z" fill="#17282F"/>
<path d="M227.371 78.7177C226.933 77.2959 226.729 75.6378 227.578 74.4156C228.067 73.7106 228.841 73.258 229.619 72.8955C231.676 71.9375 233.931 71.4588 236.19 71.2443C238.45 71.0299 240.725 71.0727 243.058 71.1759C246.254 70.8042 249.508 71.3177 252.571 72.3006C253.179 72.4958 253.793 72.7153 254.301 73.1019C254.81 73.4886 255.205 74.0724 255.23 74.8184C255.566 77.9661 255.309 81.1752 254.479 84.2296C254.108 85.593 253.601 86.9644 252.601 87.9697C251.45 89.0055 249.869 89.3959 248.345 89.6651C243.281 90.5591 238.049 90.4975 233.044 89.5165C232.139 89.302 231.344 88.7381 230.728 88.0419C230.112 87.3456 229.661 86.5199 229.268 85.6769C228.244 83.483 228.08 81.0236 227.371 78.7177Z" fill="#F2DBC1" stroke="black" stroke-width="0.4" stroke-miterlimit="10"/>
<path d="M230.727 83.447C230.94 82.9049 231.566 82.6773 232.112 82.4709C233.796 81.8337 235.333 80.8259 237.063 80.3248C239.969 79.4837 243.189 80.193 245.74 81.8188C245.965 81.9618 246.214 82.1762 246.163 82.4373C246.12 82.6531 245.893 82.7712 245.689 82.8545C243.532 83.7379 241.158 84.0886 238.837 83.8654C237.908 83.7758 236.989 83.5968 236.063 83.4862C234.321 83.2779 232.549 83.3127 230.817 83.59C230.776 83.5023 230.794 83.3892 230.727 83.447Z" fill="white" stroke="black" stroke-width="0.4" stroke-miterlimit="10"/>
<path d="M237.625 80.2706C237.086 80.9514 237.169 81.9946 237.686 82.6928C238.202 83.3909 239.066 83.7689 239.929 83.864C240.281 83.9026 240.644 83.8982 240.981 83.7882C241.536 83.606 241.964 83.154 242.287 82.6666C242.632 82.1481 242.892 81.5271 242.785 80.9141C242.762 80.7779 242.718 80.6412 242.63 80.5349C242.477 80.3508 242.223 80.2924 241.987 80.2501C240.893 80.0537 239.78 79.9654 238.669 79.9878C238.273 79.9946 237.831 80.0108 237.625 80.2706Z" fill="#17282F"/>
<path d="M232.364 80.712C233.178 79.9479 234.025 79.1633 235.077 78.791C235.875 78.5087 236.738 78.4826 237.583 78.4845C239.295 78.4876 241.006 78.5901 242.715 78.6921C243.484 78.7381 244.256 78.7847 245.011 78.9358C246.386 79.2106 247.672 79.8248 248.863 80.564C249.344 80.8624 249.868 81.2864 249.838 81.8515C249.384 81.7676 249.035 81.4157 248.674 81.1291C248.148 80.7132 247.545 80.4098 246.942 80.1183C246.28 79.7981 245.61 79.4872 244.902 79.2896C243.934 79.0191 242.921 78.9663 241.918 78.9147C241.059 78.8705 240.2 78.8264 239.342 78.7822C238.674 78.748 238.004 78.7139 237.338 78.7667C235.847 78.8854 234.395 79.4531 233.218 80.3756C232.942 80.592 232.649 80.8394 232.299 80.845C232.276 80.7369 232.326 80.6169 232.364 80.712Z" fill="#CEAC87"/>
<path d="M230.404 73.6625C230.014 74.4831 229.616 75.341 229.633 76.2487C229.651 77.157 230.223 78.1237 231.119 78.2717C231.758 78.3774 232.382 78.0591 232.965 77.7768C237.842 75.4169 243.643 75.0358 248.786 76.7367C249.648 77.0215 250.493 77.3622 251.381 77.5474C253.301 77.9484 255.449 77.6376 257.097 78.7032C256.87 76.2655 254.664 74.5123 252.481 73.4051C245.584 69.9074 236.987 69.9908 230.404 73.6625Z" fill="#17282F"/>
<rect x="186.016" y="72.1797" width="2.87681" height="6.09208" rx="1" transform="rotate(105.524 186.016 72.1797)" fill="black"/>
<path fill-rule="evenodd" clip-rule="evenodd" d="M215.59 122.336C221.191 123.041 225.704 122.688 230.82 122.336C231.655 123.041 228.542 126.736 223.291 126.736C217.69 126.383 215.59 123.746 215.59 122.336Z" fill="#17282F"/>
<path d="M233.257 112.949C235.18 113.5 236.592 115.113 238.331 116.104C238.214 116.068 238.288 116.432 238.193 116.623C234.748 121.037 232.176 122.838 225.999 123.6C222.53 123.769 219.161 123.681 215.947 122.573C212.731 121.465 209.73 119.518 207.809 116.712C209.788 114.356 212.382 112.66 215.284 111.893C216.04 111.696 216.866 111.775 217.572 112.111C217.572 112.111 217.81 112.158 218.373 112.317C218.962 112.487 219.569 112.597 220.22 112.64L220.225 112.641C220.545 112.694 220.865 112.747 221.264 112.796C222.246 112.833 223.144 112.297 224.067 111.958C226.975 110.89 230.206 111.767 233.257 112.949Z" fill="#99746C"/>
<path d="M208.332 116.651C210.485 116.826 212.239 114.922 214.347 114.45C216.361 113.999 218.405 114.898 220.455 115.132C224.076 115.546 227.705 113.871 231.319 114.342C232.628 114.513 233.884 114.962 235.128 115.407C235.974 115.711 236.821 116.013 237.667 116.317C235.308 117.456 232.654 117.79 230.054 118.11C228.753 118.27 227.452 118.429 226.15 118.589C224.836 118.751 223.518 118.912 222.194 118.909C221.085 118.906 219.981 118.787 218.879 118.669C217.064 118.474 215.249 118.278 213.434 118.084C211.914 117.92 210.384 117.755 208.92 117.316C208.575 117.211 208.152 116.922 208.332 116.651Z" fill="#5B372F"/>
<path d="M219.215 118.709C219.143 118.254 219.072 117.799 219.001 117.343C218.897 116.679 218.816 115.923 219.243 115.404C219.591 114.982 220.176 114.849 220.721 114.801C221.159 114.762 221.618 114.766 222.017 114.951C222.607 115.225 222.964 115.859 223.074 116.499C223.185 117.14 223.088 117.795 222.991 118.438C222.965 118.607 222.926 118.797 222.781 118.887C222.674 118.952 222.54 118.944 222.416 118.933C221.324 118.841 220.232 118.749 219.215 118.709Z" fill="white" stroke="#B0B0B0" stroke-width="0.4" stroke-miterlimit="10"/>
<path d="M223.081 116.783C223.171 116.11 223.57 115.496 224.118 115.094C224.665 114.693 225.35 114.498 226.029 114.492C226.301 114.49 226.584 114.52 226.818 114.66C227.386 114.999 227.432 115.79 227.411 116.451C227.388 117.172 227.301 118.01 226.692 118.397C226.385 118.592 226.007 118.624 225.646 118.651C224.806 118.715 223.966 118.779 223.127 118.842C223.071 117.996 223.032 117.143 223.081 116.783Z" fill="white" stroke="#B0B0B0" stroke-width="0.4" stroke-miterlimit="10"/>
<path d="M227.348 116.62C227.658 115.882 228.12 115.209 228.697 114.655C228.933 114.428 229.196 114.216 229.507 114.117C229.818 114.017 230.188 114.048 230.433 114.264C230.746 114.541 230.769 115.016 230.75 115.434C230.718 116.124 230.635 116.813 230.502 117.492C230.483 117.586 230.462 117.685 230.404 117.761C230.325 117.864 230.194 117.91 230.069 117.947C229.409 118.146 228.725 118.267 228.036 118.308C227.923 118.315 227.797 118.315 227.712 118.239C227.649 118.183 227.624 118.097 227.604 118.015C227.465 117.466 227.389 116.902 227.348 116.62Z" fill="white" stroke="#B0B0B0" stroke-width="0.4" stroke-miterlimit="10"/>
<path d="M230.63 115.814C230.761 115.257 231.039 114.701 231.53 114.408C232.021 114.115 232.751 114.186 233.058 114.669C233.172 114.848 233.219 115.063 233.238 115.275C233.296 115.908 233.129 116.539 232.929 117.142C232.878 117.296 232.824 117.451 232.73 117.583C232.448 117.981 231.845 118.063 231.412 117.837C230.979 117.612 230.709 117.146 230.614 116.667C230.519 116.189 230.575 115.693 230.63 115.814Z" fill="white" stroke="#B0B0B0" stroke-width="0.4" stroke-miterlimit="10"/>
<path d="M233.139 117.105C233.473 117.253 233.815 117.405 234.178 117.427C234.543 117.45 234.939 117.317 235.131 117.007C235.32 116.704 235.269 116.295 235.08 115.992C234.89 115.689 234.585 115.478 234.267 115.314C234.234 115.297 234.199 115.28 234.162 115.275C234.101 115.267 234.041 115.292 233.987 115.319C233.359 115.631 233 116.403 233.139 117.105Z" fill="white" stroke="#B0B0B0" stroke-width="0.4" stroke-miterlimit="10"/>
<path d="M215.752 118.263C215.596 117.405 215.44 116.546 215.284 115.688C215.247 115.486 215.218 115.257 215.367 115.097C215.51 114.943 215.765 114.909 215.995 114.898C216.605 114.867 217.257 114.928 217.744 115.242C218.22 115.549 218.461 116.044 218.682 116.515C218.816 116.801 218.951 117.092 218.974 117.398C218.997 117.705 218.888 118.035 218.609 118.23C218.294 118.449 217.848 118.451 217.441 118.442C216.869 118.43 216.282 118.415 215.752 118.263Z" fill="white" stroke="#B0B0B0" stroke-width="0.4" stroke-miterlimit="10"/>
<path d="M213.091 118.005C213.821 118.172 214.595 118.119 215.299 117.854C215.37 117.828 215.441 117.798 215.492 117.74C215.566 117.658 215.582 117.536 215.589 117.422C215.643 116.529 215.297 115.617 214.676 115.016C214.437 114.784 214.15 114.594 213.83 114.554C213.511 114.513 213.159 114.652 212.998 114.95C212.867 115.193 212.88 115.493 212.899 115.773C212.948 116.492 213.011 117.209 213.091 118.005Z" fill="white" stroke="#B0B0B0" stroke-width="0.4" stroke-miterlimit="10"/>
<path d="M210.902 116.108C210.871 116.48 210.841 116.866 210.972 117.215C211.103 117.565 211.444 117.865 211.815 117.822C212.012 117.799 212.188 117.683 212.329 117.543C212.871 117.001 212.897 116.027 212.383 115.457C212.345 115.414 212.299 115.371 212.242 115.361C212.183 115.352 212.125 115.379 212.071 115.406C211.711 115.585 211.351 115.763 210.991 115.942C210.989 116.047 210.988 116.152 210.902 116.108Z" fill="white" stroke="#B0B0B0" stroke-width="0.4" stroke-miterlimit="10"/>
<defs>
<linearGradient id="paint0_linear_691_5051" x1="137.284" y1="287.387" x2="302.034" y2="136.381" gradientUnits="userSpaceOnUse">
<stop stop-color="#D9B430"/>
<stop offset="1" stop-color="#303030" stop-opacity="0"/>
</linearGradient>
</defs>
</svg>
