<svg width="299" height="415" viewBox="0 0 299 415" fill="none" xmlns="http://www.w3.org/2000/svg">
<circle cx="148.056" cy="250.026" r="101.516" transform="rotate(-11.434 148.056 250.026)" fill="url(#paint0_linear_765_2025)" stroke="white" stroke-width="4"/>
<path d="M65.5454 188.972C63.3431 189.283 61.2007 187.877 59.8964 186.077C58.5921 184.277 57.9209 182.109 57.0764 180.049C55.0009 174.985 51.8124 170.472 49.0949 165.724C45.5229 159.477 42.7605 152.808 40.0108 146.16C38.1918 141.765 36.3724 137.368 34.5534 132.972C33.2382 129.796 31.9086 126.559 31.5903 123.134C31.0506 117.362 33.4212 111.453 32.0085 105.832C31.4396 103.568 30.283 101.492 29.6204 99.2532C28.9208 96.8825 28.7904 94.3863 28.7352 91.9161C28.3959 77.156 30.8683 61.4754 40.4232 50.2222C47.9243 41.3885 58.8484 36.3458 69.2869 31.6689C73.181 30.729 77.2096 32.1323 81.1971 32.5089C87.2089 33.0768 93.1701 31.2992 99.1851 30.774C108.298 29.9782 117.39 32.065 126.089 34.0855C129.442 34.0224 132.479 35.8874 135.411 37.5145C139.535 39.8039 143.857 41.7444 147.81 44.3173C150.511 46.0755 153.017 48.1136 155.509 50.157C157.6 51.8717 159.791 53.7496 160.604 56.4864C162.801 59.834 164.401 63.572 165.309 67.4725C165.667 69.0091 165.917 70.6191 165.566 72.1592C165.108 74.1713 163.657 75.8435 161.949 77.0037C160.241 78.1619 158.278 78.8737 156.534 80.3005C139.492 81.13 123.891 90.2894 110.89 101.342C102.639 108.359 95.0643 116.302 89.4195 125.544C83.0636 135.951 79.3198 147.706 75.6343 159.331C72.9533 167.785 70.2746 176.24 67.5936 184.693C67.0731 186.342 66.5203 188.044 65.5454 188.972Z" fill="#17282F"/>
<path d="M88.33 232.024C87.0542 218.931 65.6356 185.116 61.9923 172.423C56.159 170.235 52.5357 164.558 48.9157 159.488C46.6592 156.328 44.2352 153.254 42.5167 149.773C40.7982 146.291 39.8161 142.29 40.6563 138.499C41.4965 134.708 44.4628 131.246 48.3019 130.634C50.2801 130.028 52.4272 129.983 54.4281 130.506C56.9912 131.175 59.2723 132.738 61.7252 133.258C63.1572 133.543 64.5915 133.829 66.0074 134.187C67.6489 134.601 69.3013 135.131 70.6652 136.137C72.0842 137.182 73.1091 138.688 73.8351 140.294C74.5612 141.901 75.0047 143.615 75.4482 145.32C76.3401 148.763 77.2358 152.215 77.8656 155.715C80.7792 152.918 80.5782 148.323 80.906 144.298C81.2512 140.054 82.4086 135.919 82.9492 131.694C83.6524 126.208 83.3497 120.449 85.5995 115.397C86.9987 112.254 89.3647 109.548 92.2935 107.741C94.7886 106.202 97.7098 105.273 99.8103 103.227C100.804 102.261 101.61 100.812 101.086 99.5268C100.911 99.0953 100.603 98.7337 100.308 98.3736C98.8066 96.5457 97.5047 94.554 96.4322 92.4458C95.9127 91.4234 95.4385 90.3506 95.3332 89.2094C95.1263 86.9756 96.3848 84.8055 98.0923 83.3491C99.7997 81.8927 101.918 81.0219 104.008 80.1548C106.483 78.6172 109.371 77.9014 112.229 77.3419C119.497 75.9213 126.935 75.3839 134.33 75.7421C137.701 75.906 141.086 76.2543 144.438 75.8582C146.339 75.6342 148.223 75.1729 150.139 75.1949C152.055 75.2168 154.083 75.8148 154.961 77.4602C160.867 85.6048 162.113 96.1179 165.611 105.55C166.973 109.223 168.694 112.764 170.918 116.114C170.207 118.435 168.421 120.255 167.315 122.417C166.826 123.369 166.474 124.385 166.124 125.398C165.372 127.565 164.61 129.838 164.961 132.102C165.659 136.623 170.515 139.672 171.146 144.116C171.107 146.933 169.792 149.709 167.636 151.524C167.527 151.616 167.414 151.708 167.352 151.836C167.256 152.035 167.305 152.267 167.356 152.479C168.302 156.415 169.389 160.366 169.459 164.414C169.504 167.026 169.124 169.656 169.507 172.239C169.735 173.783 170.233 175.353 169.858 177.09C166.753 182.267 169.951 189.015 168.644 194.909C168.054 197.559 166.563 199.93 164.811 202.003C159.975 207.727 153.217 211.405 146.767 215.22C145.617 215.901 144.433 216.622 143.677 217.725C143.007 218.704 142.734 219.897 142.515 221.065C133.92 218.836 132.374 228.699 133.735 231.631C134.519 233.32 145.044 233.679 146.238 235.106C151.549 241.457 155.529 248.918 157.762 256.49C157.77 257.713 157.777 258.936 157.906 260.691C138.416 255.008 118.734 248.391 102.562 236.115C94.9371 230.326 102.393 244.723 94.3011 239.607C90.7085 237.337 91.4225 234.934 88.33 232.024Z" fill="#F2DBC1"/>
<path d="M114.844 129.157C119.206 128.529 123.6 127.894 127.765 126.453C129.398 125.888 131.007 125.196 132.718 124.959C134.429 124.722 136.313 125.012 137.578 126.19C137.722 126.323 137.866 126.533 137.762 126.7C137.678 126.835 137.49 126.844 137.332 126.857C136.035 126.963 135.202 128.214 134.27 129.122C131.869 131.462 128.13 131.774 124.814 131.272C121.499 130.769 118.285 129.592 114.844 129.157Z" fill="white" stroke="black" stroke-width="0.4" stroke-miterlimit="10"/>
<path d="M112.723 127.339C119.45 125.657 126.158 123.897 132.846 122.059C133.473 121.887 134.119 121.713 134.763 121.793C135.406 121.872 136.058 122.276 136.226 122.904C134.327 121.998 132.092 122.705 130.096 123.368C124.574 125.199 118.913 126.613 113.18 127.594C113.037 127.619 112.855 127.627 112.781 127.502C112.705 127.375 112.968 127.229 112.723 127.339Z" fill="#CEAC87"/>
<path d="M127.289 126.7C126.797 127.857 127.451 129.36 128.632 129.79C129.407 130.071 130.29 129.92 131.028 129.55C132.715 128.705 133.725 126.724 133.396 124.864C131.775 124.987 129.957 125.663 128.266 126.272C127.906 126.373 127.41 126.412 127.289 126.7Z" fill="#17282F"/>
<path d="M142.184 145.691C141.348 147.876 141.999 150.473 143.548 152.223C145.098 153.974 147.431 154.921 149.765 155.075C150.188 155.103 150.627 155.104 151.024 154.952C151.895 154.62 152.326 153.672 152.888 152.929C154.537 150.746 157.516 150.164 160.219 149.743C160.763 149.657 161.33 149.573 161.859 149.726C162.39 149.878 162.874 150.339 162.864 150.891C162.843 152.146 160.683 152.305 160.387 153.525C162.931 154.241 165.855 153.358 167.574 151.35" stroke="#CEAC87" stroke-width="0.4" stroke-miterlimit="10"/>
<path d="M154.155 151.803C156.077 150.565 158.349 149.957 160.623 149.723C161.097 149.675 161.597 149.646 162.031 149.838C162.467 150.031 162.81 150.516 162.683 150.975C162.483 151.697 161.479 151.725 160.747 151.569C159.3 151.26 157.788 150.842 156.372 151.27C155.628 151.497 154.916 151.956 154.141 151.886C154.12 151.619 154.45 151.392 154.155 151.803Z" fill="#17282F"/>
<path d="M158.227 125.619C160.323 124.498 162.866 124.243 165.143 124.922C165.695 125.086 166.284 125.352 166.514 125.881C166.776 126.485 166.469 127.172 166.167 127.756C166.066 127.949 165.961 128.15 165.785 128.278C165.437 128.531 164.958 128.42 164.528 128.431C163.642 128.454 162.804 129.041 161.931 128.888C161.417 128.799 161.122 128.503 160.714 128.181C159.925 127.558 159.569 126.908 158.868 126.188C158.775 126.092 158.513 125.986 158.494 125.852C158.475 125.718 158.172 125.542 158.227 125.619Z" fill="white" stroke="black" stroke-width="0.4" stroke-miterlimit="10"/>
<path d="M160.121 124.856C159.584 126.218 160.205 127.934 161.491 128.637C161.807 128.809 162.179 128.928 162.53 128.84C162.982 128.728 163.289 128.312 163.527 127.91C163.932 127.227 164.26 126.499 164.502 125.742C164.598 125.445 164.66 125.072 164.432 124.859C164.315 124.749 164.148 124.715 163.988 124.687C162.699 124.471 161.367 124.518 160.121 124.856Z" fill="#17282F"/>
<path d="M156.858 122.057C159.163 121.235 161.705 121.431 164.108 121.891C165.063 122.075 166.167 122.436 166.454 123.365C166.8 123.195 166.891 122.711 166.735 122.358C166.58 122.005 166.249 121.763 165.912 121.574C164.727 120.904 163.338 120.668 161.979 120.684C160.62 120.698 159.274 120.951 157.938 121.203C157.716 121.244 157.485 121.291 157.308 121.431C157.13 121.568 157.027 121.834 156.858 122.057Z" fill="#CEAC87"/>
<path d="M154.8 116.562C155.511 114.873 156.897 113.533 158.47 112.593C160.043 111.654 161.809 111.085 163.575 110.602C164.773 110.275 166.028 109.982 167.242 110.237C168.456 110.491 169.613 111.442 169.699 112.68C169.724 113.047 169.647 113.441 169.396 113.713C169.07 114.066 168.547 114.133 168.069 114.184C165.454 114.46 162.698 114.933 160.714 116.66C160.086 117.206 159.557 117.865 158.882 118.353C158.207 118.842 157.32 119.146 156.539 118.856C155.576 118.497 155.133 117.404 154.8 116.562Z" fill="#17282F"/>
<path d="M106.795 120.608C112.151 117.484 117.563 114.334 123.484 112.491C129.405 110.647 135.963 110.203 141.726 112.488C142.509 112.799 143.294 113.175 143.848 113.806C144.402 114.439 144.674 115.386 144.304 116.141C143.729 117.319 142.11 117.398 140.801 117.317C136.838 117.071 132.846 116.928 128.909 117.44C121.954 118.347 115.343 121.283 108.345 121.76C107.872 121.792 107.336 121.789 107.007 121.45C106.677 121.114 106.886 120.358 106.795 120.608Z" fill="#17282F"/>
<path d="M142.028 173.01C142.829 172.099 144.1 171.81 145.269 171.485C147.665 170.821 149.968 169.824 152.091 168.531C154.837 166.858 157.534 164.607 160.749 164.615C161.643 164.618 162.574 164.795 163.405 164.471C163.954 164.257 164.441 163.834 165.03 163.815C165.609 163.799 166.129 164.196 166.461 164.674C167.431 166.072 166.925 168.261 165.441 169.092C166.095 170.122 166.482 171.322 166.55 172.54C166.566 172.835 166.563 173.138 166.459 173.415C166.029 174.555 164.422 174.462 163.212 174.318C159.562 173.884 155.845 174.946 152.207 174.425C149.363 174.019 146.454 172.665 143.742 173.61C143.369 173.741 142.972 173.914 142.595 173.799C142.216 173.686 141.971 173.075 142.028 173.01Z" fill="#99746C"/>
<path d="M143.184 173.171C147.443 171.676 151.805 170.164 156.319 170.181C158.02 170.189 159.742 170.412 161.414 170.091C162.848 169.815 164.216 169.143 165.677 169.132" stroke="#80564D" stroke-width="0.4" stroke-miterlimit="10"/>
<path d="M78.367 154.693C78.0746 162.495 78.7003 170.329 80.2242 177.985C81.0103 181.933 82.0598 185.892 84.1066 189.358C87.4403 195.007 93.0913 198.837 97.4837 203.708C99.8125 206.29 101.792 209.171 104.149 211.727C109.987 218.059 118.143 222.211 126.921 222.794C131.113 224.516 135.95 224.036 140.194 222.445C144.438 220.854 148.205 218.238 151.924 215.649C154.786 213.656 157.65 211.661 160.512 209.669C163 207.938 165.523 206.172 167.424 203.808C170.364 200.148 171.562 195.145 170.592 190.551C170.405 189.667 170.073 188.709 169.277 188.282C168.571 187.904 167.713 188.059 166.912 188.067C163.961 188.092 161.346 185.995 158.398 185.807C153.173 185.477 149.102 191.087 143.867 191.145C140.209 191.188 137.092 188.471 134.936 185.514C131.579 180.909 129.589 175.361 125.84 171.068C121.51 166.109 115.244 163.296 109.003 161.202C102.761 159.109 96.2796 157.56 90.4695 154.459C89.4293 153.904 88.3787 153.267 87.7216 152.287C87.1875 151.487 86.9627 150.529 86.7463 149.591C85.4535 143.982 84.1631 138.375 82.8703 132.767C80.4424 132.644 78.3205 134.656 77.5012 136.943C76.6823 139.232 76.8709 141.741 77.0687 144.164C77.3766 147.873 78.4859 151.507 78.367 154.693Z" fill="#17282F"/>
<path d="M134.302 184.506C133.9 181.077 136.839 178.251 137.989 174.994C138.915 172.372 138.689 169.373 140.053 166.951C142.388 162.808 148.092 162.21 151.837 159.28C153.423 158.039 154.776 156.303 156.742 155.87C158.479 155.486 160.492 156.185 161.96 155.183C162.383 154.894 162.769 154.462 163.282 154.453C163.606 154.447 163.908 154.618 164.161 154.82C166.022 156.314 165.87 159.303 167.462 161.084C167.973 161.654 168.637 162.069 169.152 162.631C170.292 163.876 170.573 165.702 170.422 167.385C170.27 169.067 169.745 170.692 169.486 172.362C168.731 177.234 170.272 182.19 169.976 187.112C169.939 187.735 169.704 188.527 169.083 188.56C167.336 183.062 169.763 176.875 167.962 171.396C167.598 170.291 167.063 169.22 166.968 168.058C166.847 166.585 167.326 164.776 166.166 163.861C164.939 162.893 163.183 163.952 161.62 163.957C161.044 163.96 160.479 163.811 159.905 163.779C157.93 163.67 156.175 164.919 154.523 166.008C151.746 167.835 148.768 169.357 145.659 170.539C144.733 170.891 143.761 171.234 143.056 171.932C142.52 172.464 142.182 173.162 141.884 173.856C140.931 176.063 140.249 178.386 139.166 180.531C138.084 182.676 136.521 184.693 134.34 185.704C134.263 185.14 134.184 184.576 134.302 184.506Z" fill="#17282F"/>
<path d="M121.791 117.133C121.624 115.836 121.536 114.529 121.415 113.216C128.69 111.434 136.205 109.934 143.634 110.905C146.795 111.317 150.059 112.268 152.276 114.56C152.721 115.019 153.125 115.534 153.692 115.802C155.263 116.162 157.037 116.49 158.385 115.61C158.847 115.309 159.215 114.891 159.645 114.545C160.473 113.877 161.5 113.509 162.518 113.205C166.332 112.063 170.449 111.656 174.3 112.669C175.832 113.071 177.297 113.691 178.755 114.309C180.011 114.841 181.269 115.373 182.532 115.944C182.86 117.065 183.15 118.369 182.475 119.32C182.256 119.626 181.957 119.865 181.732 120.164C181.305 120.73 181.181 121.46 181.065 122.159C180.368 126.31 179.453 130.425 178.323 134.48C178.131 135.169 177.93 135.862 177.585 136.488C176.837 137.845 175.456 138.77 173.982 139.245C172.508 139.72 170.933 139.786 169.284 139.739C169.07 139.525 168.841 139.289 168.809 138.987C168.775 138.687 169.062 138.347 169.095 138.573C171.196 138.438 173.467 138.234 175.03 136.827C176.012 135.944 176.578 134.695 177.031 133.454C178.433 129.613 179.005 125.526 179.483 121.466C179.631 120.204 179.766 118.889 179.346 117.69C178.927 116.489 177.779 115.445 176.499 115.572C172.756 113.591 168.27 113.412 164.115 114.235C162.525 114.551 160.815 115.111 159.965 116.493C159.448 117.334 159.334 118.355 159.272 119.34C159.119 121.789 159.214 124.253 159.559 126.683C158.503 125.642 157.447 124.6 156.39 123.559C156.187 123.359 155.975 123.141 155.914 122.863C155.785 122.274 156.379 121.734 156.338 121.133C156.299 120.606 155.738 120.222 155.213 120.26C154.685 120.297 154.229 120.667 153.95 121.114C153.67 121.562 153.539 122.084 153.41 122.596C153.003 124.226 152.596 125.855 152.238 127.483C151.667 129.105 151.097 130.726 150.527 132.35C149.817 134.367 149.03 136.496 147.349 137.817C146.535 138.455 145.564 138.859 144.576 139.166C142.559 139.792 140.426 140.04 138.416 139.951C134.824 139.76 131.27 138.861 128.041 137.303C127.36 137.097 126.83 136.531 126.51 135.894C126.192 135.257 126.054 134.546 125.932 133.842C125.295 130.171 124.965 126.448 124.947 122.723C124.942 121.804 124.955 120.872 124.714 119.986C124.473 119.099 123.938 118.246 123.11 117.852C122.579 117.597 121.83 117.424 121.791 117.133Z" fill="black"/>
<path d="M146.611 136.295C148.111 134.737 149.169 132.796 149.932 130.772C150.695 128.747 151.179 126.631 151.647 124.52C151.791 123.869 151.936 123.214 151.975 122.548C152.065 120.981 151.567 119.446 151.387 117.885C151.354 117.586 151.329 117.28 151.23 116.995C151.082 116.568 150.774 116.217 150.458 115.894C149.849 115.275 149.156 114.705 148.327 114.441C145.285 112.546 141.428 112.344 137.749 112.195C135.938 112.284 134.071 112.39 132.323 112.976C130.575 113.562 128.93 114.695 128.137 116.359C126.379 121.328 126.509 126.874 127.347 132.167C127.489 133.062 127.654 133.969 128.045 134.787C128.437 135.605 129.083 136.338 129.946 136.493C134.101 138.502 138.98 138.76 143.474 137.703C144.058 137.567 144.638 137.406 145.185 137.16C145.747 136.904 146.312 136.609 146.611 136.295Z" fill="#F2DBC1" stroke="black" stroke-miterlimit="10"/>
<path d="M121.381 113.346C120.891 113.163 120.35 113.12 119.836 113.226C119.716 113.251 119.591 113.288 119.505 113.378C119.384 113.503 119.376 113.698 119.376 113.871C119.374 114.764 119.369 115.656 119.366 116.55C119.365 116.686 119.374 116.842 119.484 116.927C119.554 116.981 119.647 116.989 119.736 116.995C120.17 117.025 120.607 117.056 121.041 117.086C121.186 117.095 121.342 117.103 121.464 117.024C121.663 116.896 121.671 116.612 121.658 116.376C121.606 115.436 121.551 114.495 121.499 113.555C121.496 113.477 121.489 113.394 121.444 113.331C121.399 113.264 121.3 113.231 121.381 113.346Z" fill="white" stroke="black" stroke-miterlimit="10"/>
<path d="M119.328 113.761C115.027 113.86 110.734 114.203 106.439 114.409C101.556 114.644 96.6693 114.704 91.7697 114.65C83.2233 116.21 74.4143 116.094 65.9415 118.018C65.2176 118.183 64.4816 118.369 63.8651 118.779C63.1724 119.24 62.6859 119.948 62.2401 120.653C60.3256 123.68 58.8409 126.98 57.8477 130.422C57.7786 130.66 57.7139 130.92 57.8018 131.151C57.879 131.35 58.0553 131.489 58.2284 131.612C58.6732 131.93 59.1429 132.207 59.6335 132.445C59.9868 131.232 60.388 130.032 60.8344 128.851C61.6063 126.808 62.5424 124.773 64.0653 123.208C66.1841 121.028 69.2439 119.981 72.2668 119.658C75.2902 119.337 78.3379 119.665 81.3723 119.845C84.4066 120.026 87.5114 120.046 90.3601 119.237C94.8724 118.831 99.3851 118.426 103.897 118.02C108.543 117.603 113.197 117.184 117.861 117.235C118.352 117.24 118.945 117.192 119.172 116.756C119.247 116.609 119.265 116.441 119.279 116.277C119.351 115.442 119.37 114.602 119.328 113.761Z" fill="black" stroke="black" stroke-miterlimit="10"/>
<path d="M62.0877 172.439C64.9615 173.697 68.1874 174.144 71.2956 173.713C72.4826 173.549 73.715 173.223 74.5648 172.379C76.0542 170.892 75.8176 168.461 75.4741 166.386C74.9852 163.43 74.4978 160.471 74.0089 157.514C73.6402 155.274 73.1211 152.789 71.253 151.498" stroke="#CEAC87" stroke-width="0.4" stroke-miterlimit="10"/>
<path d="M60.0913 140.494C59.0067 138.092 57.5407 135.788 55.4151 134.23C53.2878 132.675 50.4121 131.977 47.9497 132.915C45.7988 133.735 44.2304 135.675 43.3091 137.783C42.5916 139.424 42.2032 141.248 42.463 143.02C42.7989 145.302 44.1555 147.289 45.5015 149.163C49.6995 155.015 54.1363 160.696 58.8002 166.186" stroke="#CEAC87" stroke-width="0.4" stroke-miterlimit="10"/>
<path d="M50.1086 146.046C49.5363 148.079 48.9948 150.254 49.6229 152.271C50.0017 153.483 50.7728 154.528 51.532 155.545C52.1726 156.403 52.814 157.265 53.5601 158.034C55.6031 160.139 58.4173 161.48 61.3379 161.739" stroke="#CEAC87" stroke-width="0.4" stroke-miterlimit="10"/>
<path d="M58.0581 145.932C59.1236 145.92 60.1568 145.271 60.6325 144.317C60.8227 143.935 61.1206 143.413 61.5169 143.572C61.6827 143.639 61.7788 143.809 61.8606 143.969C62.7317 145.672 63.5276 147.41 64.2517 149.179" stroke="#CEAC87" stroke-width="0.4" stroke-miterlimit="10"/>
<path d="M65.9815 147.726C66.677 148.509 66.9946 149.612 66.8228 150.644C66.7224 151.247 66.4671 151.846 66.5838 152.444C66.8106 153.606 68.1994 154.032 69.2172 154.639C70.4947 155.402 71.3959 156.764 71.5948 158.237C71.629 158.487 71.6383 158.757 71.5066 158.97C71.3979 159.145 71.2122 159.254 71.0233 159.338C69.6056 159.968 67.9675 159.468 66.4952 158.984C65.0224 158.498 63.3599 158.04 61.9739 158.736" stroke="#CEAC87" stroke-width="0.4" stroke-miterlimit="10"/>
<path d="M132.718 124.965C131.007 125.203 129.398 125.894 127.766 126.459C127.473 126.56 127.18 126.657 126.885 126.751C126.904 128.617 127.022 129.651 127.328 131.483C129.899 131.502 132.464 130.889 134.27 129.129C135.202 128.22 136.035 126.969 137.333 126.863C137.49 126.85 137.678 126.841 137.762 126.707C137.866 126.54 137.723 126.33 137.578 126.196C136.313 125.018 134.43 124.728 132.718 124.965Z" fill="white" stroke="black" stroke-width="0.4" stroke-miterlimit="10"/>
<path d="M127.289 126.7C126.797 127.857 127.451 129.36 128.632 129.79C129.407 130.071 130.29 129.92 131.028 129.55C132.715 128.705 133.725 126.724 133.396 124.864C131.775 124.987 129.957 125.663 128.266 126.272C127.906 126.373 127.41 126.412 127.289 126.7Z" fill="#17282F"/>
<path d="M134.76 121.797C134.116 121.718 133.471 121.892 132.843 122.064C130.856 122.61 128.883 123.209 126.892 123.741L127 124.274C128.084 123.95 129.019 123.729 130.093 123.373C132.089 122.71 134.324 122.003 136.223 122.909C136.055 122.28 135.404 121.877 134.76 121.797Z" fill="#CEAC87"/>
<path d="M153.648 120.969C156.14 123.512 158.632 126.057 161.124 128.601C162.889 130.402 164.678 132.237 165.85 134.472" stroke="#CEAC87" stroke-width="0.4" stroke-miterlimit="10"/>
<path d="M143.854 113.799C143.3 113.168 142.515 112.792 141.732 112.481C137.984 112.22 135.964 112.149 132.72 112.856C129.669 113.874 128.197 115.417 127.814 117.594C128.18 117.535 128.547 117.482 128.915 117.434C132.852 116.921 136.844 117.065 140.807 117.31C142.116 117.391 143.735 117.313 144.31 116.135C144.68 115.379 144.408 114.432 143.854 113.799Z" fill="#17282F"/>
<path d="M85.9112 234.884L51.436 249.942L64.7013 303.316C84.2737 339.742 144.362 362.061 178.891 343.548L178.891 322.045L199.593 341.572C209.877 351.273 225.974 351.167 236.13 341.328L261.987 308.282L242.759 272.482L218.653 297.661L175.734 243.02C174.011 240.828 171.556 239.333 168.821 238.809L139.381 233.18L133.778 226.238L126.39 234.648L123.049 248.35L115.952 238.4L82.1843 216.543L85.9112 234.884Z" fill="#7687C1"/>
<path d="M75.0036 414.808L75.2401 411.257C75.2381 411.256 75.2364 411.256 75.2344 411.255L74.9975 414.804C74.9995 414.806 75.0016 414.807 75.0036 414.808ZM75.2461 411.176L75.5287 406.931C75.5267 406.93 75.5267 406.93 75.5267 406.93C75.5267 406.93 75.5267 406.93 75.525 406.93L75.2408 411.175C75.2425 411.175 75.2445 411.176 75.2461 411.176Z" fill="#20353D"/>
<path d="M75.2444 411.254L75.2503 411.175C75.2487 411.175 75.2467 411.174 75.2451 411.174L75.2388 411.252C75.2408 411.253 75.2424 411.253 75.2444 411.254Z" fill="#A4A6A5"/>
<path d="M177.141 347.891C177.174 347.891 177.204 347.587 177.232 347.012C177.252 346.355 177.282 345.524 177.316 344.501C177.352 342.219 177.403 339.09 177.464 335.268C177.496 331.341 177.531 326.709 177.571 321.582C177.579 319.004 177.589 316.302 177.599 313.503C177.466 310.709 177.331 307.82 177.19 304.86C176.57 293.061 176.009 282.389 175.598 274.538C175.355 270.738 175.158 267.629 175.014 265.36C174.932 264.344 174.864 263.52 174.811 262.868C174.755 262.299 174.709 262.002 174.68 262.005C174.649 262.009 174.635 262.31 174.634 262.884C174.644 263.54 174.656 264.369 174.673 265.39C174.747 267.664 174.849 270.782 174.975 274.591C175.321 282.443 175.789 293.122 176.308 304.924C176.455 307.881 176.597 310.77 176.735 313.563C176.743 316.361 176.751 319.06 176.758 321.636C176.791 326.758 176.817 331.383 176.842 335.305C176.897 339.119 176.941 342.242 176.973 344.519C177.007 345.537 177.034 346.366 177.054 347.022C177.082 347.594 177.112 347.893 177.141 347.891Z" fill="#17282F"/>
<path d="M90.2436 237.654C90.1871 237.794 92.4898 238.688 95.9829 240.569C99.4774 242.431 104.141 245.356 108.676 249.346C110.549 250.994 112.251 252.685 113.735 254.301L114.342 254.964L114.461 254.079C115.036 249.78 115.504 246.087 115.799 243.468C116.097 240.846 116.224 239.298 116.129 239.285C116.033 239.272 115.726 240.795 115.286 243.394C114.844 245.995 114.268 249.669 113.631 253.962L114.356 253.739C112.875 252.081 111.161 250.352 109.26 248.682C104.658 244.632 99.8705 241.747 96.2665 240.012C94.4706 239.127 92.9612 238.533 91.9148 238.141C90.8591 237.771 90.2663 237.596 90.2436 237.654Z" fill="#17282F"/>
<path d="M140.413 352.31C140.437 352.308 140.42 351.957 140.364 351.293C140.291 350.539 140.197 349.579 140.082 348.387C139.824 345.867 139.41 342.219 138.869 337.717C137.784 328.713 136.144 316.285 134.081 302.593C132.012 288.896 129.914 276.528 128.292 267.594C127.482 263.129 126.8 259.518 126.302 257.029C126.061 255.856 125.866 254.906 125.715 254.164C125.572 253.512 125.485 253.17 125.46 253.174C125.435 253.179 125.474 253.528 125.571 254.19C125.688 254.938 125.839 255.895 126.024 257.076C126.459 259.685 127.054 263.281 127.785 267.678C129.277 276.628 131.293 288.999 133.359 302.688C135.421 316.373 137.142 328.783 138.357 337.77C138.956 342.185 139.445 345.796 139.8 348.414C139.971 349.598 140.11 350.558 140.218 351.306C140.321 351.968 140.387 352.312 140.413 352.31Z" fill="#17282F"/>
<path d="M195.801 338C195.8 337.998 195.8 337.998 195.8 337.997L179.535 322.655C179.545 322.72 179.557 322.787 179.567 322.853L195.801 338Z" fill="#9FA1A1"/>
<path d="M195.793 337.992C188.128 321.431 181.841 303.952 176.78 286.423C176.787 286.729 176.796 287.034 176.804 287.339C177.34 294.597 177.955 302.944 178.611 311.84C178.82 314.856 179.024 317.809 179.223 320.68C179.32 321.337 179.422 321.995 179.528 322.65L195.793 337.992Z" fill="#5F6FA7"/>
<path d="M179.224 320.687C179.025 317.816 178.822 314.863 178.612 311.847C177.956 302.951 177.341 294.604 176.806 287.346C177.098 298.445 177.593 309.7 179.224 320.687Z" fill="#0F191D"/>
<path d="M116.769 263.752C117.925 263.516 118.804 262.457 119.128 261.313C119.464 260.124 119.311 258.853 119.087 257.638C118.681 255.434 118.057 253.149 118.672 250.995C119.1 249.504 120.082 248.305 121.302 248.056C121.845 247.945 122.437 248.024 123.046 248.347L119.653 243.593C118.442 241.961 117.231 240.329 116.262 238.836C116.262 238.836 116.206 239.417 116.113 240.356C116.062 241.003 115.97 241.927 115.84 243.083C115.364 247.792 114.632 254.738 114.45 254.775L114.448 254.774C114.422 254.75 114.4 254.725 114.374 254.699L114.34 254.959L113.733 254.297C112.249 252.681 110.547 250.989 108.674 249.342C104.139 245.351 99.4756 242.427 95.9812 240.565C93.2598 239.099 91.2613 238.233 90.537 237.855C89.8672 237.685 89.1887 237.54 88.5021 237.423C96.2282 245.968 104.35 254.156 112.833 261.952C113.903 262.936 115.193 263.985 116.634 263.776C116.679 263.768 116.724 263.761 116.769 263.752ZM96.708 240.224C96.1267 239.926 95.5402 239.645 94.9457 239.385C95.3642 239.573 95.8058 239.782 96.2648 240.007C96.4111 240.078 96.5594 240.15 96.708 240.224Z" fill="#5F6FA7"/>
<path d="M114.34 254.962L114.373 254.702C108.773 248.956 103.101 243.507 96.7079 240.227C96.5592 240.153 96.4109 240.081 96.2646 240.01C95.8056 239.785 95.364 239.576 94.9455 239.388C93.5157 238.758 92.0484 238.242 90.5368 237.858C91.2612 238.236 93.2597 239.102 95.981 240.568C99.4755 242.43 104.139 245.354 108.674 249.345C110.547 250.992 112.249 252.684 113.733 254.3L114.34 254.962ZM115.84 243.087C115.97 241.93 116.062 241.006 116.112 240.359C116.041 241.087 115.947 242.031 115.84 243.087Z" fill="#0F191D"/>
<path d="M130.841 258.119C135.013 250.381 138.084 242.05 139.934 233.455L139.65 233.234L139.377 233.182L139.303 233.09C139.082 233.376 138.869 233.666 138.66 233.962C139.03 233.459 139.293 233.194 139.363 233.18C139.369 233.178 139.373 233.179 139.377 233.182C139.493 233.263 138.67 234.496 137.766 236.679C136.817 238.847 135.996 242.027 134.735 245.491L134.609 245.827L134.162 247.027L133.772 245.798C132.709 242.45 131.345 239.532 130.242 237.529C129.684 236.527 129.169 235.763 128.772 235.271C128.365 234.792 128.074 234.598 128.107 234.531C128.108 234.527 128.111 234.525 128.116 234.524C127.946 234.475 127.765 234.46 127.574 234.489C127.554 234.493 127.532 234.495 127.512 234.499C126.678 234.67 126.262 235.633 126.022 236.464C125.752 237.402 125.384 238.813 124.998 240.339L123.045 248.352C124.498 246.837 127.285 243.258 128.739 241.743C128.675 247.263 129.384 252.794 130.841 258.119ZM134.345 243.948C135.371 241.022 136.213 238.315 137.196 236.421C137.527 235.755 137.852 235.187 138.145 234.721C136.315 237.522 135.016 240.67 134.345 243.948Z" fill="#5F6FA7"/>
<path d="M218.648 297.661L219.083 297.208C219.089 297.196 219.096 297.184 219.102 297.173L219.321 296.349C218.879 296.496 218.45 296.676 218.04 296.886L218.648 297.661Z" fill="#BABCBA"/>
<path d="M220.838 322.533C221.116 322.433 218.399 317.071 217.886 309.846C217.287 302.625 219.151 296.913 218.862 296.856C218.767 296.822 218.172 298.194 217.642 300.544C217.107 302.888 216.726 306.234 217.005 309.913C217.292 313.592 218.182 316.837 219.068 319.073C219.951 321.316 220.749 322.581 220.838 322.533Z" fill="#17282F"/>
<path d="M81.6779 274.629C75.2873 252.247 51.4285 249.938 51.4285 249.938C49.3076 250.362 50.419 249.382 48.9298 251.118C52.1921 348.437 171.069 386.045 232.648 306.472L230.062 293.686C211.586 287.426 121.067 346.596 121.239 345.175C121.577 342.374 104.929 338.107 104.929 338.107C104.929 338.107 88.0665 297.01 81.6779 274.629Z" fill="#7687C1"/>
<path d="M84.8388 289.992C85.7184 296.335 86.3932 303.121 87.5414 310.202C88.7602 317.91 90.3823 325.986 92.458 334.276L91.473 333.92C89.4699 325.8 87.9067 317.887 86.736 310.328C85.6055 303.222 84.9568 296.413 84.11 290.094C83.2586 283.779 82.1082 277.937 80.3316 272.827C78.5932 267.709 76.1479 263.412 73.5221 260.025C70.87 256.654 68.0639 254.178 65.5216 252.552C60.4003 249.273 56.8707 248.99 56.9467 248.819C56.9507 248.804 57.1559 248.84 57.5596 248.923C57.9564 249.022 58.5672 249.107 59.332 249.352C60.8725 249.793 63.111 250.644 65.7072 252.262C68.3088 253.864 71.1866 256.334 73.9107 259.719C76.6083 263.117 79.1264 267.456 80.9246 272.621C82.7584 277.773 83.9506 283.658 84.8388 289.992Z" fill="#17282F"/>
<path d="M200.682 301.705C187.729 297.316 139.027 326.191 111.126 343.357" stroke="black" stroke-width="0.4"/>
<path d="M239.366 246.364C241.582 235.351 243.645 224.307 245.52 213.31C245.659 211.841 245.963 210.366 246.636 209.053C247.309 207.74 248.383 206.593 249.742 206.038C249.993 205.871 250.303 205.824 250.601 205.781C251.887 205.594 253.174 205.408 254.465 205.258C257.007 204.996 259.553 204.733 262.104 204.687C262.97 204.746 263.793 205.181 264.376 205.823C264.959 206.465 265.307 207.305 265.437 208.167C265.709 209.384 265.558 210.652 265.361 211.883C265.183 212.993 264.969 214.098 264.721 215.151C264.124 217.94 263.459 220.714 262.742 223.528C262.295 226.486 261.728 229.425 261.038 232.256C261.147 233.963 260.329 235.588 259.401 237.024C256.637 241.297 252.665 244.781 248.065 246.963C246.879 247.526 245.639 248.007 244.339 248.184C243.039 248.361 241.666 248.216 240.515 247.585C239.992 247.298 239.265 246.863 239.366 246.364Z" fill="white" stroke="black" stroke-width="0.4" stroke-miterlimit="10"/>
<path d="M218.577 324.075C221.17 318.905 224.34 314.024 228.007 309.552C228.67 313.469 229.46 317.491 231.701 320.765C232.741 322.288 234.062 323.593 235.375 324.888C236.402 325.902 237.588 326.985 239.032 326.989C239.308 326.99 239.596 326.944 239.817 326.779C239.981 326.656 240.094 326.477 240.204 326.302C241.545 324.155 242.886 322.008 244.226 319.861C246.38 316.413 248.537 312.958 251.037 309.753C253.223 306.949 255.659 304.351 258.099 301.765C258.451 300.975 258.871 300.241 259.373 299.56C259.738 299.065 260.143 298.6 260.521 298.115C262.539 295.515 263.712 292.341 265.713 289.73C266.637 288.524 267.732 287.449 268.955 286.546C269.753 285.488 270.683 284.469 271.372 283.287C272.388 281.543 272.835 279.525 273.076 277.521C273.174 276.704 273.245 275.867 273.577 275.114C273.903 274.375 274.468 273.754 274.746 272.996C275.102 272.027 274.953 270.955 274.798 269.935C274.609 268.689 274.383 267.368 273.544 266.428C273.373 265.135 273.134 263.946 272.923 262.752C272.869 262.455 272.819 262.15 272.874 261.853C272.945 261.472 273.184 261.145 273.432 260.846C273.993 260.17 274.657 259.529 274.904 258.686C275.038 258.225 275.037 257.736 275.034 257.255C275.026 255.676 274.976 253.974 274.02 252.717C273.208 251.649 271.894 251.112 270.641 250.632C271.629 249.422 271.497 247.744 271.772 246.269C272.039 244.84 272.732 243.374 272.259 241.999C271.904 241.13 271.371 240.281 270.754 239.498C270.625 239.334 270.481 239.164 270.282 239.098C270.142 239.051 269.989 239.061 269.841 239.071C269.411 239.102 268.981 239.131 268.551 239.162C269.286 238.53 269.745 237.696 269.842 236.817C269.94 235.937 269.676 235.023 269.125 234.33C268.377 233.391 267.201 232.92 266.065 232.532C265.598 232.372 265.113 232.217 264.621 232.263C261.537 231.79 258.34 232.733 256.019 234.734C255.249 235.399 254.576 236.169 253.906 236.936C253.61 237.276 253.308 237.624 253.141 238.043C252.973 238.462 252.964 238.971 253.229 239.335C251.731 238.719 250.074 239.374 248.663 240.095C245.281 241.823 242.124 243.988 239.293 246.521C239.394 246.274 239.457 245.945 239.398 245.639C239.397 245.477 239.28 245.344 239.148 245.303C239.015 245.262 238.872 245.289 238.736 245.315C237.42 245.57 236.09 245.751 234.754 245.859C232.786 245.62 230.601 245.369 228.418 245.118C227.833 245.051 227.238 244.984 226.659 245.093C226.08 245.202 225.51 245.519 225.24 246.041C222.769 249.189 220.387 252.494 218.134 255.883C217.407 256.977 216.686 258.093 216.252 259.333C215.803 260.618 215.676 261.989 215.553 263.345C215.244 266.758 214.934 270.185 215.11 273.607C215.276 276.815 215.844 280.172 214.615 283.141C214.046 284.512 213.126 285.703 212.205 286.866C208.292 291.808 204.168 296.584 199.929 301.097C207.719 307.233 211.681 317.02 218.536 324.186C218.552 324.041 218.57 323.899 218.577 324.075Z" fill="#F2DBC1" stroke="black" stroke-width="0.4" stroke-miterlimit="10"/>
<path d="M227.901 309.7C230.559 306.493 233.857 303.82 237.545 301.883C239.173 301.027 240.876 300.313 242.471 299.396C246.385 297.142 249.493 293.747 252.535 290.407C253.456 289.395 254.39 288.366 254.992 287.137C255.389 286.325 255.63 285.448 255.966 284.608C256.602 283.018 257.583 281.539 257.856 279.847C258.192 277.758 257.304 275.517 255.662 274.329C255.591 274.108 255.522 273.886 255.451 273.665C256.321 272.829 257.191 271.991 258.06 271.154C258.683 270.554 259.313 269.948 259.784 269.222" stroke="black" stroke-width="0.4" stroke-miterlimit="10"/>
<path d="M267.087 271.895C266.824 271.197 266.13 270.742 265.416 270.524C264.702 270.305 263.945 270.277 263.209 270.15C261.862 269.919 260.586 269.359 259.428 268.63C258.577 268.093 257.76 267.435 257.29 266.546C256.821 265.655 256.767 264.489 257.375 263.686C258.153 262.659 259.639 262.565 260.926 262.605C263.663 262.689 266.394 262.967 269.093 263.435C269.707 263.541 270.329 263.66 270.888 263.938C271.447 264.216 271.942 264.673 272.131 265.269" stroke="black" stroke-width="0.4" stroke-miterlimit="10"/>
<path d="M258.061 263.556C258.625 264.686 258.885 265.967 258.807 267.227C258.8 267.329 258.798 267.447 258.874 267.516C258.933 267.569 259.019 267.574 259.098 267.575C260.072 267.589 261.048 267.522 262.012 267.376C262.523 267.299 263.044 267.193 263.489 266.927C263.933 266.661 264.293 266.203 264.314 265.686C264.334 265.199 264.05 264.737 263.667 264.435C263.284 264.133 262.813 263.966 262.343 263.834C261.076 263.476 259.751 263.324 258.435 263.385C258.264 263.392 258.023 263.479 258.061 263.556Z" fill="#FFFDFD"/>
<path d="M253.414 263.844C253.678 263.125 254.316 262.606 254.988 262.239C255.66 261.871 256.392 261.616 257.045 261.215C258.566 260.282 259.643 258.576 261.376 258.151" stroke="black" stroke-width="0.4" stroke-miterlimit="10"/>
<path d="M258.978 259.731C259.788 259.441 260.606 259.151 261.459 259.036C262.312 258.921 263.213 258.993 263.972 259.399C265.209 260.062 265.874 261.638 265.485 262.987" stroke="black" stroke-width="0.4" stroke-miterlimit="10"/>
<path d="M261.227 258.186C261.603 258.034 261.98 257.883 262.355 257.732" stroke="black" stroke-width="0.4" stroke-miterlimit="10"/>
<path d="M270.294 259.696C268.807 259.555 267.351 259.105 266.044 258.384C265.809 258.254 265.575 258.114 265.315 258.041C265.05 257.967 264.773 257.966 264.497 257.962C262.866 257.938 261.236 257.767 259.58 257.514C258.543 257.058 257.527 256.453 256.873 255.529C256.218 254.603 256.003 253.298 256.594 252.33C257.085 251.525 258.024 251.095 258.949 250.912C259.874 250.729 260.828 250.745 261.759 250.588C262.732 250.424 263.667 250.074 264.645 249.937C265.969 249.752 267.312 249.967 268.631 250.181C269.336 250.296 270.04 250.41 270.746 250.525" stroke="black" stroke-width="0.4" stroke-miterlimit="10"/>
<path d="M257.169 251.532C257.585 251.378 258.067 251.581 258.362 251.912C258.657 252.243 258.802 252.678 258.923 253.104C259.228 254.183 259.426 255.293 259.514 256.411C260.301 256.119 261.142 256.015 261.959 255.822C262.776 255.628 263.602 255.325 264.186 254.722C264.77 254.119 265.047 253.156 264.653 252.415C264.402 251.942 263.919 251.625 263.407 251.459C262.896 251.294 262.354 251.262 261.819 251.233C261.111 251.193 260.404 251.153 259.697 251.113C258.825 251.064 257.899 251.026 257.169 251.532Z" fill="#FFFDFD"/>
<path d="M261.761 246.178C261.827 246.477 261.892 246.783 261.842 247.085C261.792 247.386 261.6 247.684 261.305 247.764C261.126 247.812 260.936 247.776 260.754 247.742C259.564 247.514 258.315 247.334 257.157 247.693C256.397 247.928 255.728 248.381 255.07 248.828C254.111 249.48 253.151 250.131 252.191 250.783C250.796 251.73 249.396 252.681 248.138 253.805C248.23 254.071 248.322 254.337 248.355 254.695C251.703 252.802 254.416 249.894 257.862 248.183C258.428 247.902 259.025 247.651 259.655 247.599" stroke="black" stroke-width="0.4" stroke-miterlimit="10"/>
<path d="M261.219 247.836C261.84 247.88 262.417 248.189 262.889 248.594C263.361 249 263.74 249.5 264.114 249.996" stroke="black" stroke-width="0.4" stroke-miterlimit="10"/>
<path d="M255.109 240.688C255.479 241.646 255.997 242.538 256.515 243.426C256.802 243.919 257.109 244.434 257.6 244.725C258.021 244.976 258.547 245.043 258.895 245.299C261.85 246.5 264.971 247.288 268.141 247.639" stroke="black" stroke-width="0.4" stroke-miterlimit="10"/>
<path d="M264.225 247.111C264.297 248.009 264.102 248.926 263.672 249.717" stroke="black" stroke-width="0.4" stroke-miterlimit="10"/>
<path d="M255.102 240.886C254.849 240.131 255.537 239.378 256.258 239.039C257.276 238.56 258.435 238.5 259.559 238.486C262.625 238.447 265.693 238.696 268.712 239.227" stroke="black" stroke-width="0.4" stroke-miterlimit="10"/>
<path d="M256.455 239.061C258.138 239.812 259.308 241.59 259.236 243.372C259.986 243.376 260.736 243.229 261.43 242.943C261.683 242.839 261.934 242.712 262.133 242.524C262.768 241.921 262.68 240.818 262.133 240.134C261.586 239.451 260.712 239.116 259.855 238.938C258.859 238.733 257.828 238.7 256.821 238.841C256.728 238.855 256.631 238.871 256.556 238.927C256.456 239 256.413 239.143 256.455 239.061Z" fill="#FFFDFD"/>
<path d="M255.443 239.746C255.448 239.795 255.366 239.78 255.332 239.744C254.665 239.04 254.694 237.813 253.923 237.384C254.918 236.918 255.884 236.348 256.961 236.128C258.037 235.909 259.291 236.125 259.967 236.99C260.12 237.186 260.241 237.417 260.261 237.666C260.282 237.914 260.187 238.18 259.983 238.323C259.788 238.46 259.534 238.465 259.296 238.472C258.641 238.494 257.988 238.573 257.347 238.71C256.576 238.873 255.752 239.173 255.365 239.86C254.929 238.972 254.404 238.126 253.803 237.339" fill="#FFFDFD"/>
<path d="M234.479 246.013C234.911 246.559 235.7 246.638 236.397 246.62C237.223 246.599 238.047 246.503 238.857 246.336C238.98 246.311 239.107 246.281 239.201 246.199C239.415 246.012 239.354 245.671 239.274 245.399L239.26 245.397C239.26 245.397 239.23 245.403 239.211 245.394C238.698 245.136 238.087 245.343 237.535 245.5C236.661 245.748 235.748 245.858 234.842 245.827C234.729 245.822 234.606 245.819 234.513 245.885C234.42 245.949 234.396 246.113 234.479 246.013Z" fill="#FFFDFD"/>
<path d="M221.921 259.15C223.152 259.281 224.289 258.548 225.31 257.848C227.262 256.508 229.219 255.163 231.02 253.625C232.174 252.639 233.26 251.577 234.4 250.575C236.02 249.152 237.745 247.853 239.467 246.557" stroke="black" stroke-width="0.4" stroke-miterlimit="10"/>
<path d="M229.475 251.367C229.545 252.323 229.904 253.257 230.491 254.015" stroke="black" stroke-width="0.4" stroke-miterlimit="10"/>
<defs>
<linearGradient id="paint0_linear_765_2025" x1="61.3805" y1="320.11" x2="221.689" y2="173.174" gradientUnits="userSpaceOnUse">
<stop stop-color="#D9B430"/>
<stop offset="1" stop-color="#303030" stop-opacity="0"/>
</linearGradient>
</defs>
</svg>
