<svg width="226" height="325" viewBox="0 0 226 325" fill="none" xmlns="http://www.w3.org/2000/svg">
<path d="M222.959 212.543C222.959 273.271 173.728 322.502 113 322.502C52.2711 322.502 3.0408 273.271 3.0408 212.543C3.0408 151.814 52.2711 102.584 113 102.584C173.728 102.584 222.959 151.814 222.959 212.543Z" fill="url(#paint0_linear_691_2526)" stroke="white" stroke-width="4.99567"/>
<path d="M62.7812 195.106L128.283 193.578L128.977 208.998L72.9225 225.322L62.7812 195.106Z" fill="#5F6FA7"/>
<path fill-rule="evenodd" clip-rule="evenodd" d="M63.3352 182.467C63.2212 189.043 64.1895 199.469 66.0303 206.884C65.2276 209.684 69.0385 214.221 68.2359 217.02C67.3426 226.549 75.5512 221.549 80.9037 238.12C85.4183 235.493 89.7323 232.841 92.0012 229.932C87.0838 223.189 96.1155 225.348 101.771 221.255C110.1 217.087 117.792 206.695 125.546 196.754C125.546 193.025 128.187 177.348 128.628 173.438C109.969 176.691 81.9944 179.214 63.3352 182.467Z" fill="#F2DBC1"/>
<path d="M52.2108 215.864L28.3839 240.54L11.8649 258.527L18.6026 271.03C79.6709 315.76 96.4184 342.45 183.155 275.337L184.748 237.559L140.292 211.531L128.456 193.589L90.2881 225.815L62.7912 195.041L52.2108 215.864Z" fill="#7687C1"/>
<path d="M179.473 229.153C172.344 220.245 124.461 207.929 124.461 207.929C114.619 227.143 85.4352 230.831 71.0332 209.234L27.1417 218.674L24.2993 279.493C40.4141 300.47 61.7385 313.946 84.8689 320.009C113.278 327.63 154.121 324.226 177.738 299.637L179.473 229.153Z" fill="#7687C1"/>
<path d="M178.272 227.803C185.955 232.617 193.064 241.398 195.123 253.357C195.263 254.174 200.064 278.652 200.314 281.168C190.173 294.018 174.406 308.466 150.442 317.148C151.881 299.898 154.061 268.61 157.337 258.22C164.06 236.888 172.212 224.007 178.272 227.803Z" fill="#7687C1"/>
<path d="M27.132 218.489C38.5474 219.145 31.2145 229.98 34.4868 241.042C36.867 249.081 60.6263 314.092 40.9688 297.282C21.3113 280.473 8.66963 256.995 4.47472 236.365C0.279812 215.736 27.132 218.489 27.132 218.489Z" fill="#7687C1"/>
<path d="M150.016 265.898C150.492 263.597 150.792 262.336 150.874 262.353C150.956 262.37 150.811 263.666 150.48 265.986C150.101 268.297 149.725 271.668 149.346 275.831C149.066 280.005 148.766 284.984 148.981 290.515C149.14 296.045 149.635 302.112 150.369 308.469C150.614 310.478 151.942 314.58 152.176 316.525L149.675 317.497C149.408 315.342 149.443 310.856 149.169 308.611C148.434 302.233 147.969 296.114 147.87 290.539C147.716 284.958 148.104 279.939 148.494 275.744C148.989 271.561 149.494 268.19 150.016 265.898Z" fill="#17282F"/>
<path d="M37.4551 254.658C37.6394 253.34 37.7761 252.615 37.8506 252.62C37.9272 252.625 37.9293 253.361 37.8734 254.686C37.7905 256.201 37.687 258.075 37.5669 260.294C37.2418 265.232 36.8215 271.668 36.3556 278.784C36.0042 283.611 35.6046 288.13 35.1904 292.004L34.3304 291.101C34.6308 287.42 34.9513 283.206 35.2789 278.726C35.8069 271.511 36.3225 264.973 36.807 260.248C37.0493 257.887 37.2667 255.976 37.4551 254.658Z" fill="#17282F"/>
<path d="M147.874 290.462C147.965 296.04 148.437 302.162 149.188 308.543C149.45 310.645 150.253 315.124 150.51 317.148C147.176 318.468 143.773 319.371 141.55 320.065C140.427 312.737 139.976 308.236 140.355 295.471C140.859 278.463 145.216 270.671 150.8 262.85L150.933 262.543C150.781 263.038 150.518 264.154 150.16 265.8C149.611 268.095 149.078 271.469 148.555 275.656C148.14 279.854 147.725 284.878 147.874 290.462Z" fill="#5F6FA7"/>
<path d="M55.5292 220.023C55.3817 220.208 57.4214 222.357 60.6986 225.826C63.9743 229.298 68.4658 234.122 73.2202 239.661C74.2209 240.84 75.2 241.994 76.1469 243.109L76.7786 243.852L77.3458 243.069C81.0288 237.97 84.2138 233.439 86.4396 230.151C88.6669 226.861 89.9335 224.814 89.7782 224.683C89.6245 224.552 88.0766 226.36 85.6326 229.464C83.1901 232.567 79.8514 236.968 76.1161 242.024L77.3136 241.984C76.3667 240.857 75.386 239.689 74.3853 238.495C69.5971 232.918 64.9473 228.196 61.4611 224.935C57.9702 221.677 55.6676 219.849 55.5292 220.023Z" fill="#17282F"/>
<path d="M91.298 223.08C91.0928 223.174 92.4847 226.688 94.9007 232.297C95.5304 233.74 96.1948 235.267 96.8955 236.874C97.6956 238.536 98.2226 240.223 99.4062 242.173C99.9759 243.11 101.343 244.088 102.772 243.8C104.133 243.552 105.043 242.758 105.936 242.184C107.759 240.939 109.635 239.657 111.557 238.341C119.252 233.056 126.164 228.196 131.121 224.613C136.079 221.028 139.081 218.719 138.953 218.534C138.825 218.35 135.592 220.325 130.468 223.666C125.342 227.009 118.327 231.718 110.633 237.005C108.715 238.329 106.847 239.619 105.03 240.874C104.112 241.508 103.279 242.145 102.518 242.27C101.784 242.412 101.148 242.027 100.629 241.307C98.8207 238.022 97.3105 234.479 95.9486 231.819C93.2643 226.333 91.5031 222.987 91.298 223.08Z" fill="#17282F"/>
<path d="M85.3328 320.211C85.4022 320.211 85.4756 319.883 85.551 319.259C85.6085 318.583 85.6839 317.674 85.7791 316.529C85.9497 314.102 86.1877 310.686 86.4812 306.49C87.1853 297.964 88.1512 286.277 89.2183 273.368C90.2615 260.428 90.8824 248.711 90.8288 240.229C90.8368 235.988 90.6761 232.556 90.4817 230.185C90.3627 229.041 90.2675 228.131 90.1981 227.455C90.1089 226.831 90.0295 226.503 89.9581 226.504C89.8867 226.504 89.8292 226.833 89.7836 227.457C89.7598 228.132 89.7261 229.042 89.6844 230.187C89.611 232.614 89.5079 236.029 89.3789 240.227C89.0636 248.705 88.2127 260.416 87.1695 273.355C86.1282 286.289 85.2674 298.002 85.0313 306.483C84.8905 310.724 84.9004 314.156 84.9818 316.528C85.0472 317.672 85.0988 318.582 85.1385 319.259C85.196 319.883 85.2614 320.211 85.3328 320.211Z" fill="#17282F"/>
<path d="M147.4 102.622C147.588 99.3963 150.713 97.2557 153.502 95.6274C154.375 95.1194 155.278 94.5984 156.281 94.4811C157.284 94.3639 158.42 94.7568 158.863 95.6643C159.312 96.5848 158.936 97.6682 158.882 98.6907C158.8 100.269 159.512 101.769 159.766 103.328C160.51 107.911 157.336 112.071 155.319 116.254C152.871 121.332 152.033 127.038 151.703 132.665C151.587 134.623 151.516 136.642 150.708 138.429C149.901 140.216 148.14 141.735 146.182 141.601C147.406 132.454 147.773 123.191 147.274 113.975C147.067 110.16 147.18 106.363 147.4 102.622Z" fill="#F2DBC1" stroke="#CEAC87" stroke-miterlimit="10"/>
<path d="M158.041 98.6211C155.983 99.1161 154.592 101.135 154.134 103.202C153.675 105.269 153.96 107.414 154.123 109.524C154.286 111.634 154.307 113.846 153.387 115.753" stroke="#CEAC87" stroke-miterlimit="10"/>
<path d="M33.9654 104.522C32.8169 102.726 30.7436 101.791 28.7853 100.953C27.22 100.282 25.3573 99.6239 23.8962 100.499C23.5684 100.696 23.2731 100.974 23.1342 101.33C22.9258 101.856 23.0821 102.448 23.2254 102.995C24.1133 106.365 24.5323 109.856 24.4715 113.338C24.4585 114.035 24.4281 114.745 24.617 115.416C24.9014 116.423 25.6417 117.224 26.2626 118.067C28.6616 121.321 29.4041 125.483 29.8774 129.497C30.3506 133.511 30.6502 137.647 32.3588 141.312C32.8451 142.356 33.4617 143.37 34.3648 144.086C35.2658 144.803 36.4989 145.18 37.9058 144.876C38.9044 143.092 39.026 140.934 38.7373 138.91C38.4485 136.887 37.7798 134.94 37.2805 132.958C35.852 127.296 35.8107 121.382 35.954 115.544C36.0452 111.693 35.9584 107.641 33.9654 104.522Z" fill="#F2DBC1" stroke="#CEAC87" stroke-miterlimit="10"/>
<path d="M23.6133 102.598C25.9515 104.117 27.6166 106.638 28.0943 109.386C28.6978 112.854 27.4864 116.462 28.1941 119.909" stroke="#CEAC87" stroke-miterlimit="10"/>
<path d="M146.956 99.13C148.765 96.6203 150.593 94.0737 151.683 91.1798C153.087 87.4543 153.185 83.388 153.383 79.4129C153.736 72.2637 154.462 65.1341 155.551 58.061C155.851 56.1201 156.177 54.1445 155.868 52.2058C155.13 47.5945 150.984 44.1361 150.035 39.5639C146.563 35.6409 147.23 29.4405 143.804 25.6651C142.627 24.369 141.075 23.4898 139.586 22.5649C137.258 21.119 135.031 19.5168 132.808 17.9168C131.521 16.9898 130.231 16.0627 128.944 15.1357C125.231 12.4632 121.512 9.78636 118.06 6.78602C114.387 2.00762 107.969 -0.573715 101.921 0.281664C100.61 0.4662 99.3157 0.802706 97.9914 0.846126C96.2871 0.904744 94.609 0.481397 92.9199 0.238244C88.96 -0.32839 84.8611 0.121009 81.1161 1.53C78.3112 3.4991 74.59 4.32409 70.9341 4.75395C67.2781 5.18381 63.5678 5.27065 59.977 6.08695C53.8699 7.47423 48.2752 11.0173 44.4151 15.9477C38.5534 21.5142 34.8974 29.2082 29.9801 35.8841C28.7947 37.4928 27.5095 39.0928 26.9255 41.0055C26.3914 42.7575 26.4934 44.6268 26.4804 46.4591C26.4305 53.7559 24.5157 61.2458 26.6476 68.2257C27.4943 73.9528 26.7149 79.9947 27.3032 85.9194C27.7505 90.4156 28.9945 94.8314 30.9614 98.8977C31.9883 101.021 33.2149 103.064 33.9357 105.309C34.7737 107.916 34.8996 110.691 34.8887 114.394C55.9215 118.767 77.6859 116.952 99.0899 115.117C107.685 114.381 116.334 113.635 124.651 111.342C132.969 109.054 142.037 105.962 146.956 99.13Z" fill="#17282F"/>
<path d="M35.0337 113.701C36.4861 107.325 36.9355 100.723 36.3624 94.2074C36.0302 90.4299 35.3681 86.5307 36.5144 82.9182C37.9972 78.2483 42.3262 74.6922 42.9905 69.8378C43.4095 66.7789 42.2914 63.5397 43.3357 60.6349C43.8741 59.1347 44.9422 57.8886 46.0733 56.7662C48.19 54.669 50.6107 52.8822 53.3267 51.6513C56.073 50.34 59.1428 49.7169 62.1844 49.8537C65.137 49.9861 68.0418 50.8219 70.9987 50.7546C73.3933 50.7004 75.7337 50.0534 78.0219 49.3456C85.4142 47.0596 92.6025 44.0853 100.123 42.2638C107.643 40.4423 115.689 39.8192 122.905 42.1683C127.699 43.8334 132.017 46.8403 135.241 50.7568C135.992 51.6686 136.694 52.6477 137.073 53.7658C138.452 57.8321 135.239 62.1763 135.838 66.4272C135.992 67.517 136.396 68.5613 136.932 69.5252C137.733 70.9646 138.819 72.2216 139.891 73.4721C141.557 75.413 143.224 77.3843 144.398 79.6551C145.573 81.926 146.226 84.5529 145.682 87.1603C145.797 91.8997 146.711 96.576 147.351 101.274C149.233 115.043 148.764 129.128 145.925 142.727C143.836 155.873 137.751 168.358 128.559 178.265C122.593 187.277 113.14 193.913 102.637 196.464C92.1335 199.013 80.6901 197.45 71.3656 192.203C61.6308 186.71 54.8789 177.266 48.4962 168.091C45.9583 164.442 43.4117 160.766 41.5424 156.733C38.4183 149.994 37.2938 142.523 36.3428 135.155C35.8696 131.495 35.431 127.83 35.0251 124.161C34.6299 120.564 34.3043 116.908 35.0337 113.701Z" fill="#F2DBC1"/>
<path d="M140.355 90.0195C140.185 89.353 139.649 88.8515 139.117 88.4173C135.353 85.3388 130.659 83.5825 126.845 80.5648C125.225 80.1436 123.694 80.5865 122.183 80.8427C119.906 81.2291 117.583 81.1944 115.28 81.3463C110.692 81.6503 106.155 82.7097 101.906 84.4682C100.96 84.859 100.004 85.3019 99.2879 86.0357C98.5715 86.7695 98.1373 87.8572 98.5042 88.9774C98.8059 90.2887 100.315 91.0073 101.656 90.9357C103 90.864 104.231 90.2128 105.46 89.6678C114.025 85.8794 124.055 86.9758 132.869 90.1411C135.342 91.029 137.83 92.0863 140.457 92.1276C140.403 91.4198 140.524 90.6904 140.355 90.0195Z" fill="#17282F"/>
<path d="M88.2289 85.6195C88.3287 86.755 88.3895 87.9208 88.0769 89.0172C87.7664 90.1135 87.0174 91.1448 85.9406 91.5182C84.9115 91.8742 83.7805 91.5876 82.7319 91.2902C79.7076 90.4327 76.7051 89.4991 73.7265 88.4961C71.79 87.8426 69.8578 87.1588 67.8583 86.7463C59.9536 85.1137 51.5692 87.9642 45.2754 93.0183C46.172 90.2329 47.264 87.3563 49.4719 85.435C50.9938 84.1107 52.9282 83.3552 54.8734 82.8168C59.5563 81.5207 64.4671 81.3557 69.3259 81.2732C71.3319 81.2384 73.3618 81.2211 75.3092 81.703C76.9114 82.1003 78.4115 82.8254 79.9595 83.3964C82.6038 84.3712 85.3892 84.8988 88.2289 85.6195Z" fill="#17282F"/>
<path d="M82.4983 110.32C81.5496 112.656 80.5986 114.992 79.6499 117.328C78.7359 119.578 77.8067 121.894 77.7742 124.323C77.7416 126.753 78.8119 129.354 80.9829 130.443C81.8513 130.88 83.2408 130.804 83.4123 129.849C83.5035 129.334 83.1648 128.854 83.0041 128.355C82.7176 127.46 83.0736 126.401 83.84 125.86C84.6063 125.32 85.7266 125.344 86.6883 126.028C89.0526 126.536 90.1402 129.996 92.5587 129.961C94.0415 129.94 95.0902 128.576 96.0432 127.441C96.9247 126.39 97.9581 125.405 99.2476 124.94C100.537 124.477 102.133 124.647 103.064 125.654C103.996 126.662 103.9 128.542 102.704 129.21C102.313 129.43 101.742 129.729 101.927 130.137C101.968 130.231 102.048 130.302 102.126 130.367C103.763 131.692 106.418 131.053 107.715 129.393C109.011 127.732 109.141 125.402 108.622 123.362C108.101 121.321 107.011 119.482 106.028 117.619C105.044 115.757 104.139 113.781 104.041 111.677" stroke="#CEAC87" stroke-miterlimit="10"/>
<path d="M83.292 126.944C83.8413 127.484 84.4861 127.927 85.1873 128.251C85.5781 128.431 85.9993 128.574 86.4313 128.561C86.8612 128.548 87.3062 128.355 87.532 127.988C87.8273 127.504 87.6644 126.842 87.2802 126.425C86.8959 126.008 86.3401 125.795 85.7909 125.656C85.4761 125.576 85.1504 125.515 84.8269 125.541C84.4405 125.572 84.0714 125.724 83.7392 125.923C83.4852 126.075 83.2312 126.279 83.1574 126.566C83.0814 126.85 83.2877 127.215 83.292 126.944Z" fill="#17282F"/>
<path d="M98.3957 125.611C97.9572 125.998 97.4752 126.51 97.6142 127.079C97.7835 127.769 98.6975 127.917 99.4031 127.836C100.23 127.743 101.044 127.533 101.813 127.213C102.141 127.077 102.471 126.914 102.705 126.649C102.94 126.384 103.068 125.993 102.935 125.663C102.831 125.403 102.588 125.223 102.34 125.088C100.96 124.324 99.3336 124.786 98.3957 125.611Z" fill="#17282F"/>
<path d="M75.961 154.601C75.3574 153.696 75.7243 152.43 76.4169 151.594C77.1116 150.756 78.0734 150.192 78.868 149.447C80.3551 148.054 81.1953 146.089 82.6477 144.658C84.4996 142.832 87.3197 142.051 89.8468 142.665C91.1863 142.991 92.4976 143.681 93.861 143.49C94.9964 143.332 95.9712 142.578 97.0915 142.342C98.9781 141.942 100.823 143.045 102.439 144.087C105.393 146.434 108.339 148.789 111.279 151.154C111.987 151.723 112.731 152.348 112.983 153.221C113.346 154.475 112.577 155.756 111.781 156.792C110.717 158.175 109.531 159.48 108.127 160.515C106.392 161.794 104.362 162.632 102.274 163.172C96.883 164.568 91.0018 163.987 85.9889 161.557C85.0467 161.101 84.1349 160.582 83.1861 160.142C82.0051 159.592 80.7633 159.163 79.6365 158.507C78.0473 157.578 76.9445 156.075 75.961 154.601Z" fill="#99746C"/>
<path d="M77.2469 153.61C76.7497 153.482 76.4241 154.246 76.7106 154.671C76.9972 155.097 77.5573 155.221 78.0632 155.308C79.6046 155.568 81.1677 155.802 82.7265 155.7C84.357 155.592 85.9787 155.119 87.6004 155.327C88.5318 155.449 89.4284 155.792 90.3641 155.852C91.3172 155.913 92.2681 155.677 93.2212 155.698C94.018 155.716 94.7995 155.913 95.5963 155.963C97.5958 156.085 99.5323 155.264 101.532 155.114C103.16 154.993 104.784 155.318 106.41 155.44C108.038 155.562 109.769 155.451 111.136 154.561C111.262 154.478 111.388 154.385 111.458 154.252C111.683 153.818 111.197 153.367 110.774 153.121C108.449 151.771 106.052 150.551 103.657 149.331C102.656 148.821 101.643 148.306 100.548 148.054C99.5128 147.815 98.4403 147.82 97.3765 147.826C94.6215 147.841 91.8665 147.857 89.1115 147.87C88.2235 147.874 87.3247 147.88 86.465 148.111C85.4555 148.382 84.5545 148.949 83.6709 149.507C81.3957 150.952 79.1161 152.394 77.2469 153.61Z" fill="#5B372F"/>
<path d="M121.91 166.241C119.941 162.98 119.832 158.974 119.548 155.175C119.396 153.15 119.177 151.128 118.895 149.116C118.573 146.832 118.005 144.3 116.079 143.03C113.011 141.687 110.158 139.73 107.972 137.195C106.8 135.834 105.81 134.307 104.505 133.074C103.2 131.839 101.466 130.897 99.679 131.077C97.6969 131.014 96.0469 132.699 94.0365 133.068C91.8264 133.474 89.6467 132.234 87.4019 132.167C84.9313 132.093 82.6235 133.45 80.8129 135.13C79.0023 136.81 77.539 138.836 75.7609 140.551C74.632 141.641 73.375 142.605 72.3742 143.814C70.6981 145.842 69.8601 148.41 69.0547 150.916C68.3339 153.163 67.6045 155.444 67.5024 157.802C67.3895 160.362 67.9844 163.11 66.9141 165.537C68.703 164.669 69.7538 162.758 70.3421 160.859C71.3212 157.7 71.4385 154.083 73.6312 151.606C75.1965 149.837 77.5607 148.986 79.3149 147.401C80.9779 145.898 82.0699 143.756 84.0043 142.62C86.5096 141.15 89.6467 141.776 92.5516 141.763C94.3079 141.754 96.0512 141.493 97.7555 141.298C100.947 141.333 103.713 143.389 106.229 145.353C107.18 146.096 108.131 146.836 109.079 147.579C110.469 148.662 111.934 149.858 112.581 151.513C113.467 153.312 115.427 154.339 116.55 156.002C117.92 158.032 117.874 160.737 119.107 162.854C119.859 164.146 121.044 165.131 121.91 166.241Z" fill="#17282F"/>
<path d="M34.395 107.183C35.8691 114.847 34.5709 122.76 35.0811 130.548C35.4111 135.595 36.4987 140.556 37.582 145.497C38.635 150.295 39.6966 155.128 41.644 159.637C44.475 166.196 49.0537 171.814 53.1417 177.672C57.5141 183.937 61.537 190.739 67.8481 195.305C73.0499 200.457 79.3719 204.573 86.3908 206.648C93.4096 208.726 101.141 208.678 107.929 205.938C114.592 203.251 120.052 198.14 124.273 192.326C128.491 186.512 131.585 179.973 134.62 173.338C144.528 156.368 150.032 136.716 149.572 117.385C149.645 111.699 149.48 106.009 149.077 100.338C148.985 99.0529 148.755 97.5615 147.633 96.9297C146.99 97.9935 147.094 99.3287 147.203 100.566C147.589 104.926 147.785 109.304 147.787 113.681C147.789 118.594 147.498 123.703 145.23 128.095C143.829 130.051 142.401 132 140.688 133.689C139.218 135.137 137.553 136.373 136.044 137.782C131.659 141.872 128.717 147.286 126.476 152.848C124.236 158.411 122.623 164.212 120.161 169.722C119.447 173.245 116.93 176.352 113.633 177.78C111.859 178.549 109.922 178.846 108.005 179.087C100.874 179.984 93.6549 180.205 86.4819 179.745C84.2284 179.6 81.9575 179.385 79.8061 178.694C74.1723 176.884 70.0756 172.084 66.5824 167.307C65.13 165.321 63.7254 163.3 62.223 160.853C59.5961 152.004 54.9523 143.761 48.7454 136.928C44.9461 132.747 40.4456 128.891 38.4874 123.592C36.4922 118.193 37.4713 112.12 36.0102 106.554C35.8561 105.968 35.5435 105.275 34.9378 105.236C34.573 106.035 34.3473 106.936 34.395 107.183Z" fill="#17282F"/>
<path d="M87.1677 87.799C89.6101 89.5988 92.9252 90.1459 95.817 89.2276C97.2064 88.7847 98.4765 88.0357 99.8269 87.4821C102.606 86.3423 105.65 86.0644 108.648 85.843C114.761 85.0809 120.944 84.8834 127.112 85.3219C130.699 85.3632 134.02 87.2107 137.57 87.7209C139.954 88.0639 142.448 87.8034 144.647 88.6761C144.973 89.6574 144.958 90.7473 144.606 91.7177C144.519 91.9565 144.402 92.2018 144.191 92.3451C143.961 92.5036 143.664 92.5101 143.39 92.5644C142.138 92.8184 141.384 94.0841 140.902 95.2673C139.218 99.4053 138.925 103.999 137.296 108.159C136.543 110.087 135.355 112.038 133.41 112.839C127.952 113.975 122.371 114.505 116.719 114.446C114.362 114.535 112.056 113.838 109.727 113.465C108.654 113.291 107.566 113.187 106.516 112.907C105.465 112.629 104.434 112.16 103.685 111.372C103.181 110.842 102.823 110.191 102.48 109.544C101.605 107.903 100.771 106.24 100.018 104.527C99.4252 103.452 98.9584 102.31 98.6306 101.127C98.3701 100.191 98.1964 99.2294 97.8903 98.3067C97.6406 97.5512 97.2933 96.8087 96.7375 96.2378C96.3858 95.8774 95.9603 95.5973 95.5131 95.3672C94.4319 94.8114 93.2052 94.5444 91.9895 94.5986C91.5987 94.616 91.2058 94.6681 90.841 94.8092C89.8185 95.2044 89.1911 96.216 88.6982 97.1821C87.6106 100.567 86.271 103.867 84.6905 107.052C83.9415 108.56 83.0948 110.095 81.7336 111.092C80.5656 111.945 79.1284 112.323 77.7151 112.683C73.7443 113.052 69.7648 113.421 65.7767 113.38C61.7885 113.339 57.7765 112.876 54.0163 111.685C52.7463 111.337 51.4806 110.849 50.4906 109.98C49.366 108.995 48.6821 107.592 48.2458 106.161C47.8094 104.731 47.5945 103.241 47.1776 101.798C46.9041 100.07 46.6718 98.3328 46.4807 96.5916C46.3027 94.9699 46.1203 93.2331 45.1043 92.0455C44.8329 91.5158 44.3618 91.1033 43.8256 90.8406C43.2893 90.5779 42.6945 90.4607 42.1517 90.4303C41.8 90.1698 41.7284 89.677 41.7219 89.2384C41.711 88.5676 41.7761 87.8946 41.8934 87.2324C41.9411 86.9589 42.0019 86.6766 42.1539 86.4443C42.3059 86.2099 42.5686 86.0297 42.7683 85.8581C45.2628 86.5398 47.8854 85.7496 50.4406 85.3501C54.0445 84.7878 57.7613 85.0049 61.2675 84.1973C66.9468 83.6046 72.7022 83.7501 78.3425 84.625C81.523 85.1178 84.7057 85.9841 87.1677 87.799Z" fill="black"/>
<path d="M79.8626 110.456C81.6059 109.637 82.6003 107.796 83.3818 106.035C84.9081 102.592 86.0739 98.9905 86.8533 95.3063C87.1268 94.0189 87.3396 92.6229 86.7773 91.4354C86.5407 90.1762 85.4812 89.3382 84.3935 88.7759C82.9585 88.0312 81.3802 87.6101 79.7975 87.2779C77.5462 86.8046 75.2601 86.5028 72.9632 86.3747C66.3763 85.9644 59.644 85.6583 53.1787 87.165C52.3277 87.3626 51.4658 87.6014 50.7559 88.1116C49.1406 89.273 48.7542 91.4745 48.4828 93.4045C48.6522 95.823 48.3721 98.2545 48.5067 100.677C48.6391 103.098 49.247 105.614 50.973 107.358C51.7415 108.274 52.5752 109.173 53.6346 109.728C54.3228 110.089 55.0805 110.293 55.8382 110.471C59.6245 111.365 63.5388 111.719 67.4075 111.417C71.7409 111.648 76.3456 112.106 79.8626 110.456Z" fill="#F2DBC1"/>
<path d="M82.7284 91.2868C83.777 91.5842 84.9081 91.8708 85.9372 91.5147C86.2107 91.4198 86.4631 91.2825 86.6925 91.1125C86.2179 89.0988 82.4098 87.7053 78.7191 87.0538C74.7028 86.1856 65.476 85.7514 58.8544 86.294C52.8841 86.9453 50.2789 87.2709 49.1934 90.3147C54.8333 87.0158 61.4991 85.4301 67.8548 86.7428C69.8543 87.1553 71.7866 87.8392 73.7231 88.4927C76.7017 89.4957 79.7042 90.4292 82.7284 91.2868Z" fill="#17282F"/>
<path d="M99.7442 96.7999C99.5097 94.8568 99.3338 92.688 100.528 91.1357C101.346 90.0719 102.655 89.5205 103.932 89.1058C109.941 87.1519 116.398 87.2257 122.674 87.4146C126.528 87.5709 130.364 88.1354 134.1 89.095C135.125 89.3577 136.239 89.7224 136.821 90.5647C137.665 92.9203 137.971 95.4495 137.915 97.9505C137.861 100.454 137.45 102.937 136.897 105.319C136.565 106.428 136.228 107.546 135.698 108.575C135.169 109.605 134.422 110.553 133.425 111.144C132.726 111.558 131.932 111.786 131.137 111.947C129.91 112.197 128.66 112.301 127.412 112.405C125.23 112.587 123.05 112.77 120.944 112.915C117.855 113.165 114.752 112.785 111.676 112.407C110.747 112.292 109.815 112.177 108.901 111.973C107.393 111.632 105.856 110.979 105.031 109.702C102.006 106.09 100.3 101.431 99.7442 96.7999Z" fill="#F2DBC1"/>
<path d="M128.393 98.6404C125.886 96.5019 123.239 94.294 120.024 93.5732C117.249 92.9501 114.28 93.5341 111.789 94.904C110.513 95.6053 109.356 96.5019 108.205 97.3942C107.126 98.23 106.047 99.0659 105.053 100.145C108.641 99.7541 112.056 101.63 115.613 102.244C120.048 103.013 124.796 101.695 128.393 98.6404Z" fill="white" stroke="black" stroke-width="0.5" stroke-miterlimit="10"/>
<path d="M118.602 94.1407C117.122 93.6917 115.415 94.3879 114.536 95.6458C113.657 96.9037 113.572 98.6105 114.146 100.027C114.363 100.562 114.677 101.073 115.14 101.429C115.559 101.75 116.072 101.923 116.586 102.051C117.801 102.351 119.184 102.389 120.207 101.674C121.106 101.047 121.549 99.9644 121.817 98.913C121.965 98.3248 122.075 97.7175 122.014 97.1126C121.843 95.4346 120.171 94.047 118.602 94.1407Z" fill="#17282F"/>
<path d="M106.339 96.6351C107.705 94.9852 109.112 93.2983 110.97 92.2345C113.46 90.8081 116.487 90.6627 119.339 90.9688C122.589 91.3183 125.931 92.2953 128.241 94.6074C128.707 95.0742 129.126 95.5909 129.634 96.0099C130.379 96.6221 131.423 97.2626 131.267 98.2135C129.565 97.3386 128.51 95.5909 127.04 94.3643C125.683 93.2332 123.994 92.571 122.288 92.1173C118.295 91.0556 113.779 91.1273 110.328 93.4003C108.908 94.3361 107.735 95.5931 106.578 96.8392C106.405 96.8653 106.285 96.5874 106.339 96.6351Z" fill="#CEAC87"/>
<path d="M105.462 89.6616C104.233 90.2065 103.002 90.8578 101.658 90.9294C101.361 90.9453 101.055 90.9223 100.756 90.8626C101.658 89.4407 106.726 88.0295 111.068 87.5953C112.686 87.4336 114.369 87.3326 116.07 87.2877C116.704 87.2614 117.339 87.2527 117.976 87.2606C124.117 87.2472 130.262 87.9367 134.189 89.115C135.383 89.4733 136.252 89.7989 136.795 90.5262L137.12 91.5941C135.684 91.1978 134.275 90.639 132.871 90.1348C128.119 88.4284 123.014 87.3233 117.976 87.2606C117.34 87.262 116.704 87.271 116.07 87.2877C112.416 87.439 108.826 88.1734 105.462 89.6616Z" fill="#17282F"/>
<path d="M80.404 100.395C77.5405 99.0856 75.326 96.6562 72.5363 95.1929C69.8746 93.7992 66.7288 93.3519 63.7849 93.9511C60.841 94.5503 58.1208 96.1916 56.2168 98.5146C57.7322 99.5263 58.5571 101.307 59.9531 102.479C62.2327 104.394 65.5891 104.339 68.4765 103.606C71.3639 102.872 74.1211 101.563 77.0867 101.285C78.2265 101.178 79.5096 101.172 80.404 100.395Z" fill="white" stroke="black" stroke-width="0.5" stroke-miterlimit="10"/>
<path d="M53.8689 98.5318C54.4356 96.8601 55.2779 95.2014 56.6999 94.155C57.792 93.3539 59.1315 92.9805 60.4493 92.6657C62.4271 92.1924 64.4266 91.8147 66.4304 91.4738C68.0891 91.1938 69.7955 90.9397 71.4389 91.2958C74.3915 91.9384 76.5539 94.3917 78.4947 96.706C78.4513 96.9361 78.1061 96.8883 77.9021 96.7754C76.6298 96.0655 75.5812 95.0147 74.3524 94.231C70.8897 92.0231 66.4326 92.1881 62.3967 92.9544C60.7532 93.2671 59.0989 93.6752 57.6487 94.5089C56.1963 95.3426 54.9544 96.6538 54.5246 98.2712C54.4095 98.7011 54.2424 99.2504 53.7973 99.2721C53.7126 98.8835 53.819 98.458 53.8689 98.5318Z" fill="#CEAC87"/>
<path d="M65.8065 94.2876C64.4998 94.1942 63.1643 94.7896 62.343 95.831C61.5243 96.8724 61.2462 98.3303 61.6214 99.6067C61.8051 100.231 62.1331 100.808 62.5241 101.324C62.894 101.812 63.3243 102.255 63.8281 102.6C65.4523 103.708 67.8033 103.559 69.2779 102.25C70.7525 100.942 71.2222 98.5946 70.3668 96.8029C69.5114 95.0139 67.4044 93.9405 65.8065 94.2876Z" fill="#17282F"/>
<defs>
<linearGradient id="paint0_linear_691_2526" x1="18.8374" y1="288.68" x2="192.993" y2="129.052" gradientUnits="userSpaceOnUse">
<stop stop-color="#D9B430"/>
<stop offset="1" stop-color="#303030" stop-opacity="0"/>
</linearGradient>
</defs>
</svg>
