<svg width="277" height="411" viewBox="0 0 277 411" fill="none" xmlns="http://www.w3.org/2000/svg">
<circle cx="141.767" cy="239.607" r="112.107" fill="url(#paint0_linear_708_2020)" stroke="white" stroke-width="4"/>
<path d="M184.244 273.369C176.422 272.252 164.793 264.487 157.57 261.281C153.934 245.752 159.027 192.858 172.297 186.506C171.426 186.427 170.497 186.339 169.525 186.245C162.39 186.516 154.732 186.514 140.669 183.16C139.895 182.969 157.842 185.107 169.525 186.245C170.828 186.195 172.113 186.136 173.417 186.087C174.307 185.846 175.232 185.811 176.192 186.005C176.192 186.005 176.192 186.005 176.192 186.005C182.59 185.879 189.969 186.267 202.166 189.175C201.276 192.152 207.754 197.349 213.27 202.241C214.436 201.419 215.467 202.975 216.391 205.114C219.279 207.924 221.217 210.442 220.391 212.117C219.287 214.349 218.003 208.844 216.391 205.114C215.433 204.182 214.371 203.218 213.27 202.241C210.125 218.546 210.692 258.853 204 259.791C200.329 260.303 187.916 273.895 184.244 273.369Z" fill="#FDE6CD" stroke="black" stroke-width="0.4" stroke-miterlimit="10"/>
<path d="M261.972 118.061C262.111 118.015 262.244 117.975 262.384 117.928C266.468 114.31 268.503 108.949 269.727 103.621C270.958 98.2931 271.503 92.8123 273.093 87.5842C274.177 84.019 275.753 80.5536 276.059 76.8354C276.352 73.2503 275.441 69.6851 274.536 66.2064C273.219 61.1314 271.902 56.0563 270.585 50.9879C269.774 47.875 268.942 44.6956 267.153 42.0217C265.989 40.2724 264.446 38.7958 263.295 37.0398C261.912 34.9379 261.1 32.4702 259.484 30.5413C258.014 28.7853 255.979 27.5947 254.362 25.9717C250.172 21.768 248.868 14.7973 243.62 12.0103C240.92 7.85318 236.483 6.68918 232.306 6.15041C228.122 5.61164 223.766 5.48524 219.981 3.63614C218.331 2.82466 216.835 1.70723 215.145 0.98887C210.356 -1.04648 204.849 0.410171 199.967 2.21272C195.084 4.02191 190.049 6.2036 184.888 5.55176C179.46 4.41436 174.033 3.44988 168.884 4.78683C163.43 6.20359 158.954 10.0215 154.876 13.906C149.349 19.1606 144.154 24.7479 138.953 30.3284C136.705 32.7429 134.363 35.3171 133.605 38.5297C133.272 39.9265 133.259 41.3832 133.046 42.8066C132.494 46.4316 130.645 49.7241 129.714 53.276C128.61 57.4997 128.843 61.9495 128.324 66.2796C127.858 70.1441 126.794 73.9088 126.175 77.7467C125.277 83.3472 125.337 89.0542 125.397 94.7279C125.43 97.9405 125.504 101.293 127.013 104.126C127.871 105.736 129.155 107.086 130.093 108.656C131.031 110.226 131.603 112.195 130.752 114.124C151.577 121.3 173.939 122.471 195.962 122.85C213.489 123.15 231.029 122.977 248.542 122.345C250.711 122.265 252.932 122.165 254.914 121.294C257.548 120.103 259.75 117.589 261.972 118.061Z" fill="#17282F"/>
<path d="M130.566 118.074C130.008 111.429 135.329 105.649 136.074 99.0239C136.513 95.1594 135.355 91.255 135.741 87.3838C136.034 84.4239 137.244 81.5637 139.167 79.2889C142.765 75.0387 148.964 72.4114 149.922 66.9239C150.581 63.1326 148.352 59.155 149.49 55.4767C150.075 53.5811 151.498 52.0446 153.088 50.854C158.203 47.0161 165.001 46.2711 171.386 46.5305C184.237 47.056 197.566 51.0136 209.612 46.5106C214.933 44.5218 220.341 40.8901 225.695 42.5596C234.549 44.2092 242.517 48.9051 249.967 53.9536C254.15 56.7871 258.62 60.3922 259.066 65.4273C259.591 71.4336 254.057 77.2736 255.9 83.3065C259.092 87.6432 262.385 92.1928 263.256 97.5006C264.6 105.669 259.984 114.196 262.332 122.291C263.004 129.647 262.438 137.117 260.509 144.008C259.086 166.589 245.151 186.377 230.012 203.199C227.87 205.58 225.649 207.961 222.909 209.618C220.048 211.34 216.769 212.185 213.537 213.017C205.455 215.085 197.227 217.167 188.893 216.775C172.816 216.016 158.196 205.846 149.071 192.583C144.834 186.424 141.608 179.613 137.191 173.58C134.524 169.935 131.398 166.536 129.628 162.379C127.926 158.375 127.593 153.932 127.34 149.588C126.702 138.66 126.489 127.206 130.566 118.074Z" fill="#FDE6CD"/>
<path d="M256.994 112.688C256.728 110.419 257.02 108.125 256.994 105.843C256.967 103.562 256.561 101.161 255.131 99.3847C252.065 97.07 248.826 94.7885 245.593 92.5004C244.535 91.7555 243.471 91.0038 242.261 90.5449C241.057 90.0859 239.753 89.9329 238.476 89.7866C231.093 88.9352 223.657 88.0838 216.24 88.5428C214.83 88.6293 213.327 88.8022 212.256 89.7135C211.178 90.6247 210.866 92.5403 212.163 93.6444C213.699 95.3339 215.329 97.0832 217.484 97.8349C219.879 98.6729 222.506 98.1276 225.033 97.8615C237.279 96.5645 250.03 102.478 256.994 112.688Z" fill="#17282F"/>
<path d="M185.519 118.484C183.823 120.387 182.093 122.336 181.069 124.67C180.044 127.005 179.812 129.838 181.095 132.04C181.834 133.31 183.051 134.288 184.441 134.754C184.634 134.82 184.853 134.867 185.033 134.774C185.266 134.647 185.312 134.341 185.372 134.082C185.692 132.585 187.261 131.468 188.844 131.774C191.305 131.175 194.066 132.06 195.729 133.969C196.427 134.774 196.939 135.732 197.751 136.423C198.941 137.448 200.724 137.72 202.167 137.108C203.557 136.516 204.522 135.246 205.766 134.395C207.508 133.204 209.823 132.898 211.818 133.603C212.523 133.856 213.222 134.248 213.608 134.894C213.994 135.539 213.96 136.47 213.102 137.215C213.468 137.754 214.12 138.033 214.758 138.133C216.894 138.465 219.042 136.995 219.927 135.027C220.818 133.058 220.618 130.736 219.867 128.714C219.115 126.692 217.858 124.903 216.608 123.134" stroke="#B48E64" stroke-width="0.4" stroke-miterlimit="10"/>
<path d="M186.285 132.815C187.336 132.901 188.334 133.307 189.312 133.706C190.289 134.112 191.28 134.518 192.338 134.617C193.389 134.711 194.526 134.451 195.251 133.68C194.007 132.309 192.092 131.724 190.243 131.604C188.773 131.511 187.143 131.751 186.285 132.815Z" fill="#17282F"/>
<path d="M206.352 133.979C206.113 134.352 205.88 134.724 205.641 135.097C205.72 135.429 206.12 135.562 206.452 135.622C208.414 135.975 210.456 135.861 212.365 135.289C212.631 135.21 212.931 135.083 212.997 134.817C213.09 134.445 212.678 134.159 212.325 134.019C210.955 133.474 209.465 133.247 208.002 133.367C207.264 133.427 206.565 133.647 206.352 133.979Z" fill="#17282F"/>
<path d="M218.246 146.477C222.27 147.834 225.057 151.452 227.292 155.058C228.403 156.847 229.454 158.742 229.766 160.824C230.292 164.343 228.635 167.775 227.984 171.274C227.332 174.746 227.691 178.398 229.001 181.677C226.899 181.936 225.05 180.001 224.605 177.932C224.159 175.863 224.738 173.728 225.283 171.686C225.822 169.644 226.327 167.469 225.735 165.441C225.01 162.933 222.789 161.197 220.7 159.627C217.235 157.033 213.776 154.446 210.311 151.852C206.918 148.885 202.05 149.311 197.693 148.672C194.64 148.227 191.68 147.202 188.607 146.87C181.57 146.105 174.705 148.998 168.22 151.825C167.429 152.171 166.604 152.543 166.059 153.215C165.267 154.186 165.24 155.55 165.187 156.8C165.021 160.951 164.229 165.081 162.813 168.966C162.088 166.831 162.261 164.516 162.094 162.274C161.748 157.519 159.886 152.53 161.815 148.173C163.77 143.75 168.919 141.735 173.688 140.937C176.129 140.524 178.67 140.298 180.871 139.161C182.554 138.289 183.991 136.912 185.813 136.407C187.769 135.861 189.864 136.407 191.72 137.232C193.576 138.05 195.312 139.147 197.241 139.786C198.903 140.331 200.679 140.524 202.415 140.338C204.171 140.152 205.874 139.593 207.637 139.48C212.067 139.181 216.217 141.748 218.246 146.477Z" fill="#17282F"/>
<path d="M259.243 150.444C258.358 165.223 253.011 179.71 244.091 191.523C241.178 195.381 237.898 198.953 235.012 202.837C230.515 208.89 226.97 215.688 221.749 221.129C214.558 228.618 204.315 233.088 193.932 233.261C183.549 233.434 173.16 229.31 165.723 222.06C160.768 220.337 158.852 215.588 156.445 211.637C154.868 209.05 152.959 206.682 151.123 204.267C142.955 193.512 136.244 181.659 131.222 169.128C129.839 165.669 128.562 162.077 128.542 158.352C126.932 152.692 126.693 146.606 126.979 140.6C127.218 135.611 127.817 130.649 128.761 125.747C129.353 122.687 130.085 119.647 130.537 116.568C130.936 113.854 131.123 111.094 131.828 108.44C132.533 105.786 133.83 103.185 136.011 101.516C136.63 104.762 136.59 108.127 135.885 111.36C135.253 114.247 134.109 117 133.377 119.86C132.646 122.72 132.346 125.827 133.411 128.587C134.402 131.168 136.45 133.163 138 135.451C139.557 137.746 140.608 140.34 141.958 142.761C145.875 149.779 152.314 155.279 155.42 162.696C159.538 174.462 169.515 184.14 181.507 187.885C186.03 189.295 190.753 189.894 195.449 190.492C202.034 191.324 208.758 192.155 215.277 190.885C216.973 190.552 218.662 190.073 220.112 189.135C221.908 187.978 223.205 186.209 224.489 184.499C230.209 176.91 236.528 169.78 243.366 163.181C246.492 160.168 249.738 157.255 252.445 153.863C258.95 145.701 261.957 134.846 260.587 124.496C260.64 123.512 261.819 116.822 261.739 115.904C262.205 115.544 264.27 114.465 264.736 114.106C265.315 114.445 262.595 121.497 262.609 122.162C262.821 131.766 259.808 140.952 259.243 150.444Z" fill="#17282F"/>
<path d="M261.367 127.717C260.655 125.243 261.693 122.37 263.821 120.92C264.879 120.201 266.123 119.829 267.353 119.483C268.371 119.197 269.442 118.911 270.48 119.117C271.517 119.323 272.508 120.181 272.488 121.246C272.475 121.991 272.003 122.629 271.703 123.308C271.205 124.458 271.211 125.755 271.125 127.006C270.832 131.256 269.335 135.413 266.855 138.872C265.238 141.127 263.203 143.109 261.959 145.583C261.015 147.459 260.562 149.541 260.123 151.596C259.372 155.082 258.627 158.58 258.334 162.132C258.188 163.895 258.134 165.75 257.243 167.28C256.964 167.759 256.538 168.225 255.986 168.265C255.035 168.331 254.509 167.121 254.636 166.176C254.855 164.573 256.059 163.309 256.824 161.879C257.662 160.323 257.981 158.547 258.274 156.804C259.904 147.053 263.988 136.843 261.367 127.717Z" fill="#FDE6CD" stroke="#B48E64" stroke-width="0.4" stroke-miterlimit="10"/>
<path d="M270.338 123.117C268.409 123.47 266.839 124.973 265.941 126.722C265.05 128.472 264.738 130.454 264.505 132.403C264.272 134.352 264.112 136.334 263.48 138.189" stroke="#B48E64" stroke-width="0.4" stroke-miterlimit="10"/>
<path d="M131.198 113.384C132.003 111.788 131.677 109.805 130.813 108.242C130.48 107.644 130.068 107.078 129.516 106.679C128.784 106.154 127.866 105.968 127.035 105.622C125.412 104.95 124.095 103.679 122.478 103.001C120.862 102.323 118.601 102.495 117.829 104.072C117.576 104.584 117.523 105.176 117.477 105.748C117.064 110.577 116.652 115.399 116.246 120.228C116.179 120.987 116.12 121.771 116.366 122.49C116.605 123.182 117.111 123.747 117.47 124.385C118.102 125.509 118.281 126.82 118.448 128.097C118.827 131.05 119.206 134.017 119.352 136.99C119.598 141.919 119.279 147.18 122.026 151.171C122.944 152.448 124.254 153.432 125.738 153.958C126.336 154.171 127.028 154.297 127.58 153.991C128.185 153.652 128.425 152.9 128.505 152.208C128.764 149.96 127.906 147.759 127.44 145.544C126.642 141.732 127.015 137.795 127.387 133.917C127.633 131.363 127.879 128.795 128.425 126.288C128.797 124.585 129.303 122.922 129.735 121.239C130.434 118.559 130.094 115.592 131.198 113.384Z" fill="#FDE6CD" stroke="#B48E64" stroke-width="0.4" stroke-miterlimit="10"/>
<path d="M118.473 104.664C119.43 104.744 120.022 105.715 120.441 106.58C121.28 108.309 122.098 110.098 122.297 112.014C122.829 117.155 118.858 122.084 119.783 127.173" stroke="#B48E64" stroke-width="0.4" stroke-miterlimit="10"/>
<path d="M124.5 114.562C124.979 116.445 125.903 118.208 127.167 119.677" stroke="#B48E64" stroke-width="0.4" stroke-miterlimit="10"/>
<path d="M150.137 96.6694C151.361 94.0287 153.882 92.173 156.602 91.1287C159.316 90.0844 162.249 89.7652 165.142 89.4459C169.672 88.9537 174.335 88.4681 178.738 89.6454C182.676 90.6964 186.188 93.031 190.152 93.9622C191.615 94.3081 193.225 94.4345 194.575 93.776C196.684 92.745 197.515 89.9447 196.77 87.7231C196.025 85.5016 194.03 83.8719 191.841 83.0272C189.653 82.1825 187.272 82.0096 184.931 81.8898C181.039 81.6969 177.135 81.6304 173.237 81.6969C167.677 81.79 162.01 82.1626 156.828 84.1846C156.05 84.4906 155.272 84.8431 154.686 85.435C154.101 86.027 153.762 86.8053 153.436 87.5702C152.145 90.5766 150.848 93.5897 150.137 96.6694Z" fill="#17282F"/>
<path d="M201.126 90.6007C203.049 92.5163 205.896 93.2347 208.609 93.2214C211.323 93.2081 213.984 92.5563 216.664 92.1173C228.584 90.1684 240.929 92.4964 252.077 97.1391C255.875 98.7222 259.606 100.585 263.557 101.063C263.67 103.085 263.464 105.128 263.078 107.908C262.207 107.582 261.202 107.914 260.491 108.513C259.779 109.112 259.313 109.937 258.874 110.755C257.285 113.695 255.868 116.721 254.631 119.827C253.906 121.636 253.227 123.506 252.03 125.042C250.826 126.578 248.97 127.749 247.028 127.476C238.627 128.467 230.007 127.57 222.238 125.022C218.726 124.23 215.593 121.883 213.771 118.883C211.749 115.025 211.084 110.628 210.019 106.405C209.541 104.502 208.935 102.54 207.598 101.103C206.261 99.66 204 98.9017 202.171 99.8396C197.495 104.143 195.273 110.675 190.391 114.739C189.599 115.397 188.735 115.989 187.79 116.388C185.735 117.253 183.42 117.18 181.278 117.133C174.314 116.728 167.39 115.517 160.706 113.522C158.916 112.99 157.12 112.391 155.531 111.407C153.941 110.429 152.551 109.025 151.746 107.389C150.775 101.622 151.28 95.7223 151.061 89.8823C151.034 89.1773 150.994 88.459 150.762 87.7938C150.522 87.1287 150.063 86.5101 149.405 86.2507C148.706 85.978 147.768 86.0578 147.383 85.4126C147.243 85.1864 147.216 84.9137 147.196 84.6477C147.09 83.1843 147.303 81.5215 148.36 80.4971C151.108 80.271 153.848 80.8497 156.595 80.9894C162.056 81.2687 167.676 79.8387 172.924 81.3685C174.867 81.9339 176.722 82.8984 178.571 83.058C181.052 83.5236 183.54 83.9958 186.021 84.4614C188.974 85.0202 191.954 85.5789 194.734 86.7163C197.109 87.6941 199.45 88.9312 201.126 90.6007Z" fill="black" stroke="black" stroke-miterlimit="10"/>
<path d="M224.595 124.113C222.706 123.687 220.797 123.215 219.127 122.23C216.021 120.388 214.139 116.929 213.447 113.384C212.596 109.766 212.223 105.994 212.336 102.236C212.203 100.959 212.217 99.5956 212.343 98.2387C212.383 97.8263 212.436 97.4006 212.622 97.0348C212.855 96.5758 213.274 96.2499 213.706 95.9772C215.369 94.9329 217.365 94.5737 219.314 94.3409C224.063 93.7755 228.892 93.8421 233.495 94.5338C239.9 95.3387 246.172 97.1877 251.986 99.9947C253.017 100.494 254.054 101.032 254.859 101.85C255.664 102.669 256.216 103.813 255.75 105.096C256.755 110.65 254.726 116.317 252.105 121.319C251.54 122.397 250.935 123.474 250.083 124.339C249.225 125.204 248.081 125.842 246.857 125.876C239.288 127.199 231.619 125.689 224.595 124.113Z" fill="url(#paint1_linear_708_2020)" stroke="black" stroke-miterlimit="10"/>
<path d="M152.925 94.038C154.109 91.0847 153.371 87.3599 155.453 84.9521C157.116 83.0298 159.956 82.7371 162.497 82.7504C169.115 82.7837 175.667 83.9676 182.145 85.3245C186.841 86.3023 191.65 87.4331 195.315 90.0471C196.739 90.6657 197.676 92.1024 198.016 93.6123C198.355 95.1221 198.169 96.7052 197.976 98.0554C197.051 103.224 193.985 107.747 190.699 111.844C189.994 112.722 189.269 113.6 188.358 114.265C187.446 114.93 186.329 115.369 185.198 115.396C178.553 115.549 171.895 114.91 165.404 113.487C161.04 112.529 156.464 111.039 153.697 107.56C153.138 106.443 152.985 105.173 152.879 103.929C152.606 100.63 151.702 97.091 152.925 94.038Z" fill="url(#paint2_linear_708_2020)" stroke="black" stroke-miterlimit="10"/>
<path d="M244.05 114.894C241.675 113.125 240.019 110.517 237.631 108.761C234.665 106.579 230.793 105.914 227.115 106.18C223.437 106.453 219.892 107.584 216.34 108.987C222.719 109.313 228.326 113.65 234.691 114.182C237.811 114.448 241.09 113.796 244.05 114.894Z" fill="white" stroke="black" stroke-width="0.4" stroke-miterlimit="10"/>
<path d="M219.172 105.665C223.682 103.111 229.209 102.425 234.211 103.789C239.213 105.153 243.623 108.558 246.21 113.041" stroke="#B48E64" stroke-width="0.4" stroke-miterlimit="10"/>
<path d="M227.581 106.151C226.896 107.076 226.184 108.107 226.237 109.257C226.284 110.182 226.836 111.02 227.548 111.605C228.259 112.191 229.124 112.563 229.982 112.909C231.272 113.421 232.796 113.88 233.986 113.155C234.505 112.842 234.877 112.337 235.21 111.838C235.642 111.18 236.035 110.488 236.374 109.776C236.613 109.271 236.833 108.699 236.64 108.173C236.387 107.475 235.549 107.209 234.824 107.049C233.008 106.65 231.179 106.317 229.337 106.051C228.711 105.965 227.887 105.745 227.581 106.151Z" fill="#17282F"/>
<path d="M159 103.227C161.893 101.591 164.847 99.9814 168.046 99.0968C171.252 98.2121 174.771 98.099 177.824 99.4227C180.956 100.78 183.477 103.567 186.836 104.159C186.863 104.544 186.337 104.684 185.952 104.684C185.027 104.691 184.103 104.697 183.178 104.691C175.163 104.684 167.141 104.052 159 103.227Z" fill="white" stroke="black" stroke-width="0.4" stroke-miterlimit="10"/>
<path d="M167.415 99.6743C167.382 100.965 168.047 102.222 169.038 103.047C170.029 103.871 171.32 104.297 172.603 104.377C173.621 104.443 174.705 104.29 175.53 103.692C176.614 102.907 177.066 101.537 177.446 100.26C177.525 100 177.599 99.7208 177.525 99.4547C177.386 98.9758 176.827 98.7763 176.342 98.6699C174.24 98.2109 172.051 98.1644 169.936 98.5435C168.958 98.7098 167.907 99.0291 167.415 99.6743Z" fill="#17282F"/>
<path d="M156.484 101.026C158.706 98.7118 161.712 97.2618 164.819 96.4636C167.925 95.6654 171.157 95.4725 174.363 95.3661C177.377 95.2663 180.795 95.4127 182.798 97.6675" stroke="#B48E64" stroke-width="0.4" stroke-miterlimit="10"/>
<path d="M165.09 89.4538C162.213 89.7713 159.298 90.0929 156.6 91.131C155.435 91.5783 154.307 92.1745 153.301 92.9174C153.888 89.279 153.885 86.6282 155.539 84.7868C155.945 84.5485 156.386 84.3603 156.827 84.1869C158.411 83.5687 160.04 83.1047 161.698 82.7557C166.547 82.433 188.04 84.7868 195.379 90.0342L196.769 91.116C196.399 92.2574 195.654 93.2501 194.574 93.7783C193.223 94.4368 191.614 94.3104 190.15 93.9646C186.186 93.0333 182.674 90.6987 178.736 89.6478C174.333 88.4705 169.671 88.956 165.141 89.4482L165.09 89.4538Z" fill="#17282F" stroke="black" stroke-miterlimit="10"/>
<path d="M225.033 97.8596C222.506 98.1257 219.878 98.6711 217.484 97.833C216.207 97.3878 215.115 96.5924 214.117 95.6668C217.792 93.5699 229.717 93.5699 233.387 94.6184C241.25 95.1426 257.763 100.254 255.797 105.103V111.045C248.633 101.849 236.607 96.6337 225.033 97.8596Z" fill="#17282F"/>
<rect x="148.727" y="80.4688" width="4.97997" height="13.9122" rx="2.48999" transform="rotate(89.4138 148.727 80.4688)" fill="black"/>
<path d="M167.848 153.286L183.238 150.669C184.077 150.526 184.934 150.518 185.776 150.645L203.377 153.309C204.073 153.414 204.752 153.611 205.396 153.894L214.421 157.856C214.92 158.075 215.395 158.344 215.839 158.66L222.565 163.439L220.413 165.524L210.636 166.349C209.906 166.41 209.171 166.371 208.452 166.233L176.142 160.015C175.258 159.845 174.41 159.527 173.633 159.075L171.507 157.839C169.993 156.958 168.809 155.605 168.138 153.986L167.848 153.286Z" fill="#4B2922"/>
<path d="M222.97 163.586C222.87 162.934 222.411 162.409 221.946 161.943C220.15 160.134 218.061 158.611 215.793 157.454C211.935 154.221 206.927 150.683 202.783 150.017C200.714 149.685 199.111 150.676 197.043 150.343C194.056 149.864 189.733 147.862 186.713 147.583C185.449 147.463 184.172 147.656 182.942 147.949C177.78 149.173 173.111 152.113 167.69 153.157C167.47 153.509 168.096 153.762 168.508 153.716C175.532 152.884 182.642 150.736 189.547 152.252C191.808 152.751 193.977 153.629 196.231 154.161C198.307 154.647 200.442 154.833 202.544 155.186C207.459 156.017 212.208 157.82 216.445 160.447C218.461 161.691 220.423 163.154 222.97 163.586Z" fill="#99746C"/>
<path d="M167.668 153.195C167.668 157.059 171.445 159.727 174.811 161.317C179.713 163.638 184.841 165.428 190.016 167.044C194.067 168.308 198.184 169.472 202.408 169.897C206.631 170.323 211.002 169.997 214.919 168.361C217.141 167.436 219.216 166.093 221.571 165.587C222.422 165.401 222.924 164.399 222.924 163.528C221.307 162.809 220.227 164.669 218.564 164.949C215.591 165.454 212.618 164.37 209.705 163.605C207.343 162.986 204.935 162.574 202.528 162.162C198.151 161.41 193.774 160.658 189.398 159.907C185.606 159.255 181.795 158.603 177.95 158.65C176.687 158.663 175.403 158.756 174.166 158.477C171.871 157.958 170.848 156.748 169.106 155.172C168.686 154.806 167.981 153.335 167.668 153.195Z" fill="#99746C"/>
<path d="M192.56 153.456C192.108 153.203 191.516 153.376 191.137 153.729C190.758 154.081 190.551 154.573 190.385 155.066C190.086 155.924 189.86 156.802 189.707 157.693C189.667 157.946 189.627 158.205 189.687 158.451C189.793 158.877 190.172 159.183 190.545 159.409C191.988 160.287 193.704 160.573 195.374 160.832C195.513 160.852 195.673 160.872 195.786 160.786C195.879 160.719 195.919 160.6 195.952 160.493C196.219 159.595 196.458 158.684 196.651 157.766C196.764 157.241 196.864 156.709 196.777 156.176C196.624 155.205 195.853 154.42 194.975 153.988C194.097 153.556 193.099 153.423 192.56 153.456Z" fill="white" stroke="#EFEFEF" stroke-width="0.4" stroke-miterlimit="10"/>
<path d="M202.377 155.364C202.903 155.464 203.282 155.956 203.415 156.468C203.548 156.987 203.475 157.533 203.395 158.058C203.282 158.79 203.142 159.521 202.989 160.246C202.843 160.918 202.577 161.703 201.918 161.896C201.572 161.996 201.207 161.903 200.854 161.809C199.324 161.404 197.794 160.991 196.258 160.586C196.504 159.548 196.75 158.517 197.003 157.479C197.209 156.628 197.468 155.69 198.207 155.225C198.839 154.825 199.65 154.885 200.395 154.998C201.113 155.111 201.832 155.258 202.377 155.364Z" fill="white" stroke="#EFEFEF" stroke-width="0.4" stroke-miterlimit="10"/>
<path d="M208.058 156.787C208.889 157.492 208.676 158.802 208.397 159.86C208.191 160.625 207.985 161.396 207.778 162.161C207.712 162.401 207.639 162.66 207.439 162.807C207.213 162.973 206.9 162.94 206.621 162.893C205.929 162.78 205.251 162.627 204.572 162.447C204.346 162.388 204.12 162.314 203.934 162.181C203.435 161.809 203.395 161.091 203.408 160.465C203.428 159.261 203.555 157.858 204.566 157.206C205.091 156.867 205.849 156.74 206.062 156.148C206.767 156.335 207.572 156.375 208.058 156.787Z" fill="white" stroke="#EFEFEF" stroke-width="0.4" stroke-miterlimit="10"/>
<path d="M212.037 158.396C212.549 159.441 212.423 160.705 212.011 161.795C211.678 162.673 211.059 163.565 210.135 163.731C209.297 163.884 208.392 163.292 208.186 162.461C208.08 162.015 208.153 161.549 208.233 161.097C208.339 160.465 208.445 159.833 208.552 159.195C208.632 158.716 208.731 158.21 209.064 157.858C209.476 157.425 210.168 157.359 210.74 157.538C211.312 157.725 211.871 158.057 212.037 158.396Z" fill="white" stroke="#EFEFEF" stroke-width="0.4" stroke-miterlimit="10"/>
<path d="M214.891 159.848C215.203 160.799 215.203 161.85 214.904 162.808C214.711 163.413 214.379 163.998 213.847 164.338C213.308 164.677 212.543 164.69 212.084 164.251C211.412 163.613 211.718 162.509 211.958 161.611C212.091 161.118 212.184 160.613 212.416 160.154C212.649 159.702 213.042 159.296 213.541 159.196C214.039 159.11 214.738 159.369 214.891 159.848Z" fill="white" stroke="#EFEFEF" stroke-width="0.4" stroke-miterlimit="10"/>
<path d="M184.278 154.622C183.739 153.884 183.779 152.78 183.081 152.201C182.542 151.762 181.77 151.795 181.078 151.855C180.679 151.888 180.214 151.961 180.008 152.314C179.855 152.58 179.908 152.913 179.921 153.219C179.954 154.316 179.336 155.4 179.602 156.465C179.695 156.83 179.888 157.17 180.107 157.469C180.467 157.961 180.925 158.407 181.497 158.626C182.069 158.846 182.761 158.812 183.24 158.427C183.759 158.008 183.925 157.296 184.052 156.637C184.231 155.673 184.417 154.642 184.278 154.622Z" fill="white" stroke="#EFEFEF" stroke-width="0.4" stroke-miterlimit="10"/>
<path d="M179.467 154.683C178.935 154.071 178.403 153.466 177.871 152.854C177.725 152.687 177.565 152.508 177.359 152.421C176.966 152.262 176.501 152.474 176.241 152.814C175.982 153.153 175.882 153.579 175.796 153.991C175.616 154.816 175.437 155.66 175.536 156.499C175.636 157.337 176.075 158.181 176.833 158.547C177.219 158.733 177.698 158.78 178.077 158.574C178.343 158.427 178.53 158.168 178.696 157.909C179.361 156.864 180.026 155.328 179.467 154.683Z" fill="white" stroke="#EFEFEF" stroke-width="0.4" stroke-miterlimit="10"/>
<path d="M175.401 154.829C175.108 154.61 174.815 154.384 174.516 154.164C174.143 154.763 173.764 155.355 173.392 155.953C173.186 156.279 172.973 156.638 173.013 157.024C173.059 157.41 173.352 157.716 173.651 157.962C174.03 158.281 174.542 158.574 174.995 158.374C175.554 158.135 175.587 157.37 175.54 156.765C175.48 156.04 175.42 155.321 175.401 154.829Z" fill="white" stroke="#EFEFEF" stroke-width="0.4" stroke-miterlimit="10"/>
<path d="M184.318 154.638C184.731 154.013 185.136 153.388 185.549 152.762C185.662 152.59 185.782 152.417 185.968 152.337C186.141 152.264 186.34 152.284 186.52 152.337C187.225 152.523 187.777 153.055 188.303 153.561C188.848 154.086 189.413 154.658 189.566 155.403C189.653 155.842 189.586 156.294 189.513 156.74C189.347 157.771 189.167 158.795 188.981 159.826C187.471 159.56 185.961 159.294 184.451 159.035C183.979 157.458 183.68 155.609 184.318 154.638Z" fill="white" stroke="#EFEFEF" stroke-width="0.4" stroke-miterlimit="10"/>
<path d="M153.879 226.731C155.474 224.62 155.873 221.752 157.609 219.75C145.803 251.807 161.81 263.639 177.527 265.711C216.198 280.675 210.957 230.235 214.22 228.707C216.649 238.823 227.087 245.238 236.846 248.85C240.234 250.104 246.964 252.306 250.418 253.471C235.372 339.452 149.073 368.818 89.6059 335.862C91.6568 322.276 91.5116 304.524 90.5514 290.705C91.1233 300.531 91.2801 310.489 90.7473 320.408C90.5246 324.55 90.1798 328.698 89.6059 332.807C88.9378 337.59 87.959 342.32 86.5006 346.923C83.7896 355.479 79.3471 363.619 72.8126 369.77C67.7354 375.744 62.8933 381.883 58.0551 388.022C54.6781 392.304 51.2502 396.641 46.8939 399.923C41.6639 403.868 35.3722 406.094 29.1903 408.26C26.6008 409.169 23.9368 410.09 21.1945 409.999C18.0017 409.894 14.8872 408.335 12.8892 405.847C5.68089 398.709 2.1159 388.641 1.23836 378.553C0.360823 368.465 2.0062 358.311 4.53696 348.505C6.29987 341.673 8.5564 334.825 12.6659 329.09C13.3907 328.079 14.1899 327.068 14.4994 325.866C14.8128 324.643 14.5934 323.35 14.5973 322.085C14.6091 318.414 16.6031 314.935 19.3846 312.538C20.6892 311.414 22.2053 310.481 23.8898 310.129C25.9583 309.698 28.0973 310.172 30.1462 310.677C39.2859 312.93 48.2572 315.872 56.9581 319.468C57.0874 315.265 56.394 311.637 56.3117 307.997C56.1785 301.91 57.7612 295.92 59.5868 290.11C62.1998 281.797 65.3222 273.64 68.9381 265.711C72.1701 258.628 75.9192 251.553 81.7525 246.397C92.0401 237.309 106.762 235.773 120.443 234.656C122.021 234.527 123.604 234.398 125.183 234.269C132.626 233.665 140.148 233.042 147.251 230.739C149.746 229.932 152.296 228.827 153.879 226.731Z" fill="#7687C1" stroke="black" stroke-width="0.4" stroke-miterlimit="10"/>
<path d="M56.2385 329.048C55.6627 333.322 52.3249 336.926 48.3094 338.497C44.2938 340.068 39.7259 339.798 35.6242 338.458C31.5264 337.118 27.8283 334.775 24.3416 332.237C21.1018 329.502 19.9461 324.958 20.3809 320.844C20.8158 316.731 22.5826 312.896 24.2084 309.092C29.2856 297.225 33.2149 284.865 35.9259 272.247C36.3255 270.39 36.7564 268.411 38.108 267.076C38.821 266.37 39.7299 265.908 40.5056 265.274C41.7984 264.212 42.6759 262.66 43.0755 260.952C43.1225 257.775 45.5984 255.229 46.8873 252.326C48.1331 249.521 48.2584 246.367 48.85 243.355C49.8294 238.383 52.0898 233.776 53.888 229.04C54.5266 227.363 55.1103 225.632 54.9418 223.849C54.6637 220.699 52.8459 217.93 51.6119 215.015C51.1614 213.953 50.7892 212.856 50.2877 211.814C49.8451 210.89 49.3044 210.012 48.9009 209.068C48.1331 207.282 47.8706 205.327 47.6159 203.399C47.326 201.201 47.0362 199.004 46.7463 196.806C46.5621 195.419 46.3819 194.021 46.4524 192.626C46.566 190.463 47.2869 188.364 47.3535 186.201C47.4005 184.669 47.138 183.047 47.8628 181.911C48.7285 181.574 49.6649 181.23 50.5659 181.457C51.1496 181.602 51.6511 181.978 52.0585 182.421C53.5041 183.995 53.7744 186.287 53.9781 188.414C54.2367 191.114 54.4952 193.813 55.1455 196.399C55.6901 198.733 56.2386 201.08 57.1318 203.301C58.3697 206.388 60.2736 209.209 62.9611 211.36C63.0355 208.531 62.9298 205.703 62.6399 202.886C62.4793 201.339 62.2677 199.775 62.4949 198.24C62.7456 196.563 63.5096 195.012 64.2735 193.496C65.7622 190.55 67.2979 187.627 68.9002 184.732C71.2429 179.804 73.9108 175.032 76.8881 170.46C77.0723 170.178 77.2642 169.888 77.5463 169.7C78.1927 169.273 79.0506 169.52 79.7793 169.779C80.649 170.088 81.5696 170.437 82.1142 171.177C82.98 172.356 82.5686 174.006 82.0985 175.396C80.4296 180.344 78.5257 185.218 76.3984 189.985C75.0273 193.057 73.5268 196.261 73.7658 199.619C73.8677 201.017 74.2673 202.439 73.9147 203.795C73.5699 205.107 72.614 206.686 73.7384 207.767C75.1605 204.261 76.5826 200.755 78.0046 197.249C78.6275 195.717 79.2543 194.173 80.128 192.771C81.1074 191.204 82.3727 189.84 83.6342 188.485C86.1963 185.735 88.7584 182.985 91.3205 180.235C93.91 177.457 96.4956 174.679 99.0851 171.902C99.7041 171.236 100.366 170.546 101.236 170.288C102.106 170.029 103.23 170.39 103.845 171.103C104.852 172.493 104.903 174.397 104.397 176.039C103.892 177.68 102.897 179.118 101.914 180.528C99.2771 184.317 96.6406 188.105 94.0041 191.889C92.4801 194.075 90.9562 196.269 89.6203 198.62C90.0512 201.562 88.778 204.445 88.1668 207.352C87.9749 208.261 87.8495 209.193 87.9592 210.114C88.1668 211.834 89.1658 213.342 89.9533 214.944C93.863 213.577 97.7728 212.214 101.682 210.847C102.392 210.6 103.124 210.349 103.872 210.412C105.232 210.529 106.266 211.626 107.226 212.594C109.181 214.568 111.39 216.288 113.784 217.702C114.744 218.27 115.852 218.96 116.048 220.229C116.71 222.858 117.372 225.49 118.034 228.119C118.148 228.578 118.266 229.048 118.215 229.518C118.164 229.988 117.901 230.466 117.463 230.638C117.153 230.764 116.804 230.72 116.471 230.681C115.59 230.568 114.708 230.458 113.827 230.344C113.451 230.297 113.067 230.246 112.714 230.101C112.221 229.894 111.821 229.51 111.465 229.11C110.062 227.547 109.063 225.671 108.052 224.166C106.916 223.555 105.784 222.944 104.648 222.333C104.507 222.258 104.362 222.18 104.205 222.161C103.939 222.125 103.684 222.251 103.445 222.372C102.172 223.026 100.899 223.681 99.6258 224.335C98.286 225.024 96.7072 225.726 95.336 225.107C94.004 227.422 92.2881 229.514 90.2784 231.273C90.1335 231.402 89.9768 231.539 89.9219 231.723C89.8749 231.88 89.9063 232.048 89.9415 232.209C90.2079 233.443 90.6623 234.634 91.485 235.802C92.4213 237.098 93.0325 238.63 93.2479 240.213C93.3028 240.612 93.3381 241.032 93.5535 241.376C93.8395 241.839 94.384 242.058 94.8894 242.254C95.4927 242.485 96.096 242.712 96.6993 242.943C96.954 243.041 97.2125 243.139 97.4868 243.131C97.7727 243.127 98.0391 243.006 98.3016 242.888C99.5788 242.313 100.856 241.737 102.133 241.157C102.783 240.863 103.465 240.546 103.884 239.97C104.299 239.402 104.397 238.673 104.652 238.019C105.044 237.008 105.804 236.189 106.576 235.422C108.064 233.945 109.655 232.57 111.335 231.316C111.837 230.944 112.358 230.575 112.953 230.395C113.584 230.207 114.254 230.242 114.912 230.278C116.084 230.344 117.353 230.446 118.219 231.163C117.987 234.826 115.374 237.972 114.932 241.615C114.759 243.033 114.912 244.538 114.309 245.834C113.592 247.378 111.986 248.267 110.571 249.086C108.174 251.456 105.631 253.685 102.964 255.746C101.851 256.604 100.707 257.442 99.4299 258.022C98.3134 258.527 97.1068 258.829 96.0098 259.374C94.4663 260.141 93.197 261.356 91.9199 262.418C88.3941 265.199 84.214 267.138 79.8146 268.031C77.9106 268.419 75.9479 268.619 74.1497 269.356C71.615 270.394 69.5936 272.447 68.1637 274.781C66.7337 277.116 65.8405 279.737 65.0531 282.358C64.344 284.728 63.7133 287.118 63.1844 289.621C62.6124 291.854 62.0718 294.099 61.5664 296.352C60.8182 299.686 60.1444 303.039 59.4706 306.389C59.0239 308.602 58.5813 310.811 58.1347 313.025C57.0456 318.506 56.9085 324.092 56.2385 329.048Z" fill="#FDE6CD" stroke="#B48E64" stroke-width="0.4" stroke-miterlimit="10"/>
<path d="M117.891 232.278C117.033 234.033 114.82 234.801 113.966 236.556C113.727 237.046 113.609 237.587 113.515 238.127C113.413 238.684 113.335 239.26 113.456 239.812C113.578 240.364 113.942 240.897 114.483 241.066C114.651 241.116 114.843 241.132 114.992 241.042C115.207 240.913 115.254 240.631 115.298 240.384C115.76 237.649 117.82 235.307 117.926 232.533C117.93 232.455 117.926 232.368 117.875 232.31C117.824 232.251 117.687 232.263 117.891 232.278Z" fill="white" stroke="#B48E64" stroke-width="0.4" stroke-miterlimit="10"/>
<path d="M58.2773 227.6C59.766 226.539 61.6896 226.268 63.5151 226.351C65.3407 226.433 67.1428 226.829 68.9645 226.962C72.0437 227.185 75.1739 226.641 77.9945 225.391C80.7878 224.153 83.2676 222.245 86.1588 221.25" stroke="#B48E64" stroke-width="0.4" stroke-miterlimit="10"/>
<path d="M70.9297 236.695C72.1481 233.745 74.6083 231.331 77.5857 230.176C80.5591 229.02 84.0066 229.13 87.5794 230.336C81.8362 231.841 76.9236 236.22 74.7689 241.756C73.9971 243.738 73.5662 245.838 73.2254 247.938C72.3322 253.438 72.0305 259.033 72.3283 264.596" stroke="#B48E64" stroke-width="0.4" stroke-miterlimit="10"/>
<path d="M70.66 246.094C69.8922 252.342 69.4534 258.63 69.3477 264.922" stroke="#B48E64" stroke-width="0.4" stroke-miterlimit="10"/>
<path d="M90.875 216.141C91.3686 218.037 91.874 219.964 92.9004 221.633C93.4763 222.565 94.2167 223.431 94.487 224.493" stroke="#B48E64" stroke-width="0.4" stroke-miterlimit="10"/>
<path d="M107.517 219.914C107.192 220.995 107.016 222.124 107.004 223.252" stroke="#B48E64" stroke-width="0.4" stroke-miterlimit="10"/>
<path d="M117.024 224.176C116.554 223.729 116.088 223.283 115.618 222.836C114.882 223.106 114.396 223.847 114.219 224.611C114.043 225.375 114.122 226.174 114.204 226.957C114.227 227.188 114.255 227.431 114.376 227.631C114.455 227.76 114.568 227.862 114.678 227.964C115.516 228.732 116.355 229.5 117.193 230.272C117.35 230.416 117.542 230.573 117.753 230.542C118.114 230.491 118.188 230.009 118.161 229.649C118.019 227.631 118.153 225.253 117.024 224.176Z" fill="white" stroke="#B48E64" stroke-width="0.4" stroke-miterlimit="10"/>
<path d="M104.136 240.281C103.662 242.992 104.833 245.927 107.042 247.568" stroke="#B48E64" stroke-width="0.4" stroke-miterlimit="10"/>
<path d="M93.3516 242.984C95.8902 247.341 96.2545 252.9 94.3075 257.554" stroke="#B48E64" stroke-width="0.4" stroke-miterlimit="10"/>
<path d="M82.7812 194.359C83.5295 194.438 84.2033 194.853 84.7557 195.366C85.3081 195.879 85.7547 196.487 86.2444 197.059C86.8555 197.772 87.6312 198.473 88.5714 198.481" stroke="#B48E64" stroke-width="0.4" stroke-miterlimit="10"/>
<path d="M92.2266 183.109C93.6682 184.661 95.4821 185.863 97.4761 186.576" stroke="#B48E64" stroke-width="0.4" stroke-miterlimit="10"/>
<path d="M71.3047 183.086C72.1587 183.63 73.0167 184.179 73.8707 184.723C75.0225 185.456 76.3153 186.224 77.659 185.989" stroke="#B48E64" stroke-width="0.4" stroke-miterlimit="10"/>
<path d="M66.2344 197.203C67.3509 196.783 68.6084 196.846 69.7602 197.159C70.912 197.473 71.9854 198.021 73.051 198.566" stroke="#B48E64" stroke-width="0.4" stroke-miterlimit="10"/>
<path d="M56.1914 218.381C58.1228 215.968 60.7005 213.798 63.7758 213.492" stroke="#B48E64" stroke-width="0.4" stroke-miterlimit="10"/>
<path d="M55.8477 224.042C56.8192 223.541 57.8064 223.067 58.8015 222.62C59.0483 222.51 59.303 222.397 59.5733 222.373C60.2236 222.311 60.8543 222.749 61.4968 222.648" stroke="#B48E64" stroke-width="0.4" stroke-miterlimit="10"/>
<path d="M48.4961 196.515C50.2786 196.17 52.0611 195.821 53.8436 195.477" stroke="#B48E64" stroke-width="0.4" stroke-miterlimit="10"/>
<path d="M50.4844 207.647C52.31 206.206 54.6018 205.371 56.9249 205.305" stroke="#B48E64" stroke-width="0.4" stroke-miterlimit="10"/>
<path d="M47.543 266.117C51.5898 269.439 56.8864 271.202 62.1164 270.955C64.2946 270.854 66.5002 270.419 68.6392 270.838" stroke="#B48E64" stroke-width="0.4" stroke-miterlimit="10"/>
<path d="M146.754 246.59L121.878 272.353L232.181 290.984L243.785 264.263L237.427 249.965L228.397 247.34L214.163 228.48C205.831 241.516 199.759 249.462 186.507 256.979C170.498 247.044 163.855 239.198 157.153 220.093L146.754 246.59Z" fill="#7687C1"/>
<path d="M171.3 277.092L168.503 280.688L143.649 232.214L168.503 278.14C172.402 272.862 177.402 266.127 179.952 262.888C182.503 259.647 184.119 257.76 184.28 257.897C184.442 258.034 183.119 260.17 180.794 263.605C178.47 267.038 175.145 271.768 171.3 277.092Z" fill="#17282F"/>
<path d="M201.251 278.011L202.535 280.141L227.469 244.557L202.535 276.921C198.635 271.642 195.149 267.047 192.599 263.808C190.048 260.567 188.432 258.68 188.271 258.817C188.109 258.953 189.431 261.09 191.757 264.525C194.08 267.958 197.406 272.688 201.251 278.011Z" fill="#17282F"/>
<path d="M185.896 266.664C185.987 271.344 186.062 278.117 186.058 286.485C186.076 298.65 187.056 314.174 187.402 331.551L184.709 332.359C185.026 314.651 185.271 298.828 185.38 286.481C185.437 278.63 185.484 272.166 185.517 267.435L185.523 266.669C185.542 264.41 185.558 262.614 185.569 261.281C185.591 260.049 185.618 259.401 185.651 259.401C185.684 259.4 185.721 260.046 185.763 261.277C185.796 262.611 185.84 264.407 185.896 266.664Z" fill="#17282F"/>
<defs>
<linearGradient id="paint0_linear_708_2020" x1="46.223" y1="316.861" x2="222.934" y2="154.891" gradientUnits="userSpaceOnUse">
<stop stop-color="#D9B430"/>
<stop offset="1" stop-color="#303030" stop-opacity="0"/>
</linearGradient>
<linearGradient id="paint1_linear_708_2020" x1="234.127" y1="93.9609" x2="234.127" y2="126.382" gradientUnits="userSpaceOnUse">
<stop stop-color="#FDE6CD"/>
<stop offset="1" stop-color="#FDE6CD"/>
</linearGradient>
<linearGradient id="paint2_linear_708_2020" x1="175.252" y1="82.75" x2="175.252" y2="115.418" gradientUnits="userSpaceOnUse">
<stop stop-color="#FDE6CD"/>
<stop offset="1" stop-color="#FDE6CD"/>
</linearGradient>
</defs>
</svg>
