<svg width="232" height="325" viewBox="0 0 232 325" fill="none" xmlns="http://www.w3.org/2000/svg">
<circle cx="116.001" cy="209.462" r="113.064" fill="url(#paint0_linear_714_4171)" stroke="white" stroke-width="4"/>
<path d="M65.5664 185.935L132.586 184.371L133.297 200.149L75.9427 216.85L65.5664 185.935Z" fill="#5F6FA7"/>
<path fill-rule="evenodd" clip-rule="evenodd" d="M66.1342 173.005C66.0176 179.733 67.0084 190.401 68.8918 197.988C68.0705 200.852 71.9698 205.495 71.1485 208.359C70.2345 218.109 78.6334 212.993 84.11 229.948C88.7293 227.26 93.1433 224.546 95.4648 221.57C90.4334 214.67 99.6744 216.88 105.461 212.691C113.984 208.427 121.853 197.794 129.787 187.623C129.787 183.808 132.489 167.767 132.941 163.766C113.849 167.094 85.226 169.676 66.1342 173.005Z" fill="#F2DBC1"/>
<path d="M54.7497 207.173L30.3705 232.422L13.4685 250.826L20.3624 263.619C82.8464 309.385 99.9821 336.694 188.729 268.025L190.359 229.372L144.873 202.74L132.762 184.382L93.7097 217.355L65.5754 185.868L54.7497 207.173Z" fill="#7687C1"/>
<path d="M184.957 220.776C177.663 211.662 128.67 199.061 128.67 199.061C118.6 218.72 88.7397 222.493 74.0038 200.396L29.0948 210.055L26.0014 274.942C42.4899 296.405 62.0298 309.548 87.6289 317.135C117.495 324.244 152.101 321.399 184.337 297.223L184.957 220.776Z" fill="#7687C1"/>
<path d="M183.732 219.394C191.593 224.32 198.867 233.305 200.973 245.54C201.117 246.376 206.029 271.422 206.285 273.996C197.141 287.749 179.943 304.464 155.424 313.348C156.897 295.697 158.96 261.148 162.311 250.517C169.19 228.689 177.531 215.51 183.732 219.394Z" fill="#7687C1"/>
<path d="M29.0911 209.862C40.7711 210.533 33.2682 221.619 36.6164 232.938C39.0518 241.163 59.6338 307.182 40.2296 290.59C20.8253 273.999 10.2007 249.261 5.90857 228.153C1.61641 207.045 29.0911 209.862 29.0911 209.862Z" fill="#7687C1"/>
<path d="M154.823 258.366C155.31 256.011 155.617 254.721 155.701 254.738C155.785 254.756 155.636 256.082 155.298 258.456C154.909 260.82 154.526 264.269 154.137 268.529C153.851 272.8 153.544 277.894 153.764 283.553C153.926 289.211 154.433 295.419 155.184 301.923C155.435 303.979 158.029 310.404 158.269 312.394C156.26 313.297 155.07 313.637 153.055 314.292C152.781 312.087 154.237 304.366 153.957 302.069C153.205 295.543 152.728 289.282 152.628 283.578C152.47 277.867 152.867 272.731 153.265 268.44C153.772 264.159 154.289 260.711 154.823 258.366Z" fill="#17282F"/>
<path d="M39.6535 246.87C39.842 245.522 39.9819 244.78 40.0582 244.785C40.1366 244.79 40.1386 245.543 40.0814 246.899C39.9967 248.45 39.8908 250.367 39.7679 252.637C39.4353 257.689 39.0052 264.275 38.5285 271.556C38.1689 276.494 37.7601 281.118 37.3363 285.082L36.4564 284.158C36.7637 280.392 37.0916 276.08 37.4268 271.497C37.9671 264.114 38.4946 257.425 38.9904 252.59C39.2383 250.174 39.4607 248.219 39.6535 246.87Z" fill="#17282F"/>
<path d="M152.63 283.502C152.722 289.209 153.205 295.473 153.974 302.002C154.242 304.153 155.635 311.273 155.899 313.345C152.487 314.695 148.692 315.95 146.418 316.661C145.269 309.162 144.549 301.688 144.936 288.627C145.452 271.225 149.91 263.252 155.623 255.25L155.76 254.936C155.603 255.442 155.334 256.584 154.968 258.268C154.407 260.616 153.862 264.068 153.326 268.352C152.901 272.648 152.477 277.788 152.63 283.502Z" fill="#5F6FA7"/>
<path d="M58.1432 211.436C57.9922 211.624 60.0793 213.823 63.4324 217.373C66.784 220.926 71.3797 225.862 76.2442 231.529C77.2681 232.735 78.2699 233.916 79.2388 235.056L79.8852 235.816L80.4655 235.016C84.2339 229.798 87.4927 225.163 89.7701 221.798C92.049 218.432 93.345 216.338 93.1861 216.204C93.0289 216.07 91.4451 217.919 88.9444 221.095C86.4452 224.27 83.0292 228.773 79.2073 233.947L80.4325 233.906C79.4637 232.752 78.4603 231.558 77.4364 230.336C72.5372 224.63 67.7796 219.797 64.2125 216.462C60.6408 213.128 58.2848 211.258 58.1432 211.436Z" fill="#17282F"/>
<path d="M94.7439 214.563C94.534 214.66 95.9582 218.255 98.4302 223.994C99.0745 225.471 99.7543 227.033 100.471 228.677C101.29 230.378 101.829 232.104 103.04 234.099C103.623 235.058 105.021 236.058 106.484 235.764C107.876 235.51 108.808 234.697 109.722 234.11C111.587 232.836 113.506 231.525 115.473 230.178C123.346 224.771 130.418 219.798 135.49 216.132C140.563 212.463 143.635 210.102 143.504 209.912C143.373 209.724 140.065 211.744 134.822 215.163C129.577 218.583 122.4 223.402 114.527 228.811C112.565 230.165 110.653 231.486 108.795 232.77C107.855 233.418 107.003 234.07 106.224 234.199C105.473 234.343 104.823 233.949 104.291 233.212C102.441 229.852 100.896 226.227 99.5024 223.505C96.7558 217.892 94.9538 214.468 94.7439 214.563Z" fill="#17282F"/>
<path d="M88.6428 313.945C88.7139 313.945 88.7889 313.61 88.866 312.971C88.9249 312.28 89.002 311.349 89.0995 310.178C89.274 307.695 89.5175 304.2 89.8179 299.906C90.5383 291.182 91.5266 279.225 92.6184 266.016C93.6858 252.777 94.321 240.788 94.2663 232.109C94.2744 227.77 94.11 224.259 93.9111 221.832C93.7893 220.662 93.692 219.731 93.6209 219.039C93.5296 218.401 93.4484 218.065 93.3753 218.066C93.3023 218.066 93.2434 218.402 93.1968 219.041C93.1724 219.732 93.1379 220.663 93.0953 221.835C93.0202 224.318 92.9147 227.812 92.7828 232.107C92.4601 240.781 91.5895 252.764 90.5221 266.003C89.4566 279.237 88.5759 291.221 88.3344 299.9C88.1903 304.238 88.2004 307.75 88.2836 310.177C88.3506 311.348 88.4034 312.279 88.444 312.971C88.5028 313.61 88.5698 313.945 88.6428 313.945Z" fill="#17282F"/>
<path d="M148.349 97.7512C149.573 95.2106 152.202 93.7106 154.681 92.3648C155.455 91.9447 156.256 91.5147 157.133 91.4162C158.009 91.3177 158.99 91.6263 159.437 92.3911C159.68 92.8079 159.735 93.3003 159.788 93.7795C159.955 95.3255 160.12 96.8682 160.287 98.4142C160.454 99.9602 160.618 101.526 160.392 103.062C160.024 105.553 158.659 107.766 157.559 110.034C154.113 117.124 153.108 125.113 150.83 132.659C150.4 134.077 149.472 135.79 148.004 135.577C147.814 133.02 148.815 130.535 149.153 127.992C149.511 125.27 149.104 122.503 149.271 119.766C149.609 114.232 150.489 108.869 150.253 103.364C149.445 101.293 147.706 99.0871 148.349 97.7512Z" fill="#F2DBC1" stroke="#CEAC87" stroke-width="0.4" stroke-miterlimit="10"/>
<path d="M158.741 94.6641C156.408 95.8818 154.75 98.3108 154.468 100.927C154.3 102.473 154.583 104.025 154.698 105.575C154.862 107.761 154.691 109.97 154.195 112.107" stroke="#CEAC87" stroke-width="0.4" stroke-miterlimit="10"/>
<path d="M151.645 120.35C152.678 119.822 153.387 118.788 153.771 117.692C154.156 116.595 154.257 115.42 154.352 114.262" stroke="#CEAC87" stroke-width="0.4" stroke-miterlimit="10"/>
<path d="M40.0056 102.078C39.5427 100.223 37.7112 99.0973 36.0405 98.1717C33.9037 96.99 31.2548 95.7985 29.1541 97.0458C28.8291 97.2395 28.5173 97.5152 28.4451 97.8861C28.363 98.3128 28.6256 98.7231 28.8291 99.1071C30.5261 102.281 28.8817 106.309 29.9747 109.739C30.3653 110.963 31.0874 112.049 31.7176 113.172C33.8183 116.911 34.931 121.112 35.9715 125.271C36.7724 128.471 37.5438 131.681 38.2856 134.898C38.6237 136.362 39.2539 138.118 40.7408 138.338C40.9345 135.538 40.383 132.751 40.0285 129.968C39.3688 124.795 39.3852 119.537 40.0712 114.367C40.6391 110.11 40.9509 105.869 40.0056 102.078Z" fill="#F2DBC1" stroke="#CEAC87" stroke-width="0.4" stroke-miterlimit="10"/>
<path d="M29.6836 98.7031C31.6333 100.328 33.6717 102.081 34.4824 104.487C35.6476 107.94 33.9704 111.705 34.2658 115.335" stroke="#CEAC87" stroke-width="0.4" stroke-miterlimit="10"/>
<path d="M147.961 95.4135C151.591 91.583 153.383 86.3411 154.204 81.1254C155.024 75.913 154.972 70.6021 155.477 65.3504C156.094 58.917 157.486 52.1225 154.87 46.2142C153.403 42.9023 150.78 40.1813 149.497 36.7939C148.24 33.4787 148.299 29.6121 146.201 26.7564C146.129 25.3483 144.632 24.6754 143.454 23.9664C140.543 22.2136 138.773 19.0691 136.19 16.8601C133.443 14.5099 129.908 13.325 126.796 11.4803C123.803 9.70455 121.219 7.32813 118.469 5.1946C115.718 3.06106 112.695 1.11791 109.281 0.435177C105.996 -0.224577 102.592 0.330134 99.336 1.11462C98.0624 1.15072 96.7889 0.789671 95.5547 0.527083C91.5798 -0.319766 87.3915 -0.142526 83.5019 1.03256C80.7315 1.86956 78.1122 3.2022 75.2828 3.81272C73.1198 4.28209 70.891 4.31492 68.6853 4.5053C64.5758 4.85979 60.4597 5.77885 56.8327 7.74499C53.4158 9.59952 50.501 12.3665 48.4725 15.685C44.8587 19.2168 41.8126 23.346 39.4362 27.8297C38.2349 30.0913 37.1681 32.494 35.3431 34.2894C34.6341 34.9853 33.8234 35.5761 33.1767 36.3278C32.5268 37.0794 32.041 38.051 32.1658 39.0357C32.2413 39.6331 32.5301 40.1812 32.6975 40.7589C33.1866 42.4494 32.6089 44.2415 32.1461 45.9418C30.7511 51.0754 30.4228 56.4978 31.1876 61.766C32.1428 66.6567 32.5531 71.8691 32.7566 77.075C32.901 80.7906 32.947 84.5587 33.9908 88.1267C35.7304 94.0809 40.1911 99.3359 40.096 105.763C59.6129 109.324 79.179 101.335 98.8797 99.0175C115.177 97.1006 131.943 99.0668 147.961 95.4135Z" fill="#17282F"/>
<path d="M67.399 177.127C68.364 179.369 70.9899 180.295 73.3433 180.941C80.2855 182.852 87.3229 184.424 94.4193 185.648C99.9173 186.597 105.655 187.322 110.999 185.73C115.443 184.408 119.277 181.568 122.743 178.486C140.106 163.043 150.269 139.81 149.822 116.578C153.085 106.944 146.885 96.3354 147.252 85.7695C147.341 83.2289 147.807 80.6457 147.223 78.1708C145.634 71.4354 136.87 67.6016 136.791 60.6824C136.762 58.0927 138.035 55.6604 138.331 53.0871C138.626 50.5137 137.271 47.3101 134.681 47.228C125.569 40.7782 114.054 38.7924 103.672 41.5036C93.6546 44.1196 84.2342 50.8912 73.9834 49.4371C69.3881 48.3276 64.4711 47.9896 59.8692 49.2664C55.2641 50.5432 51.0003 53.6155 49.1064 58.0007C47.393 61.9691 47.7147 66.6202 45.7945 70.4934C44.1238 73.8677 40.825 76.4936 40.1948 80.2092C39.883 82.0539 40.2834 83.9314 40.5755 85.7793C41.4815 91.4677 41.3699 97.3135 40.7232 102.743C39.8764 112.311 39.0295 121.944 39.9617 131.506C40.8939 141.067 43.7168 150.655 49.5528 158.283C55.0376 165.442 64.2512 169.827 67.399 177.127Z" fill="#F2DBC1"/>
<path d="M140.394 86.4089C136.455 84.259 133.058 80.9274 128.696 79.8705C126.772 79.4044 124.767 79.4142 122.787 79.5094C116.978 79.7851 111.224 80.7534 105.489 81.7184C104.147 81.9449 102.775 82.1812 101.573 82.818C100.372 83.4548 99.3414 84.5839 99.4629 86.1562C99.5318 87.5052 100.782 88.5621 102.102 88.8444C103.421 89.1267 104.793 88.8116 106.093 88.4571C110.282 87.3083 114.424 85.713 118.766 85.6113C122.003 85.5358 125.197 86.3006 128.344 87.0621C132.641 88.1026 136.941 89.1398 140.394 86.4089Z" fill="#17282F"/>
<path d="M88.6979 83.5399C89.7319 85.3387 88.7308 87.9711 86.7647 88.6276C85.3992 89.0838 83.9156 88.6703 82.5304 88.283C76.6583 86.6451 70.54 85.4733 64.4774 86.1396C58.4149 86.8059 52.3721 89.5073 48.7353 94.4013C48.4563 91.5423 50.2911 88.9296 52.2408 86.8223C54.0264 84.889 56.0319 83.0903 58.4346 82.0071C61.0901 80.8123 64.0639 80.5661 66.972 80.4447C70.2019 80.3101 73.4383 80.3101 76.6681 80.4447C79.6288 80.5661 82.7175 80.8451 85.2384 82.4043C86.4594 83.1625 87.7228 82.8919 88.6979 83.5399Z" fill="#17282F"/>
<path d="M85.0281 106.461C83.8859 109.366 82.7403 112.271 81.5981 115.176C80.8431 117.092 80.0783 119.065 80.098 121.127C80.1177 123.185 81.1123 125.374 83.0522 125.919C83.9253 126.5 85.317 125.771 85.3399 124.721C85.3465 124.376 85.2316 124.041 85.2119 123.697C85.1332 122.499 86.2557 121.451 87.4472 121.323C88.6387 121.195 89.8138 121.803 90.6738 122.643C91.9178 123.861 92.8697 125.689 94.5962 125.902C96.326 126.116 97.698 124.57 98.8764 123.283C99.7561 122.325 100.747 121.412 101.975 120.976C103.199 120.539 104.709 120.68 105.609 121.619C106.511 122.558 106.462 124.343 105.339 125C104.834 125.295 104.043 125.702 104.358 126.198C104.427 126.306 104.542 126.375 104.657 126.437C106.921 127.642 109.928 126.017 110.87 123.631C111.812 121.245 111.139 118.497 109.925 116.239C109.442 115.343 108.874 114.476 108.625 113.492C108.307 112.228 108.451 110.669 107.42 109.871" stroke="#CEAC87" stroke-width="0.4" stroke-miterlimit="10"/>
<path d="M90.5032 123.465C89.1738 124.164 87.536 124.25 86.141 123.695C85.967 123.626 85.793 123.544 85.6749 123.396C85.4681 123.137 85.5107 122.76 85.6388 122.454C85.9407 121.755 86.6596 121.289 87.4145 121.164C88.1662 121.04 88.9441 121.223 89.6367 121.548C90.1323 121.778 90.6279 122.126 90.7822 122.651C90.9365 123.173 90.5492 123.856 90.5032 123.465Z" fill="#17282F"/>
<path d="M100.004 122.484C101.277 123.324 102.853 123.695 104.366 123.515C105.085 123.429 105.932 123.058 105.971 122.336C105.998 121.857 105.64 121.443 105.243 121.171C104.409 120.597 103.319 120.413 102.344 120.688C101.376 120.961 100.539 121.683 100.004 122.484Z" fill="#17282F"/>
<path d="M124.666 156.548C124.161 151.529 123.143 146.559 121.643 141.744C121.147 140.155 120.593 138.567 119.68 137.175C118.771 135.783 117.465 134.592 115.876 134.109C111.927 132.8 108.031 130.735 104.608 128.063C104.109 127.673 103.6 127.262 102.989 127.088C101.154 126.573 99.5297 128.362 97.6916 128.867C94.5208 129.744 91.3337 126.691 88.1006 127.302C86.3281 127.636 84.9659 128.999 83.5906 130.164C81.9593 131.549 80.1605 132.734 78.2436 133.689C76.3924 134.615 74.3343 135.403 73.1363 137.09C72.3551 138.186 72.04 139.542 71.413 140.733C70.9207 141.672 70.2412 142.499 69.7095 143.412C67.7663 146.753 67.9436 150.869 68.4327 154.663C68.6657 154.798 68.8988 154.933 69.1285 155.067C70.2445 152.563 71.6559 150.19 73.3267 148.013C73.8026 147.393 74.3015 146.786 74.9022 146.284C75.6637 145.647 76.5598 145.204 77.4263 144.721C79.0019 143.848 80.4986 142.834 81.8969 141.701C85.0485 140.733 87.045 137.457 90.4029 137.09C91.6108 136.958 94.3444 137.99 95.5589 138.023C97.9813 138.082 99.1022 136.449 101.508 136.734C103.586 136.98 104.681 138.023 106.763 139.411C109.441 141.196 112.118 143.179 115.687 145.063C116.439 145.835 117.465 146.694 118.377 147.268C118.958 147.636 119.614 147.879 120.182 148.269C122.884 150.14 122.519 154.404 124.666 156.548Z" fill="#17282F"/>
<path d="M148.601 136.067C151.328 122.527 151.461 107.394 149.006 93.8047C147.355 94.9043 147.846 98.1818 148.023 100.01C148.633 106.276 149.224 112.713 147.54 118.779C145.784 125.107 141.698 130.513 137.362 135.443C135.33 137.754 133.167 140.094 132.202 143.019C131.677 144.611 131.536 146.311 131.04 147.913C130.361 150.122 128.995 152.114 127.183 153.549C124.761 156.201 123.661 160.11 120.871 162.605C111.185 184.729 81.2832 182.35 71.4225 159.68C69.6008 157.602 67.9531 155.242 65.8491 153.315C64.4934 152.075 62.954 151.018 61.7986 149.59C59.8456 147.171 59.1924 143.961 57.6136 141.282C55.5589 137.8 52.0796 135.437 49.388 132.42C45.7216 128.307 43.5783 123.019 42.4557 117.626C41.3331 112.234 41.1723 106.693 41.0508 101.185C40.6044 100.824 39.8922 100.735 39.5639 101.064C39.2357 101.389 39.1963 101.901 39.1766 102.363C38.9206 108.508 38.6646 114.656 38.4972 120.804C38.3856 124.851 38.3298 129.003 39.6985 132.814C39.8462 139.713 41.6417 146.603 44.8452 152.751C46.772 156.444 49.2009 159.874 52.0434 162.916C52.6441 166.094 55.293 168.293 57.6891 170.456C61.7724 174.149 65.4683 178.271 68.6949 182.732C70.2376 184.866 71.8164 187.196 74.2617 188.171C79.7433 191.43 85.6449 194.486 92.0291 195.973C98.4166 197.463 105.415 197.256 111.185 194.145C115.564 191.785 118.935 187.951 122.118 184.127C126.093 179.354 129.927 174.464 133.62 169.465C136.43 165.66 139.164 161.784 141.379 157.606C144.941 150.893 147.101 143.514 148.601 136.067Z" fill="#17282F"/>
<path d="M90.5679 85.2924C92.6128 86.7334 95.3109 86.9336 97.776 86.5233C100.244 86.113 102.581 85.1546 104.981 84.4522C112.665 82.2103 120.838 82.6272 128.594 82.834C134.443 83.5036 140.253 84.508 145.987 85.8406C146.171 85.8833 146.368 85.9358 146.496 86.0769C146.663 86.264 146.647 86.5463 146.624 86.7958C146.526 87.8461 146.43 88.8998 146.332 89.9501C145.295 89.6744 144.185 90.2619 143.529 91.1088C142.872 91.9556 142.57 93.0191 142.285 94.0531C141.976 95.1658 141.671 96.2752 141.307 97.5028C140.693 100.237 140.076 102.988 139.012 105.581C138.605 106.575 138.119 107.563 137.348 108.312C136.409 109.221 135.136 109.69 133.931 110.068C125.843 111.952 117.309 111.899 109.245 109.913C108.178 109.651 107.055 109.316 106.304 108.515C105.184 107.235 104.446 105.673 103.724 104.133C103.244 103.116 102.768 102.095 102.289 101.077C101.853 100.145 101.413 99.2096 101.052 98.2446C100.661 97.2008 100.362 96.1242 100.205 95.0213C100.087 94.204 100.044 93.3638 99.7618 92.5891C99.4795 91.8112 98.8985 91.0825 97.986 90.8626C97.2344 90.6066 96.4729 90.3506 95.6818 90.2751C94.8908 90.1996 94.0538 90.3243 93.4006 90.774C92.8655 91.1449 92.4881 91.7029 92.1336 92.3036C91.2966 93.8167 90.7517 95.4678 90.092 97.063C88.7922 100.207 87.0426 103.145 85.2997 106.07C85.0174 106.542 84.7351 107.015 84.3708 107.429C83.6027 108.298 82.5097 108.83 81.3871 109.122C80.2646 109.414 79.0961 109.477 77.9243 109.503C72.0423 110.242 66.0487 110.081 60.321 109.053C57.8165 108.919 55.2071 108.226 53.4641 106.424C51.8656 104.773 51.219 102.449 50.6807 100.273C50.1063 98.9438 50.0472 97.4601 49.9225 96.0192C49.801 94.6242 49.6074 93.2357 49.3481 91.8637C49.2135 91.1547 49.0592 90.4425 48.7408 89.7958C48.1401 88.5781 46.9454 87.6656 45.6849 87.3997C45.3961 86.8811 45.4617 86.2443 45.5372 85.6535C45.6094 85.0791 45.6817 84.5047 45.7572 83.9303C45.8031 83.5561 45.8884 83.1294 46.2167 82.9488C46.5055 82.788 46.8633 82.8865 47.2112 82.7683C49.0986 82.7191 50.9925 82.6666 52.8635 82.4204C53.4313 82.3449 53.9992 82.2497 54.5473 82.0922C54.9937 81.9641 55.4237 81.7935 55.8668 81.6556C57.1601 81.2453 58.5222 81.1009 59.7958 80.9171C66.6231 81.2814 73.5948 80.2376 80.13 81.846C81.8565 82.0232 83.5699 82.3153 85.2603 82.7158C86.5011 83.0112 87.7746 83.3887 88.7232 84.2421C89.2976 84.7476 89.8589 85.4828 90.5679 85.2924Z" fill="black" stroke="black" stroke-miterlimit="10"/>
<path d="M146.764 86.2498C147.207 86.2071 147.651 86.1645 148.097 86.1218C148.491 86.0824 148.921 86.0529 149.256 86.2629C149.709 86.5452 149.82 87.1426 149.866 87.6743C149.945 88.5671 149.955 89.4665 149.896 90.3626C149.876 90.6613 149.784 91.0322 149.492 91.0847C149.236 91.1307 149.019 90.8845 148.931 90.6416C148.842 90.3987 148.816 90.123 148.658 89.9162C148.376 89.5519 147.821 89.5748 147.368 89.6667C147.037 89.7324 146.6 89.7685 146.459 89.4599C146.413 89.3582 146.416 89.24 146.42 89.1284C146.452 88.2783 146.482 87.4314 146.515 86.5813C146.518 86.473 146.525 86.3614 146.577 86.2662C146.633 86.1743 146.748 86.1054 146.764 86.2498Z" fill="white"/>
<path d="M35.7827 85.869C35.891 85.1338 36.0322 84.3296 36.6033 83.8504C37.0858 83.4466 37.7587 83.3777 38.3889 83.3679C40.6406 83.335 42.9251 83.8405 45.1276 83.3679C45.3508 83.3186 45.6232 83.276 45.7775 83.4466C45.9318 83.6173 45.8596 83.8865 45.7906 84.1064C45.5379 84.9237 45.4887 85.8067 45.6462 86.6502C45.6823 86.834 45.725 87.0343 45.6429 87.2049C45.4722 87.5693 44.9438 87.5036 44.5565 87.4052C42.459 86.8669 40.1811 87.0474 38.1953 87.9139C38.0082 87.996 37.8112 88.0846 37.6077 88.0748C37.2795 88.0584 37.0136 87.7925 36.8462 87.5069C36.6788 87.2214 36.5672 86.903 36.3506 86.6502C36.216 86.4927 36.042 86.3647 35.9239 86.194C35.8057 86.0233 35.7499 85.7771 35.7827 85.869Z" fill="white"/>
<path d="M132.828 108.839C134.48 108.73 135.957 107.66 136.912 106.311C137.867 104.959 138.376 103.347 138.789 101.746C139.925 97.3308 140.427 92.6173 139.154 88.2387C138.592 87.2835 137.473 86.906 136.433 86.6205C129.192 84.6346 121.596 84.1259 114.099 84.5559C111.716 84.6937 109.33 84.9235 107.003 85.4454C105.053 85.8819 102.923 86.7189 102.168 88.5669C101.689 89.742 101.882 91.0713 101.994 92.4007C102.234 93.52 102.473 94.6393 102.713 95.7586C103.274 98.3812 103.845 101.037 105.053 103.429C106.261 105.822 108.198 107.966 110.732 108.842C111.874 109.236 113.092 109.361 114.296 109.466C117.037 109.705 119.784 109.856 122.571 109.843C126.057 109.81 129.5 109.052 132.828 108.839Z" fill="#FDE6CD" stroke="black" stroke-miterlimit="10"/>
<path d="M81.3834 107.477C83.3331 106.741 84.7051 104.989 85.7916 103.209C87.9842 99.6054 89.412 95.5419 89.9536 91.3569C90.1111 90.1326 90.1867 88.8492 89.7238 87.7069C89.3759 86.5154 88.1943 85.7178 87.0356 85.1565C82.6963 83.0525 77.7203 82.8162 72.905 82.6192C68.5625 82.3402 64.2626 82.4715 60.0152 83.0033C58.4463 83.2002 56.8642 83.4595 55.4199 84.1029C53.9757 84.7462 52.6693 85.8228 52.0424 87.2769C51.4483 88.6555 51.5205 90.2146 51.5435 91.7344C51.3268 94.7837 51.1233 97.9282 52.0916 100.826C52.3378 101.568 52.6595 102.281 53.0041 102.98C53.2568 103.492 53.5227 104.004 53.9035 104.427C54.34 104.916 54.9079 105.268 55.4757 105.592C56.6508 106.265 57.8718 106.856 59.1027 107.263C63.954 107.913 68.8382 108.307 73.7322 108.448C75.3602 108.494 77.0014 108.514 78.6098 108.231C79.624 108.058 80.6186 107.765 81.3834 107.477Z" fill="#FDE6CD" stroke="black" stroke-miterlimit="10"/>
<path d="M82.5338 88.2824C83.9189 88.6697 85.4025 89.0833 86.768 88.627C87.7682 88.2931 88.5187 87.4478 88.8785 86.461C84.951 81.7015 60.2615 81.3049 54.7077 84.4282C53.8354 85.1691 53.0191 85.9827 52.2442 86.8217C51.5989 88.1347 51.5024 89.2227 51.5432 91.4187C55.1058 88.3904 59.7874 86.6549 64.4808 86.139C70.5433 85.4727 76.6616 86.6445 82.5338 88.2824Z" fill="#17282F"/>
<path d="M106.097 88.46C104.797 88.8144 103.425 89.1296 102.105 88.8473C102.661 86.5797 105.674 85.5688 109.244 84.9739C117.474 83.9823 124.563 83.9954 134.528 86.1637C136.607 86.6197 137.704 86.8847 138.526 87.5134C135.451 88.7823 131.898 87.9247 128.348 87.065C125.2 86.3034 122.006 85.5387 118.77 85.6142C114.427 85.7159 110.285 87.3111 106.097 88.46Z" fill="#17282F"/>
<path d="M107.731 96.6734C107.37 96.273 107.57 95.5935 107.984 95.2423C108.397 94.8911 108.945 94.7664 109.454 94.5826C110.514 94.2018 111.447 93.5453 112.441 93.0136C115.71 91.2707 119.712 90.9523 123.214 92.1635C125.843 93.0727 128.121 94.7598 130.35 96.424C130.435 96.4896 130.53 96.5684 130.537 96.6734C130.55 96.9196 130.179 96.9229 129.936 96.8769C129.014 96.7095 128.147 97.2872 127.327 97.7369C124.76 99.1418 121.73 99.4634 118.806 99.3453C117.555 99.296 116.304 99.168 115.097 98.8365C114.24 98.6002 113.416 98.2654 112.579 97.9732C110.98 97.4185 109.326 97.0246 107.731 96.6734Z" fill="white" stroke="black" stroke-width="0.4" stroke-miterlimit="10"/>
<path d="M109.055 92.4038C110.929 91.081 112.879 89.7254 115.134 89.2987C116.785 88.9869 118.488 89.1969 120.156 89.4103C122.473 89.7057 124.833 90.0142 126.966 90.9694C128.706 91.7506 130.232 92.9388 131.677 94.1796" stroke="#CEAC87" stroke-width="0.4" stroke-miterlimit="10"/>
<path d="M116.826 91.6065C116.373 92.2072 115.907 92.8374 115.773 93.5792C115.569 94.7149 116.203 95.8539 117.04 96.6515C117.982 97.5443 119.354 98.1483 120.581 97.7248C121.671 97.3507 122.357 96.2806 122.833 95.2303C123.079 94.6821 123.296 94.1011 123.289 93.5005C123.283 92.8998 123.017 92.2696 122.495 91.9742C122.196 91.8035 121.845 91.7575 121.504 91.7181C119.951 91.5376 118.392 91.4457 116.826 91.6065Z" fill="#17282F"/>
<path d="M59.6836 97.5882C63.025 93.3474 68.8972 91.273 74.1588 92.4743C76.4827 93.0028 78.6294 94.0991 80.7498 95.1856C81.1469 95.3891 81.5572 95.6024 81.8329 95.9536C82.1087 96.3048 82.2071 96.8366 81.9413 97.1944C80.3263 96.3967 78.4094 97.0466 76.7157 97.6572C73.9323 98.6616 71.0734 99.5511 68.1193 99.7448C65.1717 99.9384 62.0928 99.3771 59.6836 97.5882Z" fill="white" stroke="black" stroke-width="0.4" stroke-miterlimit="10"/>
<path d="M56.7305 95.9151C58.411 93.3943 61.201 91.7826 64.1092 90.9391C67.0174 90.0988 70.0765 89.9478 73.1029 89.8034C75.4465 89.6918 78.1872 89.7541 79.6052 91.6251" stroke="#CEAC87" stroke-width="0.4" stroke-miterlimit="10"/>
<path d="M66.6614 92.8157C65.8704 94.0663 65.8769 95.8978 66.9831 96.8825C67.3442 97.2042 67.7906 97.4143 68.2435 97.5784C69.5007 98.0346 71.0335 98.1167 72.0609 97.26C72.9997 96.4722 73.2426 95.1429 73.3246 93.9185C73.3574 93.4393 73.3574 92.9109 73.0423 92.5498C72.7043 92.1658 72.1331 92.1133 71.6211 92.11C69.9208 92.0968 68.2206 92.2971 66.6614 92.8157Z" fill="#17282F"/>
<path fill-rule="evenodd" clip-rule="evenodd" d="M87.332 147.145C93.5429 147.924 101.985 147.534 107.659 147.145C108.584 147.924 103.467 153.49 97.6441 153.49C91.4777 153.49 87.332 148.703 87.332 147.145Z" fill="#17282F"/>
<path d="M114.176 146.007C114.95 146.569 115.794 147.035 116.683 147.389C116.529 145.797 114.931 144.816 113.532 144.041C110.887 142.571 108.333 140.943 105.885 139.167C104.322 138.035 102.599 136.781 100.679 136.968C99.0277 137.132 97.6097 138.356 95.9521 138.458C93.9203 138.583 91.9542 136.988 89.9913 137.526C89.4235 137.683 88.918 138.008 88.4224 138.33C84.5722 140.828 80.722 143.326 76.793 145.751C77.6562 145.896 78.4112 145.207 79.2285 144.905C80.3117 144.504 81.5425 144.793 82.5765 145.312C83.6104 145.83 84.5229 146.562 85.5405 147.114C90.1751 149.638 95.893 148.066 101.132 148.712C103.003 148.942 104.86 149.467 106.744 149.356C109.502 149.191 111.973 147.698 114.176 146.007Z" fill="#99746C"/>
<path d="M80.543 144.064C82.3384 142.843 84.3341 141.917 86.2871 141.343C89.4743 140.644 92.773 141.691 96.0357 141.651C98.1988 141.625 100.332 141.123 102.495 141.11C107.071 141.08 111.377 143.23 115.231 145.695" stroke="#80564D" stroke-width="0.4" stroke-miterlimit="10"/>
<defs>
<linearGradient id="paint0_linear_714_4171" x1="19.656" y1="287.364" x2="197.849" y2="124.036" gradientUnits="userSpaceOnUse">
<stop stop-color="#D9B430"/>
<stop offset="1" stop-color="#303030" stop-opacity="0"/>
</linearGradient>
</defs>
</svg>
