<svg width="231" height="325" viewBox="0 0 231 325" fill="none" xmlns="http://www.w3.org/2000/svg">
<circle cx="115.606" cy="209.684" r="113.317" fill="url(#paint0_linear_714_4482)" stroke="white" stroke-width="4"/>
<path d="M65.1562 185.489L132.323 183.922L133.036 199.734L75.5554 216.473L65.1562 185.489Z" fill="#5F6FA7"/>
<path fill-rule="evenodd" clip-rule="evenodd" d="M65.7319 172.525C65.6151 179.268 66.608 189.959 68.4955 197.563C67.6725 200.434 71.5803 205.086 70.7572 207.957C69.8412 217.728 78.2586 212.601 83.7472 229.593C88.3766 226.899 92.8003 224.179 95.1269 221.197C90.0844 214.282 99.3458 216.497 105.145 212.299C113.686 208.025 121.573 197.369 129.524 187.175C129.524 183.352 132.233 167.276 132.686 163.266C113.552 166.602 84.8656 169.189 65.7319 172.525Z" fill="#F2DBC1"/>
<path d="M54.3228 206.773L29.8899 232.077L12.9508 250.521L19.8598 263.342C82.4811 309.209 99.6545 336.578 188.597 267.758L190.23 229.02L144.644 202.329L132.507 183.931L93.3683 216.977L65.1722 185.42L54.3228 206.773Z" fill="#7687C1"/>
<path d="M184.82 220.418C177.511 211.283 128.41 198.654 128.41 198.654C118.317 218.357 88.3915 222.139 73.6232 199.992L28.6154 209.673L25.0072 273.997C41.8357 297.664 63.8695 310.902 87.5882 317.119C116.72 324.934 152.273 320.799 182.774 298.19L184.82 220.418Z" fill="#7687C1"/>
<path d="M183.585 219.018C191.463 223.955 198.753 232.959 200.864 245.222C201.008 246.06 205.931 271.16 206.188 273.74C198.55 286.083 180 304.526 155.427 313.43C156.903 295.74 158.758 260.864 162.117 250.209C169.011 228.334 177.371 215.126 183.585 219.018Z" fill="#7687C1"/>
<path d="M28.6024 209.467C40.308 210.14 32.7887 221.251 36.1442 232.594C38.5849 240.838 67.0774 316.588 42.3594 293.447C17.6414 270.305 10.3745 249.389 6.0729 228.234C1.77131 207.08 28.6024 209.467 28.6024 209.467Z" fill="#7687C1"/>
<path d="M154.612 258.084C155.099 255.724 155.407 254.431 155.492 254.448C155.576 254.466 155.427 255.795 155.088 258.174C154.698 260.544 154.314 264 153.924 268.269C153.638 272.55 153.33 277.655 153.55 283.326C153.713 288.997 154.221 295.219 154.974 301.737C155.225 303.798 156.586 308.004 156.827 309.998L154.262 310.995C153.988 308.784 154.024 304.185 153.743 301.883C152.99 295.342 152.512 289.068 152.411 283.351C152.253 277.628 152.651 272.481 153.051 268.18C153.558 263.89 154.076 260.434 154.612 258.084Z" fill="#17282F"/>
<path d="M39.1915 246.556C39.3805 245.204 39.5207 244.46 39.5971 244.466C39.6756 244.471 39.6777 245.226 39.6204 246.585C39.5355 248.139 39.4293 250.06 39.3062 252.335C38.9728 257.399 38.5418 263.998 38.0641 271.296C37.7037 276.245 37.294 280.879 36.8692 284.852L35.9874 283.926C36.2954 280.151 36.624 275.83 36.96 271.236C37.5014 263.837 38.0301 257.133 38.527 252.288C38.7754 249.867 38.9983 247.907 39.1915 246.556Z" fill="#17282F"/>
<path d="M152.416 283.269C152.509 288.989 152.992 295.267 153.763 301.81C154.032 303.965 154.855 308.557 155.119 310.633C151.7 311.987 148.21 312.913 145.93 313.625C144.779 306.11 144.317 301.495 144.705 288.405C145.222 270.965 149.69 262.974 155.415 254.955L155.553 254.64C155.396 255.148 155.127 256.292 154.759 257.98C154.197 260.333 153.651 263.792 153.113 268.086C152.688 272.391 152.263 277.542 152.416 283.269Z" fill="#5F6FA7"/>
<path d="M57.7263 211.046C57.575 211.235 59.6666 213.439 63.0271 216.996C66.3861 220.557 70.9919 225.504 75.8671 231.183C76.8933 232.392 77.8973 233.576 78.8682 234.719L79.5161 235.48L80.0977 234.678C83.8743 229.449 87.1403 224.803 89.4227 221.431C91.7067 218.057 93.0055 215.959 92.8463 215.825C92.6886 215.69 91.1014 217.544 88.5952 220.727C86.0906 223.909 82.667 228.422 78.8367 233.607L80.0646 233.566C79.0937 232.409 78.088 231.212 77.0619 229.988C72.1519 224.269 67.3839 219.426 63.809 216.083C60.2294 212.742 57.8682 210.868 57.7263 211.046Z" fill="#17282F"/>
<path d="M94.4024 214.18C94.192 214.277 95.6193 217.881 98.0968 223.632C98.7424 225.112 99.4237 226.678 100.142 228.326C100.963 230.03 101.503 231.76 102.717 233.759C103.301 234.72 104.702 235.723 106.168 235.428C107.563 235.173 108.497 234.359 109.413 233.77C111.282 232.494 113.206 231.179 115.177 229.83C123.068 224.411 130.155 219.427 135.238 215.752C140.323 212.076 143.4 209.709 143.269 209.519C143.138 209.33 139.823 211.355 134.568 214.782C129.312 218.21 122.119 223.039 114.229 228.459C112.263 229.817 110.347 231.141 108.484 232.427C107.542 233.077 106.688 233.73 105.908 233.859C105.155 234.004 104.503 233.609 103.971 232.871C102.116 229.503 100.568 225.87 99.1713 223.142C96.4187 217.516 94.6127 214.085 94.4024 214.18Z" fill="#17282F"/>
<path d="M88.2867 313.777C88.3579 313.777 88.4331 313.442 88.5104 312.801C88.5694 312.108 88.6467 311.175 88.7443 310.002C88.9193 307.513 89.1633 304.01 89.4643 299.707C90.1863 290.964 91.1768 278.981 92.271 265.743C93.3408 252.474 93.9774 240.459 93.9225 231.762C93.9306 227.413 93.7659 223.893 93.5666 221.462C93.4445 220.289 93.3469 219.356 93.2757 218.662C93.1842 218.023 93.1028 217.687 93.0296 217.687C92.9564 217.687 92.8974 218.024 92.8507 218.664C92.8262 219.357 92.7917 220.29 92.749 221.464C92.6737 223.953 92.5679 227.455 92.4357 231.759C92.1124 240.453 91.2399 252.462 90.1701 265.73C89.1023 278.993 88.2196 291.003 87.9776 299.701C87.8332 304.049 87.8433 307.568 87.9267 310.001C87.9938 311.174 88.0467 312.107 88.0874 312.801C88.1464 313.442 88.2135 313.777 88.2867 313.777Z" fill="#17282F"/>
<path d="M146.769 94.7434C146.444 94.2764 146.513 93.621 146.788 93.1233C147.062 92.6256 147.509 92.2487 147.947 91.8841C149.709 90.4115 151.632 88.8733 153.922 88.6951C154.979 88.6132 156.212 88.9634 156.619 89.9404C157.141 91.1918 156.021 92.5293 156.005 93.8852C155.999 94.4423 156.181 94.981 156.32 95.5196C157.002 98.1475 156.668 101.025 155.398 103.424C154.741 104.667 153.852 105.773 153.125 106.979C150.524 111.297 150.176 116.559 149.895 121.417C150.032 123.727 150.577 126.048 150.221 128.334C149.864 130.622 148.234 132.958 145.924 133.108C145.704 133.122 145.469 133.112 145.291 132.983C145.067 132.823 144.994 132.53 144.94 132.26C143.869 126.988 143.628 121.548 144.228 116.2C145.039 108.972 147.378 101.818 146.769 94.7434Z" fill="#F2DBC1" stroke="black" stroke-width="0.4" stroke-miterlimit="10"/>
<path d="M151.097 106.995C151.779 103.732 149.747 100.16 151.093 97.1122C151.459 96.2807 152.051 95.572 152.635 94.8756C153.45 93.9048 154.265 92.934 155.081 91.9631C155.349 91.6436 155.683 91.2954 156.097 91.3261C155.732 92.1905 155.542 93.1285 155.544 94.0686C155.548 95.8895 156.258 97.7083 155.912 99.4943C155.662 100.789 154.882 101.911 154.122 102.988C153.153 104.365 152.182 105.739 151.214 107.116C151.031 107.077 150.951 106.808 151.097 106.995Z" fill="#CEAC87"/>
<path d="M38.4282 99.3204C37.8383 97.6491 36.3739 96.4345 34.8255 95.5722C33.9304 95.0745 32.9677 94.6566 31.9457 94.5727C30.9257 94.4887 29.8381 94.7775 29.1294 95.5169C28.9943 95.6582 28.8714 95.8221 28.8427 96.0146C28.8181 96.1764 28.8652 96.3382 28.9082 96.4959C29.9119 100.054 30.5202 103.722 30.7188 107.415C30.7823 108.595 30.811 109.811 31.2923 110.891C31.8351 112.109 32.9165 113.058 33.3057 114.334C33.5699 115.196 33.488 116.124 33.615 117.017C33.8567 118.711 34.85 120.29 34.678 122.082C34.8705 125.359 35.741 128.552 36.6074 131.719C36.9515 132.98 37.3181 134.283 38.1538 135.289C38.8706 136.151 39.9111 136.737 41.0192 136.903C41.2138 136.931 41.4206 136.946 41.6009 136.866C42.1068 136.64 42.0515 135.917 41.9163 135.381C40.2695 128.767 39.5547 121.922 39.7452 115.085C39.44 112.402 39.692 109.692 39.7227 106.995C39.7534 104.295 39.2475 101.645 38.4282 99.3204Z" fill="#F2DBC1" stroke="black" stroke-width="0.4" stroke-miterlimit="10"/>
<path d="M29.1797 96.6689C30.1464 96.6341 30.8285 97.5681 31.3262 98.3976C32.0717 99.6367 32.8173 100.878 33.5608 102.117C33.8475 102.594 34.1363 103.078 34.3002 103.61C34.5214 104.331 34.4968 105.103 34.4353 105.857C34.3288 107.164 34.1117 108.46 33.8967 109.753C33.7144 110.849 33.5321 111.944 33.3498 113.038C32.5592 112.282 31.7522 111.5 31.2914 110.509C30.6544 109.134 30.765 107.551 30.6564 106.039C30.5766 104.919 30.3697 103.813 30.1628 102.709C29.7819 100.663 29.3988 98.6167 29.1797 96.6689Z" fill="#CEAC87"/>
<path d="M147.148 93.7584C146.403 91.8495 147.648 89.8136 148.598 87.9989C150.036 85.2564 150.882 82.2415 151.488 79.206C152.873 72.275 153.057 65.1043 152.031 58.1117C153.32 54.2161 153.008 50.2098 151.542 46.6706C150.62 44.4483 149.272 42.4329 148.138 40.3109C146.853 37.9084 145.844 35.3625 145.131 32.7326C144.465 30.281 144.015 27.6593 142.442 25.6643C141.137 24.0094 139.216 22.9915 137.448 21.8424C135.795 20.7692 134.243 19.5505 132.692 18.3339C128.942 15.3906 125.192 12.4494 121.441 9.50618C118.3 7.59317 115.584 5.21318 112.499 3.38414C109.415 1.55511 105.84 0.283191 102.279 0.701022C100.843 0.868973 99.4398 1.30933 97.9959 1.37078C96.1791 1.44861 94.3993 0.932466 92.6194 0.571985C88.3059 -0.302592 83.7343 -0.25139 79.6052 1.26632C77.3112 2.10812 75.1995 3.38005 72.9732 4.38776C70.7468 5.39547 68.3094 6.1492 65.8823 5.85836C61.3108 6.42571 56.4566 7.13233 52.8026 9.98751C51.7191 10.8355 50.7769 11.8452 49.8389 12.8529C48.8148 13.9528 47.7907 15.0527 46.7666 16.1546C44.3579 18.7435 41.9165 21.3734 40.2902 24.5112C38.9548 27.0858 38.1888 29.9594 36.54 32.3455C35.4893 33.8653 34.1129 35.1372 33.0847 36.6713C32.0565 38.2054 31.3929 40.1594 32.0074 41.9024C32.2736 45.5174 30.6842 48.9543 30.1988 52.5181C29.6028 56.8828 30.674 61.2885 30.7928 65.6941C30.8686 68.4694 30.5654 71.2468 30.6986 74.02C30.8747 77.6781 31.8087 81.2604 32.1139 84.9082C32.3474 87.6835 32.2716 90.6697 33.8343 92.976C34.9301 94.592 36.7612 95.737 37.3408 97.8302C42.8955 99.4073 48.8045 98.4692 54.5415 97.8179C62.7855 96.8839 71.1011 96.5706 79.3922 96.886C90.8313 97.3202 102.207 98.9424 113.65 99.2619C125.093 99.5814 136.811 98.5164 147.148 93.7584Z" fill="#17282F"/>
<path d="M112.199 184.55C115.038 182.52 117.824 180.386 120.226 177.856C123.538 174.366 126.049 170.202 128.372 165.987C137.298 149.79 143.909 132.055 145.417 113.621C145.64 110.891 145.751 108.146 145.579 105.414C146.865 98.9131 143.917 92.4982 144.087 86.0874C144.176 82.8102 145.077 79.4881 144.319 76.2991C142.963 70.5928 136.767 67.072 135.245 61.4067C134.371 58.148 135.2 54.6722 136.427 51.5303C135.006 47.0223 131.438 43.4605 127.286 41.2382C123.134 39.0159 118.428 38.0225 113.742 37.5658C108.244 37.0312 102.276 37.3343 97.8455 40.636C91.404 44.4907 84.4668 48.3372 77.0011 48.0115C73.5048 47.8579 70.109 46.7826 66.6209 46.5061C60.8655 46.0473 54.9606 47.8661 50.4607 51.4832C49.0638 52.6056 47.7673 53.9431 47.1221 55.6124C46.266 57.8265 46.6572 60.2945 46.6613 62.6684C46.6674 65.2266 46.1759 67.8544 44.7831 70.0009C43.4313 72.0839 41.3114 73.6016 40.0661 75.7502C38.5566 79.4328 39.0011 83.5537 39.4865 87.4617C40.2361 93.5182 41.0165 99.5849 41.1312 105.686C41.1967 109.107 41.0513 112.529 41.0984 115.952C41.252 127.098 43.587 138.517 50.1432 148.082C55.7409 159.644 63.8251 169.995 73.6851 178.231C75.3667 179.636 77.1035 180.982 78.9551 182.156C86.1565 186.723 95.0743 188.507 103.48 187.063C106.7 186.512 110.124 186.035 112.199 184.55Z" fill="#F2DBC1"/>
<path d="M89.3456 120.366C88.7803 119.677 87.9262 119.233 87.0373 119.165C86.1484 119.098 85.237 119.409 84.5754 120.005C84.4525 120.116 84.3358 120.239 84.2662 120.388C84.1494 120.64 84.1801 120.939 84.2846 121.195C84.4833 121.687 84.9297 122.047 85.4213 122.242C85.9129 122.436 86.4515 122.483 86.982 122.492C87.8771 122.504 88.9237 122.311 89.3293 121.513C89.5546 121.07 89.4808 120.531 89.3456 120.366Z" fill="#17282F"/>
<path d="M98.0156 120.903C98.2553 120.294 98.5133 119.657 99.0151 119.24C99.7894 118.592 100.91 118.637 101.917 118.715C102.253 118.742 102.599 118.771 102.905 118.914C103.419 119.158 103.73 119.682 104.009 120.178C104.15 120.428 104.295 120.727 104.179 120.991C104.064 121.249 103.755 121.347 103.478 121.415C101.991 121.781 100.322 122.123 99.0069 121.339C98.7161 121.165 98.4232 120.929 98.0156 120.903Z" fill="#17282F"/>
<path d="M81.6101 111.713C80.4365 113.863 79.4902 116.205 79.394 118.654C79.2977 121.102 80.16 123.683 82.0709 125.215C83.9839 126.747 87.0071 126.935 88.8279 125.294C89.3399 124.834 89.7414 124.256 90.2862 123.834C90.831 123.412 91.6011 123.168 92.2074 123.494C92.574 123.691 92.8157 124.057 93.1434 124.311C93.7948 124.813 94.8004 124.782 95.421 124.242C96.0928 123.658 96.5496 122.499 97.7621 122.603C99.2982 123.383 100.922 123.992 102.594 124.414C103.679 124.688 104.828 124.881 105.914 124.6C108.091 124.037 109.404 121.643 109.402 119.394C109.4 117.145 108.372 115.031 107.241 113.085C106.317 111.496 105.312 109.956 104.228 108.473" stroke="#CEAC87" stroke-miterlimit="10"/>
<path d="M138.726 83.2196C138.522 81.8187 137.7 80.5754 136.721 79.5513C135.742 78.5272 134.599 77.6772 133.557 76.7166C132.764 75.9854 132.033 75.1928 131.246 74.4534C129.479 72.7923 127.455 71.4323 125.44 70.0805C124.297 69.5664 123.068 69.5029 121.886 69.4968C115.979 69.464 110.068 70.6089 104.602 72.8435C103.575 73.2634 102.537 73.7406 101.779 74.5497C100.382 76.0407 100.253 78.2815 100.184 80.1003C100.573 81.196 100.319 82.726 101.355 83.2545C101.98 83.5719 102.729 83.2954 103.369 83.0087C108.442 80.7249 113.261 77.796 118.597 76.2189C119.975 75.8113 121.44 75.4939 122.845 75.8093C123.963 76.0592 124.954 76.69 125.917 77.3106C129.397 79.5472 132.877 81.7839 136.357 84.0184C136.842 84.3298 137.385 84.6554 137.956 84.5674C138.526 84.4752 138.806 83.7747 138.726 83.2196Z" fill="#17282F"/>
<path d="M48.6147 87.6491C50.2942 85.3367 52.0598 83.055 54.2329 81.1993C56.4061 79.3437 59.0359 77.9243 61.8747 77.5925C65.3566 77.1849 68.814 78.4261 71.9948 79.9008C75.1756 81.3755 78.2868 83.1205 81.7196 83.8292C82.7212 84.0361 83.7453 84.1508 84.8984 83.9664C85.5682 83.9132 86.0884 83.2987 86.2399 82.6453C86.3936 81.992 86.2563 81.3079 86.0904 80.6565C85.6992 79.1163 85.1442 77.617 84.4396 76.1915C83.9951 75.2923 83.4606 74.3911 82.6249 73.834C81.8732 73.3322 80.9536 73.1622 80.0606 73.023C74.1577 72.0931 68.1647 71.9436 62.1922 71.7961C61.0247 71.7674 59.8449 71.7387 58.7 71.9784C57.4547 72.2385 56.2913 72.8059 55.2078 73.4736C53.1269 74.7537 51.2753 76.4373 49.944 78.4855C48.6127 80.5378 47.8344 82.9055 47.3408 85.2998C47.2343 85.82 47.1421 86.3771 47.3346 86.8728C47.5271 87.3685 48.1232 87.7474 48.6147 87.6491Z" fill="#17282F"/>
<path d="M112.853 145.346C112.82 144.721 112.306 144.242 111.827 143.838C108.388 140.954 104.723 138.341 100.877 136.031C100.097 135.375 99.0295 135.14 98.1324 135.455C97.2824 135.752 96.6372 136.475 95.7995 136.805C93.9868 137.518 92.0226 136.215 90.0748 136.182C87.4019 136.137 85.3373 138.413 83.6619 140.494C81.9005 142.681 80.1411 144.869 78.4062 147.371C80.6552 149.102 82.9512 150.773 85.2923 152.377C87.1664 153.663 89.1244 154.931 91.3406 155.431C92.7272 155.744 94.163 155.742 95.5844 155.708C99.3695 155.615 103.445 155.175 106.268 152.654C108.117 151.001 109.211 148.623 111.099 147.015C111.732 146.476 112.445 146.03 112.853 145.346Z" fill="#99746C"/>
<path d="M86.408 145.385C86.8914 144.14 88.0588 143.259 89.3123 142.802C90.5679 142.346 91.9217 142.254 93.2551 142.168C96.735 141.94 100.473 141.772 103.435 143.612C103.795 143.835 104.174 144.298 103.902 144.623C103.793 144.752 103.617 144.797 103.451 144.834C102.341 145.088 101.229 145.377 100.196 145.858C99.0863 146.379 98.0622 147.124 96.864 147.392C95.7047 147.653 94.4963 147.438 93.3268 147.222C91.5305 146.893 89.7322 146.563 87.9359 146.231C87.2396 146.104 86.2687 145.742 86.408 145.385Z" fill="#5B372F"/>
<path d="M79.2383 147.107C80.3197 147.26 81.4012 146.892 82.415 146.484C84.2215 145.755 85.9727 144.884 87.6441 143.883" stroke="#5B372F" stroke-miterlimit="10"/>
<path d="M103.77 144.09C106.465 144.123 108.973 145.981 111.65 146.296" stroke="#5B372F" stroke-miterlimit="10"/>
<path d="M120.018 156.348C120.006 149.911 118.839 143.477 116.588 137.447C116.571 136.638 116.022 135.84 115.34 135.317C114.658 134.795 113.841 134.484 113.079 134.088C110.492 132.749 108.54 130.481 106.408 128.497C104.276 126.512 101.699 124.697 98.7867 124.652C97.5496 124.824 96.8901 126.002 95.9562 126.688C95.1942 127.247 94.1968 127.477 93.2669 127.309C92.1547 127.108 91.1818 126.377 90.0594 126.25C88.7076 126.096 87.4295 126.84 86.2908 127.585C82.5508 130.037 79.0422 132.841 75.8245 135.946C74.5178 137.206 73.2417 138.541 72.4122 140.157C71.339 142.248 71.0912 144.653 70.8618 146.992C70.5648 150.017 70.2678 153.044 69.9688 156.088C70.108 156.786 70.2473 157.483 70.3886 158.181C70.8454 158.044 71.1669 157.638 71.4209 157.235C73.8869 153.313 72.8116 147.658 75.9802 144.276C77.3955 142.767 79.417 142.011 81.1047 140.815C82.6245 139.737 83.8677 138.308 85.3936 137.241C87.7859 135.567 90.8418 134.873 93.7523 135.311C95.1533 135.801 96.6321 134.949 98.0965 134.709C100.669 134.287 103.156 135.786 105.155 137.464C107.152 139.141 109.032 141.112 111.586 141.847C114.982 145.808 117.472 150.543 118.812 155.586C118.914 155.967 119.045 156.399 119.404 156.567C119.76 156.731 120.289 156.301 120.018 156.348Z" fill="#17282F"/>
<path d="M37.4086 97.8021C39.2991 101.077 38.914 105.12 38.7768 108.899C38.447 117.946 39.8664 126.96 41.4497 135.872C42.1133 139.604 42.8138 143.356 44.1758 146.893C46.3776 152.608 50.2077 157.517 53.4541 162.711C56.7558 167.994 59.5229 173.677 63.863 178.351C65.9624 180.516 68.0618 182.681 70.1612 184.848C72.1418 186.89 74.147 188.955 76.5495 190.479C79.0974 192.097 82.0018 193.049 84.8917 193.926C87.9005 194.839 90.9421 195.687 94.0574 196.115C101.865 197.188 110.232 195.392 116.403 190.495C118.527 189.037 120.182 187.007 121.804 185.004C125.206 180.805 128.627 176.58 131.267 171.863C133.569 167.748 135.249 163.318 136.631 158.689C143.951 146.76 146.057 132.449 147.826 118.567C148.211 115.548 148.588 112.516 148.535 109.475C148.439 103.779 146.841 98.1585 146.847 92.3867C144.803 93.7918 144.695 96.7248 144.883 99.1969C145.205 103.416 145.774 107.646 145.424 111.861C145.074 116.078 143.691 120.377 140.666 123.335C137.151 126.772 131.879 128.003 128.512 131.585C126.347 133.887 125.186 136.945 124.317 139.985C123.248 143.723 122.539 147.565 121.962 151.651C121.587 154.996 121.198 158.396 119.883 161.493C118.568 164.589 116.168 167.4 112.95 168.389C107.332 170.118 101.517 165.96 95.6447 166.248C92.2222 166.416 89.0352 168.09 85.6311 168.481C80.5742 169.061 75.4599 166.652 72.025 162.894C68.5902 159.137 66.6895 154.181 65.8313 149.165C65.3787 146.524 65.1923 143.827 64.4631 141.25C62.7263 135.114 58.0933 130.229 53.1469 126.206C48.7719 122.649 43.7375 119.159 42.0928 113.766C40.4502 108.379 42.6028 102.144 40.0241 97.1385C39.6944 96.4995 39.1332 95.8154 38.4204 95.9096C37.3328 96.055 37.3 97.6137 37.4086 97.8021Z" fill="#17282F"/>
<path d="M71.459 107.93C74.1155 107.87 76.7658 107.565 79.367 107.018C80.9237 106.691 82.509 106.256 83.7747 105.292C86.972 100.587 89.3192 95.2822 90.671 89.7336C90.9762 89.0721 91.564 88.6276 92.1866 88.4556C92.8093 88.2835 93.4688 88.3347 94.1119 88.3961C95.4064 88.5211 96.8524 88.7689 97.6061 89.8278C97.9564 90.3194 98.1039 90.9216 98.2513 91.5073C99.4659 96.3288 101.195 101.085 104.015 105.181C105.004 106.246 106.329 106.934 107.71 107.344C109.09 107.754 110.532 107.905 111.964 108.032C118.999 108.659 126.219 108.759 132.985 106.719C134.672 106.019 135.831 104.47 136.544 102.83C136.989 101.81 137.292 100.734 137.595 99.6632C138.285 97.2197 138.978 94.764 139.254 92.2406C139.565 90.8355 139.86 89.4653 140.747 88.476C141.157 88.0213 141.679 87.6691 142.255 87.4601C142.689 87.3024 143.213 87.1754 143.387 86.7474C143.449 86.5978 143.455 86.4319 143.457 86.2701C143.475 85.3976 143.449 84.523 143.379 83.6525C142.787 83.0913 141.818 82.9992 140.917 82.9152C139.023 82.735 137.136 82.4625 135.268 82.1C132.487 81.5593 129.734 80.8138 126.91 80.5741C122.004 80.0272 116.988 80.0027 112.042 80.5741C110.719 80.697 109.295 80.8445 107.872 80.992C106.6 81.123 105.328 81.2562 104.068 81.4815C103.329 81.6146 102.587 81.7826 101.911 82.1082C100.877 82.6039 100.009 83.4559 98.8986 83.7488C96.5268 84.6316 93.8662 84.6848 91.4493 83.9311C88.9608 83.1569 86.7712 81.5716 84.252 80.9018C83.1972 80.4779 82.0153 80.1542 80.811 79.9822C79.9118 79.8532 79.0024 79.8102 78.0951 79.7671C73.159 79.5296 68.2228 79.294 63.2826 79.1875C59.856 79.2244 56.4007 79.6975 53.097 80.6806C50.9751 81.4221 48.6647 81.3668 46.4281 81.6535C46.1249 81.6924 45.8013 81.7477 45.5781 81.9566C45.3302 82.1881 45.2667 82.5527 45.2319 82.8886C45.1336 83.8205 45.1418 84.7627 45.2586 85.6495C45.5207 86.0059 46.0573 85.9527 46.4772 86.0878C46.7681 86.1821 47.0138 86.3746 47.2514 86.563C47.6283 86.86 48.0154 87.1693 48.2387 87.6219C48.6852 88.3429 48.804 89.2113 48.9084 90.0531C49.4164 94.1229 49.8465 98.2684 51.4154 102.058C51.698 102.738 52.0483 103.442 52.6955 103.876C53.5517 104.788 54.6085 105.509 55.7678 105.974C56.9045 106.428 58.1232 106.635 59.3316 106.84C63.3338 107.516 67.3831 108.02 71.459 107.93Z" fill="black"/>
<path d="M36.8697 86.7C36.2716 86.4132 35.7288 85.977 35.4114 85.3932C35.0939 84.8095 35.0304 84.0721 35.3335 83.4823C35.6121 82.9395 36.1569 82.5811 36.7202 82.3496C39.3009 81.2887 42.2789 82.4582 45.0194 81.9338C45.1218 81.9134 45.2304 81.8929 45.3246 81.9379C45.4598 82.0014 45.5028 82.1673 45.5294 82.3148C45.6728 83.1095 45.7383 83.9206 45.724 84.7276C45.7178 85.0491 45.6728 85.4219 45.3983 85.5919C45.1853 85.723 44.915 85.68 44.6692 85.639C42.0577 85.2048 39.3111 85.6042 36.8697 86.7Z" fill="white"/>
<path d="M100.401 92.1974C100.155 90.9521 100.028 89.6843 100.02 88.4165C100.016 87.6914 100.053 86.9541 100.286 86.2679C100.62 85.2848 101.341 84.4655 102.205 83.8879C103.068 83.3124 104.065 82.9642 105.058 82.6897C107.027 82.2801 109.042 82.1634 111.051 82.0446C112.581 81.9544 114.111 81.8664 115.639 81.7762C117.505 81.6677 119.373 81.5591 121.241 81.7455C125.624 81.5981 130.032 82.2432 134.19 83.638C135.306 84.0129 136.549 84.6007 136.807 85.7641C137.096 87.5439 137.194 89.3484 137.293 91.1488C137.338 91.9824 137.383 92.818 137.354 93.6537C137.295 95.368 136.926 97.0557 136.502 98.7189C136.062 100.441 135.54 102.191 134.464 103.604C133.979 104.243 133.364 104.816 132.592 105.119C125.778 107.311 118.425 107.092 111.318 106.244C109.147 105.984 106.812 105.586 105.302 104.056C104.227 103.086 103.528 101.771 102.941 100.445C102.562 99.5873 102.22 98.7148 101.878 97.8422C101.159 96.0112 100.776 94.092 100.401 92.1974Z" fill="#F2DBC1"/>
<path d="M127.889 93.5077C126.038 91.5743 123.934 89.7923 121.427 88.8522C117.882 87.5229 113.689 88.0841 110.619 90.3003C109.306 91.2486 108.165 92.4878 106.662 93.092C106.258 93.2538 105.82 93.3767 105.511 93.6818C105.202 93.987 105.099 94.5585 105.531 94.9579C108.552 95.1094 111.561 95.5375 114.506 96.2359C117.128 96.8586 119.848 97.6963 122.466 97.0491C124.561 96.5268 126.314 95.1053 127.889 93.5077Z" fill="white" stroke="black" stroke-width="0.4" stroke-miterlimit="10"/>
<path d="M117.653 89.2566C116.663 89.0538 115.598 89.4901 114.941 90.2582C114.283 91.0262 114.013 92.081 114.097 93.0888C114.238 94.8051 115.533 96.456 117.237 96.6915C118.611 96.882 120.049 96.1078 120.711 94.8871C121.372 93.6663 121.259 92.0872 120.497 90.9279C119.826 89.9059 118.675 89.2115 117.653 89.2566Z" fill="#17282F"/>
<path d="M107.762 88.9516C108.962 86.7621 111.219 85.2629 113.644 84.6709C116.069 84.079 118.644 84.3289 121.036 85.0396C121.786 85.2629 122.523 85.5291 123.223 85.8753C126.06 87.2762 128.106 89.8488 130.056 92.3393C130.146 92.454 130.239 92.6097 130.163 92.7326C130.05 92.9149 129.769 92.7715 129.618 92.62C128.014 90.9998 126.466 89.3224 124.831 87.735C124.149 87.0714 123.439 86.4139 122.58 86.0023C121.857 85.6541 121.059 85.4923 120.266 85.3612C117.202 84.8491 113.757 84.8 111.336 86.7457C110.574 87.3582 109.959 88.1365 109.234 88.7939C109.009 88.9967 108.759 89.1954 108.46 89.2445C108.161 89.2937 107.811 89.1298 107.762 88.9516Z" fill="#CEAC87"/>
<path d="M55.0413 104.004C58.1279 105.485 61.6098 105.879 65.0201 106.149C70.7284 106.602 76.6579 106.741 81.9729 104.605C85.2009 101.774 86.8783 97.4482 87.8184 93.1797C88.3284 90.8653 88.6603 88.4525 88.1769 86.1319C87.8737 85.1324 87.1753 84.3623 86.3601 83.799C85.545 83.2358 84.6151 82.8651 83.679 82.5415C81.1393 81.6669 78.4848 81.12 75.8058 80.9213C71.3367 80.3786 66.7549 80.3233 62.2181 80.737C60.0348 80.7718 57.9517 81.0627 55.9281 81.587C54.7607 81.8901 53.5707 82.2916 52.6941 83.1211C51.8932 83.8789 51.4262 84.9337 51.1927 86.0111C50.9592 87.0884 50.9469 88.1986 50.9347 89.3005C50.9224 90.4004 50.9101 91.5002 50.9244 92.5673C50.9408 94.9924 51.3402 97.4154 52.098 99.7176C52.6674 101.444 53.5461 103.288 55.0413 104.004Z" fill="#F2DBC1"/>
<path d="M58.9766 94.5603C60.1932 91.3897 63.6342 89.4624 67.0239 89.2535C70.4137 89.0445 73.7358 90.2857 76.718 91.9059C77.6499 92.4118 78.5777 92.9648 79.61 93.2085C79.9213 93.2822 80.247 93.3294 80.5133 93.5055C80.7795 93.6816 80.9639 94.0339 80.8308 94.3248C80.6976 94.6115 80.3371 94.6975 80.0258 94.7569C77.5106 95.2403 75.1347 96.2521 72.7138 97.0898C70.2928 97.9275 67.749 98.6034 65.199 98.374C62.651 98.1467 60.0744 96.8645 58.9766 94.5603Z" fill="white" stroke="black" stroke-width="0.4" stroke-miterlimit="10"/>
<path d="M68.121 90.0358C67.2301 90.1724 66.2879 90.513 65.8803 91.3487C65.4727 92.1844 65.4829 93.1634 65.6222 94.081C65.7082 94.6422 65.8413 95.2054 66.1363 95.6888C66.5562 96.3749 67.2812 96.8481 68.0657 97.0263C68.8501 97.2045 69.6817 97.1062 70.4334 96.8194C70.7918 96.6822 71.1379 96.5019 71.4247 96.2459C72.3259 95.4471 72.4836 94.0953 72.3546 92.8971C72.3013 92.4158 72.2092 91.9263 71.9634 91.5064C71.4226 90.5827 71.3944 90.5365 70.3641 90.2436C69.9053 90.1187 68.9396 89.9587 68.121 90.0358Z" fill="#17282F"/>
<path d="M57.2505 93.4741C57.5393 91.6922 58.3729 90.0045 59.612 88.6936C61.2137 86.9998 63.4155 85.9818 65.6624 85.3674C66.8339 85.0478 68.0383 84.8246 69.2529 84.7959C72.9908 84.7079 76.7185 86.5922 78.865 89.6522C77.036 89.5948 75.6575 88.0546 74.0804 87.1227C72.6692 86.2891 71.0225 85.9286 69.3921 85.7688C67.8601 85.6193 66.2953 85.6357 64.8021 86.0105C61.2219 86.9076 58.2868 89.9922 57.57 93.6113C57.3611 93.6134 57.1665 93.4229 57.2505 93.4741Z" fill="#CEAC87"/>
<path d="M84.8944 83.9647C83.7413 84.1491 82.7172 84.0344 81.7157 83.8275C78.8751 83.2411 76.2547 81.945 73.6328 80.6797C78.7612 81.0551 83.2485 81.981 85.8329 83.448C85.5909 83.7333 85.2656 83.9352 84.8944 83.9647Z" fill="#17282F"/>
<defs>
<linearGradient id="paint0_linear_714_4482" x1="19.0487" y1="287.757" x2="197.633" y2="124.07" gradientUnits="userSpaceOnUse">
<stop stop-color="#D9B430"/>
<stop offset="1" stop-color="#303030" stop-opacity="0"/>
</linearGradient>
</defs>
</svg>
