<svg width="391" height="349" viewBox="0 0 391 349" fill="none" xmlns="http://www.w3.org/2000/svg">
<circle cx="153.722" cy="221.827" r="97.1393" fill="url(#paint0_linear_765_1561)" stroke="white" stroke-width="4"/>
<path d="M279.239 142.07L288.092 144.633C288.993 161.535 295.122 167.927 294.573 174.15L293.84 174.675L279.239 142.07Z" fill="#5F6FA7"/>
<path d="M180.894 161.448L196.896 192.009C196.896 192.009 210.46 244.423 221.426 289.69C188.148 322.543 130.976 330.649 87.4598 290.97C73.4691 260.736 49.6819 205.542 52.2405 203.354C55.8123 200.298 82.8193 178.265 82.8193 178.265L87.3725 163.036L136.297 155.853L144.077 163.881C144.077 163.881 153.824 163.806 162.07 163.026C170.317 162.247 180.894 161.448 180.894 161.448Z" fill="#7687C1"/>
<path d="M170.334 278.213C174.036 290.16 178.418 299.914 181.233 310.382C181.353 310.845 181.473 311.305 181.593 311.764L182.414 311.532C182.298 311.078 182.181 310.622 182.063 310.164C179.292 299.674 176.054 290.494 170.309 277.189C166.553 265.237 164.737 252.977 160.906 242.817C156.986 232.69 153.27 223.638 149.743 216.215C148.876 214.355 148.049 212.583 147.266 210.904C146.426 209.258 145.633 207.703 144.889 206.246C143.413 203.335 142.132 200.833 140.956 198.855C139.838 196.912 138.957 195.377 138.319 194.267L137.612 193.086C137.449 192.822 137.358 192.691 137.344 192.699C137.33 192.707 137.393 192.855 137.53 193.133C137.695 193.457 137.901 193.86 138.155 194.358L140.636 199.025C141.76 201.026 142.992 203.549 144.423 206.477C145.144 207.94 145.914 209.502 146.73 211.156C147.492 212.841 148.298 214.619 149.142 216.485C152.585 223.929 156.232 232.99 160.101 243.116C163.881 253.276 166.583 266.276 170.334 278.213Z" fill="#0F191D"/>
<path d="M137.25 192.857C137.225 192.91 136.648 192.684 135.565 192.304C134.337 191.879 132.781 191.34 130.894 190.689C128.889 190.006 126.464 189.192 123.726 188.204C120.999 187.181 117.912 186.13 114.776 184.374L115.434 184.116C114.321 188.079 114.096 192.741 115.245 197.331L115.259 197.386L115.503 198.427L114.566 197.917C105.457 192.959 97.2536 188.372 91.4717 184.792C88.5781 183.01 86.2713 181.51 84.7092 180.426C83.1448 179.347 82.3106 178.707 82.3456 178.657C82.3856 178.6 83.2891 179.136 84.9117 180.118C86.6854 181.171 89.0119 182.552 91.8205 184.22C97.6782 187.645 105.915 192.13 115.027 197.089L114.335 197.619L114.322 197.562C113.128 192.8 113.388 187.969 114.581 183.879L114.74 183.335L115.239 183.622C118.213 185.329 121.306 186.446 123.991 187.509C126.664 188.517 129.047 189.416 131.081 190.182C133.062 190.933 134.623 191.565 135.674 192.037C136.729 192.504 137.269 192.819 137.25 192.857Z" fill="#17282F"/>
<path d="M144.084 163.881C144.134 163.844 144.653 164.44 145.495 165.585C146.333 166.733 147.496 168.429 148.868 170.564C150.233 172.705 151.832 175.266 153.435 178.232C153.837 178.973 154.228 179.745 154.589 180.571C154.757 181.002 154.952 181.393 155.016 182.016C155.038 182.356 154.683 182.702 154.352 182.684C154.192 182.698 153.981 182.608 153.905 182.536L153.776 182.426L153.254 181.984C151.857 180.795 150.415 179.567 148.937 178.309C146.994 176.641 145.114 175.027 143.353 173.515L144.1 173.297C142.414 179.034 140.823 183.965 139.564 187.433C138.937 189.167 138.393 190.536 137.983 191.46C137.576 192.386 137.307 192.869 137.261 192.849C137.207 192.826 137.377 192.306 137.69 191.351C138.053 190.225 138.492 188.863 139.011 187.251C140.113 183.745 141.587 178.791 143.217 173.05L143.412 172.362L143.963 172.832C145.722 174.327 147.6 175.925 149.54 177.575C151.006 178.833 152.436 180.059 153.821 181.248L154.337 181.692L154.464 181.802L154.335 182L154.335 181.995L154.346 182.011L154.354 182.018L154.345 182.015L154.094 182.004C154.057 181.734 153.907 181.301 153.749 180.92C153.417 180.137 153.042 179.372 152.656 178.636C151.117 175.687 149.579 173.09 148.293 170.914C147.061 168.882 146.021 167.169 145.187 165.791C144.443 164.587 144.028 163.922 144.084 163.881Z" fill="#17282F"/>
<path d="M77.9548 231.316C77.809 231.367 77.1566 229.65 75.8528 227.006C74.5543 224.362 72.5133 220.826 69.7291 217.3C66.9323 213.779 63.9523 210.976 61.6713 209.1C59.3914 207.219 57.8647 206.185 57.9491 206.056C58.0049 205.963 59.6685 206.802 62.0889 208.575C64.5087 210.34 67.6276 213.124 70.4786 216.713C73.3185 220.31 75.3072 223.976 76.4652 226.727C77.63 229.481 78.0581 231.284 77.9548 231.316Z" fill="#17282F"/>
<path d="M83.9813 280.747C83.7101 280.524 83.5425 279.979 83.3766 279.428C83.5805 279.872 83.7807 280.308 83.9813 280.747Z" fill="#A7A9A8"/>
<path d="M83.0312 278.423C82.9519 278.259 82.8632 278.127 82.7589 278.041C82.4922 272.243 82.0826 266.126 81.7007 259.995C81.693 259.667 81.685 259.378 81.6795 259.126C81.6742 258.697 81.6812 258.476 81.6995 258.472C81.7005 258.472 81.7005 258.472 81.7005 258.472C81.7192 258.47 81.7488 258.69 81.7902 259.12C81.83 259.609 81.8809 260.238 81.9456 261.025C82.0627 262.771 82.2257 265.219 82.4335 268.322C82.4873 269.241 82.5451 270.215 82.6065 271.242C82.735 273.406 82.8764 275.805 83.0312 278.423Z" fill="#0F191D"/>
<path d="M123.284 206.902C110.534 200.636 98.9891 192.787 88.7192 183.06C89.5673 183.599 90.4902 184.177 91.4821 184.788C97.264 188.367 105.467 192.955 114.576 197.913L115.513 198.423L115.269 197.382L115.256 197.326C114.159 192.943 114.314 188.494 115.3 184.651C118.258 186.241 121.158 187.233 123.736 188.199C124.822 188.591 125.859 188.955 126.839 189.294C129.691 190.364 132.585 191.337 135.507 192.276C135.53 192.284 135.553 192.292 135.576 192.3C135.626 192.317 135.676 192.335 135.725 192.352C130.211 192.726 124.696 193.1 119.182 193.475C119.932 198.108 121.317 202.637 123.284 206.902Z" fill="#5F6FA7"/>
<path d="M115.509 198.422L114.572 197.912C105.463 192.954 97.2599 188.366 91.4781 184.787C90.4862 184.176 89.5633 183.598 88.7151 183.059C88.3838 182.745 88.0531 182.428 87.724 182.11C96.8694 186.995 105.799 192.883 114.943 197.768C113.206 191.053 113.977 189.106 115.014 183.992C118.834 186.068 122.791 187.777 126.835 189.294C125.855 188.954 124.818 188.59 123.732 188.198C121.154 187.232 118.254 186.24 115.296 184.65C114.31 188.493 114.155 192.943 115.252 197.326L115.265 197.381L115.509 198.422ZM135.737 192.35C135.731 192.35 135.726 192.35 135.721 192.351C135.672 192.334 135.622 192.316 135.572 192.299C135.549 192.291 135.526 192.283 135.503 192.275C135.581 192.3 135.66 192.325 135.737 192.35Z" fill="#0F191D"/>
<path d="M274.448 185.867C273.81 186.15 273.148 186.413 272.452 186.446C270.723 186.529 269.226 185.042 268.061 183.751C266.896 182.461 266.077 180.896 265.412 179.291C263.609 174.946 262.864 170.167 263.253 165.478C263.276 165.21 263.305 164.932 263.442 164.702C263.571 164.484 263.785 164.332 263.991 164.185L264.003 164.176C266.714 162.249 269.226 160.035 271.479 157.585C271.815 157.132 271.981 156.936 271.886 157.137C271.751 157.287 271.615 157.436 271.479 157.585C270.233 159.263 266.655 164.455 265.457 165.917C266.164 165.651 267.567 165.637 267.56 165.148C267.548 164.178 268.035 164.739 267.768 163.807C267.5 162.875 275.222 154.662 275.584 153.763C278.833 142.805 285.766 138.322 290.246 132.28C291.785 130.206 293.139 127.986 294.89 126.088C296.605 124.228 298.67 122.712 300.355 120.824C301.922 119.07 303.142 117.003 303.823 114.898C305.058 113.057 306.292 111.214 307.529 109.372L307.564 109.32C308.035 108.617 308.507 107.912 308.936 107.181C309.869 105.597 310.597 103.899 311.519 102.31C313.128 99.5363 315.292 97.1324 317.371 94.701C321.505 90.1969 325.262 85.3035 328.108 79.8914C328.573 79.0098 329.014 78.1125 329.536 77.2639C330.627 75.4878 332.059 73.9497 333.491 72.492C334.117 71.5228 334.741 70.5539 335.368 69.5847C336.064 68.5037 336.765 67.4179 337.599 66.4394C338.664 65.1903 339.933 64.1274 341.238 63.2291C341.928 62.5514 342.721 61.8282 343.687 61.8171C344.45 61.807 345.165 62.2742 345.595 62.9035C345.954 63.4294 346.137 64.0704 346.114 64.7055C346.085 65.4445 345.787 66.144 345.462 66.8077C344.256 69.2771 342.643 71.5204 341.151 73.8451C338.811 77.2429 336.809 80.8719 335.185 84.664C334.825 85.5072 334.479 86.3679 334.324 87.2715C334.169 88.1751 334.216 89.1377 334.539 90.0022C335.195 89.889 335.751 89.4709 336.281 89.0658C337.46 88.1637 338.638 87.2597 339.816 86.3576L339.829 86.3481C340.432 85.8871 341.04 85.4222 341.715 85.0746C342.394 84.7246 343.152 84.4929 343.885 84.5994C345.349 84.7358 346.712 85.6825 347.352 87.005C347.547 87.4042 347.677 87.8318 347.797 88.2595C347.942 88.7811 348.074 89.3111 348.078 89.8527C348.083 90.7922 347.7 91.6887 347.267 92.5227C346.636 93.738 345.884 94.8923 345.02 95.9967C345.046 96.096 345.085 96.1927 345.134 96.2836C345.241 96.2614 345.351 96.2499 345.476 96.3044C346.048 96.0869 346.715 96.2782 347.194 96.6597C347.673 97.0411 347.994 97.5824 348.263 98.1327C348.606 98.8286 348.888 99.5799 348.863 100.354C348.845 100.928 348.66 101.484 348.408 102.002C347.647 103.566 346.259 104.812 344.622 105.4C344.415 105.474 344.201 105.541 344.029 105.676C344.617 106.024 345.174 106.421 345.694 106.863C345.921 107.057 346.145 107.265 346.289 107.527C346.419 107.764 346.476 108.031 346.514 108.298C346.753 109.976 346.265 111.747 345.153 113.09C344.766 113.73 344.372 114.378 343.827 114.887C343.512 115.182 343.152 115.423 342.797 115.669C341.949 116.257 341.087 116.929 340.694 117.886C340.466 118.438 340.404 119.07 340.048 119.551C339.805 119.878 339.452 120.101 339.127 120.346C338.006 121.191 337.185 122.364 336.284 123.442C334.838 125.178 333.151 126.712 331.317 128.036C329.347 129.639 326.873 130.454 324.567 131.522C319.632 133.809 315.272 137.419 312.355 142.042L290.404 173.396C285.626 178.224 280.654 183.107 274.448 185.867Z" fill="#F2DBC1" stroke="#CEAC87" stroke-width="0.4" stroke-miterlimit="10"/>
<path d="M316.288 101.098C318.139 100.136 320.345 100.132 322.277 99.3466C323.409 98.888 324.413 98.1752 325.464 97.5519C328.656 95.6609 332.263 94.6097 335.827 93.5786C336.667 93.3356 337.565 93.0918 338.403 93.3618C339.194 93.9761 339.989 94.6923 340.26 95.6574C340.65 97.0448 339.844 98.4775 338.93 99.5905C337.049 101.878 334.543 103.649 331.758 104.661C330.395 105.157 328.975 105.471 327.579 105.863C327.1 105.998 326.616 106.144 326.203 106.419C325.187 107.093 324.787 108.552 325.318 109.65" fill="#F2DBC1"/>
<path d="M316.288 101.098C318.139 100.136 320.345 100.132 322.277 99.3466C323.409 98.888 324.413 98.1752 325.464 97.5519C328.656 95.6609 332.263 94.6097 335.827 93.5786C336.667 93.3356 337.565 93.0918 338.403 93.3618C339.194 93.9761 339.989 94.6923 340.26 95.6574C340.65 97.0448 339.844 98.4775 338.93 99.5905C337.049 101.878 334.543 103.649 331.758 104.661C330.395 105.157 328.975 105.471 327.579 105.863C327.1 105.998 326.616 106.144 326.203 106.419C325.187 107.093 324.787 108.552 325.318 109.65" stroke="#CEAC87" stroke-width="0.4" stroke-miterlimit="10"/>
<path d="M333.619 95.3735C333.131 95.682 332.858 96.2603 332.813 96.8363C332.768 97.4123 332.924 97.986 333.144 98.5182C333.392 99.1178 333.772 99.7273 334.386 99.9369C334.871 100.104 335.404 99.9862 335.896 99.8432C336.9 99.5532 337.877 99.1659 338.807 98.6911C339.137 98.5219 339.484 98.3134 339.611 97.9656C339.683 97.7654 339.67 97.5457 339.649 97.335C339.554 96.326 339.336 95.3276 339.004 94.3715C338.859 93.9544 338.637 93.4937 338.211 93.3798C337.964 93.3132 337.703 93.3821 337.458 93.4569C336.028 93.8931 334.739 94.6649 333.619 95.3735Z" fill="white"/>
<path d="M334.809 90.3422C334.89 91.3951 335.264 92.423 335.877 93.2817L334.809 90.3422Z" fill="#F2DBC1"/>
<path d="M334.809 90.3422C334.89 91.3951 335.264 92.423 335.877 93.2817" stroke="#CEAC87" stroke-width="0.4" stroke-miterlimit="10"/>
<path d="M337.399 92.9622C338.359 92.457 338.835 91.3523 339.076 90.2944C339.317 89.2364 339.401 88.1232 339.895 87.157" fill="#F2DBC1"/>
<path d="M337.399 92.9622C338.359 92.457 338.835 91.3523 339.076 90.2944C339.317 89.2364 339.401 88.1232 339.895 87.157" stroke="#CEAC87" stroke-width="0.4" stroke-miterlimit="10"/>
<path d="M339.889 95.2145C340.698 95.7486 341.077 96.8519 340.766 97.7709C340.643 98.1349 340.428 98.4599 340.205 98.7717C339.521 99.7266 338.74 100.612 337.875 101.406C337.674 101.59 337.338 101.766 337.164 101.557C337.383 101.33 337.602 101.104 337.82 100.877C338.777 99.8863 339.758 98.8548 340.229 97.5604C340.352 97.2227 340.437 96.8684 340.423 96.5104C340.401 96.0325 340.196 95.5644 339.889 95.2145Z" fill="#F2DBC1" stroke="#CEAC87" stroke-width="0.4" stroke-miterlimit="10"/>
<path d="M337.252 101.894C338.136 101.907 338.916 101.348 339.589 100.776C341.405 99.2317 342.997 97.393 345.05 96.179" fill="#F2DBC1"/>
<path d="M337.252 101.894C338.136 101.907 338.916 101.348 339.589 100.776C341.405 99.2317 342.997 97.393 345.05 96.179" stroke="#CEAC87" stroke-width="0.4" stroke-miterlimit="10"/>
<path d="M328.567 105.504C327.445 106.157 327.107 107.695 327.455 108.943C327.711 109.864 328.32 110.728 329.203 111.099C330.298 111.558 331.549 111.193 332.678 110.823C335.791 109.806 338.94 108.773 341.713 107.027C342.446 106.565 343.154 106.054 343.948 105.708" fill="#F2DBC1"/>
<path d="M328.567 105.504C327.445 106.157 327.107 107.695 327.455 108.943C327.711 109.864 328.32 110.728 329.203 111.099C330.298 111.558 331.549 111.193 332.678 110.823C335.791 109.806 338.94 108.773 341.713 107.027C342.446 106.565 343.154 106.054 343.948 105.708" stroke="#CEAC87" stroke-width="0.4" stroke-miterlimit="10"/>
<path d="M327.291 108.688C327.643 107.697 328.363 106.841 329.28 106.326C329.556 106.17 329.853 106.043 330.167 106.004C330.868 105.913 331.569 106.273 332.046 106.796C332.522 107.318 332.807 107.983 333.042 108.648C333.078 108.749 333.113 108.856 333.1 108.964C333.077 109.133 332.939 109.261 332.801 109.362C332.003 109.944 330.962 110.126 330.187 110.739C329.964 110.916 329.728 111.139 329.446 111.107C329.333 111.095 329.229 111.04 329.131 110.984C328.188 110.431 327.505 109.454 327.291 108.688Z" fill="white"/>
<path d="M333.889 110.359C332.604 110.983 331.481 111.937 330.656 113.101C330.427 113.423 330.217 113.773 330.165 114.165C330.114 114.548 330.22 114.934 330.355 115.334C330.857 116.141 331.784 116.62 332.727 116.732C333.671 116.844 334.627 116.621 335.507 116.265C336.191 115.989 336.839 115.636 337.535 115.393C338.209 115.158 338.913 115.031 339.609 114.868C341.577 114.409 343.477 113.66 345.231 112.654" fill="#F2DBC1"/>
<path d="M333.889 110.359C332.604 110.983 331.481 111.937 330.656 113.101C330.427 113.423 330.217 113.773 330.165 114.165C330.114 114.548 330.22 114.934 330.355 115.334C330.857 116.141 331.784 116.62 332.727 116.732C333.671 116.844 334.627 116.621 335.507 116.265C336.191 115.989 336.839 115.636 337.535 115.393C338.209 115.158 338.913 115.031 339.609 114.868C341.577 114.409 343.477 113.66 345.231 112.654" stroke="#CEAC87" stroke-width="0.4" stroke-miterlimit="10"/>
<path d="M330.004 114.263C330.388 113.762 330.822 113.298 331.294 112.879C331.54 112.66 331.875 112.441 332.178 112.569C332.324 112.63 332.427 112.762 332.523 112.888C332.996 113.505 333.497 114.234 333.329 114.994C333.231 115.437 332.917 115.799 332.601 116.124C332.445 116.284 332.277 116.446 332.061 116.504C331.689 116.603 331.311 116.361 331.039 116.087C330.497 115.535 330.148 114.797 330.004 114.263Z" fill="white"/>
<path d="M336.616 116.102C337.239 116.769 337.883 117.418 338.551 118.041C338.801 118.275 339.08 118.517 339.419 118.557" fill="#F2DBC1"/>
<path d="M336.616 116.102C337.239 116.769 337.883 117.418 338.551 118.041C338.801 118.275 339.08 118.517 339.419 118.557" stroke="#CEAC87" stroke-width="0.4" stroke-miterlimit="10"/>
<path d="M340.929 114.797C341.347 115.101 341.742 115.438 342.108 115.806L340.929 114.797Z" fill="#F2DBC1"/>
<path d="M340.929 114.797C341.347 115.101 341.742 115.438 342.108 115.806" stroke="#CEAC87" stroke-width="0.4" stroke-miterlimit="10"/>
<path d="M326.808 109.022C326.08 111.639 325.272 114.234 324.386 116.803C324.009 117.897 323.615 118.994 323.034 119.993C322.373 121.129 321.483 122.115 320.54 123.03C319.716 123.829 318.846 124.581 317.936 125.28C317.026 125.979 316.017 126.65 314.871 126.747C316.871 125.88 318.55 124.426 320.177 122.976C321.085 122.168 322.009 121.329 322.567 120.249C322.995 119.424 323.185 118.5 323.499 117.623C323.881 116.557 324.446 115.563 324.854 114.506C325.463 112.925 325.714 111.225 326.299 109.634C326.413 109.334 326.729 108.973 326.808 109.022Z" fill="#CEAC87"/>
<path d="M188.598 214.669C188.598 214.669 254.458 222.133 266.261 217.02C278.064 211.907 282.406 195.767 286.941 186.947C290.08 177.262 294.687 174.217 294.687 174.217L285.546 155.35L279.315 141.959C279.315 141.959 252.845 178.047 249.145 178.813C245.445 179.578 207.094 168.876 207.094 168.876C207.094 168.876 187.864 161.03 180.626 161.431C173.387 161.832 173.185 174.366 173.185 174.366L188.598 214.669Z" fill="#7687C1"/>
<path d="M196.902 192.01C196.966 191.995 197.298 193.089 197.844 195.08C198.394 197.07 199.139 199.963 200.03 203.545C201.819 210.707 204.131 220.638 206.7 231.598C209.268 242.561 211.703 252.456 213.551 259.597C214.449 263.054 215.19 265.907 215.747 268.054C216.263 270.051 216.519 271.165 216.456 271.184C216.393 271.202 216.017 270.124 215.391 268.155C214.758 266.189 213.909 263.324 212.9 259.772C210.885 252.668 208.342 242.785 205.772 231.816C203.202 220.85 200.995 210.898 199.376 203.7C198.602 200.212 197.964 197.334 197.484 195.167C197.049 193.15 196.838 192.025 196.902 192.01Z" fill="#17282F"/>
<path d="M258.068 200.555C257.932 200.614 255.708 195.761 253.103 189.717C250.497 183.671 248.496 178.724 248.633 178.665C248.77 178.606 250.992 183.457 253.598 189.503C256.204 195.547 258.205 200.496 258.068 200.555Z" fill="#17282F"/>
<path d="M148.353 287.092C139.471 296.779 130.383 302.531 121.788 312.474L101.764 290.716C106.903 285.725 116.439 283.709 123.321 278.306C126.148 276.088 128.367 271.395 131.144 269.115C134.586 266.289 139.019 259.689 141.756 256.175C144.492 252.661 146.563 248.517 146.971 244.206L146.972 244.202C147.492 242.381 148.016 240.548 148.836 238.84C149.283 237.91 149.816 237.023 150.251 236.088C151.504 233.396 152.001 230.239 154.065 228.102C154.798 227.343 155.689 226.76 156.566 226.173C158.558 224.837 160.514 223.443 162.327 222.039C163.749 220.724 165.795 220.377 167.723 220.197C169.651 220.015 171.669 219.917 173.284 218.953C174.686 216.974 175.999 214.931 177.188 212.896C178.481 210.87 180.021 209.016 181.557 207.168L181.566 207.157C183.682 204.612 185.839 202.03 188.439 200.254C189.683 199.368 190.962 198.51 192.377 197.937C192.945 197.707 193.539 197.525 194.15 197.503C194.761 197.481 195.395 197.634 195.869 198.021C196.498 198.53 196.77 199.392 196.703 200.197C196.636 201.004 196.266 201.757 195.799 202.417C195.331 203.076 194.763 203.658 194.2 204.218C193.711 205.114 193.101 205.943 192.39 206.674C191.707 207.378 190.93 207.991 190.276 208.721C189.074 210.062 188.327 211.739 187.509 213.345C186.446 215.431 185.239 217.442 183.898 219.466C184.497 219.494 184.968 219.984 185.31 220.478C186.036 221.528 186.492 222.764 186.62 224.035C186.724 225.072 186.615 226.117 186.481 227.151C186.263 228.833 185.977 230.508 185.625 232.166C185.581 232.37 185.538 232.587 185.61 232.781C185.686 232.99 185.878 233.128 186.049 233.27C186.961 234.024 187.506 235.201 187.49 236.385C187.473 237.566 186.934 238.703 186.867 240.033C187.363 240.755 187.393 241.699 187.295 242.57C187.197 243.442 186.988 244.312 187.067 245.185C187.158 246.173 187.609 247.089 187.808 248.06C188.054 249.258 187.896 250.536 187.268 251.811C186.759 254.244 184.623 255.93 182.731 257.543C179.531 260.271 176.616 263.409 172.951 265.472C170.013 267.126 166.678 268.036 163.878 269.914C161.112 271.769 159.031 274.457 156.812 277.353C154.353 280.885 151.261 283.921 148.353 287.092Z" fill="#F2DBC1"/>
<path d="M159.305 229.339C162.143 228.305 164.798 226.764 167.105 224.815C168.141 223.939 169.111 222.979 170.227 222.207C171.357 221.425 172.729 220.719 173.131 219.403" fill="#F2DBC1"/>
<path d="M159.305 229.339C162.143 228.305 164.798 226.764 167.105 224.815C168.141 223.939 169.111 222.979 170.227 222.207C171.357 221.425 172.729 220.719 173.131 219.403" stroke="#CEAC87" stroke-width="0.4" stroke-miterlimit="10"/>
<path d="M192.479 202.184C192.103 201.72 191.71 201.216 191.666 200.621C191.632 200.169 191.809 199.721 192.08 199.359C192.349 198.996 192.706 198.709 193.074 198.444C193.765 197.948 194.636 197.506 195.435 197.797C196.193 198.072 196.599 198.955 196.55 199.76C196.501 200.565 196.089 201.302 195.632 201.967C195.446 202.24 195.245 202.509 194.979 202.707C194.589 202.997 194.071 203.108 193.596 203C193.123 202.892 192.76 202.53 192.479 202.184Z" fill="white"/>
<path d="M52.2425 203.352C52.2425 203.352 38.3114 221.245 38.371 233.081C38.4305 244.917 37.218 277.553 37.218 277.553C37.218 277.553 36.8785 316.328 39.5126 323.287C42.1477 330.245 47.8833 345.808 63.9372 344.461C86.4571 344.658 129.002 307.148 129.002 307.148L143.946 293.957L128.896 269.58L105.976 284.891L83.7418 295.67L82.4372 272.301L84.9787 256.584C84.9787 256.584 81.3807 240.769 72.5278 228.778C63.674 216.787 52.2425 203.352 52.2425 203.352Z" fill="#7687C1"/>
<path d="M51.4467 299.695C51.3981 299.599 52.9963 298.645 55.7864 297.531C58.5696 296.415 62.5832 295.229 67.1435 294.652C71.7062 294.086 75.8868 294.248 78.8581 294.644C81.8338 295.035 83.6156 295.566 83.5911 295.673C83.5617 295.821 81.7409 295.526 78.7887 295.309C75.8376 295.088 71.7377 295.035 67.2594 295.59C62.7834 296.155 58.8222 297.217 56.0157 298.159C53.2051 299.097 51.5121 299.833 51.4467 299.695Z" fill="#17282F"/>
<path d="M65.8499 289.662C65.8222 289.431 70.2792 289.12 75.4605 290.717C80.6553 292.277 84.1629 295.009 84.0088 295.183C83.8529 295.431 80.212 293.127 75.1783 291.621C70.1609 290.071 65.8372 289.953 65.8499 289.662Z" fill="#17282F"/>
<path d="M76.3887 259.461C76.2865 259.041 76.2259 258.827 76.2076 258.832C76.1891 258.835 76.2139 259.056 76.2799 259.482C76.3611 259.966 76.467 260.588 76.5988 261.367C76.9152 263.089 77.3599 265.501 77.9229 268.56C79.1306 274.853 80.8474 283.794 82.9426 294.705L82.9452 294.718L82.9489 294.735C83.0124 294.956 83.0839 295.212 83.1565 295.467L83.275 295.887L83.6756 295.701C91.0858 292.26 99.5205 288.343 108.647 284.104L108.678 284.09L108.709 284.07C115.062 279.795 121.938 275.169 129.08 270.364C130.19 272.158 131.364 274.058 132.548 275.973C136.354 282.12 140.062 288.109 143.596 293.816C127.671 308.276 112.87 319.856 101.932 327.627C96.4447 331.557 90.3185 334.663 87.2471 336.742C90.3746 334.745 96.7352 331.98 102.277 328.11C113.388 320.415 128.414 308.806 144.504 294.238L144.789 293.98L144.588 293.654C141.001 287.846 137.232 281.743 133.36 275.475C132.082 273.411 130.817 271.365 129.632 269.449L129.372 269.03L128.962 269.308C121.692 274.221 114.693 278.95 108.234 283.315C99.305 287.519 91.0422 291.409 83.7554 294.84C83.7317 294.759 83.7086 294.679 83.6864 294.603L83.669 294.544C81.4429 283.666 79.6183 274.752 78.3343 268.478C77.6873 265.436 77.1777 263.036 76.8134 261.324C76.6373 260.554 76.4975 259.939 76.3887 259.461Z" fill="#5F6FA7"/>
<path d="M83.9922 280.749C83.7916 280.311 83.5915 279.874 83.3876 279.43C83.2776 279.067 83.1702 278.702 83.0334 278.424C82.8786 275.806 82.7372 273.407 82.6088 271.244L84.9787 256.587C84.9787 256.587 83.7263 251.081 80.8802 244.104C80.8382 242.849 80.8027 241.605 80.7775 240.375C83.7303 246.171 86.1546 253.485 86.2193 259.988C86.2851 266.491 84.9233 274.308 83.9922 280.749Z" fill="#5F6FA7"/>
<path d="M82.6113 271.25C82.5499 270.223 82.4921 269.249 82.4383 268.33C82.2305 265.227 82.0675 262.779 81.9504 261.033C81.8857 260.245 81.8348 259.616 81.795 259.128C81.7536 258.698 81.7239 258.478 81.7053 258.479C81.7053 258.479 81.7053 258.479 81.7043 258.48C81.686 258.483 81.679 258.705 81.6843 259.134C81.6898 259.385 81.6978 259.674 81.7055 260.002C81.3723 254.649 81.06 249.283 80.8828 244.111C83.7289 251.088 84.9813 256.594 84.9813 256.594L82.6113 271.25Z" fill="#5F6FA7"/>
<path d="M93.9188 128.614C91.4922 118.839 98.3468 137.282 98.4971 128.614C123.095 124.325 115.746 118.343 140.343 114.055C139.761 119.21 135.704 151.416 135.704 156.332L143.242 172.718L137.015 192.054L115.713 183.861L88.1836 164.853L90.8054 145.371L93.9188 128.614Z" fill="#F2DBC1"/>
<path d="M168.565 74.0326C170.077 69.8818 170.47 65.3302 169.689 60.983C168.872 56.4339 166.796 51.995 167.292 47.3988C168.117 41.9798 168.811 36.2805 166.919 31.1183C165.512 27.282 162.8 24.0982 160.56 20.6812C159.564 19.1614 158.652 17.5787 157.499 16.1741C155.167 13.331 151.975 11.3473 148.844 9.41873C143.307 5.82092 137.34 2.30435 130.698 1.35577C126.55 0.763555 122.326 1.20378 118.143 0.949603C114.75 0.742591 111.391 0.0770081 107.992 0.00625734C104.643 -0.0618731 101.313 0.446488 97.9637 0.553924C94.2034 0.674462 90.2728 0.315465 86.8322 1.84054C84.7097 2.29387 82.8309 3.72985 81.0385 5.12652C79.0077 6.70924 76.9743 8.28934 74.9644 9.89827C72.4803 11.8872 70.0119 13.9389 68.044 16.4414C67.0875 17.6573 66.2542 18.9727 65.1798 20.0864C64.2286 21.0717 63.1071 21.8814 62.1454 22.8588C60.6073 24.4258 59.5093 26.4225 59.0114 28.5608C58.7206 29.8081 58.5791 31.2047 57.6541 32.0931C56.26 34.4907 56.6426 37.4334 56.0582 40.0669C55.7988 41.2383 55.3429 42.3572 55.0337 43.5154C53.7628 48.3212 55.1254 53.3681 55.7464 58.2997C56.184 61.7796 56.2469 65.3066 55.9351 68.7996C55.7071 71.3362 55.2852 73.9015 55.7255 76.4093C56.2312 81.2177 58.6629 85.5571 60.4055 90.0327C63.1281 97.0213 64.2129 104.518 65.9922 111.803C66.7495 114.903 67.6326 117.971 68.5182 121.04C69.2991 123.749 70.0983 126.498 71.7597 128.998C93.5824 119.321 111.453 102.194 133.287 92.5378C140.831 89.202 148.833 86.7651 155.825 82.3864C160.025 79.7608 163.822 76.4538 168.565 74.0326Z" fill="#17282F"/>
<path d="M73.8082 86.9054C72.5583 84.851 70.6952 83.1058 68.4128 82.3512C67.7525 82.1337 66.9427 82.1127 66.23 81.8009C65.7243 81.586 65.2605 81.2847 64.7914 80.9964C63.4864 80.1972 62.1029 79.4897 60.6119 79.1438C59.1209 78.7979 57.5041 78.8398 56.1179 79.4897C54.7474 80.3387 53.9901 81.7694 53.4451 83.208C52.1794 86.549 51.8152 90.2281 52.4048 93.7525C53.4136 94.9553 54.3255 96.3913 55.0802 97.9111C56.4454 100.663 57.2761 103.637 58.2614 106.545C59.2466 109.454 60.418 112.355 62.3492 114.742C64.2804 117.129 67.0816 118.961 70.1475 119.11C70.8707 123.243 71.6595 127.435 72.4508 131.628C79.3313 158.754 96.7009 169.11 111.23 172.744C113.871 173.649 116.872 174.463 119.356 173.19C121.641 172.016 122.76 169.448 124.277 167.378C125.716 165.413 127.602 163.825 129.468 162.258C130.102 161.726 130.757 161.181 131.543 160.911C132.552 160.565 133.653 160.714 134.712 160.824C139.297 161.301 144.116 160.932 148.18 158.754C152.245 156.577 155.394 152.321 155.318 147.709C156.228 143.247 156.657 138.711 158.657 134.757C159.655 132.783 161.02 131.012 162.032 129.044C163.187 126.798 163.858 124.346 164.71 121.969C165.585 119.524 166.659 117.142 167.301 114.627C167.943 112.108 168.129 109.391 167.231 106.954C165.672 103.037 165.237 98.823 165.082 94.7063C165.037 93.5429 165.014 92.3716 165.158 91.216C165.436 88.9703 166.329 86.8504 167.304 84.8065C167.881 83.5958 168.507 82.2621 168.161 80.965C167.553 79.7517 167.922 78.3262 168.15 77.0055C169.013 72.0032 167.616 66.9327 166.84 61.9173C166.578 60.2297 166.387 58.5291 166.083 56.8468C165.567 54.011 164.732 51.2459 163.899 48.4887L163.898 48.4825C163.449 47.002 162.98 45.4795 161.995 44.2872C159.438 42.2433 156.429 40.6973 153.201 40.126C149.97 39.5548 146.516 40.0055 143.692 41.6721C142.041 42.6469 140.644 43.999 139.038 45.0445C135.878 47.1015 131.908 47.8824 128.202 47.1749C125.642 46.6875 123.234 45.5267 120.65 45.1782C119.241 44.9869 117.81 45.0445 116.387 45.1022C110.667 45.3354 104.946 45.566 99.2261 45.7992C97.7403 45.6027 96.3856 46.9076 96.3882 48.3541C96.3908 50.6653 99.0872 51.9231 100.24 53.9251C101.464 56.0528 100.733 58.8776 99.1396 60.7433C97.5438 62.6091 95.2614 63.7254 93.0262 64.7395C90.791 65.7535 88.4772 66.7572 86.732 68.484C84.9501 70.2449 83.881 72.7081 83.8129 75.2106C83.7736 76.6518 84.0513 78.0851 84.012 79.5264C83.9701 81.0383 83.5849 82.5241 83.4722 84.0334C83.2941 86.4128 83.8024 88.7869 83.9701 91.1688C84.0278 91.9549 84.0382 92.7803 83.6897 93.4879C82.9875 94.916 81.1689 95.309 79.5914 95.5318C78.5275 95.6837 77.2304 95.7388 76.612 94.8609C76.3731 94.5218 76.2903 94.097 76.2106 93.6878L76.2059 93.6634C75.7447 91.3051 75.0581 88.9572 73.8082 86.9054Z" fill="#F2DBC1"/>
<path d="M65.842 90.1502C64.8227 86.9533 62.9543 84.029 60.478 81.7623C60.1112 81.4243 59.7207 81.0967 59.2543 80.9133C58.1852 80.4888 56.9248 80.9369 56.102 81.7387C55.2792 82.5406 54.8154 83.6359 54.438 84.7207C53.8773 86.3271 53.4527 87.9805 53.175 89.6576C53.0387 90.4856 52.9365 91.3373 53.1147 92.1548C53.4763 93.8057 54.8861 94.9927 55.7377 96.4523C56.4269 97.6341 56.7466 98.9914 57.2235 100.273C57.5511 101.153 57.952 102.002 58.3555 102.849C59.2779 104.793 60.2527 106.805 61.9324 108.152C62.3516 108.488 62.8574 108.789 63.3919 108.726C63.9265 108.663 64.4008 108.063 64.1545 107.586C64.0339 107.353 63.785 107.217 63.5518 107.094C62.0503 106.294 60.5645 105.38 59.5085 104.049C57.9022 102.028 57.4829 99.2928 57.6375 96.7169C57.7921 94.1411 58.4603 91.6255 58.7905 89.0654C58.8901 88.2845 59.0132 87.4014 59.65 86.9402C60.2003 86.5419 60.9838 86.6074 61.5812 86.9271C62.1813 87.2468 62.6346 87.7787 63.0644 88.3028C63.6618 89.0339 64.2645 89.7938 65.0873 90.255C65.2524 90.3467 65.4437 90.428 65.6271 90.3808C65.8106 90.3389 65.9468 90.1031 65.842 90.1502Z" fill="#CEAC87"/>
<path d="M64.9981 105.24C64.1988 104.999 63.3891 104.753 62.6764 104.318C61.9636 103.883 61.3452 103.23 61.1303 102.42C60.8107 101.212 61.4448 99.9519 62.2571 99.0033C62.9358 98.2146 63.7638 97.5202 64.1883 96.5716C64.5604 95.741 64.5814 94.795 64.8801 93.9329C65.1789 93.0708 65.9414 92.2348 66.8454 92.3554C67.2333 92.4078 67.5765 92.6305 67.8936 92.8585C68.5094 93.304 69.1095 93.8307 69.3846 94.5382C69.7279 95.4186 69.5392 96.5113 70.1419 97.2398C70.2913 97.4206 70.4878 97.5726 70.5821 97.7875C70.8311 98.3482 70.2965 98.93 70.1524 99.5274C70.0135 100.101 70.2546 100.707 70.6057 101.184C70.9542 101.66 71.4102 102.048 71.7901 102.502C72.2592 103.065 72.6051 103.728 72.799 104.435C72.9641 105.038 72.9903 105.761 72.5553 106.209C72.0941 106.684 71.287 106.639 70.7184 106.301C70.1498 105.963 69.7515 105.41 69.3374 104.894C68.9234 104.378 68.4465 103.864 67.815 103.67C67.0053 103.424 66.0488 103.83 65.661 104.582C65.5483 104.8 65.4723 105.049 65.2732 105.19C65.074 105.332 64.7177 105.25 64.9981 105.24Z" fill="#CEAC87"/>
<path d="M150.731 88.0775C150.802 87.6372 151.219 87.3516 151.607 87.1315C154.272 85.6247 157.33 84.8229 160.39 84.8282C161.245 84.8308 162.112 84.8963 162.906 85.2055C163.7 85.5147 164.42 86.0964 164.737 86.8878C165.091 87.7709 164.903 88.7771 164.614 89.6837C164.565 89.8436 164.502 90.0139 164.363 90.1109C164.224 90.2078 164.043 90.2078 163.873 90.2026C159.429 90.0847 154.995 89.385 150.731 88.0775Z" fill="white" stroke="black" stroke-width="0.4" stroke-miterlimit="10"/>
<path d="M161.484 84.9961C160.821 85.1953 160.284 85.7429 160.043 86.3928C159.802 87.0426 159.841 87.779 160.093 88.4262C160.441 89.3224 161.235 90.0718 162.187 90.2212C163.138 90.3732 164.194 89.836 164.511 88.9293C164.621 88.6175 164.645 88.2847 164.658 87.9572C164.679 87.5091 164.681 87.0479 164.521 86.6286C164.354 86.1831 164.013 85.8215 163.638 85.5228C163.29 85.2477 162.899 85.0145 162.467 84.9175C162.035 84.8205 161.555 84.8729 161.484 84.9961Z" fill="#17282F"/>
<path d="M152.175 84.5751C155.212 82.8614 158.941 82.4159 162.298 83.3645C162.958 83.5505 163.642 83.8152 164.059 84.3629C164.536 84.9891 164.646 85.9482 165.358 86.2836C165.411 85.1359 164.653 84.0641 163.676 83.4562C162.699 82.8483 161.533 82.6334 160.387 82.5102C157.61 82.2089 154.612 82.4473 152.353 84.0903C152.123 84.2607 151.942 84.7061 152.175 84.5751Z" fill="#CEAC87"/>
<path d="M147.246 79.6824C147.739 78.7129 148.708 78.0892 149.654 77.5547C154.371 74.895 159.903 73.2625 165.219 74.2844C166.349 74.5019 167.51 74.8688 168.306 75.6968C169.548 76.9913 169.564 79.0142 169.323 80.7909C167.533 80.3742 165.875 79.5043 164.09 79.0614C159.892 78.0211 155.419 79.4623 151.753 81.7578C151.242 82.0775 150.71 82.4234 150.11 82.4548C149.767 82.4705 149.424 82.3815 149.109 82.2452C148.043 81.784 146.78 80.5996 147.246 79.6824Z" fill="#17282F"/>
<path d="M101.364 79.1294C102.666 77.9319 104.199 77.0147 105.719 76.1081C108.675 74.3445 111.688 72.5574 115.034 71.7556C118.789 70.8542 122.717 71.2525 126.556 71.6639C130.647 72.1041 134.85 72.5915 138.476 74.5332C139.171 74.9053 139.881 75.377 140.164 76.1107C140.295 76.4461 140.324 76.8156 140.295 77.1719C140.143 78.9931 138.254 80.4736 136.448 80.1854C135.659 80.0596 134.947 79.6587 134.239 79.2892C128.736 76.4173 122.288 75.1516 116.211 76.4068C115.095 76.6374 113.991 76.9518 112.859 77.0933C111.567 77.2532 110.26 77.1877 108.963 77.2899C106.969 77.4497 105.006 78.0209 103.237 78.9564C102.496 79.3469 101.754 79.8133 100.921 79.8762C100.821 79.4858 100.989 79.0403 101.364 79.1294Z" fill="#17282F"/>
<path d="M146.171 82.2734C149.637 90.0193 154.566 97.0997 157.399 105.1C157.818 106.284 158.18 107.636 157.603 108.75C157.037 109.845 155.764 110.338 154.6 110.741C152.918 111.323 151.236 111.905 149.554 112.484C148.851 112.728 148.086 112.971 147.379 112.741C146.671 112.51 146.165 111.575 146.634 110.996C143.893 109.995 140.851 109.832 138.021 110.542C137.429 110.692 136.837 110.878 136.226 110.886C135 110.901 133.884 110.199 132.938 109.421C131.902 108.572 130.93 107.542 130.579 106.25C130.013 104.169 131.171 102.036 132.427 100.283C133.189 99.2196 134.004 98.1924 134.866 97.2097" stroke="#CEAC87" stroke-width="0.4" stroke-miterlimit="10"/>
<path d="M137.025 110.794C137.356 110.097 138.011 109.588 138.729 109.305C139.447 109.022 140.228 108.941 141.001 108.915C142.667 108.86 144.365 109.059 145.885 109.746C146.325 109.945 146.771 110.207 146.983 110.639C147.043 110.762 147.082 110.909 147.03 111.035C146.91 111.328 146.477 111.258 146.181 111.147C143.519 110.154 140.537 110.042 137.804 110.828C137.529 110.906 137.219 110.99 137.025 110.794Z" fill="#17282F"/>
<path d="M152.659 111.319C153.343 111.119 153.932 110.614 154.236 109.969C154.364 109.694 154.448 109.393 154.64 109.159C154.868 108.884 155.242 108.735 155.596 108.782C155.732 108.8 155.869 108.845 155.976 108.931C156.275 109.165 156.288 109.642 156.089 109.964C155.89 110.286 155.533 110.48 155.177 110.608C154.82 110.737 154.443 110.818 154.105 110.991C153.833 111.13 153.591 111.324 153.314 111.447C153.036 111.57 152.693 111.612 152.438 111.442C152.504 111.311 152.653 111.224 152.659 111.319Z" fill="#17282F"/>
<path d="M122.242 124.718C122.135 123.793 123.327 123.342 124.249 123.209C129.757 122.412 135.234 121.408 140.666 120.2C141.756 119.957 142.865 119.705 143.981 119.779C144.888 119.839 145.768 120.114 146.675 120.19C147.618 120.269 148.567 120.127 149.51 120.195C151.554 120.347 153.49 121.56 154.588 123.484C154.905 123.783 154.806 124.333 154.531 124.671C154.256 125.009 153.855 125.221 153.53 125.512C151.913 126.961 152.623 129.794 151.305 131.521C150.482 132.598 149.044 132.998 147.694 133.135C144.741 133.436 141.78 132.815 139.06 132.482C132.967 131.335 127.541 128.004 122.242 124.718Z" fill="#99746C"/>
<path d="M123.228 124.841C123.511 124.086 124.423 123.819 125.217 123.672C132.688 122.291 140.36 122.76 147.944 123.235C150.027 123.366 152.11 123.497 154.193 123.625C153.811 124.377 153.313 125.069 152.721 125.669C152.265 126.13 151.749 126.542 151.151 126.791C150.454 127.082 149.686 127.142 148.934 127.199C145.716 127.441 142.47 127.679 139.278 127.213C138.217 127.058 137.161 126.822 136.089 126.764C134.747 126.691 133.406 126.895 132.064 126.961C129.129 127.108 126.16 126.586 123.451 125.446C123.325 125.394 123.189 125.328 123.139 125.2C123.087 125.074 123.207 124.893 123.228 124.841Z" fill="#5B372F"/>
<path d="M148.815 123.266C148.825 124.209 148.831 125.192 148.432 126.049C148.034 126.906 147.106 127.595 146.184 127.398C145.851 127.327 145.547 127.152 145.212 127.097C144.905 127.047 144.591 127.102 144.282 127.147C140.576 127.702 136.803 127.023 133.158 126.167C132.637 126.043 132.11 125.918 131.575 125.902C130.855 125.881 130.129 126.064 129.419 125.947C128.709 125.829 127.983 125.242 128.08 124.529C127.493 125.1 126.741 125.606 125.923 125.538C125.108 125.472 124.361 124.566 124.726 123.832C132.66 122.509 140.807 122.425 148.815 123.266Z" fill="white"/>
<path d="M117.816 136.618C118.77 134.841 118.628 132.692 118.319 130.698C118.01 128.704 117.562 126.668 117.984 124.697C118.282 123.296 119.008 122.022 119.823 120.843C120.95 119.216 122.265 117.722 123.741 116.545C125.627 114.703 128.476 114.292 131.115 114.294C133.751 114.297 136.452 114.606 138.978 113.844C140.15 113.49 141.295 112.906 142.513 112.963C143.478 113.008 144.374 113.451 145.312 113.671C146.334 113.912 147.419 113.883 148.425 113.592C149.353 113.325 150.215 112.84 151.161 112.646C152.107 112.455 153.233 112.641 154.03 113.532C154.271 114.389 154.523 115.269 155.078 115.966C155.631 116.663 156.569 117.132 157.421 116.873C157.678 116.794 157.919 116.653 158.186 116.619C159.048 116.509 159.622 117.486 159.834 118.327C160.316 120.232 160.227 122.279 159.577 124.137C159.048 125.654 158.16 127.032 157.714 128.576C157.033 130.937 157.442 133.46 157.853 135.884C157.198 135.583 156.826 134.859 156.726 134.147C156.627 133.434 156.747 132.711 156.815 131.993C157.098 129.008 156.425 125.94 154.921 123.345C154.132 121.988 153.055 120.709 151.588 120.148C150.912 119.889 150.188 119.795 149.47 119.711C146.436 119.352 143.389 119.116 140.249 118.969C137.941 119.672 135.601 120.382 133.19 120.5C131.599 120.578 130.004 120.397 128.413 120.471C126.822 120.547 125.177 120.911 123.95 121.925C121.956 123.576 121.576 126.451 121.516 129.039C121.456 131.628 121.521 134.411 120.054 136.544C119.441 137.435 118.547 138.172 117.491 138.413C117.31 137.755 117.562 137.089 117.816 136.618Z" fill="#17282F"/>
<path d="M136.023 132.649C138.16 133.095 140.47 133.228 142.747 133.357C144.208 133.441 145.68 133.525 147.144 133.461C148.93 133.383 150.679 133.085 152.222 132.594C152.322 134.146 150.705 135.568 149.02 136.827C148.128 137.494 147.055 138.195 145.548 138.334C143.681 138.506 142.003 137.752 140.626 137.052C138.801 136.123 136.936 135.167 135.817 133.955C135.4 133.502 135.202 132.839 136.023 132.649Z" fill="#17282F"/>
<path d="M76.888 94.1126C76.5421 100.983 76.4477 107.87 76.6049 114.748C76.7648 121.753 77.2679 129.043 80.7347 135.132C83.6329 140.224 88.3286 143.992 92.2199 148.368C98.4827 155.412 103.005 164.384 111.294 169.522C113.644 169.633 115.497 171.524 117.719 172.297C119.04 172.756 120.46 172.806 121.857 172.853C127.092 173.029 132.391 173.199 137.514 172.101C139.324 171.713 141.117 171.16 142.723 170.24C144.292 169.339 145.645 168.11 146.981 166.889C150.854 163.359 154.942 159.45 155.901 154.301C156.349 151.9 156.063 149.416 156.409 146.998C157.015 142.773 159.467 139.089 161.535 135.355C164.994 129.105 167.528 122.172 167.577 115.031C167.577 115.031 167.31 115.115 167.323 115.272C167.294 114.526 167.266 113.781 167.237 113.035C166.113 116.389 164.988 119.745 163.867 123.099C162.979 125.751 162.046 128.484 160.18 130.57C159.247 131.613 158.102 132.467 157.274 133.597C156.561 134.566 156.11 135.704 155.746 136.849C154.874 139.579 154.433 142.449 154.447 145.315C154.449 145.855 154.462 146.421 154.224 146.908C153.985 147.393 153.398 147.757 152.898 147.55C152.631 147.44 152.447 147.197 152.259 146.977C150.338 144.705 147.028 143.979 144.104 144.529C141.366 145.045 138.892 146.518 136.18 147.152C130.541 148.473 124.461 145.876 120.591 141.565C116.721 137.255 114.808 131.493 114.061 125.746C113.629 122.416 113.542 118.985 112.363 115.841C110.966 112.112 108.018 108.991 104.373 107.388C99.9003 105.417 94.5809 105.674 90.4433 102.959C87.0079 101.809 84.2146 98.9053 83.1979 95.4281C82.8599 94.2698 82.6738 92.9911 81.851 92.1054C81.0098 91.1987 79.5555 90.9315 78.4471 91.4765C77.3413 92.0137 76.9299 93.2977 76.888 94.1126Z" fill="#17282F"/>
<path d="M108.943 76.2186C108.998 75.4456 109.055 74.6752 109.11 73.9022C109.129 73.6637 109.15 73.4122 109.275 73.2104C109.545 72.7833 110.143 72.7466 110.648 72.7544C114.147 72.799 117.648 72.5893 120.858 72.0391C123.507 72.1832 126.153 72.3745 128.795 72.6129C132.925 72.985 137.162 73.5091 140.849 75.4587C141.658 75.9304 142.408 76.5042 143.073 77.1646C143.493 77.5812 143.883 78.0345 144.386 78.3464C144.997 78.7263 145.723 78.8626 146.43 78.991C147.654 79.2137 148.953 79.4286 150.075 78.9674C151.791 78.2835 153.534 77.5917 155.368 77.3611C156.154 77.2615 156.946 77.2484 157.737 77.2379C161.683 77.175 165.651 77.1122 169.448 77.6782C172.665 78.7709 175.883 79.8636 179.101 80.9589C179.552 81.1109 180.045 81.2996 180.267 81.7214C180.364 81.9049 180.398 82.1145 180.414 82.3215C180.459 82.8535 180.401 83.3906 180.246 83.9016C180.176 84.1374 180.079 84.3733 179.911 84.5541C179.667 84.8109 179.311 84.9157 178.999 85.0782C178.286 85.445 177.76 86.1552 177.539 86.9596C176.672 89.525 175.71 92.0589 174.654 94.5535C174.073 95.9266 173.457 97.3023 172.532 98.471C172.141 98.9637 171.693 99.4222 171.159 99.755C170.454 100.198 169.631 100.408 168.819 100.588C168.001 100.772 167.176 100.929 166.342 101.01C164.579 101.178 162.802 100.987 161.041 100.795C159.781 100.659 158.521 100.52 157.26 100.384C156.825 100.337 156.385 100.287 155.984 100.117C155.297 99.8258 154.779 99.1707 154.59 98.4763C157.52 99.4118 160.578 99.9411 163.484 99.9542C165.36 100.038 167.304 100.111 169.047 99.4091C170.593 98.7881 171.882 97.5591 172.495 96.0786C174.518 92.431 175.708 88.3248 175.946 84.1636C175.975 83.6632 175.988 83.1522 175.852 82.6674C175.692 82.0988 175.33 81.6061 174.911 81.1921C173.669 79.9658 171.932 79.3945 170.234 78.991C165.564 77.8799 160.677 77.7515 155.926 78.459C154.218 78.7132 152.339 79.1954 151.411 80.6523C150.971 81.3441 150.809 82.1748 150.688 82.9871C150.306 85.6023 150.3 88.2751 150.762 90.9086C149.643 89.1031 148.5 87.2269 148.196 85.1253C148.123 84.6091 148.097 84.0746 147.871 83.6029C147.528 82.8823 146.721 82.4263 145.922 82.4499C145.122 82.4709 144.365 82.9399 143.865 83.7025C143.186 85.0546 142.507 86.4041 141.831 87.7562C141.179 89.0586 140.524 90.3583 139.827 91.637C139.203 92.7795 138.537 93.9115 137.681 94.8942C136.824 95.8768 135.76 96.7075 134.526 97.1242C133.734 97.3914 132.898 97.4805 132.047 97.5906C127.361 97.4936 122.608 97.3888 118.237 96.1101C117.016 95.662 115.784 95.2086 114.689 94.5064C113.594 93.8041 112.635 92.8215 112.171 91.6213C111.209 87.7012 111.733 83.5976 111.733 79.5622C111.733 78.7945 111.691 77.9612 111.201 77.3716C110.803 76.8947 110.179 76.6693 109.574 76.5383C109.299 76.4675 108.932 76.3732 108.943 76.2186Z" fill="black"/>
<path d="M116.745 94.3593C115.723 94.1628 114.785 93.5548 114.185 92.7006C113.499 91.7232 113.279 90.4968 113.153 89.3098C112.857 86.4955 113.001 83.634 113.598 80.935C113.934 79.5514 114.369 78.1914 114.901 76.8681C115.286 75.9117 115.781 74.9133 116.662 74.3683C120.513 73.1131 124.677 73.3384 128.605 73.776C132.387 73.8101 136.157 74.6722 139.511 76.2628C140.612 76.7554 141.532 77.6411 142.064 78.7234C142.596 79.8056 142.734 81.0765 142.501 82.2321C142.239 83.2147 141.865 84.1633 141.479 85.1067C140.232 88.1594 138.848 91.2148 136.705 93.7225C136.063 94.4746 135.342 95.1821 134.47 95.6407C133.251 96.225 131.862 96.3246 130.51 96.3587C127.9 96.4189 125.288 96.2669 122.704 95.9001C120.652 95.6092 118.737 94.7419 116.745 94.3593Z" fill="#F2DBC1" stroke="black" stroke-width="0.4" stroke-miterlimit="10"/>
<path d="M168.358 81.15C170.263 81.1553 172.168 81.2129 174.068 81.3204C174.317 81.3335 174.571 81.3492 174.807 81.4304C175.245 81.5798 175.588 81.9414 175.779 82.3633C175.971 82.7825 176.02 83.2568 175.997 83.718C175.994 83.7783 175.989 83.8438 175.958 83.8962C175.882 84.0246 175.703 84.0272 175.557 84.0167C172.955 83.8124 170.342 83.7337 167.729 83.7783C168.146 83.1625 168.316 82.3869 168.201 81.6531C168.178 81.5064 168.146 81.3518 168.206 81.2155C168.264 81.0793 168.468 81.0033 168.358 81.15Z" fill="white"/>
<path d="M65.3174 81.1074C66.3891 79.1526 66.7534 76.8964 67.5159 74.8001C68.2784 72.7038 69.6358 70.6048 71.7662 69.9445C72.72 69.651 73.742 69.6746 74.777 69.8397C79.0509 69.9366 83.3274 70.031 87.5882 70.3795C90.2898 70.5996 92.9809 70.9219 95.6695 71.2442C99.5424 71.708 103.415 72.1718 107.288 72.633C107.553 72.6645 107.857 72.7195 107.993 72.9501C108.095 73.123 108.069 73.3379 108.038 73.5371C107.917 74.331 107.797 75.125 107.679 75.919C105.085 75.6491 102.493 75.3766 99.8988 75.1067C98.4838 74.9599 97.0609 74.8106 95.6773 74.4778C95.0563 74.3284 94.4405 74.1397 93.8064 74.0585C93.1932 73.9773 92.5748 73.993 91.9564 74.0218C88.128 74.1869 84.2105 74.7293 80.5236 73.6864C78.8753 73.22 77.3241 72.4444 75.668 72.0067C74.0119 71.5665 72.1488 71.4958 70.6787 72.3788C69.1746 73.2829 68.3649 75.0045 67.8932 76.692C67.4189 78.3822 67.1884 80.1562 66.4363 81.7389C65.9437 81.6446 65.5008 81.3092 65.3174 81.1074Z" fill="white"/>
<path d="M107.63 72.6963C108.105 72.6884 108.579 72.7277 109.043 72.8142C109.134 72.8299 109.231 72.8535 109.292 72.9243C109.368 73.0134 109.362 73.1444 109.349 73.2597C109.263 74.1375 109.174 75.018 109.087 75.8958C109.077 75.9901 109.066 76.0897 109.003 76.1605C108.92 76.2522 108.775 76.2574 108.65 76.2522C108.254 76.2417 107.777 76.1814 107.607 75.8224C107.497 75.5892 107.562 75.3167 107.622 75.0651C107.74 74.5646 107.822 74.0563 107.861 73.5427C107.871 73.409 107.879 73.2702 107.832 73.147C107.785 73.0212 107.667 72.9138 107.533 72.919C107.499 72.8247 107.599 72.6963 107.63 72.6963Z" fill="#D9D9D9"/>
<path d="M108.904 85.5302C113.615 85.2393 117.831 82.5167 122.462 81.5891C124.353 81.2091 126.494 81.1934 128.014 82.3804C128.585 82.8259 129.026 83.4103 129.461 83.9894C130.014 84.7231 130.564 85.4568 131.117 86.1905C131.274 86.4001 131.434 86.6884 131.284 86.9006C131.156 87.0841 130.891 87.0788 130.669 87.0605C125.095 86.5626 119.328 88.2318 113.956 86.6674C112.845 86.3451 111.741 85.8813 110.583 85.9101C109.96 85.9258 109.281 86.0726 108.757 85.7346C108.814 85.5747 108.956 85.4437 108.904 85.5302Z" fill="white" stroke="black" stroke-width="0.4" stroke-miterlimit="10"/>
<path d="M125.386 81.2812C124.653 81.6376 124.076 82.298 123.817 83.071C123.557 83.844 123.623 84.7192 123.992 85.4451C124.496 86.4303 125.717 87.1143 126.744 86.7029C127.428 86.4277 127.868 85.7595 128.193 85.0992C128.418 84.6406 128.617 84.1453 128.581 83.6344C128.528 82.9138 128.007 82.2927 127.383 81.9285C126.757 81.5643 126.034 81.4149 125.386 81.2812Z" fill="#17282F"/>
<path d="M105.31 84.8949C105.779 85.4714 106.696 85.0862 107.333 84.7036C108.703 83.8823 110.158 83.2624 111.668 82.7864L111.7 81.9844C109.483 82.6033 107.353 83.4455 105.407 84.68C105.391 84.6276 105.307 84.7586 105.31 84.8949Z" fill="#CEAC87"/>
<path d="M124.805 79.7371C123.28 79.9546 121.757 80.1695 120.232 80.387C118.018 80.7022 115.771 81.0287 113.58 81.5208L113.449 82.3013C116.555 81.5525 119.831 81.2933 123.028 81.0578C124.787 80.9268 126.697 80.8351 128.154 81.8282C129.27 82.5881 129.928 83.8669 130.979 84.7159C131.149 84.8547 131.361 84.9884 131.576 84.9412C132.053 84.8364 131.953 84.1263 131.733 83.6913C130.918 82.0797 129.899 80.366 128.19 79.7869C127.111 79.42 125.934 79.5773 124.805 79.7371Z" fill="#CEAC87"/>
<path d="M136.453 80.1809C138.258 80.4691 140.148 78.9886 140.3 77.1674C140.308 77.0666 140.311 76.9647 140.309 76.8628C137.554 75.0701 132.707 73.8909 128.514 73.8909C123.945 73.4175 121.383 73.2505 116.722 74.415C115.809 75.1856 115.478 75.6787 115.141 76.6423C115.498 76.5593 115.856 76.4765 116.215 76.4023C122.292 75.1471 128.741 76.4128 134.244 79.2847C134.951 79.6542 135.664 80.0551 136.453 80.1809Z" fill="#17282F"/>
<path d="M111.612 85.0361L113.185 84.25L113.054 87.6565L111.612 86.0843V85.0361Z" fill="black"/>
<defs>
<linearGradient id="paint0_linear_765_1561" x1="70.7109" y1="288.947" x2="224.242" y2="148.223" gradientUnits="userSpaceOnUse">
<stop stop-color="#D9B430"/>
<stop offset="1" stop-color="#303030" stop-opacity="0"/>
</linearGradient>
</defs>
</svg>
