<svg width="398" height="326" viewBox="0 0 398 326" fill="none" xmlns="http://www.w3.org/2000/svg">
<path d="M285.802 223.262C285.802 278.394 239.255 323.223 181.666 323.223C124.078 323.223 77.5312 278.394 77.5312 223.262C77.5312 168.13 124.078 123.301 181.666 123.301C239.255 123.301 285.802 168.13 285.802 223.262Z" fill="url(#paint0_linear_691_8932)" stroke="white" stroke-width="4"/>
<path d="M193.291 191.406L164.93 183.281L164.93 150.425L201.997 158.781C201.959 158.785 202.624 175.782 203.057 180.69L193.291 191.406Z" fill="#F2DBC1"/>
<path d="M248.238 192.082L240.254 234.843C240.356 237.066 242.31 282.499 243.018 301.727C210.433 325.841 165.936 327.174 133.56 309.943V285.421L124.125 189.783L157.086 178.114L164.394 167.047L188.058 180.787L204.932 167.943L210.738 176.909L248.238 192.082Z" fill="#7687C1"/>
<path d="M209.625 179.465C209.716 179.579 208.457 180.905 206.435 183.046C204.414 185.188 201.643 188.165 198.709 191.582C198.092 192.31 197.488 193.022 196.903 193.71L196.513 194.168L196.163 193.685C193.891 190.539 191.926 187.743 190.552 185.714C189.178 183.684 188.396 182.421 188.492 182.341C188.587 182.26 189.542 183.375 191.05 185.29C192.557 187.205 194.617 189.921 196.922 193.04L196.183 193.016C196.768 192.32 197.373 191.6 197.99 190.863C200.945 187.422 203.814 184.508 205.965 182.496C208.119 180.485 209.54 179.358 209.625 179.465Z" fill="#17282F"/>
<path d="M190.915 321.484C190.874 321.484 190.83 321.001 190.784 320.078C190.75 319.08 190.704 317.737 190.647 316.047C190.545 312.463 190.401 307.419 190.225 301.222C189.802 288.632 189.221 271.375 188.58 252.312C187.952 233.204 187.579 215.902 187.611 203.377C187.607 197.114 187.703 192.046 187.82 188.544C187.892 186.855 187.949 185.511 187.99 184.513C188.044 183.592 188.092 183.108 188.135 183.109C188.178 183.109 188.212 183.594 188.24 184.516C188.254 185.514 188.274 186.858 188.299 188.548C188.343 192.132 188.405 197.175 188.483 203.373C188.673 215.892 189.184 233.186 189.811 252.293C190.437 271.392 190.955 288.689 191.097 301.213C191.181 307.475 191.175 312.543 191.126 316.046C191.087 317.736 191.056 319.079 191.032 320.078C190.998 321.001 190.958 321.484 190.915 321.484Z" fill="#17282F"/>
<path d="M224.336 255.77C224.368 255.834 223.472 256.365 221.824 257.272C220.178 258.184 217.77 259.45 214.773 260.972C208.779 264.017 200.401 268.026 190.995 272.094C181.583 276.159 172.931 279.509 166.618 281.783C163.463 282.921 160.897 283.806 159.11 284.378C157.325 284.953 156.328 285.241 156.305 285.174C156.283 285.107 157.237 284.693 158.98 284.002C160.897 283.25 163.383 282.276 166.374 281.104C172.615 278.66 181.21 275.209 190.605 271.152C199.994 267.09 208.402 263.193 214.466 260.319C217.371 258.942 219.786 257.799 221.65 256.916C223.35 256.119 224.305 255.708 224.336 255.77Z" fill="#17282F"/>
<path d="M136.912 185.4C135.952 185.4 108.802 193.32 105.201 206.934C101.601 220.548 92.2682 234.684 92.2682 234.684L81.8359 249.306C81.8359 249.306 85.2141 276.029 104.42 270.952C104.42 270.952 117.236 273.218 121.317 260.065C125.398 246.913 138.841 209.934 138.841 209.934L136.912 185.4Z" fill="#7687C1"/>
<path d="M232.362 185.616C232.362 185.616 258.728 190.197 260.002 195.258C261.275 200.32 285.937 230.537 285.937 230.537L299.5 234.184L303.115 241.666C307.399 250.533 305.076 261.343 297.207 267.291C296.712 267.665 296.226 267.996 295.755 268.275C288.427 272.614 270.42 271.328 262.743 262.306C255.474 253.763 237.612 229.433 237.612 229.433L229.898 201.793L232.362 185.616Z" fill="#7687C1"/>
<path d="M292.871 236.251L312.378 224.704L321.777 236.251L319.832 241.84L294.685 260.559C294.685 260.559 289.97 257.085 288.853 250.419C287.678 243.405 292.871 236.251 292.871 236.251Z" fill="#F2DBC1"/>
<path d="M286.845 230.436C286.843 230.62 285.185 230.478 282.728 231.269C280.281 232.024 277.128 233.911 274.593 236.933C272.057 239.967 270.505 243.282 269.416 245.665C268.339 248.066 267.7 249.578 267.561 249.526C267.438 249.482 267.837 247.888 268.756 245.39C269.687 242.914 271.168 239.455 273.821 236.277C276.486 233.097 279.902 231.19 282.532 230.578C285.182 229.929 286.872 230.344 286.845 230.436Z" fill="#17282F"/>
<path d="M98.886 238.774L80.4632 223.785L69.8828 235.439L71.1771 241.144L94.2109 262.398C94.2109 262.398 99.1911 260.036 101.446 253.74C103.736 247.342 98.886 238.774 98.886 238.774Z" fill="#F2DBC1"/>
<path d="M111.179 259.637C111.025 259.653 110.761 257.659 110.158 254.492C109.542 251.345 108.547 246.954 106.211 242.685C103.87 238.428 100.46 235.43 97.6638 233.975C94.8594 232.474 92.8218 232.29 92.8599 232.099C92.8667 232.039 93.3747 232.026 94.2811 232.162C95.1876 232.294 96.4848 232.642 97.9832 233.335C100.985 234.683 104.652 237.748 107.093 242.194C109.521 246.635 110.419 251.165 110.862 254.375C111.29 257.609 111.302 259.625 111.179 259.637Z" fill="#17282F"/>
<path d="M115.833 239.405C115.629 239.646 112.745 236.566 108.067 234.949C103.413 233.253 99.318 233.855 99.2988 233.535C99.1918 233.303 103.455 232.195 108.386 233.979C113.336 235.704 116.054 239.288 115.833 239.405Z" fill="#17282F"/>
<path d="M297.868 262.384C297.845 262.44 297.416 262.338 296.684 262.031C295.951 261.726 294.931 261.169 293.8 260.297C291.547 258.593 288.881 255.314 288.026 250.942C287.19 246.565 288.444 242.529 289.901 240.111C290.626 238.879 291.365 237.985 291.931 237.429C292.496 236.871 292.856 236.618 292.899 236.661C293.03 236.78 291.75 237.99 290.508 240.44C289.264 242.843 288.205 246.667 288.986 250.757C289.784 254.842 292.191 257.997 294.241 259.765C296.306 261.577 297.945 262.225 297.868 262.384Z" fill="#17282F"/>
<path d="M309.223 232.788C308.942 232.502 305.029 225.086 309.339 218.025C313.648 210.964 318.441 207.429 321.212 204.925C323.983 202.422 328.893 194.6 330.531 195.58C332.168 196.559 333.345 198.443 332.442 201.473C331.538 204.503 322.974 211.393 325.355 214.09C326.33 215.195 329.476 214.423 329.476 214.423C329.476 214.423 341.497 211.375 346.307 209.344C351.115 207.313 355.856 206.814 356.154 208.606C356.452 210.397 355.818 211.641 351.835 213.31C347.85 214.979 341.113 216.88 341.077 217.93C341.04 218.981 342.599 219.136 344.932 218.191C347.265 217.245 358.525 213.595 359.708 214.627C360.891 215.66 360.931 217.818 359.535 218.743L357.194 220.54C357.194 220.54 359.423 222.177 358.531 223.788C357.639 225.398 354.6 225.911 354.6 225.911L339.533 230.324C339.533 230.324 338.972 231.502 339.598 231.98C340.226 232.46 351.635 227.817 352.136 229.07C352.636 230.324 353.854 230.59 350.634 232.578C347.413 234.566 338.627 237.414 335.194 237.584C331.761 237.753 318.345 241.441 318.345 241.441L309.223 232.788Z" fill="#F2DBC1"/>
<path d="M326.43 209.247C326.579 209.32 326.017 210.355 325.42 212.044C325.137 212.896 324.933 213.91 325.08 215.051C325.202 216.198 325.627 217.455 325.886 218.89C326.438 221.845 325.366 224.544 324.236 226.062C323.08 227.621 321.97 228.164 321.917 228.073C321.807 227.944 322.72 227.216 323.64 225.676C324.541 224.159 325.386 221.716 324.891 219.065C324.654 217.735 324.24 216.427 324.152 215.14C324.037 213.844 324.362 212.658 324.752 211.796C325.568 210.063 326.332 209.196 326.43 209.247Z" fill="#E9C7A2"/>
<path d="M334.48 225.103C334.43 224.873 339.397 223.45 345.573 221.921C351.75 220.393 356.797 219.34 356.848 219.568C356.897 219.797 351.932 221.221 345.754 222.75C339.579 224.278 334.531 225.331 334.48 225.103Z" fill="#E9C7A2"/>
<path d="M82.72 237.21C83.0839 237.047 89.3565 231.614 87.8481 223.531C86.3392 215.448 83.1316 210.447 81.4402 207.131C79.7474 203.817 77.9496 194.813 76.0777 195.125C74.2062 195.437 72.4422 196.752 72.2085 199.877C71.9744 203.003 76.1967 209.516 74.083 212.378C72.5521 214.451 70.3779 212.913 70.3779 212.913C70.3779 212.913 60.2664 205.747 56.5092 202.129C52.7523 198.512 48.5155 196.335 47.6029 197.882C46.6903 199.429 46.8391 200.806 49.956 203.791C53.073 206.775 58.6716 210.97 58.3327 211.953C57.9947 212.936 56.4879 212.516 54.651 210.798C52.8144 209.081 43.6259 201.632 42.1573 202.157C40.6901 202.682 39.8875 204.662 40.8601 206.021L42.402 208.528C42.402 208.528 39.7466 209.235 40.0057 211.046C40.2645 212.856 42.9125 214.43 42.9125 214.43L55.3743 223.961C55.3743 223.961 55.4789 225.252 54.7261 225.467C53.9727 225.683 44.997 217.264 44.0857 218.24C43.1753 219.217 41.9472 219.022 44.2404 222.024C46.5338 225.027 53.704 230.839 56.8401 232.237C59.9765 233.637 71.1595 241.901 71.1595 241.901L82.72 237.21Z" fill="#F2DBC1"/>
<path d="M59.9459 221.202C59.7719 221.48 55.4172 219.085 50.4463 215.514C45.4681 211.95 41.7865 208.583 41.9858 208.324C42.1931 208.05 46.1829 210.97 51.1367 214.515C56.0817 218.069 60.1281 220.911 59.9459 221.202Z" fill="#E9C7A2"/>
<path d="M70.0112 225.91C69.9354 225.982 69.0359 225.187 68.4493 223.441C67.8624 221.751 67.7543 218.988 69.3565 216.662C70.1496 215.53 71.1236 214.713 71.9155 213.944C72.7236 213.185 73.3514 212.458 73.7565 211.758C74.5996 210.365 74.434 209.266 74.5934 209.259C74.705 209.198 75.1764 210.422 74.4075 212.099C74.0488 212.92 73.3997 213.789 72.6051 214.605C71.823 215.434 70.9079 216.253 70.2127 217.251C68.8244 219.261 68.7825 221.693 69.15 223.283C69.5074 224.914 70.1537 225.82 70.0112 225.91Z" fill="#E9C7A2"/>
<path d="M187.548 181.351C187.674 181.409 186.816 183.578 185.325 187.038C184.936 187.929 184.526 188.871 184.094 189.863C183.6 190.888 183.275 191.929 182.545 193.132C182.193 193.71 181.35 194.314 180.468 194.136C179.628 193.983 179.067 193.493 178.515 193.139C177.391 192.371 176.233 191.58 175.047 190.768C170.299 187.507 166.034 184.508 162.976 182.297C159.916 180.085 158.064 178.661 158.143 178.546C158.222 178.433 160.217 179.651 163.379 181.713C166.541 183.776 170.87 186.681 175.618 189.943C176.801 190.76 177.954 191.557 179.074 192.331C179.641 192.722 180.155 193.115 180.625 193.192C181.077 193.28 181.47 193.042 181.79 192.598C182.906 190.571 183.838 188.385 184.678 186.743C186.335 183.358 187.421 181.294 187.548 181.351Z" fill="#17282F"/>
<path d="M240.96 211.636C241.048 211.631 241.206 212.539 241.414 214.185C241.628 215.831 241.851 218.219 242.051 221.172C242.469 227.078 242.687 235.248 242.714 244.263C242.714 253.177 242.713 261.237 242.713 267.346C242.717 270.146 242.719 272.491 242.722 274.34C242.713 275.992 242.666 276.908 242.578 276.91C242.49 276.913 242.367 276.002 242.223 274.353C242.072 272.702 241.933 270.313 241.808 267.358C241.553 261.449 241.459 253.281 241.434 244.266C241.407 235.254 241.331 227.1 241.146 221.198C241.055 218.401 240.978 216.057 240.917 214.209C240.861 212.557 240.872 211.641 240.96 211.636Z" fill="#5F6FA7"/>
<path d="M125.992 215.31C126.066 215.298 126.272 216.028 126.58 217.358C126.894 218.687 127.275 220.624 127.694 223.024C128.538 227.825 129.429 234.493 130.172 241.875C130.913 249.257 131.458 255.944 131.867 260.783C132.043 263.029 132.194 264.942 132.316 266.516C132.409 267.871 132.424 268.625 132.348 268.633C132.272 268.641 132.114 267.902 131.891 266.558C131.664 265.214 131.394 263.263 131.092 260.85C130.485 256.024 129.817 249.342 129.076 241.969C128.335 234.597 127.568 227.937 126.924 223.124C126.623 220.89 126.368 218.987 126.157 217.422C125.98 216.075 125.917 215.322 125.992 215.31Z" fill="#5F6FA7"/>
<path fill-rule="evenodd" clip-rule="evenodd" d="M140.458 92.2952C140.231 73.3952 143.568 53.8669 154.055 51.8042C162.23 43.6179 167.663 42.8901 201.033 38.2186C208.751 39.0576 216.378 40.3624 223.339 45.0915C227.827 47.7567 226.884 50.4716 224.056 52.7906C222.628 55.9436 221.171 58.0304 227.86 65.4521C233.904 71.0021 230.892 81.1666 232.71 88.322C232.701 97.7552 232.692 107.188 232.683 116.621C230.87 128.904 224.081 142.099 210.325 156.571C197.229 169.31 183.557 169.112 169.543 161.247C157.441 154.967 149.22 138.093 142.731 129.795C140.539 121.114 136.092 111.841 140.458 92.2952Z" fill="#F2DBC1"/>
<path fill-rule="evenodd" clip-rule="evenodd" d="M232.773 88.6426C232.889 89.8097 232.493 91.2639 232.536 92.3187C232.995 103.593 229.908 108.424 226.123 114.423C224.026 123.903 218.499 129.387 213.218 131.528C208.328 135.785 205.953 148.369 200.347 149.549C190.46 154.146 176.765 153.506 169.208 148.367C162.659 144.914 162.174 130.054 158.39 129.069C149.161 118.818 145.827 118.905 141.018 102.533C140.833 99.119 140.647 95.7052 140.461 92.2915C136.095 111.838 140.542 121.11 142.735 129.792C149.224 138.09 157.445 154.963 169.547 161.243C181.649 167.523 196.768 165.657 210.328 156.568C224.085 142.095 230.874 128.9 232.687 116.618C233.64 103.537 235.598 94.5734 233.253 88.8238C232.764 88.3092 232.945 88.8319 232.773 88.6426Z" fill="#17282F"/>
<path d="M174.366 94.4385C170.87 98.8484 170.572 106.628 173.555 107.036C174.956 105.619 180.368 104.444 181.038 106.585C184.598 112.596 188.354 109.201 190.164 105.836C191.826 104.26 195.389 105.241 197.466 108.184C200.732 108.023 200.985 99.1014 198.031 95.8478" stroke="#CEAC87" stroke-width="0.72729" stroke-miterlimit="22.9256"/>
<path fill-rule="evenodd" clip-rule="evenodd" d="M173.503 107.145C173.955 107.595 178.345 107.217 181.046 106.581C180.154 104.44 174.3 105.668 173.503 107.145Z" fill="#17282F"/>
<path fill-rule="evenodd" clip-rule="evenodd" d="M196.464 107.211C196.037 107.684 192.391 106.716 189.991 106.222C190.77 104.037 195.223 105.089 196.464 107.211Z" fill="#17282F"/>
<path fill-rule="evenodd" clip-rule="evenodd" d="M192.965 72.5554C200.314 70.2201 207.376 70.0745 214.819 71.3358C217.108 72.301 218.78 73.8553 221.947 75.3236C222.015 76.7151 222.082 78.1063 222.149 79.4978C213.224 75.784 206.329 75.4163 200.063 76.0833C197.372 76.1355 194.641 76.4813 191.772 77.8099C190.713 76.9398 189.654 76.0699 188.595 75.1997C190.056 74.3626 191.945 74.0193 192.965 72.5554Z" fill="black"/>
<path fill-rule="evenodd" clip-rule="evenodd" d="M150.732 76.3481C156.564 74.7448 162.787 73.734 171.498 76.5159C174.595 77.4003 177.71 78.0228 180.959 76.5636C181.605 76.0934 182.251 75.6232 182.897 75.1529C181.01 72.2574 176.369 71.0058 172.042 70.0707C166.217 69.3532 160.717 68.7261 155.354 69.4782C151.881 71.4981 150.381 73.7941 150.732 76.3481Z" fill="black"/>
<path fill-rule="evenodd" clip-rule="evenodd" d="M162.023 130.909C165.097 127.439 162.106 122.387 163.887 119.065C170.249 117.82 180.585 114.671 182.333 115.029C185.324 116.27 188.39 116.16 191.5 115.245C194.672 115.289 202.067 118.926 207.351 120.766C208.074 120.691 209.21 121.186 210.009 121.982C211.296 122.832 206.999 129.652 209.153 132.253C210.819 125.981 213.521 120.4 213.067 117.664C212.311 113.239 209.591 113.082 207.529 111.089C206.258 110.894 204.341 110.324 201.93 109.612C200.56 109.208 198.956 109.551 196.93 108.604C193.903 107.682 192.932 106.973 190.2 106.445C186.016 112.227 182.936 110.16 181.048 106.582C175.725 109.893 168.932 109.577 164.952 111.707C155.188 118.78 164.172 124.259 162.023 130.909Z" fill="#17282F"/>
<path fill-rule="evenodd" clip-rule="evenodd" d="M234.696 85.9219C233.729 85.3614 239.093 80.088 243.413 80.7345C244.253 82.0946 243.931 83.6522 243.294 85.2629C243.557 88.2343 245.197 88.2034 239.338 97.8319C236.122 104.841 238.094 118.939 232.308 118.791C232.937 111.199 234.957 103.955 233.626 95.9587C233.107 92.5843 233.946 89.3303 234.696 85.9219Z" fill="#F2DBC1"/>
<path d="M238.811 92.8719C238.811 92.8719 237.621 86.2979 242.986 82.5998" stroke="#CEAC87" stroke-width="0.72729" stroke-miterlimit="22.9256"/>
<path fill-rule="evenodd" clip-rule="evenodd" d="M139.855 88.2404C138.599 81.2618 134.938 79.1214 131.039 81.4859C130.213 83.0956 131.948 92.7039 134.41 98.546C136.173 104.836 134.432 117.95 139.509 117.42C139.574 110.702 139.639 103.983 139.704 97.264C139.755 94.2562 139.805 91.2482 139.855 88.2404Z" fill="#F2DBC1"/>
<path d="M131.414 82.207C131.414 82.207 134.479 82.8253 135.887 90.4733" stroke="#CEAC87" stroke-width="0.72729" stroke-miterlimit="22.9256"/>
<path d="M158.794 117.276C158.794 117.276 158.927 112.699 164.885 109.811" stroke="#CEAC87" stroke-width="0.72729" stroke-miterlimit="22.9256"/>
<path d="M204.992 103.742C204.992 103.742 205.953 108.862 212.839 114.714" stroke="#CEAC87" stroke-width="0.72729" stroke-miterlimit="22.9256"/>
<path fill-rule="evenodd" clip-rule="evenodd" d="M232.697 88.3181C230.879 81.1627 233.892 70.9982 227.847 65.4483C221.158 58.0265 222.615 55.9397 224.043 52.7867C226.871 50.4677 227.814 47.7529 223.326 45.0876C216.366 40.3585 208.738 39.0537 201.021 38.2147C167.65 42.8862 162.217 43.614 154.042 51.8003C143.555 53.863 140.218 73.3914 140.445 92.2913C140.671 111.191 139.042 90.1632 139.042 90.1632C138.627 87.765 138.212 85.367 137.797 82.9687C135.696 72.6727 133.595 62.3767 131.495 52.0806C131.411 22.7521 152.272 12.2405 174.858 2.75814C181.298 2.63176 190.138 4.74496 196.363 7.00605C199.225 9.00856 216.024 3.34545 233.747 29.9918C236.686 39.6733 243.533 47.0287 242.563 59.0363C239.607 69.6564 236.65 80.2762 233.694 90.8962C233.362 90.0369 233.029 89.1774 232.697 88.3181Z" fill="#17282F"/>
<path fill-rule="evenodd" clip-rule="evenodd" d="M182.603 75.1758C184.519 75.0146 188.245 74.9782 189.827 75.4102C192.623 75.4952 192.578 72.5072 205.617 72.6401C210.724 72.8018 216.49 73.8992 221.948 75.322C223.69 76.0734 225.802 76.4352 228.265 76.426C228.275 77.6325 228.286 78.839 228.297 80.0454C225.326 79.814 225.259 81.2527 225.183 82.4139C224.438 88.089 223.587 94.0984 219.508 96.0285C211.729 98.0573 204.177 98.3772 197.016 95.7317C192.631 93.7458 190.824 88.155 189.768 81.2983C188.547 78.3521 183.977 79.0892 183.406 80.5928C180.978 84.4275 179.203 92.1713 175.12 93.9585C167.608 96.0842 157.752 95.3065 152.603 92.6935C149.55 91.0016 148.278 87.1649 148.33 84.7954C148.544 82.0508 148.476 79.194 147.598 77.1928C147.012 75.9722 145.382 75.7719 144.453 75.0765C144.529 73.9314 144.605 72.786 144.681 71.6409C148.069 71.9828 151.96 71.5233 155.563 70.0205C161.639 69.9484 175.907 69.1249 182.603 75.1758Z" fill="#17282F"/>
<path fill-rule="evenodd" clip-rule="evenodd" d="M150.733 76.3504C149.79 79.8076 149.679 83.4787 150.228 87.32C150.793 89.2726 152.191 91.2859 154.481 92.0509C160.496 93.3289 166.49 93.8447 172.449 93.0069C175.097 92.5181 177.237 90.9318 178.543 87.7254C180.374 84.634 182.272 79.1958 181.391 76.8134C173.87 72.3772 164.46 72.62 154.936 73.1433C152.457 73.4931 151.379 74.7779 150.733 76.3504Z" fill="#FDE6CD"/>
<path fill-rule="evenodd" clip-rule="evenodd" d="M222.276 79.8846C222.854 83.4209 222.584 87.0838 221.639 90.8473C220.874 92.7307 219.275 94.5879 216.918 95.1109C210.803 95.7575 204.787 95.6481 198.948 94.1961C196.365 93.435 194.401 91.6352 193.436 88.3105C191.935 85.0456 190.612 79.4397 191.735 77.1618C199.677 73.5304 209.011 74.7489 218.429 76.2583C220.858 76.8636 221.796 78.2533 222.276 79.8846Z" fill="#FDE6CD"/>
<path d="M153.251 83.2423C153.251 83.2423 165.072 73.8483 173.904 81.2374" stroke="#CEAC87" stroke-width="0.72729" stroke-miterlimit="22.9256"/>
<path d="M172.335 86.1998C172.335 86.1998 168.813 90.9821 157.586 88.9742" stroke="#CEAC87" stroke-width="0.72729" stroke-miterlimit="22.9256"/>
<path fill-rule="evenodd" clip-rule="evenodd" d="M196.285 85.0422C201.862 79.1635 213.345 79.9032 217.168 86.5764C214.195 92.3864 198.451 88.1115 196.285 85.0422Z" fill="#ECD2B4"/>
<path fill-rule="evenodd" clip-rule="evenodd" d="M174.358 83.6099C170.04 77.9188 157.036 78.7823 153.569 85.6474C157.872 90.7447 175.453 85.5921 174.358 83.6099Z" fill="#ECD2B4"/>
<path d="M197.503 82.6478C197.503 82.6478 207.894 74.4346 218.971 85.0675" stroke="#CEAC87" stroke-width="0.72729" stroke-miterlimit="22.9256"/>
<path d="M200.016 89.1875C200.016 89.1875 202.591 92.9303 215.501 91.1295" stroke="#CEAC87" stroke-width="0.72729" stroke-miterlimit="22.9256"/>
<path fill-rule="evenodd" clip-rule="evenodd" d="M150.73 76.3512C156.563 74.7479 162.786 73.7371 171.496 76.519C174.594 77.4034 177.709 78.0259 180.958 76.5667C180.312 77.037 181.604 76.0965 180.958 76.5667C177.654 74.4643 174.586 74.1218 170.259 73.1867C164.434 72.4692 160.164 72.4734 154.801 73.2256C152.594 73.2839 151.529 74.7843 150.73 76.3512Z" fill="black"/>
<path fill-rule="evenodd" clip-rule="evenodd" d="M195.717 75.8288C200.828 74.2218 210.41 74.7056 214.486 75.7025C217.07 76.0026 219.277 75.9444 220.787 77.3768C221.165 77.7351 221.92 78.4514 222.144 79.499C213.218 75.7851 206.324 75.4175 200.057 76.0845C197.367 76.1366 194.23 76.8233 191.361 78.152C191.672 77.7378 191.332 77.0485 192.068 77.0291C193.529 76.1919 195.349 75.8385 195.717 75.8288Z" fill="black"/>
<path fill-rule="evenodd" clip-rule="evenodd" d="M139.228 76.2559C139.543 74.6944 143.044 75.9072 144.458 75.0787C144.528 74.023 144.598 72.9671 144.668 71.9114C142.899 71.8553 141.131 71.7988 139.363 71.7427C136.336 72.4924 137.134 76.425 139.228 76.2559Z" fill="white"/>
<path fill-rule="evenodd" clip-rule="evenodd" d="M233.418 81.2159C233.021 79.6732 229.676 80.5228 228.219 79.7699C228.094 78.7194 228.395 77.6365 228.27 76.586C230.033 76.4368 231.228 77.3329 232.991 77.1837C234.38 77.451 234.947 81.09 233.418 81.2159Z" fill="white"/>
<path d="M165.957 119.306L184.697 118.076L194.279 118.56L197.958 118.463L205.392 121.212L204.724 123.806L195.586 126.255L174.194 124.61L167.506 122.21L165.957 119.306Z" fill="white"/>
<path fill-rule="evenodd" clip-rule="evenodd" d="M165.334 119.092C171.661 119.772 178.961 113.948 184.523 116.935C185.247 117.611 187.088 118.368 187.96 117.225C189.784 116.018 191.211 115.812 193.722 116.566C199.17 117.735 202.95 120.215 207.362 120.779C205.067 122.068 200.07 119.89 197.091 119.081C191.002 120.115 185.871 120.986 179.881 119.153C176.413 118.608 172.692 119.199 168.672 120.401C166.845 120.293 165.987 119.74 165.334 119.092Z" fill="#99746C"/>
<path fill-rule="evenodd" clip-rule="evenodd" d="M164.99 119.089C164.103 119.309 166.586 123.094 171.088 125.896C175.211 128.462 181.117 129.221 186.129 129.238C196.135 130.037 204.504 126.72 207.367 120.783C207.28 120.528 204.701 122.8 202.617 123.485C199.502 124.51 196.343 124.36 193.399 124.565C188.779 124.794 184.351 124.739 180.548 123.76C173.924 122.439 170.078 124.769 164.99 119.089Z" fill="#99746C"/>
<path fill-rule="evenodd" clip-rule="evenodd" d="M179.445 128.746C184.797 129.272 189.138 129.492 194.002 129.03C194.815 129.676 191.886 132.422 186.885 132.554C181.542 132.361 179.48 130.08 179.445 128.746Z" fill="#17282F"/>
<path fill-rule="evenodd" clip-rule="evenodd" d="M196.61 85.1469C204.374 80.1041 210.393 81.3907 215.452 86.1591C208.915 89.9197 199.043 84.9289 196.61 85.1469Z" fill="white" stroke="#2B2B2A" stroke-width="0.288643" stroke-miterlimit="22.9256"/>
<path fill-rule="evenodd" clip-rule="evenodd" d="M203.171 82.3687C202.789 83.3513 202.881 86.8123 205.129 87.0764C205.129 87.0764 207.298 87.8817 208.788 87.5011C210.208 86.8955 210.813 83.9321 210.285 82.5924C207.654 81.6195 205.57 81.7179 203.171 82.3687Z" fill="#17282F"/>
<path fill-rule="evenodd" clip-rule="evenodd" d="M154.975 85.0527C160.359 79.9022 166.556 78.4281 174.248 83.7193C171.26 84.391 157.798 88.1407 154.975 85.0527Z" fill="white" stroke="#2B2B2A" stroke-width="0.288643" stroke-miterlimit="22.9256"/>
<path fill-rule="evenodd" clip-rule="evenodd" d="M168.697 80.9552C168.92 81.8608 169.334 84.9083 167.104 85.2904C166.045 85.4472 164.531 85.7503 163.472 85.9071C161.968 85.728 161.35 82.2231 161.979 80.8051C164.297 80.2995 166.613 80.3271 168.697 80.9552Z" fill="#17282F"/>
<g clip-path="url(#clip0_691_8932)">
<path fill-rule="evenodd" clip-rule="evenodd" d="M54.2969 203.965L97.2046 159.292L120.64 181.801L77.7319 226.474L54.2969 203.965Z" fill="#B3DB9E"/>
<path fill-rule="evenodd" clip-rule="evenodd" d="M93.7275 170.153C95.4479 171.851 98.485 171.845 100.225 170.076L109.498 178.982C107.663 180.844 107.701 183.88 109.757 185.896L81.2108 215.617C79.3287 213.763 76.2913 213.769 74.5512 215.538L65.279 206.632C67.118 204.761 67.0824 201.725 65.1891 199.865L93.7275 170.153Z" fill="#E0F2DA"/>
<path fill-rule="evenodd" clip-rule="evenodd" d="M78.128 195.895C76.4091 190.721 79.1973 185.178 84.3559 183.514C89.5142 181.85 95.089 184.695 96.8079 189.87C98.527 195.044 95.7386 200.586 90.58 202.25C85.4212 203.914 79.8469 201.069 78.128 195.895Z" fill="#B3DB9E"/>
<path fill-rule="evenodd" clip-rule="evenodd" d="M81.1177 191.516L85.8543 186.584C85.8948 186.542 85.9639 186.542 86.0079 186.584L86.7672 187.314C86.7883 187.333 86.8007 187.361 86.8017 187.389C86.8028 187.418 86.7925 187.446 86.773 187.467L85.2937 189.007C85.8124 189.038 86.3228 189.195 86.7762 189.479L87.7802 188.434C87.8208 188.392 87.8896 188.392 87.9336 188.434L88.6931 189.163C88.7369 189.205 88.7397 189.275 88.6991 189.317L87.6952 190.362C88.057 190.891 88.2397 191.51 88.2427 192.133C88.2465 192.949 87.9419 193.775 87.3278 194.414L87.3304 194.417L87.2621 194.488L93.1065 194.783C93.2645 194.791 93.3305 195.106 93.2744 195.165L92.0534 196.451L85.8143 196.136C85.7895 196.134 85.7654 196.127 85.7444 196.113C85.7233 196.1 85.7061 196.081 85.6943 196.059L84.4481 194.862L86.0538 193.19L86.0563 193.193C86.345 192.892 86.488 192.506 86.4865 192.125C86.4861 191.978 86.4632 191.832 86.4186 191.691L83.9625 194.248C83.922 194.29 83.8529 194.29 83.8091 194.248L83.0496 193.519C83.0056 193.477 83.0031 193.408 83.0436 193.366L85.4996 190.808C85.3574 190.769 85.2103 190.752 85.0634 190.758C84.6827 190.772 84.3024 190.93 84.0137 191.231L84.0161 191.233L82.4105 192.905L81.1238 191.669C81.0798 191.627 81.0771 191.558 81.1176 191.516L81.1177 191.516Z" fill="#FEFEFE"/>
</g>
<rect x="55.0038" y="203.951" width="60.9413" height="31.4938" transform="rotate(-46.1546 55.0038 203.951)" stroke="black"/>
<g clip-path="url(#clip1_691_8932)">
<path fill-rule="evenodd" clip-rule="evenodd" d="M49.0547 201.375L82.5027 149.241L109.852 166.788L76.4038 218.922L49.0547 201.375Z" fill="#B3DB9E"/>
<path fill-rule="evenodd" clip-rule="evenodd" d="M81.1921 160.567C83.2087 161.9 86.1872 161.306 87.5522 159.234L98.3731 166.176C96.934 168.358 97.5588 171.329 99.9663 172.909L77.7134 207.594C75.5082 206.14 72.5294 206.734 71.1645 208.806L60.3437 201.863C61.7857 199.671 61.1629 196.7 58.9455 195.242L81.1921 160.567Z" fill="#E0F2DA"/>
<path fill-rule="evenodd" clip-rule="evenodd" d="M70.8734 188.846C68.1853 184.102 69.8479 178.125 74.5868 175.494C79.3253 172.862 85.3455 174.575 88.0336 179.318C90.7217 184.061 89.0591 190.039 84.3202 192.67C79.5812 195.302 73.5615 193.589 70.8734 188.846Z" fill="#B3DB9E"/>
<path fill-rule="evenodd" clip-rule="evenodd" d="M72.9519 183.971L76.6442 178.216C76.6759 178.167 76.7436 178.153 76.7949 178.186L77.6811 178.755C77.7056 178.77 77.723 178.794 77.7296 178.822C77.7363 178.85 77.7315 178.88 77.7165 178.904L76.5633 180.701C77.0782 180.632 77.6094 180.687 78.1092 180.878L78.8918 179.658C78.9235 179.609 78.9909 179.595 79.0423 179.628L79.9286 180.196C79.9798 180.229 79.9959 180.297 79.9642 180.346L79.1816 181.566C79.639 182.014 79.938 182.586 80.0615 183.197C80.2233 183.997 80.0843 184.866 79.6056 185.612L79.6087 185.614L79.5555 185.697L85.3464 184.856C85.503 184.833 85.6288 185.129 85.5851 185.198L84.6362 186.696L78.454 187.594C78.4294 187.598 78.4043 187.595 78.3811 187.586C78.3578 187.576 78.3373 187.562 78.3215 187.542L76.8672 186.609L78.1188 184.658L78.1217 184.66C78.3468 184.309 78.4123 183.902 78.3371 183.529C78.3083 183.385 78.2574 183.246 78.1865 183.117L76.2719 186.101C76.2403 186.15 76.1725 186.164 76.1214 186.131L75.235 185.562C75.1836 185.529 75.1679 185.462 75.1995 185.413L77.114 182.429C76.9669 182.418 76.8193 182.43 76.6764 182.464C76.3055 182.551 75.963 182.78 75.738 183.131L75.7408 183.133L74.4892 185.084L72.9876 184.12C72.9363 184.087 72.9203 184.02 72.9518 183.971L72.9519 183.971Z" fill="#FEFEFE"/>
</g>
<rect x="49.7455" y="201.224" width="60.9413" height="31.4938" transform="rotate(-57.3167 49.7455 201.224)" stroke="black"/>
<g clip-path="url(#clip2_691_8932)">
<path fill-rule="evenodd" clip-rule="evenodd" d="M47.3047 201.023L71.4879 143.998L101.403 156.684L77.2198 213.71L47.3047 201.023Z" fill="#B3DB9E"/>
<path fill-rule="evenodd" clip-rule="evenodd" d="M72.1062 155.382C74.3186 156.356 77.1544 155.269 78.1508 152.997L89.9869 158.016C88.936 160.409 90.0526 163.232 92.6919 164.384L76.6029 202.323C74.1842 201.261 71.3481 202.349 70.3519 204.621L58.5159 199.602C59.5678 197.198 58.4532 194.374 56.0217 193.31L72.1062 155.382Z" fill="#E0F2DA"/>
<path fill-rule="evenodd" clip-rule="evenodd" d="M66.7017 184.997C63.2526 180.775 63.8839 174.603 68.1116 171.21C72.3389 167.818 78.5615 168.491 82.0106 172.714C85.4597 176.936 84.8283 183.109 80.6007 186.501C76.3729 189.893 70.1507 189.22 66.7017 184.997Z" fill="#B3DB9E"/>
<path fill-rule="evenodd" clip-rule="evenodd" d="M67.9271 179.841L70.5967 173.546C70.6196 173.492 70.684 173.467 70.7402 173.491L71.7096 173.902C71.7363 173.913 71.7576 173.934 71.7688 173.961C71.78 173.987 71.7803 174.017 71.7696 174.043L70.9358 176.009C71.4316 175.854 71.9645 175.819 72.4893 175.923L73.0552 174.588C73.0781 174.534 73.1422 174.51 73.1984 174.533L74.1679 174.945C74.2239 174.968 74.2511 175.032 74.2282 175.086L73.6624 176.42C74.1888 176.785 74.5799 177.299 74.8046 177.88C75.0989 178.641 75.1084 179.521 74.7623 180.337L74.7656 180.339L74.7271 180.429L80.2934 178.624C80.444 178.575 80.6179 178.846 80.5864 178.921L79.9035 180.558L73.9612 182.485C73.9375 182.493 73.9122 182.494 73.8878 182.489C73.8634 182.484 73.8406 182.473 73.8218 182.456L72.231 181.782L73.136 179.648L73.1391 179.649C73.3019 179.265 73.2979 178.853 73.1609 178.498C73.1081 178.361 73.0346 178.232 72.9429 178.117L71.5586 181.381C71.5357 181.435 71.4712 181.459 71.4152 181.436L70.4457 181.024C70.3895 181.001 70.3628 180.937 70.3856 180.883L71.7697 177.619C71.623 177.633 71.4795 177.67 71.3443 177.728C70.9934 177.876 70.6945 178.159 70.5318 178.543L70.5348 178.544L69.6299 180.678L67.9875 179.982C67.9313 179.958 67.9043 179.895 67.9271 179.841L67.9271 179.841Z" fill="#FEFEFE"/>
</g>
<rect x="47.9602" y="200.758" width="60.9413" height="31.4938" transform="rotate(-67.0193 47.9602 200.758)" stroke="black"/>
<g clip-path="url(#clip3_691_8932)">
<path fill-rule="evenodd" clip-rule="evenodd" d="M50.9766 209.426L46.5154 147.645L78.9249 145.305L83.3861 207.085L50.9766 209.426Z" fill="#B3DB9E"/>
<path fill-rule="evenodd" clip-rule="evenodd" d="M52.2561 157.498C54.6692 157.357 56.6981 155.097 56.5494 152.62L69.3724 151.694C69.5276 154.303 71.808 156.307 74.6821 156.129L77.6502 197.232C75.0136 197.389 72.9847 199.65 73.1334 202.126L60.3104 203.052C60.1514 200.433 57.8722 198.427 55.2233 198.589L52.2561 157.498Z" fill="#E0F2DA"/>
<path fill-rule="evenodd" clip-rule="evenodd" d="M60.9398 186.322C55.9452 184.135 53.6945 178.354 55.9118 173.408C58.1286 168.462 63.9744 166.225 68.969 168.412C73.9632 170.599 76.2141 176.381 73.9968 181.327C71.7795 186.273 65.9342 188.509 60.9398 186.322Z" fill="#B3DB9E"/>
<path fill-rule="evenodd" clip-rule="evenodd" d="M59.6793 181.172L59.1869 174.352C59.1826 174.294 59.2287 174.242 59.2895 174.238L60.3398 174.162C60.3686 174.16 60.3971 174.169 60.4192 174.187C60.4413 174.206 60.4551 174.232 60.4576 174.26L60.6114 176.39C60.9818 176.026 61.4401 175.752 61.9547 175.605L61.8503 174.16C61.8461 174.101 61.8919 174.05 61.9528 174.046L63.0031 173.97C63.0637 173.965 63.1169 174.009 63.1212 174.068L63.2255 175.513C63.8606 175.599 64.4426 175.877 64.9075 176.292C65.5163 176.836 65.9258 177.615 65.9897 178.499L65.9933 178.499L66.0004 178.597L70.1323 174.453C70.2441 174.341 70.5224 174.503 70.5286 174.584L70.6665 176.352L66.2554 180.776C66.2378 180.793 66.2159 180.806 66.1918 180.813C66.1678 180.819 66.1424 180.82 66.1182 180.814L64.3947 180.938L64.2278 178.626L64.2312 178.626C64.2012 178.21 64.0098 177.845 63.726 177.591C63.6165 177.493 63.4925 177.412 63.3583 177.352L63.6136 180.888C63.6178 180.946 63.5715 180.998 63.5109 181.002L62.4606 181.078C62.3997 181.082 62.347 181.038 62.3428 180.98L62.0873 177.443C61.9632 177.523 61.8521 177.621 61.758 177.734C61.5132 178.026 61.3764 178.414 61.4064 178.83L61.4097 178.83L61.5768 181.142L59.7973 181.27C59.7365 181.274 59.6835 181.23 59.6793 181.172L59.6793 181.172Z" fill="#FEFEFE"/>
</g>
<rect x="51.4393" y="208.891" width="60.9413" height="31.4938" transform="rotate(-94.1302 51.4393 208.891)" stroke="black"/>
<g clip-path="url(#clip4_691_8932)">
<path fill-rule="evenodd" clip-rule="evenodd" d="M49.0312 214.727L27.205 156.758L57.6148 145.308L79.441 203.277L49.0312 214.727Z" fill="#B3DB9E"/>
<path fill-rule="evenodd" clip-rule="evenodd" d="M35.5041 164.576C37.7776 163.755 39.081 161.012 38.2349 158.68L50.2667 154.149C51.1566 156.607 53.9124 157.881 56.6176 156.894L71.1386 195.46C68.6554 196.36 67.3522 199.104 68.1982 201.436L56.1663 205.966C55.2701 203.5 52.5149 202.224 50.021 203.132L35.5041 164.576Z" fill="#E0F2DA"/>
<path fill-rule="evenodd" clip-rule="evenodd" d="M52.0209 189.743C46.6109 189.064 42.8106 184.16 43.5316 178.788C44.2522 173.416 49.222 169.611 54.632 170.289C60.0416 170.967 63.8421 175.872 63.1212 181.244C62.4002 186.616 57.4308 190.421 52.0209 189.743Z" fill="#B3DB9E"/>
<path fill-rule="evenodd" clip-rule="evenodd" d="M49.3506 185.163L46.9412 178.764C46.9206 178.709 46.9501 178.647 47.0072 178.625L47.9927 178.255C48.0196 178.244 48.0496 178.245 48.076 178.256C48.1024 178.267 48.1231 178.289 48.1336 178.315L48.8861 180.314C49.1378 179.859 49.4992 179.466 49.9511 179.18L49.4404 177.823C49.4197 177.768 49.4491 177.706 49.5062 177.685L50.4917 177.314C50.5486 177.292 50.6121 177.319 50.6328 177.374L51.1435 178.731C51.7766 178.632 52.4137 178.734 52.9773 178.999C53.7154 179.348 54.3294 179.978 54.6418 180.808L54.6452 180.807L54.6799 180.899L57.4646 175.752C57.54 175.613 57.8528 175.689 57.8818 175.765L58.5162 177.421L55.5434 182.916C55.5314 182.937 55.514 182.956 55.4928 182.969C55.4716 182.982 55.4474 182.99 55.4225 182.991L53.8054 183.6L52.9886 181.43L52.9918 181.429C52.8449 181.039 52.5578 180.744 52.2136 180.581C52.0808 180.518 51.9389 180.476 51.7928 180.455L53.0422 183.773C53.0628 183.828 53.033 183.89 52.9761 183.912L51.9906 184.283C51.9335 184.304 51.8704 184.277 51.8498 184.222L50.6003 180.904C50.5038 181.016 50.4251 181.141 50.367 181.276C50.2152 181.626 50.1944 182.037 50.3413 182.427L50.3444 182.426L51.1613 184.595L49.4917 185.224C49.4346 185.245 49.3713 185.218 49.3507 185.163L49.3506 185.163Z" fill="#FEFEFE"/>
</g>
<rect x="49.323" y="214.082" width="60.9413" height="31.4938" transform="rotate(-110.632 49.323 214.082)" stroke="black"/>
<g clip-path="url(#clip5_691_8932)">
<path fill-rule="evenodd" clip-rule="evenodd" d="M50.6016 218.906L8.41116 173.555L32.2019 151.423L74.3923 196.774L50.6016 218.906Z" fill="#B3DB9E"/>
<path fill-rule="evenodd" clip-rule="evenodd" d="M19.0554 177.637C20.8474 176.015 21.0124 172.982 19.3445 171.145L28.7574 162.388C30.5132 164.324 33.5462 164.457 35.6747 162.518L63.7439 192.69C61.7879 194.464 61.6232 197.497 63.2909 199.334L53.8779 208.091C52.1131 206.15 49.0798 206.015 47.1167 207.801L19.0554 177.637Z" fill="#E0F2DA"/>
<path fill-rule="evenodd" clip-rule="evenodd" d="M43.8864 194.658C38.6236 196.083 33.2467 192.988 31.8752 187.744C30.5034 182.5 33.6578 177.094 38.9206 175.669C44.1828 174.243 49.5601 177.339 50.9316 182.583C52.3031 187.827 49.149 193.233 43.8864 194.658Z" fill="#B3DB9E"/>
<path fill-rule="evenodd" clip-rule="evenodd" d="M39.6805 191.433L35.0231 186.426C34.9832 186.383 34.9868 186.314 35.0315 186.273L35.8025 185.556C35.8235 185.536 35.8514 185.525 35.8802 185.526C35.9089 185.526 35.9362 185.538 35.956 185.559L37.4105 187.122C37.471 186.606 37.6562 186.105 37.9654 185.668L36.9783 184.607C36.9384 184.564 36.9419 184.496 36.9866 184.454L37.7576 183.737C37.8021 183.695 37.8712 183.697 37.9111 183.739L38.8983 184.801C39.4467 184.469 40.0748 184.321 40.697 184.353C41.512 184.396 42.3194 184.746 42.9232 185.395L42.9259 185.393L42.9931 185.465L43.6165 179.646C43.6334 179.489 43.9518 179.441 44.0075 179.5L45.2227 180.792L44.5571 187.003C44.5544 187.028 44.5452 187.051 44.5306 187.072C44.5161 187.092 44.4965 187.108 44.4739 187.118L43.2087 188.295L41.6299 186.598L41.6324 186.596C41.3485 186.291 40.9707 186.126 40.5905 186.106C40.4437 186.099 40.2964 186.113 40.1536 186.15L42.5686 188.746C42.6084 188.789 42.6045 188.858 42.56 188.899L41.7889 189.616C41.7443 189.658 41.6755 189.656 41.6357 189.614L39.2206 187.018C39.1737 187.158 39.1484 187.303 39.1458 187.45C39.138 187.831 39.2749 188.22 39.5588 188.525L39.5612 188.523L41.1402 190.22L39.834 191.435C39.7893 191.477 39.7204 191.475 39.6806 191.433L39.6805 191.433Z" fill="#FEFEFE"/>
</g>
<rect x="50.6271" y="218.2" width="60.9413" height="31.4938" transform="rotate(-132.932 50.6271 218.2)" stroke="black"/>
<g clip-path="url(#clip6_691_8932)">
<path fill-rule="evenodd" clip-rule="evenodd" d="M52.6797 224.402L0.040913 191.754L17.1678 164.141L69.8065 196.788L52.6797 224.402Z" fill="#B3DB9E"/>
<path fill-rule="evenodd" clip-rule="evenodd" d="M11.3871 192.891C12.6889 190.854 12.05 187.885 9.95739 186.552L16.7337 175.626C18.9372 177.032 21.8982 176.361 23.4412 173.93L58.4617 195.651C57.0418 197.878 57.6811 200.847 59.7734 202.18L52.9971 213.106C50.7835 211.698 47.8216 212.366 46.3977 214.605L11.3871 192.891Z" fill="#E0F2DA"/>
<path fill-rule="evenodd" clip-rule="evenodd" d="M39.8194 202.778C35.1173 205.539 29.1153 203.968 26.412 199.269C23.7085 194.572 25.3289 188.526 30.0309 185.766C34.7325 183.005 40.7349 184.577 43.4382 189.275C46.1415 193.973 44.5213 200.018 39.8194 202.778Z" fill="#B3DB9E"/>
<path fill-rule="evenodd" clip-rule="evenodd" d="M34.9114 200.772L29.1006 197.168C29.0508 197.137 29.0361 197.07 29.0683 197.018L29.6234 196.123C29.6384 196.099 29.6625 196.081 29.6903 196.074C29.7182 196.067 29.7476 196.071 29.7722 196.086L31.587 197.211C31.5094 196.697 31.5563 196.165 31.7397 195.663L30.5081 194.899C30.4583 194.868 30.4436 194.801 30.4758 194.749L31.0308 193.854C31.0629 193.802 31.1299 193.785 31.1796 193.816L32.4113 194.58C32.8531 194.116 33.4202 193.808 34.0289 193.675C34.8262 193.501 35.6974 193.627 36.4508 194.094L36.4527 194.091L36.5365 194.143L35.6066 188.366C35.5815 188.209 35.876 188.079 35.9454 188.122L37.4576 189.048L38.4503 195.215C38.4541 195.24 38.4515 195.265 38.4428 195.288C38.434 195.312 38.4194 195.333 38.4003 195.349L37.4896 196.817L35.5197 195.595L35.5215 195.592C35.1673 195.373 34.7595 195.314 34.3875 195.394C34.2438 195.425 34.1055 195.478 33.9774 195.551L36.9905 197.42C37.0402 197.451 37.0545 197.519 37.0225 197.57L36.4675 198.465C36.4353 198.517 36.3686 198.534 36.3189 198.503L33.3058 196.634C33.2973 196.781 33.3113 196.929 33.3475 197.071C33.4402 197.441 33.6746 197.78 34.0288 197.999L34.0305 197.996L36.0004 199.218L35.0601 200.734C35.0279 200.786 34.9611 200.803 34.9115 200.772L34.9114 200.772Z" fill="#FEFEFE"/>
</g>
<rect x="52.5183" y="223.714" width="60.9413" height="31.4938" transform="rotate(-148.192 52.5183 223.714)" stroke="black"/>
<g clip-path="url(#clip7_691_8932)">
<path fill-rule="evenodd" clip-rule="evenodd" d="M331.141 203.965L374.048 159.292L397.483 181.801L354.576 226.474L331.141 203.965Z" fill="#B3DB9E"/>
<path fill-rule="evenodd" clip-rule="evenodd" d="M370.571 170.153C372.292 171.851 375.329 171.845 377.069 170.076L386.341 178.982C384.507 180.844 384.545 183.88 386.601 185.896L358.055 215.617C356.172 213.763 353.135 213.769 351.395 215.538L342.123 206.632C343.962 204.761 343.926 201.725 342.033 199.865L370.571 170.153Z" fill="#E0F2DA"/>
<path fill-rule="evenodd" clip-rule="evenodd" d="M354.972 195.895C353.253 190.721 356.041 185.178 361.2 183.514C366.358 181.85 371.933 184.695 373.652 189.87C375.371 195.044 372.582 200.586 367.424 202.25C362.265 203.914 356.691 201.069 354.972 195.895Z" fill="#B3DB9E"/>
<path fill-rule="evenodd" clip-rule="evenodd" d="M357.961 191.516L362.698 186.584C362.739 186.542 362.808 186.542 362.852 186.584L363.611 187.314C363.632 187.333 363.644 187.361 363.645 187.389C363.647 187.418 363.636 187.446 363.617 187.467L362.137 189.007C362.656 189.038 363.167 189.195 363.62 189.479L364.624 188.434C364.665 188.392 364.733 188.392 364.777 188.434L365.537 189.163C365.581 189.205 365.583 189.275 365.543 189.317L364.539 190.362C364.901 190.891 365.083 191.51 365.086 192.133C365.09 192.949 364.786 193.775 364.172 194.414L364.174 194.417L364.106 194.488L369.95 194.783C370.108 194.791 370.174 195.106 370.118 195.165L368.897 196.451L362.658 196.136C362.633 196.134 362.609 196.127 362.588 196.113C362.567 196.1 362.55 196.081 362.538 196.059L361.292 194.862L362.898 193.19L362.9 193.193C363.189 192.892 363.332 192.506 363.33 192.125C363.33 191.978 363.307 191.832 363.262 191.691L360.806 194.248C360.766 194.29 360.697 194.29 360.653 194.248L359.893 193.519C359.849 193.477 359.847 193.408 359.887 193.366L362.343 190.808C362.201 190.769 362.054 190.752 361.907 190.758C361.526 190.772 361.146 190.93 360.857 191.231L360.86 191.233L359.254 192.905L357.968 191.669C357.924 191.627 357.921 191.558 357.961 191.516L357.961 191.516Z" fill="#FEFEFE"/>
</g>
<rect x="331.848" y="203.951" width="60.9413" height="31.4938" transform="rotate(-46.1546 331.848 203.951)" stroke="black"/>
<g clip-path="url(#clip8_691_8932)">
<path fill-rule="evenodd" clip-rule="evenodd" d="M325.898 201.375L359.346 149.241L386.696 166.788L353.248 218.922L325.898 201.375Z" fill="#B3DB9E"/>
<path fill-rule="evenodd" clip-rule="evenodd" d="M358.036 160.567C360.052 161.9 363.031 161.306 364.396 159.234L375.217 166.176C373.778 168.358 374.403 171.329 376.81 172.909L354.557 207.594C352.352 206.14 349.373 206.734 348.008 208.806L337.187 201.863C338.629 199.671 338.007 196.7 335.789 195.242L358.036 160.567Z" fill="#E0F2DA"/>
<path fill-rule="evenodd" clip-rule="evenodd" d="M347.717 188.846C345.029 184.102 346.692 178.125 351.431 175.494C356.169 172.862 362.189 174.575 364.877 179.318C367.565 184.061 365.903 190.039 361.164 192.67C356.425 195.302 350.405 193.589 347.717 188.846Z" fill="#B3DB9E"/>
<path fill-rule="evenodd" clip-rule="evenodd" d="M349.796 183.971L353.488 178.216C353.52 178.167 353.587 178.153 353.639 178.186L354.525 178.755C354.549 178.77 354.567 178.794 354.573 178.822C354.58 178.85 354.575 178.88 354.56 178.904L353.407 180.701C353.922 180.632 354.453 180.687 354.953 180.878L355.736 179.658C355.767 179.609 355.835 179.595 355.886 179.628L356.772 180.196C356.824 180.229 356.84 180.297 356.808 180.346L356.025 181.566C356.483 182.014 356.782 182.586 356.905 183.197C357.067 183.997 356.928 184.866 356.449 185.612L356.452 185.614L356.399 185.697L362.19 184.856C362.347 184.833 362.473 185.129 362.429 185.198L361.48 186.696L355.298 187.594C355.273 187.598 355.248 187.595 355.225 187.586C355.202 187.576 355.181 187.562 355.165 187.542L353.711 186.609L354.963 184.658L354.965 184.66C355.191 184.309 355.256 183.902 355.181 183.529C355.152 183.385 355.101 183.246 355.03 183.117L353.116 186.101C353.084 186.15 353.016 186.164 352.965 186.131L352.079 185.562C352.027 185.529 352.012 185.462 352.043 185.413L353.958 182.429C353.811 182.418 353.663 182.43 353.52 182.464C353.149 182.551 352.807 182.78 352.582 183.131L352.585 183.133L351.333 185.084L349.831 184.12C349.78 184.087 349.764 184.02 349.796 183.971L349.796 183.971Z" fill="#FEFEFE"/>
</g>
<rect x="326.589" y="201.224" width="60.9413" height="31.4938" transform="rotate(-57.3167 326.589 201.224)" stroke="black"/>
<g clip-path="url(#clip9_691_8932)">
<path fill-rule="evenodd" clip-rule="evenodd" d="M324.148 201.023L348.332 143.998L378.247 156.684L354.064 213.71L324.148 201.023Z" fill="#B3DB9E"/>
<path fill-rule="evenodd" clip-rule="evenodd" d="M348.95 155.382C351.162 156.356 353.998 155.269 354.995 152.997L366.831 158.016C365.78 160.409 366.896 163.232 369.536 164.384L353.447 202.323C351.028 201.261 348.192 202.349 347.196 204.621L335.36 199.602C336.412 197.198 335.297 194.374 332.865 193.31L348.95 155.382Z" fill="#E0F2DA"/>
<path fill-rule="evenodd" clip-rule="evenodd" d="M343.545 184.997C340.096 180.775 340.728 174.603 344.955 171.21C349.183 167.818 355.405 168.491 358.854 172.714C362.303 176.936 361.672 183.109 357.444 186.501C353.217 189.893 346.994 189.22 343.545 184.997Z" fill="#B3DB9E"/>
<path fill-rule="evenodd" clip-rule="evenodd" d="M344.771 179.841L347.44 173.546C347.463 173.492 347.528 173.467 347.584 173.491L348.553 173.902C348.58 173.913 348.601 173.934 348.613 173.961C348.624 173.987 348.624 174.017 348.613 174.043L347.78 176.009C348.275 175.854 348.808 175.819 349.333 175.923L349.899 174.588C349.922 174.534 349.986 174.51 350.042 174.533L351.012 174.945C351.068 174.968 351.095 175.032 351.072 175.086L350.506 176.42C351.033 176.785 351.424 177.299 351.648 177.88C351.943 178.641 351.952 179.521 351.606 180.337L351.609 180.339L351.571 180.429L357.137 178.624C357.288 178.575 357.462 178.846 357.43 178.921L356.747 180.558L350.805 182.485C350.781 182.493 350.756 182.494 350.732 182.489C350.707 182.484 350.684 182.473 350.666 182.456L349.075 181.782L349.98 179.648L349.983 179.649C350.146 179.265 350.142 178.853 350.005 178.498C349.952 178.361 349.878 178.232 349.787 178.117L348.402 181.381C348.379 181.435 348.315 181.459 348.259 181.436L347.289 181.024C347.233 181.001 347.207 180.937 347.229 180.883L348.613 177.619C348.467 177.633 348.323 177.67 348.188 177.728C347.837 177.876 347.538 178.159 347.376 178.543L347.379 178.544L346.474 180.678L344.831 179.982C344.775 179.958 344.748 179.895 344.771 179.841L344.771 179.841Z" fill="#FEFEFE"/>
</g>
<rect x="324.804" y="200.758" width="60.9413" height="31.4938" transform="rotate(-67.0193 324.804 200.758)" stroke="black"/>
<g clip-path="url(#clip10_691_8932)">
<path fill-rule="evenodd" clip-rule="evenodd" d="M327.82 209.426L323.359 147.645L355.769 145.305L360.23 207.085L327.82 209.426Z" fill="#B3DB9E"/>
<path fill-rule="evenodd" clip-rule="evenodd" d="M329.1 157.498C331.513 157.357 333.542 155.097 333.393 152.62L346.216 151.694C346.371 154.303 348.652 156.307 351.526 156.129L354.494 197.232C351.857 197.389 349.828 199.65 349.977 202.126L337.154 203.052C336.995 200.433 334.716 198.427 332.067 198.589L329.1 157.498Z" fill="#E0F2DA"/>
<path fill-rule="evenodd" clip-rule="evenodd" d="M337.784 186.322C332.789 184.135 330.538 178.354 332.756 173.408C334.972 168.462 340.818 166.225 345.813 168.412C350.807 170.599 353.058 176.381 350.841 181.327C348.623 186.273 342.778 188.509 337.784 186.322Z" fill="#B3DB9E"/>
<path fill-rule="evenodd" clip-rule="evenodd" d="M336.523 181.172L336.031 174.352C336.026 174.294 336.072 174.242 336.133 174.238L337.184 174.162C337.212 174.16 337.241 174.169 337.263 174.187C337.285 174.206 337.299 174.232 337.301 174.26L337.455 176.39C337.826 176.026 338.284 175.752 338.798 175.605L338.694 174.16C338.69 174.101 338.736 174.05 338.797 174.046L339.847 173.97C339.907 173.965 339.961 174.009 339.965 174.068L340.069 175.513C340.704 175.599 341.286 175.877 341.751 176.292C342.36 176.836 342.77 177.615 342.833 178.499L342.837 178.499L342.844 178.597L346.976 174.453C347.088 174.341 347.366 174.503 347.372 174.584L347.51 176.352L343.099 180.776C343.082 180.793 343.06 180.806 343.036 180.813C343.012 180.819 342.986 180.82 342.962 180.814L341.238 180.938L341.072 178.626L341.075 178.626C341.045 178.21 340.854 177.845 340.57 177.591C340.46 177.493 340.336 177.412 340.202 177.352L340.457 180.888C340.462 180.946 340.415 180.998 340.355 181.002L339.304 181.078C339.243 181.082 339.191 181.038 339.187 180.98L338.931 177.443C338.807 177.523 338.696 177.621 338.602 177.734C338.357 178.026 338.22 178.414 338.25 178.83L338.253 178.83L338.421 181.142L336.641 181.27C336.58 181.274 336.527 181.23 336.523 181.172L336.523 181.172Z" fill="#FEFEFE"/>
</g>
<rect x="328.283" y="208.891" width="60.9413" height="31.4938" transform="rotate(-94.1302 328.283 208.891)" stroke="black"/>
<g clip-path="url(#clip11_691_8932)">
<path fill-rule="evenodd" clip-rule="evenodd" d="M325.875 214.727L304.049 156.758L334.459 145.308L356.285 203.277L325.875 214.727Z" fill="#B3DB9E"/>
<path fill-rule="evenodd" clip-rule="evenodd" d="M312.348 164.576C314.621 163.755 315.925 161.012 315.079 158.68L327.11 154.149C328 156.607 330.756 157.881 333.461 156.894L347.982 195.46C345.499 196.36 344.196 199.104 345.042 201.436L333.01 205.966C332.114 203.5 329.359 202.224 326.865 203.132L312.348 164.576Z" fill="#E0F2DA"/>
<path fill-rule="evenodd" clip-rule="evenodd" d="M328.865 189.743C323.455 189.064 319.654 184.16 320.375 178.788C321.096 173.416 326.066 169.611 331.476 170.289C336.885 170.967 340.686 175.872 339.965 181.244C339.244 186.616 334.275 190.421 328.865 189.743Z" fill="#B3DB9E"/>
<path fill-rule="evenodd" clip-rule="evenodd" d="M326.194 185.163L323.785 178.764C323.764 178.709 323.794 178.647 323.851 178.625L324.836 178.255C324.863 178.244 324.893 178.245 324.92 178.256C324.946 178.267 324.967 178.289 324.977 178.315L325.73 180.314C325.982 179.859 326.343 179.466 326.795 179.18L326.284 177.823C326.263 177.768 326.293 177.706 326.35 177.685L327.335 177.314C327.392 177.292 327.456 177.319 327.477 177.374L327.987 178.731C328.62 178.632 329.257 178.734 329.821 178.999C330.559 179.348 331.173 179.978 331.486 180.808L331.489 180.807L331.524 180.899L334.308 175.752C334.384 175.613 334.697 175.689 334.726 175.765L335.36 177.421L332.387 182.916C332.375 182.937 332.358 182.956 332.337 182.969C332.315 182.982 332.291 182.99 332.266 182.991L330.649 183.6L329.832 181.43L329.836 181.429C329.689 181.039 329.402 180.744 329.057 180.581C328.925 180.518 328.783 180.476 328.637 180.455L329.886 183.773C329.907 183.828 329.877 183.89 329.82 183.912L328.834 184.283C328.777 184.304 328.714 184.277 328.694 184.222L327.444 180.904C327.348 181.016 327.269 181.141 327.211 181.276C327.059 181.626 327.038 182.037 327.185 182.427L327.188 182.426L328.005 184.595L326.335 185.224C326.278 185.245 326.215 185.218 326.194 185.163L326.194 185.163Z" fill="#FEFEFE"/>
</g>
<rect x="326.167" y="214.082" width="60.9413" height="31.4938" transform="rotate(-110.632 326.167 214.082)" stroke="black"/>
<g clip-path="url(#clip12_691_8932)">
<path fill-rule="evenodd" clip-rule="evenodd" d="M327.445 218.906L285.255 173.555L309.046 151.423L351.236 196.774L327.445 218.906Z" fill="#B3DB9E"/>
<path fill-rule="evenodd" clip-rule="evenodd" d="M295.899 177.637C297.691 176.015 297.856 172.982 296.188 171.145L305.601 162.388C307.357 164.324 310.39 164.457 312.518 162.518L340.588 192.69C338.632 194.464 338.467 197.497 340.135 199.334L330.722 208.091C328.957 206.15 325.924 206.015 323.96 207.801L295.899 177.637Z" fill="#E0F2DA"/>
<path fill-rule="evenodd" clip-rule="evenodd" d="M320.73 194.658C315.467 196.083 310.09 192.988 308.719 187.744C307.347 182.5 310.502 177.094 315.764 175.669C321.027 174.243 326.404 177.339 327.775 182.583C329.147 187.827 325.993 193.233 320.73 194.658Z" fill="#B3DB9E"/>
<path fill-rule="evenodd" clip-rule="evenodd" d="M316.524 191.433L311.867 186.426C311.827 186.383 311.831 186.314 311.875 186.273L312.646 185.556C312.667 185.536 312.695 185.525 312.724 185.526C312.753 185.526 312.78 185.538 312.8 185.559L314.254 187.122C314.315 186.606 314.5 186.105 314.809 185.668L313.822 184.607C313.782 184.564 313.786 184.496 313.83 184.454L314.601 183.737C314.646 183.695 314.715 183.697 314.755 183.739L315.742 184.801C316.29 184.469 316.919 184.321 317.541 184.353C318.356 184.396 319.163 184.746 319.767 185.395L319.77 185.393L319.837 185.465L320.46 179.646C320.477 179.489 320.796 179.441 320.851 179.5L322.066 180.792L321.401 187.003C321.398 187.028 321.389 187.051 321.374 187.072C321.36 187.092 321.34 187.108 321.318 187.118L320.052 188.295L318.474 186.598L318.476 186.596C318.192 186.291 317.814 186.126 317.434 186.106C317.287 186.099 317.14 186.113 316.997 186.15L319.412 188.746C319.452 188.789 319.448 188.858 319.404 188.899L318.633 189.616C318.588 189.658 318.519 189.656 318.479 189.614L316.064 187.018C316.017 187.158 315.992 187.303 315.99 187.45C315.982 187.831 316.119 188.22 316.403 188.525L316.405 188.523L317.984 190.22L316.678 191.435C316.633 191.477 316.564 191.475 316.524 191.433L316.524 191.433Z" fill="#FEFEFE"/>
</g>
<rect x="327.471" y="218.2" width="60.9413" height="31.4938" transform="rotate(-132.932 327.471 218.2)" stroke="black"/>
<g clip-path="url(#clip13_691_8932)">
<path fill-rule="evenodd" clip-rule="evenodd" d="M329.523 224.402L276.885 191.754L294.012 164.141L346.65 196.788L329.523 224.402Z" fill="#B3DB9E"/>
<path fill-rule="evenodd" clip-rule="evenodd" d="M288.231 192.891C289.533 190.854 288.894 187.885 286.801 186.552L293.577 175.626C295.781 177.032 298.742 176.361 300.285 173.93L335.305 195.651C333.886 197.878 334.525 200.847 336.617 202.18L329.841 213.106C327.627 211.698 324.665 212.366 323.241 214.605L288.231 192.891Z" fill="#E0F2DA"/>
<path fill-rule="evenodd" clip-rule="evenodd" d="M316.663 202.778C311.961 205.539 305.959 203.968 303.256 199.269C300.552 194.572 302.173 188.526 306.875 185.766C311.576 183.005 317.579 184.577 320.282 189.275C322.985 193.973 321.365 200.018 316.663 202.778Z" fill="#B3DB9E"/>
<path fill-rule="evenodd" clip-rule="evenodd" d="M311.755 200.772L305.944 197.168C305.895 197.137 305.88 197.07 305.912 197.018L306.467 196.123C306.482 196.099 306.506 196.081 306.534 196.074C306.562 196.067 306.591 196.071 306.616 196.086L308.431 197.211C308.353 196.697 308.4 196.165 308.583 195.663L307.352 194.899C307.302 194.868 307.287 194.801 307.32 194.749L307.875 193.854C307.907 193.802 307.974 193.785 308.023 193.816L309.255 194.58C309.697 194.116 310.264 193.808 310.873 193.675C311.67 193.501 312.541 193.627 313.295 194.094L313.296 194.091L313.38 194.143L312.45 188.366C312.425 188.209 312.72 188.079 312.789 188.122L314.301 189.048L315.294 195.215C315.298 195.24 315.295 195.265 315.287 195.288C315.278 195.312 315.263 195.333 315.244 195.349L314.333 196.817L312.363 195.595L312.365 195.592C312.011 195.373 311.603 195.314 311.231 195.394C311.088 195.425 310.949 195.478 310.821 195.551L313.834 197.42C313.884 197.451 313.898 197.519 313.866 197.57L313.311 198.465C313.279 198.517 313.212 198.534 313.163 198.503L310.15 196.634C310.141 196.781 310.155 196.929 310.191 197.071C310.284 197.441 310.518 197.78 310.873 197.999L310.874 197.996L312.844 199.218L311.904 200.734C311.872 200.786 311.805 200.803 311.755 200.772L311.755 200.772Z" fill="#FEFEFE"/>
</g>
<rect x="329.362" y="223.714" width="60.9413" height="31.4938" transform="rotate(-148.192 329.362 223.714)" stroke="black"/>
<defs>
<linearGradient id="paint0_linear_691_8932" x1="92.7973" y1="292.293" x2="251.123" y2="141.233" gradientUnits="userSpaceOnUse">
<stop stop-color="#D9B430"/>
<stop offset="1" stop-color="#303030" stop-opacity="0"/>
</linearGradient>
<clipPath id="clip0_691_8932">
<rect x="54.2969" y="203.965" width="61.9413" height="32.4938" transform="rotate(-46.1546 54.2969 203.965)" fill="white"/>
</clipPath>
<clipPath id="clip1_691_8932">
<rect x="49.0547" y="201.375" width="61.9413" height="32.4938" transform="rotate(-57.3167 49.0547 201.375)" fill="white"/>
</clipPath>
<clipPath id="clip2_691_8932">
<rect x="47.3047" y="201.023" width="61.9413" height="32.4938" transform="rotate(-67.0193 47.3047 201.023)" fill="white"/>
</clipPath>
<clipPath id="clip3_691_8932">
<rect x="50.9766" y="209.426" width="61.9413" height="32.4938" transform="rotate(-94.1302 50.9766 209.426)" fill="white"/>
</clipPath>
<clipPath id="clip4_691_8932">
<rect x="49.0312" y="214.727" width="61.9413" height="32.4938" transform="rotate(-110.632 49.0312 214.727)" fill="white"/>
</clipPath>
<clipPath id="clip5_691_8932">
<rect x="50.6016" y="218.906" width="61.9413" height="32.4938" transform="rotate(-132.932 50.6016 218.906)" fill="white"/>
</clipPath>
<clipPath id="clip6_691_8932">
<rect x="52.6797" y="224.402" width="61.9413" height="32.4938" transform="rotate(-148.192 52.6797 224.402)" fill="white"/>
</clipPath>
<clipPath id="clip7_691_8932">
<rect x="331.141" y="203.965" width="61.9413" height="32.4938" transform="rotate(-46.1546 331.141 203.965)" fill="white"/>
</clipPath>
<clipPath id="clip8_691_8932">
<rect x="325.898" y="201.375" width="61.9413" height="32.4938" transform="rotate(-57.3167 325.898 201.375)" fill="white"/>
</clipPath>
<clipPath id="clip9_691_8932">
<rect x="324.148" y="201.023" width="61.9413" height="32.4938" transform="rotate(-67.0193 324.148 201.023)" fill="white"/>
</clipPath>
<clipPath id="clip10_691_8932">
<rect x="327.82" y="209.426" width="61.9413" height="32.4938" transform="rotate(-94.1302 327.82 209.426)" fill="white"/>
</clipPath>
<clipPath id="clip11_691_8932">
<rect x="325.875" y="214.727" width="61.9413" height="32.4938" transform="rotate(-110.632 325.875 214.727)" fill="white"/>
</clipPath>
<clipPath id="clip12_691_8932">
<rect x="327.445" y="218.906" width="61.9413" height="32.4938" transform="rotate(-132.932 327.445 218.906)" fill="white"/>
</clipPath>
<clipPath id="clip13_691_8932">
<rect x="329.523" y="224.402" width="61.9413" height="32.4938" transform="rotate(-148.192 329.523 224.402)" fill="white"/>
</clipPath>
</defs>
</svg>
