<svg width="236" height="325" viewBox="0 0 236 325" fill="none" xmlns="http://www.w3.org/2000/svg">
<path d="M121.374 85.9219C123.962 86.2023 126.543 86.4827 129.131 86.763C131.892 87.065 134.717 87.3813 137.197 88.6394C139.699 89.9119 141.633 92.0327 143.761 94.6064C142.488 95.275 140.935 94.8292 139.57 94.3763C135.917 93.1614 132.265 91.9536 128.606 90.7386C126.723 90.1132 124.774 89.4805 122.804 89.689C122.531 89.7178 122.237 89.7537 122.006 89.6099C121.812 89.4805 121.719 89.2505 121.633 89.0276C121.216 87.9205 120.82 86.5977 121.374 85.9219Z" fill="white"/>
<circle cx="118.017" cy="206.962" r="115.54" fill="url(#paint0_linear_827_1941)" stroke="white" stroke-width="4"/>
<path d="M68.7109 182.386L137.173 180.789L137.899 196.906L79.3106 213.967L68.7109 182.386Z" fill="#5F6FA7"/>
<path fill-rule="evenodd" clip-rule="evenodd" d="M69.2907 169.176C69.1716 176.049 70.1837 186.947 72.1076 194.697C71.2687 197.623 75.2518 202.365 74.4129 205.291C73.4792 215.251 82.0589 210.025 87.6533 227.345C92.372 224.599 96.8811 221.827 99.2525 218.787C94.1128 211.738 103.553 213.996 109.464 209.717C118.17 205.36 126.209 194.499 134.313 184.109C134.313 180.212 137.074 163.826 137.535 159.738C118.033 163.139 88.7933 165.776 69.2907 169.176Z" fill="#F2DBC1"/>
<path d="M57.6435 204.084L32.7395 229.876L15.4737 248.676L22.516 261.744C86.3448 308.495 103.849 336.392 194.507 266.245L196.172 226.76L149.706 199.555L137.335 180.802L97.4419 214.484L68.7021 182.319L57.6435 204.084Z" fill="#7687C1"/>
<path d="M190.664 217.982C183.213 208.671 133.166 195.799 133.166 195.799C122.879 215.881 92.3758 219.736 77.3227 197.162L31.4471 207.029L26.9418 274.541C43.7851 296.466 66.1147 311.068 90.9948 316.893C116.404 324.299 164.772 320.353 189.456 294.653L190.664 217.982Z" fill="#7687C1"/>
<path d="M189.407 216.561C197.437 221.593 204.867 230.771 207.019 243.27C207.166 244.124 212.184 269.708 212.445 272.338C201.846 285.769 185.365 300.87 160.318 309.945C161.822 291.915 164.101 259.213 167.525 248.353C174.552 226.057 183.073 212.593 189.407 216.561Z" fill="#7687C1"/>
<path d="M31.4443 206.826C43.3757 207.511 35.7113 218.836 39.1315 230.398C41.6193 238.801 66.4527 306.75 45.9066 289.181C25.3605 271.612 12.1473 247.073 7.76281 225.51C3.37827 203.948 31.4443 206.826 31.4443 206.826Z" fill="#7687C1"/>
<path d="M159.885 256.376C160.382 253.971 160.696 252.653 160.782 252.671C160.868 252.689 160.716 254.043 160.37 256.468C159.973 258.884 159.581 262.407 159.184 266.758C158.892 271.121 158.579 276.325 158.803 282.105C158.969 287.886 159.487 294.227 160.254 300.871C160.51 302.972 161.897 307.259 162.143 309.291L159.529 310.308C159.249 308.055 159.286 303.366 159 301.02C158.232 294.353 157.745 287.958 157.642 282.131C157.481 276.298 157.886 271.051 158.294 266.667C158.811 262.295 159.339 258.772 159.885 256.376Z" fill="#17282F"/>
<path d="M42.2333 244.63C42.4259 243.252 42.5687 242.494 42.6467 242.5C42.7267 242.505 42.7289 243.274 42.6704 244.659C42.5839 246.243 42.4757 248.202 42.3501 250.52C42.0104 255.682 41.5711 262.409 41.0841 269.847C40.7168 274.892 40.2992 279.615 39.8662 283.664L38.9673 282.72C39.2813 278.873 39.6163 274.469 39.9587 269.786C40.5106 262.244 41.0495 255.411 41.5559 250.473C41.8091 248.004 42.0363 246.008 42.2333 244.63Z" fill="#17282F"/>
<path d="M157.644 282.06C157.738 287.89 158.232 294.289 159.017 300.958C159.291 303.155 160.13 307.836 160.399 309.952C156.914 311.331 153.357 312.275 151.033 313.001C149.86 305.341 149.389 300.637 149.785 287.295C150.311 269.518 154.866 261.374 160.701 253.2L160.841 252.879C160.681 253.396 160.407 254.562 160.033 256.283C159.459 258.681 158.902 262.208 158.355 266.584C157.921 270.972 157.488 276.223 157.644 282.06Z" fill="#5F6FA7"/>
<path d="M61.1348 208.442C60.9805 208.635 63.1125 210.881 66.5378 214.507C69.9615 218.137 74.6561 223.179 79.6254 228.968C80.6713 230.2 81.6947 231.406 82.6844 232.571L83.3447 233.348L83.9376 232.53C87.787 227.2 91.116 222.465 93.4424 219.027C95.7704 215.589 97.0942 213.45 96.9319 213.313C96.7713 213.176 95.1534 215.065 92.5989 218.31C90.046 221.553 86.5564 226.153 82.6523 231.438L83.9038 231.396C82.9141 230.217 81.8891 228.997 80.8432 227.749C75.8386 221.92 70.9786 216.984 67.3347 213.576C63.6861 210.17 61.2794 208.26 61.1348 208.442Z" fill="#17282F"/>
<path d="M98.5147 211.637C98.3003 211.735 99.7551 215.408 102.28 221.271C102.938 222.779 103.633 224.375 104.365 226.055C105.201 227.792 105.752 229.555 106.989 231.593C107.585 232.573 109.013 233.595 110.508 233.294C111.929 233.035 112.881 232.205 113.815 231.605C115.72 230.303 117.681 228.964 119.69 227.588C127.733 222.064 134.957 216.985 140.138 213.239C145.32 209.492 148.458 207.079 148.324 206.886C148.19 206.693 144.811 208.757 139.455 212.25C134.098 215.744 126.766 220.666 118.723 226.191C116.719 227.575 114.766 228.924 112.868 230.236C111.908 230.898 111.037 231.564 110.242 231.695C109.475 231.843 108.81 231.44 108.268 230.688C106.378 227.254 104.799 223.552 103.376 220.771C100.57 215.037 98.7291 211.54 98.5147 211.637Z" fill="#17282F"/>
<path d="M92.2756 313.152C92.3482 313.152 92.4249 312.81 92.5037 312.157C92.5638 311.451 92.6426 310.5 92.7421 309.304C92.9204 306.767 93.1691 303.197 93.476 298.811C94.2119 289.899 95.2214 277.685 96.3367 264.192C97.4272 250.667 98.0761 238.421 98.0201 229.555C98.0284 225.123 97.8605 221.535 97.6573 219.057C97.5329 217.861 97.4334 216.91 97.3609 216.203C97.2676 215.551 97.1846 215.209 97.11 215.209C97.0354 215.209 96.9753 215.553 96.9276 216.205C96.9027 216.912 96.8675 217.863 96.8239 219.059C96.7472 221.596 96.6394 225.165 96.5047 229.553C96.1751 238.414 95.2857 250.654 94.1953 264.178C93.1069 277.697 92.2072 289.939 91.9605 298.804C91.8133 303.236 91.8237 306.824 91.9087 309.303C91.9771 310.499 92.031 311.45 92.0725 312.157C92.1326 312.81 92.201 313.152 92.2756 313.152Z" fill="#17282F"/>
<path d="M43.9695 92.992C41.3659 90.1425 40.6672 86.0885 40.0792 82.274C39.6084 79.2205 39.1369 76.1606 38.9732 73.0751C38.8998 71.6952 38.8881 70.3054 38.6381 68.9459C38.3805 67.5467 37.8753 66.2024 37.6055 64.8056C36.9651 61.4876 37.6819 58.0815 38.1527 54.7355C38.6014 51.5463 38.8269 48.3256 38.8368 45.0442C38.912 43.9132 38.2932 42.8526 38.169 41.7256C38.0397 40.5491 38.4761 39.3446 39.2459 38.446C39.7412 37.8674 40.3781 37.3895 40.7068 36.7025C40.8752 36.3511 40.9521 35.9636 41.0156 35.579C41.4358 33.0273 41.3431 30.3059 42.7189 28.0782C43.7713 24.8307 47.3708 23.2917 49.8387 20.9334C53.187 17.7331 54.8839 12.5439 59.2351 10.9548C61.8253 10.009 64.7325 10.6349 67.4277 10.0533C70.1711 9.46128 72.474 7.6793 74.8679 6.21433C80.3298 2.87123 86.7007 1.03099 93.1037 0.94591C96.5639 0.899874 100.037 1.3544 103.478 0.986701C105.812 0.736712 108.102 0.110864 110.448 0.0129661C114.832 -0.170592 119.261 1.60381 122.305 4.76334C123.643 6.15139 124.948 7.91239 126.926 8.15946C131.005 8.65653 134.998 10.1034 138.3 12.5497C141.603 14.996 144.185 18.4632 145.343 22.4065C145.861 24.1739 146.098 26.0247 146.766 27.7414C147.869 30.5734 150.053 32.8192 152.064 35.0983C154.075 37.3773 156.032 39.9162 156.48 42.9994C156.558 44.3718 156.89 45.7295 157.453 46.983C158.027 48.258 158.83 49.4135 159.55 50.6122C160.443 52.101 161.214 53.6767 161.665 55.3532C162.116 57.0297 162.237 58.8163 161.838 60.5057C161.588 61.5645 161.14 62.5703 160.915 63.6349C160.647 64.9012 160.703 66.2106 160.777 67.5526C160.509 69.2413 159.732 70.8007 159.217 72.4311C158.525 74.6193 158.31 76.9251 158.094 79.2094C157.878 81.4943 157.653 83.7995 156.943 85.9824C156.233 88.1647 154.99 90.2439 153.258 91.4979C151.087 99.7592 152.115 109.068 147.549 116.288C144.512 121.092 139.423 124.195 134.297 126.649C123.178 131.972 110.84 135.066 98.5312 134.396C86.2223 133.727 73.9664 129.115 65.0431 120.609C61.8096 117.527 59.0481 113.99 56.3617 110.421C52.102 104.758 48.8376 98.3193 43.9695 92.992Z" fill="#17282F"/>
<path d="M43.7084 113.886C43.8425 108.613 43.9765 103.339 44.1111 98.067C44.1805 95.3375 44.2486 92.5905 43.6799 89.9187C43.7632 86.9428 43.3559 83.9749 43.2836 80.9984C43.2114 78.0218 43.501 74.9491 44.8716 72.3059C46.3493 69.4563 49.0369 67.1825 49.686 64.0387C50.228 61.4159 49.2245 58.7109 49.4028 56.0385C49.6435 52.4338 52.2524 49.1029 55.8454 48.0161C58.9799 47.4975 62.1144 46.9789 65.2489 46.4603C66.7954 46.2044 68.356 45.9475 69.9212 46.0285C71.3156 46.1007 72.681 46.4393 74.0463 46.733C75.8731 47.1269 77.7332 47.4445 79.6014 47.3792C83.3233 47.2493 86.8033 45.6223 90.2262 44.1544C93.6492 42.6865 97.3057 41.3241 101.158 41.7751C106.267 42.1627 111.39 41.4506 116.512 41.3165C121.635 41.1825 126.967 41.6877 131.396 44.2651C132.417 44.8595 133.442 45.6468 133.73 46.8419C133.91 49.3482 132.461 51.6471 131.085 53.7501C129.709 55.8526 128.291 58.1847 128.545 60.6846C128.722 62.4298 129.705 63.991 130.826 65.34C133.477 68.5292 137.037 70.944 139.285 74.4287C140.516 76.336 141.312 78.5212 141.598 80.7729C141.802 82.3812 141.749 84.0105 141.85 85.6293C142.031 88.5284 142.712 91.3954 143.824 94.2169C145.682 93.9815 147.544 93.6418 149.283 92.9437C151.091 92.2182 152.725 91.1232 154.472 90.2614C156.219 89.3989 158.171 88.7614 160.158 89.0621C160.885 89.0907 161.528 89.5866 161.924 90.1967C162.32 90.8068 162.511 91.523 162.696 92.2263C163.606 95.6865 164.503 99.4346 163.174 102.757C162.657 104.048 161.831 105.187 161.114 106.378C157.047 113.136 156.514 121.475 153.041 128.556C152.487 129.686 151.828 130.816 150.805 131.549C148.768 133.01 145.515 132.246 144.187 130.11C141.496 141.007 139.351 151.522 136.81 161.977C136.695 165.211 129.594 173.089 128.315 176.061C127.487 177.989 124.83 178.413 123.524 180.054C116.768 188.551 121.146 194.156 111.358 198.379C107.898 199.868 103.953 199.317 100.2 198.995C95.4072 198.584 90.5817 198.594 85.8028 198.049C81.0238 197.505 87.2648 191.997 83.1578 189.493C81.6788 188.59 81.5867 189.134 80.5442 187.75C79.6683 186.588 75.4941 183.802 74.9539 182.45C73.6894 179.286 73.9336 179.419 73.3567 176.061C72.8602 173.171 65.4123 169.361 64.572 166.551C62.8979 160.95 56.2417 157.957 52.6387 153.4C45.9001 141.407 43.3693 127.227 43.7084 113.886Z" fill="#F2DBC1"/>
<path d="M133.27 85.6542C130.854 84.9001 129.561 82.3192 127.558 80.7721C126.4 79.877 125.012 79.3392 123.726 78.6393C122.019 77.7099 120.456 76.4757 118.607 75.8778C117.174 75.4145 115.645 75.3592 114.14 75.3557C108.668 75.3428 103.196 75.9629 97.8653 77.1994C94.1988 78.0502 90.2847 79.4266 88.2812 82.7388C89.0318 83.2965 89.7829 83.8535 90.5335 84.4112C90.7503 84.572 90.9711 84.7352 91.2234 84.8313C91.8498 85.0697 92.548 84.8611 93.3475 84.5878C96.0997 83.2609 98.9754 82.0978 102.005 81.698C103.439 81.5092 104.889 81.4935 106.335 81.4783C108.643 81.4545 110.951 81.43 113.259 81.4096C114.788 81.3962 116.323 81.3845 117.841 81.5704C120.011 81.8361 122.113 82.5016 124.163 83.2597C127.39 84.4514 130.524 85.8791 133.27 85.6542Z" fill="#17282F"/>
<path d="M47.3516 87.5216C50.07 85.5165 53.1223 83.9105 56.4112 83.1389C60.2041 82.2485 64.1877 82.4939 68.0103 83.2479C71.833 84.0014 75.5362 85.2513 79.2663 86.3771C80.4719 86.7413 81.8372 87.0776 83.1268 86.4209C83.6612 85.5357 84.2148 84.4996 83.8855 83.52C83.7626 83.1547 83.526 82.8394 83.2725 82.5492C80.8355 79.7527 76.926 78.9054 73.5188 77.4399C72.6494 77.0664 71.7916 76.641 70.8657 76.4469C69.9304 76.2506 68.9631 76.2977 68.0092 76.3525C64.5233 76.5524 61.0427 76.8414 57.5714 77.2196C56.3517 77.3525 55.1041 77.5052 54.0109 78.0611C53.2004 78.4731 52.5122 79.0896 51.8805 79.7428C49.7623 81.9304 48.168 84.622 47.3516 87.5216Z" fill="#17282F"/>
<path d="M79.3606 96.5195C78.3938 97.8977 77.4265 99.2764 76.4597 100.655C76.0833 101.191 75.704 101.733 75.458 102.34C74.9482 103.596 75.0484 105.024 74.6288 106.313C74.095 107.954 72.7822 109.21 71.9332 110.712C70.7118 112.873 70.6302 115.897 72.5467 117.537C73.4715 118.259 74.4284 118.998 75.56 119.308C76.6958 119.619 77.9539 119.455 78.9719 118.862" stroke="#CEAC87" stroke-miterlimit="10"/>
<path d="M74.5 116.135C75.3263 115.157 76.8344 114.833 77.9899 115.384C78.8535 115.796 79.4543 116.594 80.146 117.256C80.8937 117.971 81.7987 118.553 82.8103 118.771C83.8219 118.989 84.9471 118.806 85.7437 118.146C86.2617 117.716 86.6108 117.123 87.0315 116.598C88.0962 115.271 89.7278 114.354 91.4299 114.359C93.1315 114.365 94.8435 115.387 95.4665 116.971" stroke="#CEAC87" stroke-miterlimit="10"/>
<path d="M93.8203 118.693C95.118 119.643 96.8493 119.974 98.4058 119.57C99.0573 119.401 99.6837 119.106 100.185 118.656C101.011 117.916 101.439 116.802 101.516 115.694C101.594 114.587 101.349 113.481 101.004 112.426C100.589 111.158 100.025 109.939 99.3282 108.801" stroke="#CEAC87" stroke-miterlimit="10"/>
<path d="M88.8594 115.119C89.5458 115.628 90.2375 116.14 91.0114 116.502C91.7852 116.864 92.6558 117.071 93.499 116.931C94.1027 116.832 94.763 116.569 95.2892 116.882C95.1843 116.237 94.7944 115.659 94.2898 115.244C93.7851 114.828 93.171 114.563 92.5422 114.384C91.8942 114.199 91.2095 114.101 90.544 114.209C89.8786 114.317 89.2323 114.648 88.8594 115.119Z" fill="#17282F"/>
<path d="M74.7422 116.129C76.213 117.431 78.291 117.731 80.2396 117.975C80.1901 117.775 80.0689 117.6 79.95 117.431C79.3008 116.509 78.559 115.521 77.4641 115.25C76.5043 115.011 75.4799 115.402 74.7422 116.129Z" fill="#17282F"/>
<path d="M103.249 135.452C102.011 135.213 100.758 134.969 99.6166 134.434C99.0852 134.184 98.5846 133.876 98.0776 133.58C95.1995 131.904 92.0692 130.662 88.8245 129.908C87.4691 129.806 86.2075 131.027 84.7449 131.331C83.0724 131.679 81.4187 130.798 79.7393 130.487C79.2807 130.402 78.8046 130.36 78.3489 130.46C77.8291 130.574 77.3687 130.865 76.92 131.151C76.0407 131.711 75.1614 132.271 74.282 132.831C73.2133 133.511 72.1271 134.2 70.9145 134.567C70.1861 134.787 69.3382 134.944 68.9688 135.656C73.1539 136.718 77.0733 138.92 81.3132 139.198C86.0752 139.732 90.8833 139.855 95.7106 139.543C96.6855 139.504 97.6703 139.463 98.6097 139.2C100.931 138.551 102.813 136.601 105.211 136.363C104.558 136 103.909 135.579 103.249 135.452Z" fill="#99746C" stroke="black" stroke-miterlimit="10"/>
<path d="M69.683 135.027C70.4108 134.803 71.1812 134.719 71.9486 134.942C73.3816 134.715 74.8261 134.56 76.2748 134.478C78.7251 134.339 81.1825 134.407 83.7319 134.506C85.5384 134.543 87.3442 134.58 89.1507 134.618C90.449 134.645 91.7491 134.672 93.045 134.592C94.545 134.5 96.0455 134.266 97.5437 134.384C98.7604 134.481 99.9451 134.809 101.121 135.136C102.404 135.492 103.686 135.847 104.968 136.203C104.269 136.645 103.362 136.476 102.557 136.285C101.412 136.012 100.271 135.721 99.1357 135.414C98.3793 135.208 97.62 134.995 96.8403 134.915C95.637 134.791 94.4273 134.986 93.2198 135.054C92.2735 135.107 91.3254 135.081 90.3779 135.055C88.001 134.989 85.624 134.923 83.2966 134.921C81.8509 134.905 80.4057 134.89 78.96 134.875C78.1162 134.866 77.2683 134.858 76.435 134.989C75.7398 135.098 75.0633 135.303 74.3897 135.507C73.7026 135.715 73.0162 135.923 72.3414 136.071C71.2744 136.425 70.1218 136 69.0781 135.582C69.2401 135.292 69.5146 135.078 69.683 135.027Z" fill="#5B372F"/>
<path d="M115.149 148.902C114.329 145.86 114.56 142.642 114.137 139.521C113.641 135.856 112.224 132.321 110.053 129.328C109.442 127.452 107.423 126.881 105.727 126.244C101.701 124.732 98.3553 121.808 94.4306 120.051C90.9838 119.362 87.8219 122.407 84.35 122.282C82.1386 122.203 79.9464 120.836 77.8334 121.491C77.1953 121.689 76.6272 122.059 76.0683 122.426C73.1256 124.355 70.1828 126.284 67.2401 128.213C65.845 129.128 64.4144 130.076 63.4617 131.446C60.5702 135.604 63.1831 141.618 61.1768 146.203C60.967 146.73 60.7567 147.256 60.5469 147.783C61.1488 147.858 61.6797 147.397 62.0567 146.922C64.0654 144.392 64.1697 140.806 65.8881 138.07C67.0524 136.216 68.8705 134.887 70.6449 133.605C72.5865 132.202 74.5871 130.77 76.904 130.161C78.4843 129.745 80.1393 129.734 81.7732 129.724C84.4823 129.709 87.192 129.694 89.6989 129.713C94.9632 130.277 99.7019 133.037 104.258 135.735C106.101 136.827 107.962 137.932 109.52 139.404C111.362 141.145 112.733 143.382 113.449 145.814C113.913 147.39 114.123 149.08 114.995 150.472C115.287 149.922 115.241 149.242 115.149 148.902Z" fill="#17282F"/>
<path d="M142.329 88.1563C143.283 95.6385 143.283 103.242 142.329 110.724C141.799 114.886 140.864 119.239 138.038 122.341C134.269 126.48 127.932 127.519 124.219 131.708C121.892 134.334 120.911 137.843 119.653 141.118C118.294 144.661 116.54 148.052 114.435 151.209C112.725 153.775 110.546 156.343 107.54 157.027C105.247 157.55 102.858 156.878 100.662 156.04C95.05 153.902 89.2635 150.575 83.4333 152.014C79.9492 152.873 76.9196 155.39 73.3365 155.585C71.1332 155.705 68.9713 154.915 67.0343 153.858C61.6062 150.897 57.4572 145.677 55.797 139.721C55.2102 137.616 54.9165 135.415 54.0454 133.411C52.6806 130.269 50.0327 127.894 48.0858 125.076C45.6203 121.507 44.2905 117.166 44.3785 112.772C44.1856 106.63 44.283 100.48 44.6699 94.3483C44.7264 93.4544 44.7858 92.5337 44.4991 91.6847C44.2124 90.8362 43.487 90.0688 42.6094 90.1486C42.6438 100.261 42.6781 110.374 43.1431 120.517C42.603 128.85 43.6221 137.281 46.1325 145.245C47.9903 151.138 50.831 156.994 55.6997 160.746C56.7946 161.946 58.051 162.999 59.6483 164.11C62.9826 167.998 66.317 171.887 69.6513 175.776C71.1425 177.515 72.639 179.259 74.3376 180.796C78.183 184.273 82.9258 186.568 87.5981 188.816C89.3375 189.653 91.0944 190.496 92.9726 190.943C98.058 192.151 103.364 190.32 108.048 188C111.382 186.35 114.621 184.41 117.264 181.792C119.105 179.968 120.623 177.849 122.133 175.742C125.728 170.722 129.322 165.702 132.619 160.898C135.25 157.019 137.737 153.042 140.074 148.978C141.377 146.713 142.636 144.413 143.593 141.981C145.627 136.809 146.232 131.205 146.767 125.862C147.845 115.294 148.925 104.678 148.394 94.0686C148.292 92.0174 147.98 89.6912 146.301 88.5083C145.173 87.7146 143.56 87.6773 142.329 88.1563Z" fill="#17282F"/>
<path d="M148.586 105.31C150.258 102.929 151.569 100.314 153.152 97.8714C154.734 95.4292 156.649 93.1099 159.179 91.6741C159.946 91.2394 161.076 90.9655 161.578 91.6904C161.722 91.8996 161.779 92.1554 161.831 92.4043C162.24 94.3721 162.561 96.3581 162.793 98.3545C162.935 99.57 163.036 100.847 162.568 101.978C161.89 103.616 160.192 104.572 159.125 105.987C158.308 107.069 157.883 108.387 157.472 109.678C157.317 107.708 157.161 105.739 157.006 103.769C156.878 102.153 156.759 100.471 157.352 98.9617C157.841 97.7164 158.775 96.6966 159.351 95.4886C159.619 94.9257 159.808 94.2871 159.658 93.6822C159.507 93.0773 158.918 92.5499 158.304 92.6548C158.094 92.691 157.897 92.797 157.751 92.9532" fill="#CEAC87"/>
<path d="M153.066 120.511C152.485 120.104 152.336 119.198 152.755 118.625C152.991 118.301 153.357 118.102 153.696 117.887C155.762 116.574 157.148 114.247 157.32 111.805C157.698 113.094 157.503 114.54 156.794 115.682C156.234 116.584 155.394 117.272 154.669 118.048C153.944 118.824 153.299 119.776 153.29 120.839C153.178 120.914 153.009 120.888 153.066 120.511Z" fill="#CEAC87"/>
<path d="M148.476 115.584C149.796 115.25 151.125 114.652 151.918 113.545C152.711 112.438 152.772 110.729 151.759 109.818C151.159 109.277 150.265 109.059 149.843 108.37C149.613 107.994 149.565 107.534 149.584 107.093C149.617 106.291 149.883 105.451 150.511 104.951C151.139 104.451 152.18 104.439 152.671 105.074C152.897 105.364 152.98 105.737 153.125 106.076C153.446 106.831 154.069 107.413 154.506 108.108C155.548 109.768 155.344 112.158 153.919 113.503C153.609 113.796 153.254 114.038 152.941 114.328C152.498 114.74 152.143 115.25 151.643 115.591C150.933 116.074 150.033 116.152 149.177 116.215C148.961 116.23 148.728 116.243 148.543 116.129C148.36 116.017 148.237 115.645 148.476 115.584Z" fill="#CEAC87"/>
<path d="M43.2109 110.931C42.162 110.291 41.7943 108.955 41.6468 107.735C41.4446 106.059 41.4906 104.361 41.2937 102.684C41.0967 101.007 40.6265 99.3024 39.5409 98.0094C39.2489 97.6615 38.9138 97.3456 38.6738 96.9599C38.4331 96.5741 38.2956 96.0916 38.4447 95.6621C38.5392 95.3912 38.7379 95.1691 38.9517 94.9768C39.7885 94.2251 40.9371 93.8318 42.0588 93.9128C42.1992 93.9227 42.3455 93.9425 42.4591 94.0253C42.6182 94.1412 42.6742 94.3498 42.7138 94.5427C43.1176 96.5217 42.9014 98.5664 42.874 100.586C42.8315 103.729 43.2499 106.859 43.3938 110C43.4096 110.344 43.4142 110.715 43.2109 110.931Z" fill="#F2DBC1" stroke="black" stroke-miterlimit="10"/>
<path d="M38.3906 96.0248C38.4571 95.8954 38.5229 95.7661 38.5893 95.6367C40.8066 97.1029 41.813 99.8469 42.2185 102.474C42.6241 105.101 42.5763 107.811 43.3391 110.358C43.3659 110.447 43.3939 110.546 43.3572 110.633C43.2645 110.853 42.9271 110.746 42.7494 110.586C42.0356 109.94 41.6854 108.975 41.5554 108.02C41.4255 107.066 41.4884 106.097 41.4604 105.135C41.3817 102.408 40.5537 99.707 39.0916 97.4047C38.8114 96.9636 38.5072 96.5347 38.3906 96.0248Z" fill="#CEAC87"/>
<path d="M81.1936 81.2765C81.8113 81.8715 82.5857 82.3027 83.4173 82.5142C84.1113 82.6914 84.8339 82.7164 85.55 82.7234C86.4276 82.7322 87.3052 82.7158 88.1828 82.6989C88.8005 82.6873 89.4339 82.6721 90.0061 82.4408C90.7235 82.1506 91.266 81.5533 91.907 81.1198C92.5311 80.6979 93.2583 80.4298 94.1207 80.3785C98.1684 79.579 102.267 79.0383 106.288 78.7003C111.917 78.7061 117.546 79.2877 123.103 80.3902C126.305 80.8354 129.508 81.2806 132.71 81.7258C132.994 81.7654 133.304 81.8184 133.488 82.0376C133.643 82.2205 133.671 82.4758 133.69 82.7147C133.753 83.5404 133.78 84.3696 133.77 85.1977C133.768 85.3224 133.761 85.4599 133.674 85.5496C133.575 85.6522 133.415 85.6516 133.272 85.6522C132.262 85.6574 131.264 86.1067 130.59 86.8584C129.916 87.6102 129.579 88.6521 129.705 89.6771C129.413 92.6216 128.744 95.5166 127.964 98.3708C127.534 99.9418 127.046 101.55 126.016 102.811C125.006 104.046 123.501 104.863 121.899 105.051C118.934 105.571 115.932 105.873 112.873 105.935C108.998 106.101 105.105 105.851 101.257 105.222C99.5821 104.793 97.8351 104.326 96.5566 103.161C96.1399 102.782 95.7868 102.339 95.4505 101.887C94.6464 100.807 93.9296 99.6615 93.3073 98.4191C92.344 96.3901 91.59 94.2619 91.0626 92.0785C90.6454 90.353 90.3173 88.4906 89.0738 87.2057C88.2492 86.4301 87.0762 86.0415 85.9515 86.1702C84.8269 86.299 83.7721 86.9441 83.1445 87.8858C82.4861 88.8741 82.3136 90.0955 81.9744 91.2335C81.313 93.4531 79.9908 95.407 78.6937 97.305C77.9589 98.404 77.2235 99.503 76.4887 100.602C76.0219 101.3 75.5452 102.02 75.3704 102.842C75.2876 103.231 75.1822 103.736 74.7434 103.797C69.7116 105.069 64.4408 104.935 59.2406 104.65C56.7121 104.51 54.1983 104.117 51.7473 103.48C50.9286 103.267 50.1087 103.023 49.375 102.602C48.262 101.963 47.4043 100.943 46.7877 99.8182C46.1712 98.693 45.7796 97.46 45.3688 96.2351C45.1019 93.2375 44.6235 90.2586 43.9376 87.3281C43.7844 86.6731 43.5274 85.9167 42.8846 85.7186C42.4657 85.5898 42.0018 85.7501 41.5776 85.6399C40.8638 85.4552 40.5555 84.6202 40.4395 83.8918C40.3451 83.3003 40.3032 82.7007 40.3142 82.1022C40.3236 81.5958 40.3754 81.0737 40.6149 80.6273C40.8544 80.181 41.3194 79.8244 41.8229 79.8512C44.1189 79.8523 46.4154 79.572 48.628 79.0313C53.4873 78.0401 58.4737 77.6735 63.5003 77.9637C67.0736 77.9905 70.6451 78.2306 74.1665 78.7119C76.5061 79.6146 79.4163 79.5656 81.1936 81.2765Z" fill="black" stroke="black" stroke-miterlimit="10"/>
<path d="M93.1164 92.8529C92.0833 90.7429 91.6392 88.3485 91.8467 86.0088C91.916 85.2245 92.0675 84.4203 92.5086 83.7671C92.8688 83.2333 93.399 82.8376 93.9521 82.5078C95.033 81.8627 96.2288 81.4356 97.4793 81.0813C100.436 80.3954 103.47 80.0441 106.54 79.9922C112.31 80.0184 118.209 80.0668 123.647 81.9979C124.999 82.4781 126.419 83.1744 126.982 84.4937C127.413 86.0228 127.492 87.6259 127.536 89.2138C127.57 90.469 127.583 91.7254 127.587 92.9654C127.494 94.4852 127.373 96.0101 127.023 97.492C126.674 98.9739 126.086 100.42 125.055 101.603C124.391 102.696 123.233 103.415 122.017 103.812C120.802 104.209 119.514 104.317 118.241 104.44C116.96 104.563 115.681 104.703 114.366 104.813C110.025 104.81 105.64 104.802 101.412 103.822C99.9774 103.489 98.4752 102.984 97.6011 101.771C95.4106 99.2175 94.5966 95.8755 93.1164 92.8529Z" fill="#F2DBC1" stroke="black" stroke-miterlimit="10"/>
<path d="M51.4244 101.685C50.5865 101.52 49.7223 101.304 49.0644 100.76C48.3873 100.2 48.0108 99.3631 47.6956 98.5432C46.2574 94.8015 45.6199 90.7545 45.839 86.7523C45.9626 84.496 46.4381 82.0899 48.0883 80.5026C48.6658 80.2485 49.2806 80.0929 49.8954 79.9519C53.7384 79.0708 57.6998 78.7072 61.66 78.9473C65.1261 78.9409 68.6073 78.9356 72.036 79.442C74.8692 79.8604 77.7514 80.6803 79.8935 82.5567C80.3142 82.837 80.6068 83.281 80.7816 83.7554C80.9564 84.2297 81.0222 84.7373 81.0659 85.2407C81.32 88.1899 80.8235 91.2008 79.6517 93.9035C78.9477 95.9903 78.2065 98.1411 76.7118 99.7494C76.1244 100.725 75.5026 101.737 74.5382 102.341C73.9637 102.702 73.3005 102.895 72.6391 103.046C71.194 103.378 69.715 103.532 68.1941 103.625C65.2053 103.772 62.2101 103.787 59.2638 103.641C56.5472 103.439 54.0962 102.209 51.4244 101.685Z" fill="#F2DBC1" stroke="black" stroke-miterlimit="10"/>
<path d="M133.516 82.0337C135.904 82.2091 138.293 82.3845 140.673 82.6485C141.424 82.7318 142.181 82.8257 142.898 83.0646C144.112 83.469 145.158 84.2731 146.063 85.1787C146.376 85.4928 146.684 85.8343 146.824 86.255C146.965 86.6757 146.895 87.1967 146.549 87.4746C146.271 87.6978 145.875 87.7211 145.53 87.632C145.185 87.5428 144.874 87.3552 144.559 87.1879C141.457 85.54 137.752 85.7387 134.24 85.6396C134.13 85.6367 134.009 85.628 133.933 85.5476C133.871 85.4811 133.859 85.3832 133.851 85.2923C133.754 84.2883 133.657 83.2843 133.56 82.2802C133.546 82.1468 133.55 81.9801 133.516 82.0337Z" fill="black" stroke="black" stroke-miterlimit="10"/>
<path d="M99.6088 93.0142C100.208 92.1226 101.278 91.6984 102.268 91.28C103.864 90.6046 105.414 89.815 107.051 89.2451C108.688 88.6752 110.442 88.3285 112.157 88.5785C113.82 88.8209 115.355 89.6093 116.777 90.505C118.199 91.4006 119.55 92.418 121.04 93.1954C121.463 93.4162 121.932 93.6534 122.111 94.0957C121.485 94.0677 120.861 94.0392 120.236 94.0112C119.526 93.9792 118.815 93.9471 118.106 93.9792C116.701 94.0427 115.321 94.3562 113.926 94.5258C112.179 94.7379 110.392 94.7216 108.679 94.3171C106.434 93.7869 104.253 92.5917 101.965 92.8842C101.325 92.9664 100.705 93.1639 100.072 93.2921C99.8594 93.3358 99.4654 93.2274 99.6088 93.0142Z" fill="white" stroke="black" stroke-miterlimit="10"/>
<path d="M116.038 90.0272C115.974 91.4793 115.373 93.0049 114.123 93.7467C113.593 94.062 112.975 94.2176 112.359 94.245C111.006 94.3056 109.607 93.7112 108.824 92.6052C108.042 91.4992 107.971 89.8949 108.771 88.821C111.198 88.0826 113.924 88.6525 116.038 90.0272Z" fill="#17282F"/>
<path d="M99.7451 90.4841C101.536 89.7004 102.62 87.8514 104.252 86.7751C106.41 85.3527 109.21 85.4564 111.77 85.8148C114.008 86.1283 116.238 86.5997 118.333 87.4481C120.428 88.2966 122.391 89.5366 123.889 91.2294C124.048 91.4083 124.211 91.6309 124.158 91.864C123.161 91.4532 122.418 90.6106 121.544 89.9789C120.96 89.5559 120.315 89.226 119.673 88.898C118.551 88.3251 117.426 87.7506 116.239 87.3316C114.607 86.7547 112.884 86.4808 111.163 86.2978C109.168 86.0863 107.048 86.0164 105.266 86.9383C103.419 87.8939 102.18 89.7971 100.29 90.6671C100.172 90.7213 100.042 90.7726 99.9147 90.7434C99.7876 90.7143 99.6827 90.5675 99.7451 90.4841Z" fill="#CEAC87"/>
<path d="M75.8376 92.0485C72.0767 90.2199 67.9958 88.3412 63.876 89.0591C61.1413 89.5352 58.72 91.1248 56.6484 92.9727C59.9035 95.2156 64.1976 95.877 67.9766 94.7179C69.6817 94.1952 71.3354 93.3159 73.118 93.3526C73.7048 93.3648 74.3079 93.4755 74.8691 93.3025C75.4303 93.1288 75.9215 92.5234 75.8376 92.0485Z" fill="white" stroke="black" stroke-miterlimit="10"/>
<path d="M54.4453 92.3689C54.7495 90.9132 55.7599 89.6772 56.9837 88.8323C58.2074 87.9873 59.6356 87.492 61.0662 87.0876C64.298 86.1739 67.7973 85.6856 70.9848 86.7438C72.2761 87.1727 73.4725 87.8417 74.66 88.5071C74.9625 88.6767 75.3144 88.9873 75.1618 89.2985C72.3641 87.9792 69.4493 86.6325 66.3562 86.6366C64.2829 86.6395 62.2637 87.2537 60.2871 87.8795C58.4731 88.4541 56.4948 89.1784 55.5863 90.8503C55.2594 91.4511 55.049 92.1935 54.4453 92.3689Z" fill="#CEAC87"/>
<path d="M69.6765 89.4921C69.8665 89.5603 69.8875 89.8167 69.8723 90.0177C69.8041 90.9419 69.6765 91.9145 69.1107 92.6481C68.4039 93.5642 67.1656 93.8992 66.0089 93.9324C65.6581 93.9424 65.3038 93.9301 64.9623 93.8509C64.0532 93.6411 63.2899 92.9564 62.8872 92.1149C62.4845 91.2735 62.4239 90.2928 62.7433 89.2771C64.9961 88.6396 67.4657 88.7007 69.6765 89.4921Z" fill="#17282F"/>
<path d="M102.005 81.7018C98.9751 82.1015 96.0993 83.2646 93.3471 84.5915C92.8812 84.7508 92.4498 84.888 92.0469 84.9277C92.6241 82.8776 94.3556 82.1561 97.3858 81.0979C102.965 79.9435 107.939 79.711 115.76 80.3764C122.638 81.0979 126.005 82.5409 126.822 84.2701C125.947 83.9433 125.058 83.5943 124.163 83.2635C122.112 82.5053 120.01 81.8399 117.84 81.5742C116.322 81.3883 114.788 81.3999 113.259 81.4133C110.951 81.4337 108.642 81.4582 106.334 81.4821C104.889 81.4972 103.438 81.513 102.005 81.7018Z" fill="#17252F"/>
<path d="M56.4112 83.1436C53.1223 83.9151 50.07 85.5211 47.3516 87.5263C48.168 84.6266 49.7623 81.935 51.8805 79.7475C51.9428 79.683 52.0056 79.619 52.0691 79.5554C54.7242 79.0744 58.5721 78.7858 61.6504 78.9782C68.0956 78.882 73.0498 79.363 75.5509 80.2769C77.4905 80.9216 78.5284 81.4391 80.2165 82.8742C80.9466 83.762 81.058 84.7482 81.0823 86.7798C80.4575 86.7242 79.8436 86.5562 79.2663 86.3818C75.5362 85.256 71.833 84.006 68.0103 83.2526C64.1877 82.4985 60.2041 82.2532 56.4112 83.1436Z" fill="#17282F"/>
<defs>
<linearGradient id="paint0_linear_827_1941" x1="19.5979" y1="286.541" x2="201.626" y2="119.697" gradientUnits="userSpaceOnUse">
<stop stop-color="#D9B430"/>
<stop offset="1" stop-color="#303030" stop-opacity="0"/>
</linearGradient>
</defs>
</svg>
