<svg width="238" height="325" viewBox="0 0 238 325" fill="none" xmlns="http://www.w3.org/2000/svg">
<circle cx="119.06" cy="206.576" r="116.185" fill="url(#paint0_linear_1050_3521)" stroke="white" stroke-width="4"/>
<path d="M173.64 232.255L162.341 192.713C162.341 192.713 149.8 191.091 139.984 190.009C130.17 188.927 118.774 186.66 118.774 186.66L111.63 175.408L52.782 171.976L43.7879 188.655C43.7879 188.655 9.61097 206.778 4.70312 209.482C5.64815 241.141 18.8076 268.102 38.2515 287.447C39.6089 293.261 46.2237 297.521 53.9094 300.568C96.1226 330.035 146.565 322.382 173.39 307.292C171.523 251.799 173.64 232.255 173.64 232.255Z" fill="#7687C1"/>
<path d="M118.37 283.028C120.328 295.802 119.536 303.878 121.032 318.719H121.837C120.339 303.859 121.399 295.659 119.381 282.873C117.25 270.105 115.099 258.639 112.775 249.122C112.212 246.741 111.675 244.473 111.167 242.323C110.584 240.199 110.033 238.192 109.516 236.312C108.496 232.557 107.605 229.327 106.711 226.734C105.875 224.195 105.217 222.191 104.74 220.741L104.201 219.191C104.074 218.844 103.999 218.669 103.981 218.675C103.963 218.681 104 218.868 104.093 219.227C104.208 219.644 104.35 220.165 104.527 220.808L106.297 226.855C107.125 229.463 107.954 232.705 108.916 236.469C109.405 238.351 109.927 240.361 110.48 242.489C110.963 244.639 111.473 246.91 112.008 249.292C114.23 258.813 116.298 270.273 118.37 283.028Z" fill="#0F191D"/>
<path d="M103.847 218.828C103.805 218.884 103.186 218.48 102.014 217.776C100.682 216.983 98.9958 215.978 96.9502 214.762C94.7751 213.48 92.1411 211.944 89.1825 210.129C86.2462 208.277 82.8965 206.305 79.6604 203.496L80.4907 203.355C78.2342 207.712 76.845 213.1 77.0782 218.736L77.0806 218.804L77.114 220.078L76.143 219.256C66.7073 211.268 58.2388 203.931 52.3538 198.355C49.4064 195.576 47.0758 193.267 45.5139 191.625C43.9483 189.988 43.1291 189.039 43.1821 188.989C43.2426 188.932 44.1679 189.776 45.8248 191.314C47.6409 192.973 50.0233 195.146 52.8991 197.772C58.91 203.186 67.4426 210.41 76.882 218.4L75.9456 218.852L75.9444 218.783C75.7013 212.935 77.1707 207.358 79.5519 202.872L79.8689 202.275L80.3822 202.73C83.4419 205.442 86.7829 207.493 89.66 209.383C92.5371 211.205 95.1021 212.83 97.2907 214.215C99.4226 215.571 101.092 216.685 102.205 217.491C103.324 218.29 103.878 218.789 103.847 218.828Z" fill="#17282F"/>
<path d="M118.813 186.662C118.88 186.631 119.343 187.451 120.048 188.992C120.749 190.534 121.698 192.795 122.784 195.619C123.859 198.448 125.108 201.824 126.263 205.674C126.553 206.636 126.823 207.632 127.045 208.683C127.136 209.227 127.269 209.73 127.194 210.473C127.137 210.875 126.639 211.193 126.258 211.092C126.068 211.07 125.843 210.913 125.772 210.811L125.647 210.652L125.145 210.01C123.801 208.284 122.415 206.503 120.993 204.677C119.128 202.26 117.323 199.922 115.633 197.732L116.557 197.658C113.203 203.948 110.155 209.319 107.848 213.064C106.697 214.937 105.731 216.404 105.029 217.383C104.33 218.366 103.9 218.865 103.85 218.83C103.792 218.791 104.117 218.225 104.713 217.185C105.409 215.958 106.25 214.474 107.246 212.718C109.379 208.891 112.297 203.464 115.586 197.156L115.979 196.4L116.51 197.082C118.201 199.252 120.008 201.57 121.874 203.966C123.282 205.788 124.655 207.565 125.985 209.287L126.48 209.93L126.602 210.089L126.403 210.289L126.405 210.284L126.413 210.305L126.421 210.315L126.411 210.31L126.121 210.236C126.143 209.912 126.073 209.37 125.98 208.888C125.782 207.893 125.529 206.91 125.256 205.957C124.172 202.143 123.003 198.74 122.027 195.889C121.08 193.219 120.28 190.967 119.639 189.157C119.061 187.572 118.738 186.696 118.813 186.662Z" fill="#17282F"/>
<path d="M25.3229 249.41C25.1403 249.435 24.7936 247.272 23.9103 243.87C23.0331 240.47 21.5045 235.85 19.1061 231.06C16.6916 226.275 13.8897 222.283 11.6801 219.542C9.47291 216.796 7.94059 215.219 8.07013 215.089C8.15773 214.994 9.89732 216.375 12.2945 219.03C14.6929 221.675 17.6613 225.679 20.1227 230.557C22.5692 235.441 24.0053 240.201 24.6925 243.693C25.3871 247.189 25.4512 249.398 25.3229 249.41Z" fill="#17282F"/>
<path d="M20.4421 308.574C20.1793 308.249 20.1151 307.572 20.0547 306.889C20.1855 307.456 20.3138 308.014 20.4421 308.574Z" fill="#A7A9A8"/>
<path d="M84.1388 231.852C70.7674 221.457 59.1862 209.506 49.5469 195.669C50.4068 196.503 51.3445 197.402 52.3549 198.354C58.2399 203.929 66.7083 211.266 76.1441 219.255L77.115 220.077L77.0817 218.802L77.0792 218.734C76.8572 213.353 78.1131 208.196 80.192 203.948C83.2616 206.519 86.4076 208.377 89.1836 210.128C90.3569 210.847 91.4796 211.523 92.5419 212.156C95.6127 214.093 98.7562 215.929 101.941 217.73C101.965 217.745 101.99 217.76 102.015 217.774C102.069 217.807 102.123 217.84 102.176 217.872C95.6484 216.976 89.1206 216.081 82.5929 215.186C82.3498 220.776 82.8717 226.398 84.1388 231.852Z" fill="#5F6FA7"/>
<path d="M77.1053 220.078L76.1343 219.256C66.6986 211.268 58.2302 203.931 52.3452 198.355C51.3347 197.403 50.3971 196.505 49.5372 195.671C49.2263 195.224 48.9166 194.775 48.6094 194.324C58.1056 202.236 67.107 211.267 76.6019 219.177C76.196 210.919 77.5667 208.832 80.0133 203.113C83.9712 206.459 88.177 209.41 92.5321 212.157C91.4699 211.525 90.3472 210.848 89.1739 210.129C86.3979 208.378 83.2519 206.52 80.1823 203.949C78.1034 208.197 76.8475 213.354 77.0695 218.736L77.072 218.804L77.1053 220.078ZM102.185 217.876C102.179 217.875 102.173 217.873 102.166 217.873C102.113 217.841 102.059 217.808 102.005 217.776C101.98 217.761 101.956 217.746 101.931 217.732C102.016 217.78 102.101 217.828 102.185 217.876Z" fill="#0F191D"/>
<path d="M184.448 218.643C184.448 218.643 214.242 261.487 218.258 263.528L211.037 273.967L202.424 283.749C199.357 287.18 194.686 291.925 186.941 296.834C164.992 279.481 133.142 247.52 133.142 247.52L148.785 198.518C148.785 198.518 158.302 186.995 165.341 192.01C172.38 197.024 184.448 218.643 184.448 218.643Z" fill="#7687C1"/>
<path d="M53.6406 167.099L87.8772 166.004L115.763 182.867L115.982 196.371C111.305 205.433 108.619 210.261 103.791 218.636C95.1041 212.358 84.6652 206.956 79.9203 202.284L54.7356 180.604L53.6406 167.099Z" fill="#F2DBC1"/>
<path d="M143.58 95.5972C143.156 93.4685 144.467 91.4345 145.541 89.5472C149.407 82.7506 150.748 74.8115 151.281 67.0118C151.608 62.2287 151.654 57.3936 150.826 52.6718C149.997 47.95 148.257 43.3229 145.292 39.5558C143.269 37.8246 141.412 36.0117 140.487 33.6824C139.864 32.1146 139.705 30.4039 139.276 28.773C138.689 26.5495 137.604 24.4895 136.413 22.5224C134.725 19.7324 132.782 17.0576 130.304 14.9363C127.828 12.815 124.772 11.2714 121.523 11.0002C119.426 10.3427 117.818 8.72105 116.086 7.43193C113.75 5.69144 111.06 4.49334 108.396 3.31195C105.768 2.14543 103.136 0.977054 100.431 0C97.6895 0.182037 95.0834 0.826596 92.4922 1.4693C85.7643 3.13921 79.0289 4.80911 72.4273 6.92483C70.3599 7.58796 68.3017 8.29382 66.1823 8.76749C62.2054 9.65352 58.0947 9.69624 54.0416 10.1142C52.4367 10.2795 50.8225 10.508 49.3179 11.0894C45.8313 12.4379 43.3293 15.5103 41.2544 18.6198C39.1796 21.7292 37.3035 25.0709 34.4318 27.4634C32.7377 29.6999 33.1519 32.9152 32.29 35.6086C31.6529 37.5999 30.3192 39.2772 29.253 41.0753C26.1547 46.3042 25.3281 52.5845 25.4209 58.6623C25.5138 64.7401 26.4593 70.7752 26.6134 76.8511C26.6877 79.8045 26.5782 82.7859 27.1206 85.6892C27.832 89.5045 29.6319 93.0152 31.8238 96.2677C32.1451 98.1791 32.4683 100.09 32.7897 102.002C32.864 102.438 32.9457 102.895 33.2207 103.243C33.5401 103.646 34.0584 103.828 34.5488 103.984C51.5451 109.434 69.7116 110.181 87.5382 109.274C100.338 108.622 113.191 107.123 125.404 103.235C130.582 101.588 135.62 99.5184 140.581 97.2949C141.783 96.7581 142.993 96.2027 143.58 95.5972Z" fill="#17282F"/>
<path d="M37.7799 109.034C37.8821 103.792 37.7168 98.5463 37.2858 93.3211C36.9403 89.1472 36.4629 84.7486 38.2016 80.9389C39.8529 77.3223 43.3525 74.64 44.3407 70.7894C44.9722 68.3244 44.4818 65.6756 45.1282 63.2163C45.8824 60.3501 48.143 58.0468 50.7807 56.6945C53.4184 55.3422 56.409 54.8389 59.3643 54.6234C67.7472 54.0123 76.173 55.567 84.5578 54.9837C88.609 54.7014 92.6083 53.9212 96.5945 53.1448C101.485 52.19 106.376 51.2371 111.313 50.2657C115.874 49.101 120.592 48.553 125.297 48.6422C127.693 48.6868 130.411 49.0694 131.789 51.0309C132.504 52.0489 132.725 53.3454 132.673 54.59C132.526 58.1434 130.36 61.4108 130.39 64.966C130.412 67.5461 131.588 69.9572 132.511 72.3107C136.253 74.5917 138.994 78.4535 139.914 82.7388C140.398 85.0012 140.393 87.3361 140.495 89.6469C140.764 95.7767 141.799 101.851 142.195 107.975C142.59 114.099 142.317 120.398 140.034 126.327C139.54 139.688 132.703 151.903 125.694 163.29C121.461 170.168 116.858 177.207 109.952 181.39C106.161 183.686 101.849 185.001 97.4954 185.835C94.1927 186.466 90.76 186.83 87.4834 186.074C83.6625 185.192 80.3672 182.872 77.0163 180.836C72.8814 178.323 68.4958 176.165 64.7492 173.103C61.4614 170.415 58.7513 167.102 56.1173 163.771C49.1312 154.937 42.3253 145.389 40.295 134.331C40.035 130.065 38.9167 125.902 38.1384 121.698C37.3601 117.495 37.6982 113.2 37.7799 109.034Z" fill="#F2DBC1"/>
<path d="M143.124 96.4511C142.699 95.5911 142.947 94.5193 143.501 93.7336C144.055 92.9479 144.863 92.3887 145.656 91.8464C147.301 90.7188 149.051 89.5542 151.041 89.4056C151.589 89.3647 152.194 89.4242 152.592 89.8068C153.257 90.4476 152.974 91.5361 152.846 92.4519C152.633 93.9676 152.985 95.4982 153.075 97.027C153.223 99.5848 152.603 102.183 151.317 104.398C150.784 105.315 150.143 106.166 149.616 107.085C148.161 109.623 147.636 112.571 147.136 115.452C146.415 119.601 145.693 123.753 145.102 127.923C144.944 129.036 144.779 130.197 144.14 131.122C143.52 132.021 142.464 132.604 141.374 132.656C141.209 125.908 144.058 119.364 143.952 112.613C143.897 109.131 143.053 105.661 143.408 102.195C143.507 101.231 143.698 100.257 143.54 99.3024C143.377 98.3384 142.869 97.3836 143.124 96.4511Z" fill="#F2DBC1"/>
<path d="M147.884 106.926C148.315 104.253 146.879 101.556 147.238 98.8741C147.615 96.0581 149.846 93.9034 151.945 91.9883C152.114 92.6236 152.169 93.283 152.223 93.9368C152.309 94.9622 152.392 95.9875 152.478 97.0147C152.567 98.0977 152.656 99.2029 152.405 100.262C152.216 101.062 151.837 101.803 151.451 102.53C150.812 103.728 150.139 104.907 149.432 106.066C149.138 106.546 148.592 107.09 147.884 106.926Z" fill="#CEAC87"/>
<path d="M35.4182 101.958C34.4337 100.241 33.7724 98.3316 32.5706 96.7602C31.3688 95.1887 29.3887 93.972 27.4662 94.442C26.8588 94.5906 26.2569 94.9417 26.0043 95.5156C25.7573 96.0785 25.8947 96.7267 26.0229 97.3286C26.5504 99.8009 26.8773 102.318 26.9999 104.842C27.0464 105.801 27.0668 106.778 27.364 107.692C27.6296 108.507 28.107 109.235 28.5361 109.978C31.3001 114.769 32.1564 120.408 32.6319 125.919C32.9217 129.27 33.2542 132.993 35.7433 135.255C36.2058 135.675 36.8466 136.045 37.4299 135.822C38.0745 135.575 38.2695 134.756 38.2491 134.065C38.2008 132.35 37.4225 130.745 37.1048 129.059C36.7055 126.945 37.038 124.772 37.0974 122.621C37.2497 117.202 35.6652 111.821 36.0702 106.417C36.1891 104.861 36.1315 103.202 35.4182 101.958Z" fill="#F2DBC1"/>
<path d="M26.6307 96.4414C27.8938 98.5163 30.2027 99.954 30.9104 102.278C31.1389 103.028 31.1816 103.825 31.1426 104.609C31.02 107.124 30.095 109.591 30.3179 112.098C29.7365 111.081 29.1532 110.063 28.5718 109.045C28.2152 108.422 27.8548 107.787 27.7025 107.087C27.5409 106.348 27.6189 105.58 27.6208 104.823C27.6226 102.38 26.809 100.019 26.4338 97.6061C26.3744 97.2401 26.3298 96.8593 26.6307 96.4414Z" fill="#CEAC87"/>
<path d="M93.7891 89.0956C95.0838 87.3533 96.5716 85.6276 98.5833 84.814C99.6997 84.3627 100.913 84.2178 102.109 84.0636C106.424 83.5063 110.715 82.7522 114.961 81.8049C117.058 81.3368 119.284 80.8278 121.31 81.5429C122.029 81.7974 122.688 82.1968 123.34 82.5925C127.821 85.3156 132.461 88.1929 135.267 92.623C134.43 92.4856 133.681 92.0361 132.955 91.5958C131.742 90.8584 130.527 90.1191 129.314 89.3817C127.237 88.1186 125.114 86.835 122.742 86.3001C119.852 85.6462 116.841 86.1533 113.921 86.6623C110.447 87.2678 106.901 87.8975 103.807 89.586C102.287 90.4145 100.812 91.5178 99.0848 91.6367C98.0911 91.7054 97.1066 91.4361 96.163 91.1222C95.1655 90.7915 94.0175 90.1934 93.7891 89.0956Z" fill="#17282F"/>
<path d="M45.4219 91.908C47.1141 89.9093 48.8936 87.9849 50.7529 86.1422C51.1244 85.7745 51.5034 85.4048 51.9603 85.1485C52.4879 84.8513 53.0916 84.7213 53.6897 84.6191C61.0603 83.3411 68.6074 85.5125 76.0746 85.0742C77.2207 85.0073 78.3724 84.8791 79.5111 85.0129C80.6497 85.1466 81.8032 85.5813 82.5499 86.4506C83.3673 87.4035 83.5827 88.7168 83.7406 90.0746C83.8465 90.8919 83.9505 91.7092 84.0564 92.5265C84.1084 92.9278 84.075 93.4627 83.6849 93.5668C83.4193 93.6373 83.1629 93.4442 82.9326 93.2937C82.3549 92.9166 81.6658 92.7587 80.9915 92.6083C78.6733 92.0882 76.344 91.5681 73.9106 91.4306C70.6618 91.4102 67.4205 90.6839 64.4726 89.3186C63.4082 88.8245 62.3513 88.2412 61.1866 88.1075C60.3749 88.0146 59.5557 88.1465 58.7496 88.2784C56.3069 88.6778 53.8643 89.0771 51.4217 89.4765C50.6954 89.5954 49.9654 89.7143 49.2595 89.9279C47.8069 90.3644 46.4751 91.2003 45.4219 91.908Z" fill="#17282F"/>
<path d="M80.56 112.125C79.8263 114.15 78.6951 116.002 77.7236 117.924C76.7521 119.847 75.9218 121.903 75.8623 124.056C75.8029 126.209 76.6369 128.486 78.4573 129.671C80.0529 130.54 81.9364 130.869 83.7326 130.587" stroke="#CEAC87" stroke-width="0.4" stroke-miterlimit="10"/>
<path d="M80.5078 127.469C81.535 126.241 83.5226 125.964 84.847 126.862C85.499 127.304 85.9671 127.961 86.4463 128.585C87.0351 129.349 87.6778 130.095 88.5007 130.601C89.3217 131.106 90.3545 131.344 91.2684 131.03C92.4944 130.61 93.1928 129.364 93.9674 128.323C94.8423 127.151 96.0051 126.107 97.4317 125.779C98.8582 125.45 100.554 126.02 101.175 127.346" stroke="#CEAC87" stroke-width="0.4" stroke-miterlimit="10"/>
<path d="M103.547 119.148C104.643 120.49 105.412 122.098 105.766 123.794C106.073 125.25 106.067 126.809 105.493 128.182C104.919 129.554 103.719 130.71 102.257 130.988C100.796 131.269 99.135 130.524 98.5703 129.147" stroke="#CEAC87" stroke-width="0.4" stroke-miterlimit="10"/>
<path d="M80.6798 127.356C81.7182 128.491 83.3639 129.033 84.8741 128.74C85.1769 128.68 85.4945 128.576 85.684 128.333C85.7248 128.279 85.7601 128.218 85.7676 128.151C85.7769 128.071 85.7453 127.993 85.7118 127.921C85.3143 127.063 84.4673 126.431 83.533 126.294C82.7491 126.178 81.9541 126.392 81.2111 126.667C81.016 126.739 80.8043 126.83 80.7095 127.016C80.6148 127.202 80.7355 127.492 80.6798 127.356Z" fill="#17282F"/>
<path d="M96.4091 126.221C96.0116 126.505 95.6772 126.877 95.4339 127.3C95.315 127.506 95.2184 127.767 95.3317 127.976C95.4209 128.144 95.6159 128.223 95.8017 128.268C96.4109 128.413 97.048 128.311 97.6647 128.201C98.5935 128.038 99.5223 127.863 100.447 127.679C100.724 127.623 101.077 127.466 101.031 127.187C101.014 127.09 100.947 127.009 100.882 126.936C100.304 126.294 99.5538 125.785 98.7068 125.61C97.8598 125.435 97.0425 125.766 96.4091 126.221Z" fill="#17282F"/>
<path d="M73.6719 148.937C74.3443 148.032 75.5275 147.711 76.603 147.373C78.6519 146.73 80.619 145.829 82.4431 144.698C83.6598 143.944 84.9117 143.054 86.3439 143.039C88.1865 143.019 89.8434 144.47 91.6805 144.304C92.5684 144.224 93.3727 143.773 94.1993 143.444C95.0259 143.115 95.9918 142.907 96.8797 143.31C100.647 143.983 103.736 146.749 107.44 147.711C107.768 147.796 108.118 147.876 108.361 148.114C108.602 148.352 108.666 148.809 108.389 149.007C108.264 149.098 108.103 149.115 107.951 149.136C106.139 149.394 104.661 150.651 103.073 151.56C100.793 152.862 98.1298 153.484 95.5107 153.324C93.0997 153.178 90.6143 152.401 88.3166 153.1C85.664 153.495 82.9799 152.84 80.3868 152.156C79.6587 151.965 78.9231 151.766 78.2562 151.413C77.5708 151.049 76.9783 150.532 76.3188 150.122C75.5443 149.641 74.6768 149.31 73.7796 149.152C73.8372 148.92 74.0712 148.736 73.6719 148.937Z" fill="#99746C"/>
<path d="M74.0078 148.865C74.5465 148.251 75.4195 148.08 76.2275 147.946C77.6857 147.705 79.1438 147.463 80.602 147.222C81.8744 147.01 83.1654 146.798 84.4489 146.921C85.6303 147.032 86.7653 147.422 87.9225 147.679C90.38 148.223 92.9693 148.16 95.3841 147.563C97.8695 146.926 100.455 146.285 102.972 146.783C103.84 146.954 104.677 147.259 105.541 147.444C106.676 147.69 107.971 147.79 108.725 148.672C107.748 149.27 106.492 149.176 105.396 148.847C104.298 148.518 103.269 147.978 102.153 147.721C100.561 147.355 98.9004 147.587 97.2844 147.822C95.6405 148.059 93.9947 148.297 92.3322 148.498C90.7032 149.014 88.959 148.431 87.2798 148.109C84.5697 147.593 81.7277 147.783 79.1104 148.654C77.4925 149.192 75.6443 149.969 74.1917 149.075C74.0097 148.962 74.0115 148.557 74.0078 148.865Z" fill="#5B372F"/>
<path d="M117.538 159.755C117.146 156.775 116.754 153.794 116.364 150.815C116.171 149.338 115.972 147.848 115.473 146.446C114.86 144.728 113.81 143.193 113.182 141.481C113.13 140.734 112.633 140.075 112.029 139.705C111.425 139.335 110.721 139.177 110.054 138.938C108.986 138.551 108.013 137.944 107.032 137.37C103.872 135.522 100.538 133.974 97.0869 132.758C96.6356 132.018 95.7941 131.974 95.1347 132.221C94.4753 132.466 93.9292 132.938 93.3292 133.304C91.9992 134.116 90.3609 134.405 88.834 134.103C87.7956 133.896 86.8019 133.428 85.7431 133.417C83.8391 133.397 82.2807 134.818 80.7371 135.93C79.0133 137.173 77.074 138.119 75.0345 138.709C73.6469 139.112 72.1795 139.367 70.9684 140.153C69.6867 140.983 68.8285 142.322 68.1338 143.682C66.8911 146.113 66.0459 148.745 65.6429 151.446C65.2992 153.744 65.2565 156.148 64.3203 158.187C64.9333 158.525 65.6633 158.011 66.1203 157.479C68.5257 154.684 69.1889 150.618 71.886 148.103C73.8828 146.242 76.6561 145.543 79.1972 144.544C80.9098 143.869 82.5612 143.035 84.3035 142.443C86.0459 141.85 87.9257 141.509 89.8575 141.925C92.2574 142.775 94.9545 141.252 97.4232 141.873C98.8999 142.244 100.094 143.334 101.584 144.038C103.871 145.344 106.345 146.314 108.561 147.735C110.779 149.156 112.789 151.145 113.593 153.677C114.25 154.528 114.884 155.399 115.436 156.322C115.759 156.863 116.052 157.422 116.286 158.007C116.66 158.941 116.883 159.952 117.443 160.788C117.468 160.314 117.497 159.842 117.538 159.755Z" fill="#17282F"/>
<path d="M37.7693 99.1228C37.9476 103.072 38.1835 107.017 38.4807 110.959C38.8968 116.5 39.534 122.321 42.7512 126.852C44.0477 128.678 45.7102 130.208 47.2501 131.837C51.6357 136.479 55.0721 142.015 57.2863 148.003C58.0033 149.943 58.62 151.975 60.145 153.639C61.6124 155.614 63.1616 157.529 64.6903 159.184C66.7187 161.628 69.0536 163.818 71.6226 165.689C72.9024 166.619 74.2621 167.483 75.7816 167.927C78.5641 168.741 81.5622 168.065 84.2909 167.086C87.0195 166.107 89.6684 164.816 92.5308 164.359C95.3932 163.902 98.6272 164.442 100.945 166.283C102.645 168.029 104.841 169.443 107.272 169.608C109.704 169.773 112.33 168.412 113.073 166.092C113.454 164.899 113.333 163.567 113.864 162.433C114.537 160.995 116.082 160.215 117.986 159.078C120.845 156.531 122.545 152.731 122.535 148.902C122.53 146.978 122.125 144.985 122.762 143.168C123.217 141.866 124.164 140.802 125.13 139.819C127.742 137.161 130.662 134.826 133.582 132.9C138.722 127.703 141.71 120.44 141.716 113.128C141.718 110.621 141.385 108.128 141.14 105.632C140.947 103.668 140.808 101.697 140.72 99.7264C140.674 98.6658 140.648 97.5754 141.018 96.5798C141.387 95.586 142.245 94.7 143.626 94.6016C144.768 100.364 144.775 106.293 144.493 112.161C143.873 125.093 141.848 138.027 137.501 150.221C133.155 162.416 126.421 173.871 117.145 182.901C109.837 190.013 99.9906 195.784 89.8653 193.997C84.5138 193.433 79.4892 191.118 74.8937 188.317C63.2136 181.193 53.7514 170.81 46.5981 159.273C43.0632 153.477 40.1469 147.245 38.6182 140.631C38.0126 138.01 37.6281 135.344 37.2436 132.683C36.4505 127.184 35.6536 121.615 36.1421 115.995C35.3044 112.436 35.7168 108.719 35.5403 105.067C35.4827 103.876 35.3638 102.663 35.6703 101.512C35.9731 100.36 36.8146 99.2584 37.7693 99.1228Z" fill="#17282F"/>
<path d="M85.6744 91.6891C89.0198 93.6859 93.3868 93.855 96.8771 92.1182C97.7334 91.6928 98.5637 91.1523 99.5017 90.8867C104.941 90.0545 110.428 89.553 115.944 89.2948C123.642 89.7331 131.306 90.7306 138.759 92.2612C138.998 93.2067 139.098 94.1893 139.058 95.1645C139.046 95.4246 139.02 95.6958 138.876 95.9112C138.645 96.2549 138.194 96.3496 137.811 96.5075C136.507 97.0481 135.835 98.4802 135.406 99.825C134.607 102.325 134.23 104.943 133.492 107.461C132.755 109.98 131.594 112.48 129.545 114.113C128.128 115.148 126.341 115.517 124.606 115.783C120.39 116.426 116.101 116.595 111.808 116.351C109.324 116.106 106.854 115.733 104.407 115.229C103.245 114.992 101.967 114.641 101.348 113.565C98.2163 110.457 96.4573 106.172 95.7198 101.822C95.4579 100.278 95.1775 98.4932 93.8308 97.6945C93.2976 97.3768 92.6698 97.271 92.0568 97.1818C90.6117 96.9719 89.0774 96.8382 87.8142 97.3545C86.813 101.644 84.5729 105.524 82.3606 109.334C81.1588 111.403 79.6857 113.675 77.2988 114.215C72.1015 115.328 66.711 115.534 61.4839 114.752C59.1565 114.691 56.7993 114.626 54.5665 113.972C52.3319 113.318 50.1995 111.997 49.0738 110.025C47.6343 106.715 46.843 103.126 46.7594 99.5167C46.7371 98.5935 46.7612 97.6555 46.5253 96.762C46.2913 95.8685 45.7508 95.0011 44.9056 94.6277C44.4876 94.442 44.0158 94.3862 43.622 94.154C42.9738 93.7751 42.658 92.9819 42.6487 92.2315C42.6394 91.4811 42.8865 90.7529 43.193 90.0749C43.6016 89.6718 44.2703 89.956 44.822 90.1177C45.6876 90.3703 46.6145 90.2402 47.5042 90.0935C49.3209 89.7944 51.1264 89.4359 52.8725 89.0756C57.4698 88.3809 62.1136 87.9982 66.7035 87.9258C70.0619 88.0038 73.4259 88.0818 76.7676 88.4329C77.962 88.5573 79.1582 88.7189 80.3061 89.0756C82.2212 89.6718 83.984 90.6786 85.6744 91.6891Z" fill="black"/>
<path d="M42.7396 93.314C42.8622 93.3808 42.983 93.4477 43.1056 93.5127C43.126 93.5239 43.1464 93.535 43.1687 93.5313C43.2151 93.5239 43.2281 93.4663 43.2319 93.4198C43.3154 92.2868 43.3378 91.15 43.2988 90.015C43.3396 89.7401 42.9087 89.6361 42.5817 89.5692C41.783 89.4076 41.0883 88.9339 40.4177 88.4714C39.0803 87.5482 37.7429 86.6232 36.4036 85.7C35.8482 85.3378 35.304 84.9756 34.7449 84.6412C34.5238 84.5093 34.2898 84.3774 34.0334 84.3644C33.5393 84.3384 33.1251 84.7545 32.9226 85.2059C32.5344 86.0696 32.7146 87.1563 33.5356 88.0739C34.0854 88.9859 35.1461 89.4262 36.1046 89.8924C37.1931 90.4199 38.2314 91.0496 39.2494 91.7462C39.6561 92.0806 40.18 92.2273 40.6834 92.3852C41.2703 92.5691 41.8592 92.7827 42.3477 93.1561C42.4647 93.2452 42.5855 93.3474 42.7396 93.314Z" fill="black" stroke="black" stroke-miterlimit="10"/>
<path d="M138.75 92.3052C139.38 92.3312 139.907 91.8501 140.316 91.3709C141.038 90.522 141.657 89.5617 142.556 88.9022C142.636 88.8447 142.723 88.7871 142.822 88.7852C143.085 88.7796 143.176 89.1307 143.182 89.3945C143.193 90.0613 143.193 90.73 143.178 91.3969C143.167 91.878 143.145 92.3758 142.935 92.8105C142.775 93.1392 142.519 93.4086 142.261 93.6649C141.564 94.3596 140.827 95.0116 140.052 95.6172C139.744 95.8586 139.367 96.1057 138.988 96.0054C139.207 94.7757 139.103 93.4903 138.75 92.3052Z" fill="black" stroke="black" stroke-miterlimit="10"/>
<path d="M129.156 112.835C133.001 108.225 134.507 101.761 133.097 95.9245C132.905 94.6783 132.41 94.0363 131.784 93.4326C131.158 92.8271 130.894 92.5959 130.077 92.295C127.748 91.4331 125.298 90.8963 122.82 90.7031C117.944 90.4449 113.045 90.6511 108.195 91.2473C105.697 91.4591 103.303 91.8454 100.938 92.3637C99.9331 92.5847 98.8966 92.8448 98.096 93.4912C97.1097 94.2862 96.623 95.5735 96.5227 96.8366C96.4224 98.0997 96.6657 99.361 97.0335 100.566C97.8508 104.881 99.5486 109.027 102.077 112.624C103.52 113.764 105.392 114.18 107.203 114.509C108.816 114.801 110.436 115.05 112.109 115.233C115.18 115.378 118.259 115.354 121.328 115.163C124.172 114.985 127.465 114.862 129.156 112.835Z" fill="#F2DBC1"/>
<path d="M76.5722 113.322C78.3907 113.141 79.7764 111.641 80.8315 110.149C82.9324 107.177 84.4704 103.811 85.3434 100.278C85.7521 99.002 85.9081 97.6423 85.8914 96.2863C85.8821 95.6362 85.8319 94.9767 85.6165 94.3619C85.0444 92.731 83.3967 91.6926 81.7213 91.2691C77.2224 89.902 72.4114 89.1831 67.5855 89.0568C62.925 88.8191 58.1289 89.3318 53.5018 90.5113C51.5737 90.4593 50.006 91.8208 49.2314 93.4554C48.4568 95.0901 48.3454 96.9531 48.3807 98.7605C48.4253 101.04 48.6834 103.317 49.2091 105.522C49.4246 106.402 49.6475 107.288 50.0283 108.109C50.5837 109.306 51.4771 110.344 52.5787 110.821C54.9507 112.606 58.0472 113.03 61.1864 113.37C66.3577 114.248 71.6126 113.816 76.5722 113.322Z" fill="#F2DBC1"/>
<path d="M102.357 100.725C101.911 100.476 101.98 99.7624 102.346 99.4076C102.712 99.0528 103.241 98.9432 103.73 98.7964C105.821 98.1649 107.506 96.6231 109.483 95.6888C112.531 94.2474 116.276 94.383 119.212 96.0399C120.698 96.8776 121.956 98.059 123.199 99.2292C123.323 99.3463 123.457 99.5116 123.388 99.6658C123.343 99.7624 123.236 99.8107 123.135 99.8478C121.348 100.535 119.562 101.222 117.775 101.91C116.486 102.406 115.167 102.909 113.787 102.963C111.894 103.037 110.085 102.268 108.247 101.811C107.241 101.56 106.212 101.404 105.177 101.341C104.196 101.28 103.193 101.191 102.357 100.725Z" fill="white" stroke="black" stroke-width="0.4" stroke-miterlimit="10"/>
<path d="M106.17 94.5368C108.974 92.748 112.351 91.8731 115.671 92.0755C118.99 92.2762 122.237 93.5523 124.806 95.6661C125.833 96.5113 126.792 97.5552 127.078 98.8518C126.225 98.7793 125.629 98.014 125.075 97.3621C122.965 94.8767 119.926 93.1975 116.7 92.7368C113.471 92.2743 110.085 93.034 107.362 94.8284C107.122 94.9863 106.875 95.1572 106.591 95.1999C106.307 95.2426 105.971 95.1107 105.889 94.834C105.804 94.5572 106.134 94.2284 106.17 94.5368Z" fill="#CEAC87"/>
<ellipse cx="113.783" cy="98.4128" rx="3.92384" ry="3.73699" fill="#17282F"/>
<path d="M55.6016 101.396C56.1941 99.4994 57.6393 97.9391 59.3686 96.962C61.098 95.9849 63.0929 95.5521 65.0768 95.4444C66.3845 95.372 67.7107 95.437 68.9738 95.7825C70.1013 96.089 71.1564 96.6109 72.2022 97.1292C73.9074 97.9744 75.6126 98.8195 77.3178 99.6647C77.7506 99.8783 78.2577 100.359 77.9679 100.744C77.8695 100.876 77.7042 100.935 77.5481 100.987C76.1699 101.455 74.7916 101.925 73.4114 102.393C71.6282 103.001 69.8283 103.61 67.9559 103.829C64.5492 104.229 61.1407 103.311 57.8343 102.405C57.043 102.189 56.2331 101.962 55.6016 101.396Z" fill="white" stroke="black" stroke-width="0.4" stroke-miterlimit="10"/>
<path d="M54.9572 98.7001C54.7807 97.2085 55.8153 95.7838 57.1212 95.039C58.427 94.2941 59.9595 94.0898 61.4492 93.8984C63.7098 93.6068 65.9704 93.317 68.231 93.0254C69.0706 92.9177 69.9269 92.8099 70.7609 92.9623C71.4575 93.0904 72.1057 93.3932 72.7447 93.696C74.1472 94.3554 75.5496 95.0167 76.9539 95.6761C76.118 96.2371 75.0351 95.5981 74.1583 95.1021C72.0296 93.8984 69.5071 93.5325 67.0645 93.6514C64.6218 93.7703 62.2256 94.3442 59.848 94.9145C58.9155 95.1393 57.9663 95.3696 57.1434 95.8637C56.3206 96.3578 55.6296 97.1658 55.52 98.1187C55.4995 98.297 55.4921 98.4939 55.3695 98.624C55.2488 98.754 54.959 98.7168 54.9572 98.7001Z" fill="#CEAC87"/>
<ellipse cx="65.8301" cy="99.155" rx="3.92384" ry="3.73699" fill="#17282F"/>
<path d="M83.6872 93.5666C84.0773 93.4626 84.1107 92.9276 84.0587 92.5264L84.0382 92.3676C82.8356 90.811 71.3755 88.5688 63.8125 89.0043C64.0337 89.1096 64.2541 89.216 64.4749 89.3185C67.4228 90.6837 70.6642 91.41 73.913 91.4305C76.3463 91.5679 78.6756 92.088 80.9938 92.6081C81.6681 92.7586 82.3573 92.9165 82.9349 93.2935C83.1653 93.444 83.4216 93.6372 83.6872 93.5666Z" fill="#17282F"/>
<defs>
<linearGradient id="paint0_linear_1050_3521" x1="20.1013" y1="286.591" x2="203.128" y2="118.832" gradientUnits="userSpaceOnUse">
<stop stop-color="#D9B430"/>
<stop offset="1" stop-color="#303030" stop-opacity="0"/>
</linearGradient>
</defs>
</svg>
