<svg width="403" height="325" viewBox="0 0 403 325" fill="none" xmlns="http://www.w3.org/2000/svg">
<path d="M292.872 221.128C292.872 276.886 245.798 322.221 187.558 322.221C129.318 322.221 82.2441 276.886 82.2441 221.128C82.2441 165.371 129.318 120.035 187.558 120.035C245.798 120.035 292.872 165.371 292.872 221.128Z" fill="url(#paint0_linear_1050_2944)" stroke="white" stroke-width="4"/>
<path d="M199.317 188.914L170.641 180.699L170.641 147.478L208.12 155.926C208.081 155.93 208.753 173.117 209.191 178.079L199.317 188.914Z" fill="#F2DBC1"/>
<path d="M254.88 189.597L246.807 232.834C246.911 235.081 248.886 281.018 249.602 300.46C216.655 324.842 171.664 326.189 138.929 308.767V283.973L129.389 187.273L162.716 175.474L170.104 164.285L194.032 178.177L211.093 165.19L216.964 174.256L254.88 189.597Z" fill="#7687C1"/>
<path d="M215.832 176.837C215.924 176.952 214.652 178.293 212.607 180.457C210.564 182.624 207.761 185.633 204.795 189.089C204.171 189.824 203.56 190.544 202.969 191.24L202.575 191.703L202.221 191.215C199.924 188.033 197.937 185.207 196.548 183.155C195.158 181.103 194.368 179.826 194.465 179.744C194.561 179.663 195.527 180.79 197.051 182.727C198.575 184.663 200.658 187.409 202.989 190.563L202.242 190.538C202.832 189.835 203.444 189.106 204.068 188.361C207.056 184.882 209.957 181.936 212.132 179.902C214.31 177.869 215.746 176.729 215.832 176.837Z" fill="#17282F"/>
<path d="M196.917 320.438C196.875 320.438 196.83 319.949 196.784 319.016C196.749 318.007 196.704 316.649 196.646 314.94C196.542 311.316 196.397 306.216 196.219 299.95C195.791 287.22 195.204 269.772 194.555 250.497C193.921 231.177 193.544 213.683 193.576 201.018C193.571 194.686 193.669 189.562 193.787 186.021C193.859 184.313 193.917 182.955 193.96 181.945C194.014 181.014 194.062 180.525 194.105 180.525C194.149 180.525 194.184 181.016 194.212 181.948C194.226 182.957 194.246 184.316 194.272 186.025C194.316 189.649 194.379 194.748 194.457 201.015C194.649 213.673 195.166 231.159 195.801 250.478C196.433 269.789 196.957 287.278 197.1 299.941C197.186 306.272 197.18 311.397 197.13 314.938C197.091 316.647 197.059 318.006 197.035 319.016C197 319.949 196.96 320.438 196.917 320.438Z" fill="#17282F"/>
<path d="M230.707 253.991C230.739 254.055 229.833 254.592 228.166 255.509C226.502 256.431 224.067 257.711 221.037 259.25C214.977 262.328 206.506 266.382 196.995 270.496C187.479 274.606 178.731 277.993 172.348 280.292C169.158 281.443 166.563 282.337 164.756 282.915C162.952 283.498 161.944 283.788 161.92 283.721C161.898 283.653 162.862 283.234 164.625 282.536C166.563 281.775 169.077 280.79 172.101 279.605C178.412 277.134 187.101 273.645 196.601 269.543C206.094 265.436 214.596 261.496 220.727 258.589C223.664 257.198 226.107 256.041 227.991 255.149C229.71 254.343 230.676 253.927 230.707 253.991Z" fill="#17282F"/>
<path d="M142.317 182.842C141.346 182.842 113.895 190.849 110.254 204.614C106.613 218.379 97.177 232.672 97.177 232.672L86.6289 247.457C86.6289 247.457 90.0446 274.476 109.464 269.344C109.464 269.344 122.422 271.634 126.548 258.335C130.675 245.038 144.267 207.647 144.267 207.647L142.317 182.842Z" fill="#7687C1"/>
<path d="M238.829 183.058C238.829 183.058 265.488 187.69 266.776 192.807C268.063 197.925 292.999 228.478 292.999 228.478L306.712 232.165L310.367 239.731C314.699 248.696 312.351 259.626 304.394 265.64C303.894 266.018 303.402 266.353 302.926 266.635C295.516 271.022 277.309 269.722 269.547 260.6C262.197 251.962 244.137 227.362 244.137 227.362L236.338 199.415L238.829 183.058Z" fill="#7687C1"/>
<path d="M300.019 234.262L319.743 222.587L329.246 234.262L327.28 239.914L301.854 258.84C301.854 258.84 297.086 255.328 295.956 248.588C294.768 241.496 300.019 234.262 300.019 234.262Z" fill="#F2DBC1"/>
<path d="M293.921 228.38C293.919 228.567 292.242 228.423 289.758 229.222C287.284 229.986 284.095 231.894 281.532 234.95C278.968 238.017 277.4 241.369 276.298 243.778C275.209 246.206 274.564 247.735 274.422 247.682C274.299 247.638 274.702 246.026 275.631 243.5C276.572 240.997 278.069 237.499 280.752 234.286C283.447 231.071 286.901 229.143 289.56 228.524C292.239 227.868 293.948 228.287 293.921 228.38Z" fill="#17282F"/>
<path d="M103.866 236.808L85.2389 221.653L74.541 233.436L75.8496 239.204L99.1393 260.695C99.1393 260.695 104.175 258.307 106.455 251.941C108.77 245.472 103.866 236.808 103.866 236.808Z" fill="#F2DBC1"/>
<path d="M116.304 257.906C116.149 257.923 115.881 255.907 115.272 252.705C114.649 249.522 113.643 245.082 111.281 240.767C108.915 236.462 105.467 233.431 102.639 231.96C99.8035 230.442 97.7433 230.256 97.7818 230.063C97.7887 230.003 98.3023 229.989 99.2188 230.127C100.135 230.259 101.447 230.612 102.962 231.312C105.997 232.675 109.705 235.775 112.173 240.27C114.628 244.76 115.536 249.34 115.984 252.587C116.417 255.856 116.429 257.894 116.304 257.906Z" fill="#17282F"/>
<path d="M121.009 237.447C120.803 237.691 117.886 234.578 113.157 232.942C108.45 231.228 104.31 231.836 104.291 231.513C104.183 231.278 108.493 230.158 113.48 231.961C118.484 233.705 121.232 237.33 121.009 237.447Z" fill="#17282F"/>
<path d="M305.074 260.681C305.05 260.737 304.617 260.635 303.877 260.324C303.136 260.015 302.105 259.453 300.961 258.571C298.683 256.847 295.987 253.532 295.123 249.111C294.278 244.686 295.545 240.606 297.018 238.16C297.751 236.915 298.499 236.011 299.072 235.449C299.642 234.885 300.007 234.628 300.05 234.672C300.182 234.793 298.888 236.016 297.633 238.493C296.374 240.923 295.304 244.79 296.094 248.925C296.901 253.054 299.334 256.245 301.407 258.032C303.495 259.865 305.152 260.52 305.074 260.681Z" fill="#17282F"/>
<path d="M316.544 230.749C316.259 230.459 312.303 222.961 316.661 215.821C321.018 208.682 325.864 205.108 328.666 202.577C331.468 200.046 336.433 192.136 338.089 193.127C339.744 194.117 340.933 196.022 340.021 199.086C339.107 202.15 330.448 209.116 332.854 211.843C333.841 212.96 337.022 212.18 337.022 212.18C337.022 212.18 349.176 209.098 354.039 207.045C358.901 204.991 363.694 204.486 363.995 206.298C364.297 208.109 363.656 209.367 359.628 211.054C355.6 212.742 348.788 214.664 348.751 215.725C348.714 216.788 350.291 216.945 352.65 215.989C355.009 215.033 366.394 211.342 367.59 212.386C368.786 213.43 368.826 215.613 367.414 216.547L365.048 218.364C365.048 218.364 367.301 220.02 366.399 221.648C365.497 223.276 362.424 223.796 362.424 223.796L347.191 228.258C347.191 228.258 346.623 229.448 347.256 229.932C347.891 230.417 359.427 225.722 359.933 226.99C360.439 228.258 361.67 228.526 358.414 230.537C355.158 232.546 346.274 235.426 342.803 235.598C339.332 235.768 325.767 239.498 325.767 239.498L316.544 230.749Z" fill="#F2DBC1"/>
<path d="M333.941 206.944C334.092 207.018 333.523 208.065 332.92 209.772C332.634 210.633 332.427 211.659 332.576 212.812C332.699 213.972 333.129 215.243 333.391 216.694C333.949 219.682 332.866 222.411 331.723 223.945C330.554 225.522 329.431 226.071 329.378 225.979C329.267 225.849 330.19 225.112 331.12 223.555C332.031 222.022 332.885 219.552 332.385 216.871C332.145 215.527 331.727 214.204 331.638 212.902C331.522 211.592 331.85 210.392 332.244 209.521C333.069 207.769 333.842 206.893 333.941 206.944Z" fill="#E9C7A2"/>
<path d="M342.082 222.975C342.031 222.743 347.053 221.304 353.297 219.758C359.543 218.213 364.646 217.148 364.697 217.379C364.748 217.61 359.728 219.05 353.481 220.596C347.237 222.141 342.133 223.206 342.082 222.975Z" fill="#E9C7A2"/>
<path d="M87.5326 235.23C87.9004 235.066 94.2427 229.572 92.7176 221.399C91.1919 213.227 87.9487 208.17 86.2385 204.818C84.5269 201.466 82.7092 192.362 80.8164 192.678C78.9242 192.993 77.1406 194.323 76.9043 197.483C76.6676 200.644 80.9368 207.228 78.7996 210.123C77.2518 212.218 75.0534 210.664 75.0534 210.664C75.0534 210.664 64.8296 203.418 61.0307 199.759C57.2321 196.102 52.9482 193.902 52.0254 195.466C51.1027 197.03 51.2531 198.423 54.4047 201.44C57.5563 204.458 63.2171 208.699 62.8744 209.693C62.5326 210.687 61.0091 210.262 59.1518 208.525C57.2949 206.788 48.0043 199.257 46.5194 199.788C45.0359 200.319 44.2244 202.32 45.2078 203.695L46.7668 206.23C46.7668 206.23 44.0819 206.944 44.3439 208.776C44.6056 210.606 47.283 212.198 47.283 212.198L59.8832 221.834C59.8832 221.834 59.989 223.14 59.2277 223.357C58.466 223.575 49.3906 215.062 48.4692 216.05C47.5487 217.038 46.307 216.84 48.6256 219.875C50.9445 222.912 58.1943 228.789 61.3652 230.203C64.5365 231.618 75.8437 239.973 75.8437 239.973L87.5326 235.23Z" fill="#F2DBC1"/>
<path d="M64.507 219.04C64.3311 219.321 59.928 216.9 54.9019 213.288C49.8684 209.685 46.146 206.281 46.3475 206.019C46.5571 205.742 50.5912 208.694 55.5999 212.279C60.5998 215.872 64.6912 218.746 64.507 219.04Z" fill="#E9C7A2"/>
<path d="M74.6841 223.802C74.6074 223.875 73.698 223.071 73.1049 221.306C72.5115 219.597 72.4021 216.803 74.0221 214.451C74.824 213.307 75.8089 212.48 76.6096 211.703C77.4267 210.935 78.0614 210.201 78.471 209.493C79.3234 208.085 79.1561 206.973 79.3172 206.966C79.43 206.904 79.9067 208.142 79.1293 209.838C78.7665 210.668 78.1102 211.546 77.3069 212.372C76.516 213.21 75.5908 214.038 74.8879 215.047C73.4841 217.079 73.4418 219.538 73.8133 221.146C74.1747 222.795 74.8282 223.711 74.6841 223.802Z" fill="#E9C7A2"/>
<path d="M193.515 178.744C193.643 178.803 192.775 180.995 191.267 184.494C190.874 185.395 190.46 186.347 190.023 187.35C189.524 188.387 189.195 189.439 188.456 190.656C188.101 191.241 187.248 191.851 186.356 191.671C185.508 191.516 184.94 191.021 184.382 190.663C183.245 189.886 182.075 189.086 180.875 188.265C176.075 184.968 171.762 181.936 168.67 179.7C165.577 177.464 163.704 176.024 163.784 175.908C163.863 175.793 165.881 177.025 169.078 179.11C172.275 181.195 176.652 184.133 181.452 187.431C182.649 188.257 183.814 189.063 184.947 189.846C185.52 190.241 186.04 190.638 186.515 190.717C186.973 190.805 187.369 190.565 187.693 190.115C188.822 188.066 189.764 185.856 190.614 184.196C192.288 180.773 193.387 178.686 193.515 178.744Z" fill="#17282F"/>
<path d="M247.52 209.368C247.609 209.363 247.768 210.281 247.978 211.946C248.195 213.61 248.421 216.024 248.623 219.01C249.045 224.981 249.265 233.242 249.293 242.358C249.293 251.37 249.292 259.52 249.292 265.697C249.296 268.528 249.298 270.899 249.301 272.769C249.292 274.439 249.244 275.365 249.155 275.367C249.066 275.37 248.942 274.449 248.797 272.781C248.644 271.113 248.504 268.697 248.377 265.709C248.119 259.734 248.024 251.476 247.999 242.361C247.971 233.248 247.895 225.004 247.708 219.037C247.615 216.208 247.537 213.838 247.476 211.969C247.42 210.3 247.431 209.373 247.52 209.368Z" fill="#5F6FA7"/>
<path d="M131.275 213.081C131.351 213.069 131.559 213.807 131.87 215.152C132.188 216.496 132.573 218.454 132.996 220.881C133.85 225.735 134.751 232.478 135.502 239.941C136.251 247.405 136.802 254.166 137.215 259.059C137.394 261.33 137.546 263.264 137.67 264.855C137.764 266.226 137.779 266.988 137.702 266.996C137.626 267.004 137.465 266.257 137.24 264.898C137.011 263.539 136.737 261.567 136.432 259.127C135.818 254.247 135.143 247.491 134.393 240.036C133.645 232.583 132.869 225.848 132.218 220.982C131.914 218.723 131.656 216.799 131.442 215.217C131.263 213.854 131.2 213.093 131.275 213.081Z" fill="#5F6FA7"/>
<path d="M233.959 82.1376C234.11 79.5556 236.611 77.8423 238.844 76.5391C239.542 76.1325 240.265 75.7155 241.068 75.6216C241.87 75.5278 242.779 75.8423 243.134 76.5686C243.493 77.3054 243.193 78.1724 243.149 78.9908C243.083 80.2541 243.653 81.4547 243.857 82.7023C244.452 86.3704 241.912 89.6996 240.298 93.048C238.338 97.1122 237.667 101.679 237.403 106.182C237.311 107.75 237.254 109.366 236.607 110.796C235.961 112.226 234.552 113.442 232.984 113.334C233.964 106.014 234.258 98.5996 233.858 91.2235C233.693 88.1705 233.784 85.1315 233.959 82.1376Z" fill="#F2DBC1" stroke="#CEAC87" stroke-miterlimit="10"/>
<path d="M242.475 78.9336C240.828 79.3298 239.714 80.9457 239.348 82.5999C238.981 84.2541 239.209 85.9709 239.339 87.6598C239.469 89.3487 239.487 91.1194 238.75 92.645" stroke="#CEAC87" stroke-miterlimit="10"/>
<path d="M143.17 83.658C142.25 82.221 140.591 81.4721 139.024 80.8014C137.771 80.2645 136.28 79.738 135.111 80.4382C134.848 80.5964 134.612 80.8188 134.501 81.1037C134.334 81.5242 134.459 81.9986 134.574 82.4365C135.284 85.1332 135.62 87.9273 135.571 90.7144C135.561 91.2721 135.536 91.8403 135.688 92.3773C135.915 93.1835 136.508 93.8247 137.005 94.4989C138.925 97.1035 139.519 100.434 139.898 103.647C140.277 106.86 140.516 110.17 141.884 113.103C142.273 113.939 142.767 114.751 143.489 115.324C144.21 115.897 145.197 116.2 146.323 115.956C147.123 114.528 147.22 112.801 146.989 111.182C146.758 109.562 146.223 108.003 145.823 106.417C144.68 101.885 144.647 97.1522 144.761 92.4798C144.834 89.3973 144.765 86.1549 143.17 83.658Z" fill="#F2DBC1" stroke="#CEAC87" stroke-miterlimit="10"/>
<path d="M134.885 82.1172C136.756 83.3335 138.089 85.3509 138.471 87.5507C138.954 90.3256 137.985 93.2135 138.551 95.9728" stroke="#CEAC87" stroke-miterlimit="10"/>
<path d="M233.605 79.3399C235.052 77.3312 236.515 75.293 237.388 72.9768C238.512 69.9951 238.59 66.7406 238.748 63.5591C239.031 57.8372 239.612 52.1309 240.484 46.4698C240.724 44.9164 240.984 43.3352 240.738 41.7835C240.147 38.0929 236.828 35.3249 236.069 31.6655C233.29 28.5257 233.824 23.5631 231.082 20.5414C230.14 19.5041 228.898 18.8003 227.706 18.0601C225.843 16.9029 224.06 15.6205 222.281 14.3399C221.25 13.598 220.218 12.856 219.188 12.1141C216.217 9.97508 213.24 7.83263 210.477 5.43127C207.537 1.60682 202.401 -0.45918 197.56 0.225433C196.511 0.373129 195.475 0.642456 194.415 0.677208C193.051 0.724123 191.708 0.385292 190.356 0.190682C187.187 -0.262831 183.906 0.0968508 180.909 1.22455C178.664 2.80055 175.685 3.46084 172.759 3.80488C169.833 4.14893 166.864 4.21843 163.99 4.87177C159.102 5.98209 154.624 8.81785 151.535 12.7639C146.843 17.2191 143.917 23.3772 139.981 28.7203C139.033 30.0078 138.004 31.2884 137.537 32.8193C137.109 34.2215 137.191 35.7176 137.18 37.1841C137.14 43.0242 135.608 49.0189 137.314 54.6052C137.992 59.189 137.368 64.0247 137.839 68.7666C138.197 72.3652 139.192 75.8995 140.767 79.154C141.589 80.8533 142.57 82.4884 143.147 84.2851C143.818 86.372 143.919 88.5926 143.91 91.5569C160.744 95.0565 178.163 93.6038 195.294 92.1356C202.173 91.5465 209.096 90.9488 215.753 89.1139C222.409 87.2825 229.667 84.8081 233.605 79.3399Z" fill="#17282F"/>
<path d="M144.025 91.0021C145.188 85.8988 145.547 80.6147 145.089 75.4002C144.823 72.3768 144.293 69.2561 145.21 66.3647C146.397 62.6271 149.862 59.7809 150.393 55.8957C150.729 53.4474 149.834 50.8549 150.67 48.53C151.101 47.3293 151.956 46.3319 152.861 45.4336C154.555 43.7551 156.492 42.3251 158.666 41.3398C160.864 40.2903 163.321 39.7916 165.756 39.9011C168.119 40.0071 170.444 40.6761 172.81 40.6222C174.727 40.5788 176.6 40.061 178.431 39.4945C184.348 37.6648 190.101 35.2843 196.12 33.8265C202.139 32.3686 208.579 31.8699 214.354 33.75C218.191 35.0828 221.647 37.4893 224.227 40.6239C224.829 41.3537 225.39 42.1374 225.694 43.0323C226.797 46.2868 224.226 49.7637 224.705 53.1659C224.829 54.0382 225.152 54.874 225.581 55.6455C226.222 56.7975 227.091 57.8036 227.949 58.8044C229.282 60.3578 230.617 61.9356 231.557 63.7531C232.497 65.5706 233.02 67.6731 232.583 69.76C232.676 73.5531 233.407 77.2959 233.92 81.0561C235.426 92.0759 235.051 103.349 232.778 114.234C231.107 124.755 226.236 134.748 218.879 142.676C214.104 149.889 206.539 155.201 198.132 157.243C189.726 159.283 180.567 158.032 173.104 153.832C165.312 149.436 159.909 141.877 154.8 134.534C152.769 131.613 150.731 128.671 149.234 125.443C146.734 120.049 145.834 114.07 145.073 108.173C144.694 105.243 144.343 102.31 144.018 99.3738C143.702 96.4946 143.441 93.5685 144.025 91.0021Z" fill="#F2DBC1"/>
<path d="M228.319 72.0465C228.183 71.513 227.754 71.1116 227.329 70.7641C224.316 68.3002 220.559 66.8945 217.506 64.4792C216.21 64.1421 214.985 64.4966 213.775 64.7016C211.953 65.0109 210.093 64.9831 208.25 65.1048C204.578 65.348 200.947 66.196 197.546 67.6034C196.789 67.9162 196.024 68.2707 195.451 68.858C194.877 69.4453 194.53 70.3158 194.823 71.2124C195.065 72.2619 196.272 72.8371 197.346 72.7797C198.422 72.7224 199.407 72.2011 200.391 71.765C207.245 68.7329 215.273 69.6103 222.328 72.1438C224.307 72.8544 226.298 73.7006 228.401 73.7337C228.357 73.1672 228.454 72.5834 228.319 72.0465Z" fill="#17282F"/>
<path d="M186.599 68.5261C186.679 69.4349 186.728 70.368 186.477 71.2455C186.229 72.1229 185.629 72.9483 184.768 73.2472C183.944 73.5321 183.039 73.3028 182.199 73.0647C179.779 72.3784 177.376 71.6312 174.992 70.8284C173.442 70.3054 171.896 69.7581 170.295 69.4279C163.969 68.1213 157.258 70.4027 152.221 74.4478C152.938 72.2185 153.812 69.9162 155.579 68.3784C156.798 67.3185 158.346 66.7138 159.903 66.2829C163.651 65.2455 167.581 65.1135 171.47 65.0474C173.075 65.0196 174.7 65.0057 176.259 65.3915C177.541 65.7095 178.742 66.2898 179.981 66.7468C182.097 67.527 184.326 67.9492 186.599 68.5261Z" fill="#17282F"/>
<path d="M182.014 88.2969C181.255 90.1665 180.494 92.0362 179.734 93.9058C179.003 95.706 178.259 97.56 178.233 99.5044C178.207 101.449 179.064 103.53 180.801 104.403C181.496 104.752 182.608 104.691 182.746 103.927C182.819 103.515 182.547 103.131 182.419 102.731C182.19 102.015 182.474 101.167 183.088 100.735C183.701 100.302 184.598 100.321 185.368 100.868C187.26 101.275 188.13 104.045 190.066 104.017C191.253 104 192.092 102.908 192.855 102C193.56 101.159 194.387 100.37 195.42 99.9979C196.452 99.6277 197.729 99.7633 198.474 100.57C199.22 101.376 199.143 102.881 198.186 103.416C197.873 103.591 197.416 103.831 197.564 104.158C197.597 104.232 197.661 104.29 197.724 104.342C199.034 105.402 201.159 104.891 202.196 103.562C203.234 102.232 203.338 100.368 202.923 98.7346C202.505 97.1013 201.633 95.6295 200.846 94.1387C200.059 92.6478 199.334 91.0666 199.256 89.3829" stroke="#CEAC87" stroke-miterlimit="10"/>
<path d="M182.649 101.6C183.088 102.033 183.604 102.387 184.165 102.646C184.478 102.79 184.815 102.905 185.161 102.895C185.505 102.884 185.861 102.729 186.042 102.436C186.278 102.048 186.148 101.518 185.84 101.185C185.533 100.851 185.088 100.681 184.648 100.57C184.397 100.505 184.136 100.457 183.877 100.478C183.568 100.502 183.272 100.624 183.006 100.783C182.803 100.905 182.6 101.068 182.541 101.298C182.48 101.525 182.645 101.817 182.649 101.6Z" fill="#17282F"/>
<path d="M194.737 100.535C194.386 100.844 194 101.254 194.111 101.709C194.247 102.262 194.978 102.38 195.543 102.316C196.205 102.241 196.857 102.072 197.472 101.817C197.734 101.707 197.998 101.577 198.186 101.365C198.374 101.153 198.476 100.84 198.37 100.576C198.287 100.368 198.092 100.224 197.894 100.116C196.789 99.5042 195.487 99.8743 194.737 100.535Z" fill="#17282F"/>
<path d="M176.781 123.739C176.298 123.014 176.592 122.001 177.146 121.332C177.702 120.661 178.472 120.21 179.108 119.614C180.298 118.498 180.97 116.926 182.133 115.78C183.615 114.319 185.872 113.694 187.895 114.185C188.967 114.446 190.016 114.999 191.108 114.846C192.016 114.719 192.796 114.116 193.693 113.926C195.203 113.607 196.68 114.489 197.973 115.323C200.338 117.202 202.696 119.087 205.048 120.979C205.615 121.435 206.211 121.935 206.412 122.634C206.702 123.638 206.087 124.663 205.45 125.492C204.598 126.599 203.649 127.643 202.525 128.472C201.137 129.495 199.512 130.166 197.841 130.599C193.526 131.716 188.819 131.25 184.807 129.306C184.053 128.941 183.323 128.526 182.564 128.173C181.618 127.733 180.625 127.389 179.723 126.865C178.451 126.121 177.568 124.918 176.781 123.739Z" fill="#99746C"/>
<path d="M177.812 122.943C177.414 122.841 177.153 123.452 177.383 123.793C177.612 124.133 178.06 124.232 178.465 124.302C179.699 124.51 180.95 124.698 182.197 124.616C183.502 124.529 184.8 124.151 186.098 124.317C186.844 124.415 187.561 124.689 188.31 124.738C189.073 124.787 189.834 124.597 190.597 124.615C191.235 124.629 191.86 124.787 192.498 124.827C194.098 124.924 195.648 124.267 197.249 124.147C198.552 124.05 199.851 124.311 201.153 124.408C202.456 124.505 203.841 124.417 204.936 123.704C205.036 123.638 205.137 123.563 205.193 123.457C205.374 123.11 204.984 122.748 204.645 122.552C202.785 121.471 200.866 120.495 198.95 119.518C198.149 119.11 197.337 118.698 196.461 118.497C195.633 118.305 194.774 118.309 193.923 118.314C191.718 118.326 189.513 118.338 187.308 118.349C186.597 118.352 185.878 118.358 185.19 118.542C184.382 118.759 183.661 119.212 182.953 119.659C181.132 120.816 179.308 121.97 177.812 122.943Z" fill="#5B372F"/>
<path d="M213.558 133.052C211.982 130.442 211.895 127.236 211.667 124.196C211.546 122.574 211.37 120.957 211.144 119.346C210.887 117.518 210.432 115.492 208.891 114.476C206.435 113.4 204.152 111.834 202.402 109.805C201.464 108.715 200.672 107.494 199.627 106.507C198.583 105.518 197.195 104.764 195.765 104.908C194.178 104.858 192.858 106.206 191.249 106.502C189.48 106.827 187.735 105.834 185.939 105.781C183.961 105.722 182.114 106.808 180.665 108.152C179.216 109.497 178.045 111.119 176.622 112.491C175.718 113.363 174.712 114.135 173.911 115.103C172.57 116.726 171.899 118.781 171.254 120.787C170.677 122.585 170.094 124.411 170.012 126.298C169.922 128.347 170.398 130.547 169.541 132.489C170.973 131.794 171.814 130.265 172.285 128.745C173.068 126.216 173.162 123.322 174.917 121.339C176.17 119.923 178.062 119.242 179.466 117.973C180.797 116.771 181.671 115.056 183.219 114.147C185.225 112.971 187.735 113.471 190.06 113.461C191.466 113.454 192.861 113.245 194.225 113.089C196.78 113.117 198.993 114.762 201.007 116.335C201.768 116.929 202.529 117.522 203.289 118.116C204.401 118.983 205.574 119.94 206.091 121.264C206.8 122.705 208.369 123.527 209.268 124.858C210.364 126.482 210.328 128.647 211.315 130.342C211.916 131.375 212.865 132.164 213.558 133.052Z" fill="#17282F"/>
<path d="M143.515 85.7887C144.695 91.9224 143.656 98.2559 144.064 104.489C144.328 108.529 145.199 112.499 146.066 116.454C146.908 120.294 147.758 124.162 149.317 127.771C151.583 133.02 155.247 137.517 158.519 142.205C162.019 147.22 165.238 152.664 170.289 156.318C174.453 160.441 179.513 163.736 185.13 165.397C190.748 167.06 196.935 167.021 202.369 164.828C207.702 162.677 212.072 158.587 215.45 153.934C218.826 149.28 221.302 144.047 223.731 138.737C231.661 125.154 236.066 109.425 235.698 93.9537C235.757 89.4029 235.625 84.8486 235.302 80.31C235.229 79.2814 235.044 78.0877 234.146 77.582C233.632 78.4335 233.715 79.5021 233.802 80.4925C234.111 83.9816 234.268 87.4863 234.269 90.9893C234.271 94.9215 234.038 99.0101 232.223 102.525C231.102 104.091 229.959 105.651 228.588 107.003C227.411 108.162 226.078 109.151 224.871 110.278C221.361 113.552 219.006 117.886 217.213 122.337C215.42 126.789 214.129 131.432 212.159 135.842C211.587 138.662 209.573 141.148 206.934 142.292C205.514 142.907 203.964 143.145 202.43 143.338C196.722 144.056 190.944 144.233 185.203 143.864C183.4 143.748 181.582 143.576 179.86 143.023C175.351 141.574 172.072 137.732 169.276 133.91C168.114 132.32 166.99 130.702 165.787 128.744C163.685 121.661 159.968 115.064 155 109.595C151.96 106.249 148.358 103.163 146.79 98.9214C145.193 94.6 145.977 89.74 144.808 85.2848C144.684 84.8156 144.434 84.2613 143.949 84.2301C143.657 84.8695 143.477 85.5906 143.515 85.7887Z" fill="#17282F"/>
<path d="M185.751 70.2743C187.706 71.7147 190.359 72.1526 192.674 71.4176C193.786 71.0631 194.802 70.4636 195.883 70.0206C198.107 69.1083 200.543 68.8859 202.943 68.7087C207.836 68.0988 212.785 67.9407 217.721 68.2917C220.592 68.3247 223.25 69.8034 226.091 70.2117C227.999 70.4862 229.995 70.2777 231.756 70.9762C232.016 71.7616 232.004 72.6339 231.723 73.4106C231.653 73.6017 231.559 73.7981 231.391 73.9128C231.207 74.0396 230.968 74.0448 230.75 74.0883C229.747 74.2916 229.144 75.3046 228.758 76.2516C227.41 79.5634 227.175 83.2402 225.872 86.5694C225.269 88.1124 224.319 89.6745 222.762 90.3157C218.393 91.2245 213.926 91.6484 209.403 91.6015C207.516 91.6727 205.671 91.115 203.806 90.8161C202.948 90.6771 202.077 90.5937 201.236 90.3696C200.395 90.1471 199.57 89.7718 198.971 89.1411C198.567 88.7171 198.281 88.1958 198.006 87.678C197.306 86.3644 196.639 85.0334 196.036 83.6624C195.561 82.8023 195.188 81.8883 194.925 80.9414C194.717 80.1925 194.578 79.4227 194.333 78.6842C194.133 78.0795 193.855 77.4853 193.41 77.0283C193.129 76.7398 192.788 76.5157 192.43 76.3315C191.565 75.8867 190.583 75.673 189.61 75.7164C189.297 75.7303 188.983 75.772 188.691 75.8849C187.873 76.2012 187.37 77.0109 186.976 77.7841C186.105 80.4931 185.033 83.1342 183.768 85.6833C183.169 86.8909 182.491 88.1194 181.402 88.9169C180.467 89.5998 179.317 89.9021 178.185 90.1906C175.007 90.486 171.822 90.7814 168.63 90.7484C165.438 90.7153 162.227 90.3452 159.218 89.3913C158.201 89.1133 157.188 88.7223 156.396 88.0273C155.496 87.2384 154.949 86.1159 154.599 84.9708C154.25 83.8258 154.078 82.6338 153.744 81.4783C153.526 80.0951 153.34 78.7051 153.187 77.3115C153.044 76.0135 152.898 74.6235 152.085 73.673C151.868 73.249 151.491 72.9189 151.062 72.7086C150.632 72.4984 150.156 72.4045 149.722 72.3802C149.44 72.1717 149.383 71.7773 149.378 71.4263C149.369 70.8894 149.421 70.3507 149.515 69.8207C149.553 69.6018 149.602 69.3759 149.724 69.19C149.845 69.0023 150.056 68.8581 150.215 68.7208C152.212 69.2664 154.311 68.634 156.356 68.3142C159.24 67.8642 162.215 68.038 165.021 67.3916C169.567 66.9172 174.173 67.0336 178.688 67.7339C181.233 68.1283 183.781 68.8216 185.751 70.2743Z" fill="black"/>
<path d="M179.904 88.4054C181.299 87.7503 182.095 86.2768 182.72 84.8676C183.942 82.1118 184.875 79.2291 185.499 76.2804C185.718 75.25 185.888 74.1328 185.438 73.1823C185.249 72.1745 184.401 71.5038 183.53 71.0537C182.382 70.4577 181.118 70.1206 179.852 69.8548C178.05 69.476 176.22 69.2345 174.382 69.132C169.11 68.8035 163.722 68.5585 158.547 69.7644C157.866 69.9226 157.176 70.1137 156.608 70.522C155.315 71.4516 155.006 73.2136 154.789 74.7583C154.924 76.694 154.7 78.6401 154.808 80.5792C154.914 82.5167 155.4 84.5305 156.782 85.9258C157.397 86.6591 158.064 87.3784 158.912 87.8233C159.463 88.1117 160.069 88.275 160.676 88.4175C163.706 89.1334 166.839 89.4167 169.935 89.1751C173.403 89.3593 177.089 89.7259 179.904 88.4054Z" fill="#F2DBC1"/>
<path d="M182.198 73.0625C183.037 73.3006 183.942 73.53 184.766 73.245C184.985 73.1691 185.187 73.0592 185.37 72.9231C184.99 71.3114 181.943 70.1961 178.989 69.6747C175.774 68.9798 168.389 68.6323 163.09 69.0665C158.311 69.5878 156.226 69.8484 155.357 72.2846C159.871 69.6442 165.207 68.3751 170.293 69.4258C171.894 69.7559 173.44 70.3032 174.99 70.8263C177.374 71.629 179.777 72.3762 182.198 73.0625Z" fill="#17282F"/>
<path d="M195.818 77.4746C195.63 75.9194 195.489 74.1836 196.445 72.9412C197.1 72.0898 198.148 71.6484 199.169 71.3165C203.979 69.7527 209.147 69.8118 214.17 69.963C217.254 70.0881 220.325 70.5398 223.315 71.3079C224.135 71.5181 225.027 71.81 225.492 72.4842C226.168 74.3695 226.413 76.3938 226.368 78.3955C226.325 80.399 225.996 82.3868 225.553 84.2929C225.287 85.1808 225.018 86.0757 224.594 86.8993C224.17 87.7229 223.572 88.4823 222.775 88.9549C222.215 89.2868 221.579 89.4692 220.943 89.5978C219.962 89.7976 218.961 89.881 217.962 89.9644C216.215 90.1104 214.471 90.2563 212.785 90.3728C210.313 90.5726 207.83 90.2685 205.367 89.9662C204.624 89.8741 203.878 89.782 203.147 89.6186C201.939 89.3458 200.709 88.8228 200.049 87.8011C197.628 84.9098 196.262 81.1809 195.818 77.4746Z" fill="#F2DBC1"/>
<path d="M218.745 78.9502C216.738 77.2386 214.62 75.4715 212.047 74.8946C209.826 74.3959 207.449 74.8633 205.456 75.9597C204.435 76.521 203.508 77.2386 202.587 77.9528C201.724 78.6218 200.86 79.2907 200.064 80.1543C202.937 79.8415 205.67 81.3428 208.516 81.8346C212.066 82.4497 215.866 81.395 218.745 78.9502Z" fill="white" stroke="black" stroke-width="0.5" stroke-miterlimit="10"/>
<path d="M210.909 75.3438C209.724 74.9845 208.358 75.5417 207.655 76.5485C206.951 77.5553 206.883 78.9213 207.343 80.0549C207.516 80.4834 207.768 80.8926 208.138 81.177C208.473 81.4344 208.884 81.5728 209.296 81.6746C210.268 81.9147 211.375 81.9455 212.194 81.3729C212.913 80.8715 213.268 80.005 213.482 79.1634C213.601 78.6927 213.689 78.2066 213.64 77.7224C213.503 76.3794 212.165 75.2689 210.909 75.3438Z" fill="#17282F"/>
<path d="M201.095 77.3407C202.188 76.0201 203.313 74.67 204.801 73.8186C206.794 72.677 209.216 72.5606 211.499 72.8056C214.1 73.0853 216.775 73.8672 218.623 75.7178C218.997 76.0914 219.332 76.5049 219.739 76.8403C220.335 77.3303 221.171 77.8429 221.046 78.6039C219.683 77.9037 218.839 76.5049 217.663 75.5232C216.577 74.6179 215.225 74.0879 213.859 73.7248C210.663 72.8751 207.049 72.9324 204.287 74.7517C203.15 75.5006 202.212 76.5066 201.286 77.504C201.147 77.5249 201.051 77.3025 201.095 77.3407Z" fill="#CEAC87"/>
<path d="M200.393 71.7637C199.41 72.1998 198.425 72.7211 197.349 72.7785C197.111 72.7912 196.866 72.7728 196.627 72.725C197.349 71.5869 201.405 70.4575 204.881 70.11C206.175 69.9805 207.522 69.8997 208.884 69.8637C209.391 69.8427 209.9 69.8358 210.409 69.8421C215.324 69.8313 220.242 70.3832 223.386 71.3263C224.342 71.613 225.037 71.8737 225.471 72.4557L225.732 73.3105C224.582 72.9932 223.454 72.546 222.331 72.1425C218.528 70.7768 214.442 69.8923 210.409 69.8421C209.9 69.8432 209.391 69.8504 208.884 69.8637C205.96 69.9849 203.086 70.5727 200.393 71.7637Z" fill="#17282F"/>
<path d="M180.337 80.3533C178.045 79.3056 176.273 77.3612 174.04 76.1901C171.91 75.0745 169.392 74.7166 167.036 75.1962C164.68 75.6757 162.502 76.9893 160.979 78.8486C162.191 79.6583 162.852 81.0831 163.969 82.0214C165.793 83.554 168.48 83.5105 170.791 82.9232C173.102 82.3359 175.308 81.2882 177.682 81.0657C178.594 80.9806 179.621 80.9754 180.337 80.3533Z" fill="white" stroke="black" stroke-width="0.5" stroke-miterlimit="10"/>
<path d="M159.1 78.8609C159.554 77.523 160.228 76.1954 161.366 75.3579C162.24 74.7168 163.312 74.4179 164.367 74.1659C165.95 73.7871 167.55 73.4848 169.154 73.212C170.482 72.9878 171.847 72.7845 173.163 73.0695C175.526 73.5838 177.256 75.5473 178.81 77.3996C178.775 77.5838 178.499 77.5456 178.335 77.4552C177.317 76.887 176.478 76.046 175.494 75.4187C172.723 73.6516 169.156 73.7837 165.926 74.397C164.61 74.6472 163.286 74.9739 162.125 75.6412C160.963 76.3084 159.969 77.3579 159.625 78.6524C159.533 78.9964 159.399 79.4361 159.043 79.4534C158.975 79.1424 159.06 78.8018 159.1 78.8609Z" fill="#CEAC87"/>
<path d="M168.655 75.4622C167.609 75.3874 166.54 75.8639 165.883 76.6974C165.228 77.5309 165.005 78.6978 165.305 79.7193C165.452 80.2194 165.715 80.681 166.028 81.0935C166.324 81.4846 166.668 81.8393 167.072 82.115C168.371 83.0019 170.253 82.8823 171.433 81.8351C172.614 80.7879 172.989 78.9093 172.305 77.4753C171.62 76.0434 169.934 75.1843 168.655 75.4622Z" fill="#17282F"/>
<g clip-path="url(#clip0_1050_2944)">
<path fill-rule="evenodd" clip-rule="evenodd" d="M55.1699 201.043L98.5541 155.874L122.249 178.633L78.8651 223.802L55.1699 201.043Z" fill="#B3DB9E"/>
<path fill-rule="evenodd" clip-rule="evenodd" d="M95.0365 166.854C96.776 168.571 99.8468 168.565 101.607 166.777L110.982 175.782C109.127 177.665 109.165 180.734 111.244 182.772L82.3808 212.823C80.4779 210.949 77.4068 210.956 75.6473 212.744L66.2722 203.739C68.1316 201.847 68.0955 198.777 66.1813 196.897L95.0365 166.854Z" fill="#E0F2DA"/>
<path fill-rule="evenodd" clip-rule="evenodd" d="M79.2668 192.883C77.5287 187.651 80.3479 182.047 85.5638 180.365C90.7794 178.682 96.4161 181.559 98.1541 186.791C99.8923 192.022 97.0729 197.627 91.857 199.309C86.641 200.992 81.0048 198.115 79.2668 192.883Z" fill="#B3DB9E"/>
<path fill-rule="evenodd" clip-rule="evenodd" d="M82.2846 188.456L87.0738 183.47C87.1148 183.427 87.1846 183.427 87.2291 183.47L87.9969 184.207C88.0181 184.228 88.0307 184.255 88.0318 184.284C88.0329 184.313 88.0224 184.341 88.0027 184.363L86.507 185.92C87.0314 185.951 87.5475 186.11 88.006 186.397L89.0211 185.34C89.0621 185.298 89.1317 185.297 89.1761 185.34L89.9441 186.078C89.9884 186.12 89.9912 186.19 89.9502 186.233L88.9351 187.29C89.3009 187.824 89.4856 188.45 89.4887 189.08C89.4926 189.905 89.1846 190.74 88.5636 191.387L88.5663 191.389L88.4973 191.461L94.4065 191.76C94.5663 191.768 94.633 192.087 94.5763 192.146L93.3417 193.446L87.0333 193.128C87.0083 193.126 86.9839 193.118 86.9626 193.105C86.9414 193.091 86.9239 193.072 86.912 193.05L85.652 191.84L87.2755 190.149L87.278 190.152C87.5699 189.848 87.7146 189.457 87.713 189.072C87.7126 188.924 87.6894 188.776 87.6443 188.634L85.161 191.219C85.12 191.262 85.0501 191.262 85.0058 191.219L84.2379 190.482C84.1934 190.439 84.1909 190.369 84.2319 190.327L86.7151 187.741C86.5714 187.702 86.4226 187.685 86.2741 187.69C85.8892 187.704 85.5047 187.864 85.2127 188.168L85.2152 188.171L83.5917 189.861L82.2908 188.611C82.2463 188.569 82.2435 188.499 82.2845 188.456L82.2846 188.456Z" fill="#FEFEFE"/>
</g>
<rect x="55.8769" y="201.029" width="61.6292" height="31.8546" transform="rotate(-46.1546 55.8769 201.029)" stroke="black"/>
<g clip-path="url(#clip1_1050_2944)">
<path fill-rule="evenodd" clip-rule="evenodd" d="M49.8672 198.426L83.6866 145.713L111.339 163.454L77.52 216.167L49.8672 198.426Z" fill="#B3DB9E"/>
<path fill-rule="evenodd" clip-rule="evenodd" d="M82.3626 157.164C84.4015 158.512 87.4131 157.911 88.7933 155.816L99.7343 162.836C98.2792 165.042 98.911 168.046 101.345 169.643L78.8452 204.713C76.6155 203.243 73.6037 203.844 72.2236 205.938L61.2826 198.919C62.7406 196.703 62.111 193.698 59.8689 192.224L82.3626 157.164Z" fill="#E0F2DA"/>
<path fill-rule="evenodd" clip-rule="evenodd" d="M71.9274 185.757C69.2095 180.961 70.8905 174.917 75.682 172.257C80.4732 169.596 86.5602 171.327 89.2781 176.124C91.9961 180.92 90.315 186.964 85.5235 189.624C80.7318 192.285 74.6453 190.553 71.9274 185.757Z" fill="#B3DB9E"/>
<path fill-rule="evenodd" clip-rule="evenodd" d="M74.0327 180.829L77.766 175.01C77.798 174.96 77.8664 174.947 77.9184 174.98L78.8144 175.555C78.8391 175.57 78.8568 175.595 78.8635 175.623C78.8702 175.652 78.8654 175.681 78.8501 175.706L77.6842 177.523C78.2048 177.453 78.7418 177.508 79.2472 177.702L80.0386 176.468C80.0705 176.418 80.1387 176.405 80.1906 176.438L81.0868 177.013C81.1386 177.046 81.1548 177.114 81.1229 177.164L80.3316 178.397C80.794 178.851 81.0963 179.429 81.2213 180.047C81.3848 180.855 81.2443 181.734 80.7603 182.489L80.7634 182.491L80.7095 182.575L86.5648 181.724C86.7232 181.701 86.8503 182 86.8062 182.07L85.8467 183.584L79.5959 184.493C79.571 184.496 79.5456 184.493 79.5221 184.484C79.4986 184.475 79.4779 184.46 79.4619 184.44L77.9914 183.497L79.257 181.524L79.2599 181.526C79.4874 181.171 79.5537 180.76 79.4777 180.383C79.4485 180.237 79.3971 180.096 79.3254 179.966L77.3895 182.983C77.3576 183.033 77.289 183.046 77.2373 183.013L76.3411 182.438C76.2892 182.405 76.2733 182.337 76.3052 182.287L78.2409 179.27C78.0923 179.259 77.9431 179.271 77.7985 179.305C77.4235 179.393 77.0772 179.625 76.8497 179.98L76.8525 179.982L75.587 181.954L74.0688 180.98C74.0168 180.947 74.0007 180.879 74.0326 180.829L74.0327 180.829Z" fill="#FEFEFE"/>
</g>
<rect x="50.558" y="198.275" width="61.6292" height="31.8546" transform="rotate(-57.3167 50.558 198.275)" stroke="black"/>
<g clip-path="url(#clip2_1050_2944)">
<path fill-rule="evenodd" clip-rule="evenodd" d="M48.0996 198.07L72.5514 140.412L102.799 153.239L78.3469 210.898L48.0996 198.07Z" fill="#B3DB9E"/>
<path fill-rule="evenodd" clip-rule="evenodd" d="M73.1768 151.924C75.4137 152.908 78.2811 151.809 79.2885 149.511L91.256 154.587C90.1935 157.006 91.3225 159.861 93.9911 161.025L77.7234 199.385C75.2779 198.312 72.4103 199.412 71.4031 201.709L59.4355 196.634C60.4992 194.204 59.3721 191.348 56.9137 190.273L73.1768 151.924Z" fill="#E0F2DA"/>
<path fill-rule="evenodd" clip-rule="evenodd" d="M67.7095 181.864C64.2221 177.594 64.8605 171.354 69.1351 167.924C73.4093 164.494 79.7011 165.175 83.1885 169.444C86.6759 173.713 86.0375 179.954 81.7629 183.384C77.4881 186.814 71.1969 186.133 67.7095 181.864Z" fill="#B3DB9E"/>
<path fill-rule="evenodd" clip-rule="evenodd" d="M68.955 176.652L71.6542 170.287C71.6773 170.233 71.7425 170.208 71.7993 170.232L72.7794 170.647C72.8064 170.659 72.8279 170.68 72.8393 170.707C72.8507 170.733 72.8509 170.763 72.8401 170.79L71.9971 172.778C72.4984 172.621 73.0371 172.585 73.5678 172.69L74.14 171.341C74.1631 171.287 74.228 171.262 74.2848 171.286L75.265 171.702C75.3216 171.726 75.3491 171.79 75.326 171.844L74.7539 173.193C75.2862 173.563 75.6816 174.082 75.9088 174.669C76.2064 175.439 76.216 176.329 75.866 177.154L75.8694 177.155L75.8305 177.247L81.4586 175.422C81.6108 175.372 81.7866 175.646 81.7548 175.722L81.0643 177.377L75.0561 179.326C75.0321 179.333 75.0065 179.335 74.9818 179.33C74.9571 179.324 74.9341 179.313 74.9151 179.297L73.3066 178.614L74.2217 176.457L74.2249 176.458C74.3894 176.07 74.3853 175.653 74.2468 175.294C74.1935 175.156 74.1191 175.026 74.0264 174.909L72.6268 178.209C72.6037 178.264 72.5384 178.289 72.4818 178.265L71.5015 177.849C71.4447 177.825 71.4177 177.761 71.4407 177.706L72.8402 174.406C72.6919 174.42 72.5468 174.457 72.4101 174.515C72.0553 174.665 71.753 174.952 71.5885 175.34L71.5916 175.341L70.6767 177.499L69.016 176.795C68.9592 176.771 68.9318 176.707 68.9549 176.652L68.955 176.652Z" fill="#FEFEFE"/>
</g>
<rect x="48.7551" y="197.805" width="61.6292" height="31.8546" transform="rotate(-67.0193 48.7551 197.805)" stroke="black"/>
<g clip-path="url(#clip3_1050_2944)">
<path fill-rule="evenodd" clip-rule="evenodd" d="M51.8105 206.566L47.2998 144.1L80.0692 141.734L84.58 204.2L51.8105 206.566Z" fill="#B3DB9E"/>
<path fill-rule="evenodd" clip-rule="evenodd" d="M53.1021 154.063C55.542 153.92 57.5934 151.635 57.4431 149.13L70.4085 148.194C70.5654 150.832 72.8711 152.859 75.7772 152.679L78.7782 194.238C76.1123 194.397 74.0609 196.683 74.2112 199.186L61.2458 200.123C61.0851 197.475 58.7806 195.447 56.1023 195.61L53.1021 154.063Z" fill="#E0F2DA"/>
<path fill-rule="evenodd" clip-rule="evenodd" d="M61.8798 183.204C56.8298 180.993 54.5541 175.147 56.7959 170.146C59.0374 165.145 64.9482 162.884 69.9981 165.095C75.0479 167.306 77.3237 173.152 75.0818 178.153C72.8399 183.154 66.9296 185.415 61.8798 183.204Z" fill="#B3DB9E"/>
<path fill-rule="evenodd" clip-rule="evenodd" d="M60.6128 177.999L60.1149 171.103C60.1106 171.044 60.1572 170.992 60.2187 170.988L61.2806 170.911C61.3097 170.909 61.3386 170.918 61.3609 170.936C61.3832 170.955 61.3972 170.982 61.3997 171.01L61.5552 173.164C61.9298 172.796 62.3931 172.518 62.9135 172.37L62.8079 170.909C62.8037 170.85 62.85 170.798 62.9115 170.793L63.9735 170.717C64.0348 170.712 64.0886 170.757 64.0929 170.816L64.1984 172.277C64.8406 172.364 65.429 172.645 65.899 173.065C66.5146 173.614 66.9287 174.402 66.9932 175.296L66.9969 175.296L67.0041 175.395L71.1819 171.206C71.2949 171.092 71.5763 171.256 71.5826 171.338L71.722 173.126L67.262 177.598C67.2441 177.616 67.222 177.629 67.1977 177.636C67.1733 177.642 67.1477 177.643 67.1232 177.637L65.3806 177.762L65.2118 175.425L65.2153 175.424C65.1849 175.004 64.9914 174.635 64.7045 174.379C64.5938 174.279 64.4684 174.198 64.3326 174.136L64.5908 177.712C64.5951 177.771 64.5483 177.822 64.487 177.827L63.425 177.904C63.3634 177.908 63.3101 177.863 63.3059 177.804L63.0476 174.229C62.922 174.309 62.8097 174.408 62.7145 174.522C62.4671 174.817 62.3287 175.21 62.3591 175.631L62.3624 175.631L62.5313 177.968L60.7322 178.098C60.6706 178.102 60.6171 178.058 60.6128 177.999L60.6128 177.999Z" fill="#FEFEFE"/>
</g>
<rect x="52.2732" y="206.032" width="61.6292" height="31.8546" transform="rotate(-94.1302 52.2732 206.032)" stroke="black"/>
<g clip-path="url(#clip4_1050_2944)">
<path fill-rule="evenodd" clip-rule="evenodd" d="M49.8398 211.926L27.7712 153.314L58.5187 141.737L80.5873 200.349L49.8398 211.926Z" fill="#B3DB9E"/>
<path fill-rule="evenodd" clip-rule="evenodd" d="M36.1639 161.219C38.4627 160.389 39.7805 157.615 38.925 155.257L51.0905 150.676C51.9902 153.161 54.7766 154.449 57.5119 153.451L72.1941 192.446C69.6833 193.356 68.3656 196.13 69.221 198.488L57.0556 203.069C56.1493 200.575 53.3636 199.285 50.842 200.203L36.1639 161.219Z" fill="#E0F2DA"/>
<path fill-rule="evenodd" clip-rule="evenodd" d="M52.86 186.667C47.3899 185.981 43.5474 181.023 44.2764 175.591C45.005 170.159 50.03 166.312 55.5001 166.998C60.9698 167.683 64.8125 172.642 64.0835 178.074C63.3545 183.506 58.3299 187.353 52.86 186.667Z" fill="#B3DB9E"/>
<path fill-rule="evenodd" clip-rule="evenodd" d="M50.1646 182.033L47.7285 175.563C47.7076 175.508 47.7375 175.444 47.7952 175.423L48.7916 175.048C48.8189 175.037 48.8491 175.038 48.8758 175.049C48.9025 175.061 48.9234 175.082 48.9341 175.109L49.6949 177.13C49.9494 176.67 50.3149 176.273 50.7717 175.983L50.2554 174.612C50.2345 174.556 50.2642 174.493 50.3219 174.472L51.3184 174.096C51.3759 174.075 51.4402 174.102 51.461 174.158L51.9774 175.529C52.6176 175.429 53.2618 175.532 53.8316 175.801C54.5779 176.153 55.1987 176.791 55.5145 177.629L55.518 177.628L55.5531 177.721L58.3687 172.518C58.4449 172.377 58.7612 172.454 58.7906 172.531L59.4319 174.205L56.4261 179.761C56.4141 179.783 56.3965 179.801 56.375 179.814C56.3536 179.828 56.3291 179.835 56.3039 179.837L54.6689 180.452L53.843 178.259L53.8462 178.258C53.6978 177.863 53.4074 177.564 53.0594 177.4C52.9251 177.336 52.7816 177.293 52.634 177.273L53.8972 180.628C53.918 180.683 53.8879 180.746 53.8304 180.768L52.8339 181.143C52.7762 181.165 52.7123 181.137 52.6915 181.082L51.4282 177.727C51.3307 177.84 51.2511 177.966 51.1923 178.103C51.0388 178.456 51.0178 178.872 51.1663 179.267L51.1694 179.265L51.9954 181.459L50.3072 182.094C50.2495 182.116 50.1855 182.089 50.1647 182.033L50.1646 182.033Z" fill="#FEFEFE"/>
</g>
<rect x="50.1316" y="211.282" width="61.6292" height="31.8546" transform="rotate(-110.632 50.1316 211.282)" stroke="black"/>
<g clip-path="url(#clip5_1050_2944)">
<path fill-rule="evenodd" clip-rule="evenodd" d="M51.4277 216.156L8.76884 170.302L32.8237 147.923L75.4826 193.778L51.4277 216.156Z" fill="#B3DB9E"/>
<path fill-rule="evenodd" clip-rule="evenodd" d="M19.5336 174.431C21.3454 172.791 21.5122 169.725 19.8258 167.867L29.3433 159.013C31.1186 160.97 34.1852 161.105 36.3374 159.144L64.7183 189.651C62.7405 191.445 62.574 194.512 64.2602 196.369L54.7428 205.223C52.9583 203.26 49.8913 203.124 47.9064 204.929L19.5336 174.431Z" fill="#E0F2DA"/>
<path fill-rule="evenodd" clip-rule="evenodd" d="M44.6371 191.64C39.316 193.081 33.8793 189.952 32.4926 184.65C31.1056 179.348 34.295 173.882 39.6162 172.44C44.9369 170.999 50.3739 174.129 51.7606 179.431C53.1473 184.733 49.9582 190.199 44.6371 191.64Z" fill="#B3DB9E"/>
<path fill-rule="evenodd" clip-rule="evenodd" d="M40.3847 188.377L35.6756 183.315C35.6353 183.272 35.6389 183.202 35.6841 183.16L36.4637 182.435C36.4849 182.415 36.5131 182.404 36.5422 182.404C36.5712 182.405 36.5988 182.417 36.6188 182.438L38.0896 184.019C38.1506 183.497 38.338 182.99 38.6506 182.549L37.6525 181.476C37.6121 181.433 37.6157 181.363 37.6609 181.321L38.4405 180.596C38.4855 180.554 38.5554 180.555 38.5957 180.598L39.5938 181.671C40.1483 181.336 40.7834 181.187 41.4125 181.219C42.2366 181.262 43.0529 181.616 43.6635 182.272L43.6662 182.27L43.7341 182.343L44.3644 176.46C44.3815 176.301 44.7035 176.252 44.7598 176.312L45.9885 177.618L45.3155 183.898C45.3127 183.923 45.3035 183.947 45.2887 183.968C45.274 183.988 45.2542 184.004 45.2313 184.015L43.9521 185.205L42.3558 183.489L42.3583 183.487C42.0713 183.178 41.6892 183.012 41.3048 182.992C41.1564 182.984 41.0074 182.999 40.863 183.036L43.3048 185.66C43.3452 185.704 43.3412 185.773 43.2962 185.815L42.5166 186.541C42.4714 186.583 42.4019 186.581 42.3616 186.538L39.9197 183.913C39.8722 184.054 39.8467 184.202 39.8441 184.351C39.8362 184.736 39.9747 185.129 40.2617 185.437L40.2641 185.435L41.8606 187.151L40.5399 188.379C40.4947 188.421 40.4251 188.42 40.3848 188.377L40.3847 188.377Z" fill="#FEFEFE"/>
</g>
<rect x="51.4532" y="215.45" width="61.6292" height="31.8546" transform="rotate(-132.932 51.4532 215.45)" stroke="black"/>
<g clip-path="url(#clip6_1050_2944)">
<path fill-rule="evenodd" clip-rule="evenodd" d="M53.5332 221.711L0.309907 188.7L17.6269 160.78L70.8502 193.79L53.5332 221.711Z" fill="#B3DB9E"/>
<path fill-rule="evenodd" clip-rule="evenodd" d="M11.781 189.852C13.0973 187.792 12.4512 184.79 10.3354 183.442L17.187 172.395C19.4149 173.817 22.4088 173.139 23.9689 170.681L59.3783 192.642C57.9426 194.894 58.5891 197.897 60.7046 199.245L53.853 210.291C51.6149 208.868 48.6201 209.543 47.1803 211.807L11.781 189.852Z" fill="#E0F2DA"/>
<path fill-rule="evenodd" clip-rule="evenodd" d="M40.5287 199.847C35.7744 202.638 29.7057 201.049 26.9724 196.299C24.2389 191.549 25.8773 185.436 30.6316 182.646C35.3853 179.855 41.4544 181.443 44.1877 186.194C46.921 190.944 45.2828 197.056 40.5287 199.847Z" fill="#B3DB9E"/>
<path fill-rule="evenodd" clip-rule="evenodd" d="M35.5685 197.818L29.6932 194.174C29.6428 194.143 29.628 194.075 29.6605 194.023L30.2218 193.118C30.237 193.093 30.2613 193.075 30.2895 193.068C30.3177 193.061 30.3474 193.065 30.3722 193.08L32.2072 194.218C32.1288 193.698 32.1762 193.161 32.3616 192.652L31.1163 191.88C31.066 191.849 31.0511 191.781 31.0837 191.728L31.6449 190.823C31.6773 190.771 31.745 190.754 31.7953 190.785L33.0407 191.557C33.4873 191.088 34.0608 190.777 34.6762 190.643C35.4824 190.467 36.3633 190.594 37.125 191.066L37.127 191.063L37.2117 191.116L36.2715 185.274C36.2461 185.116 36.5438 184.984 36.614 185.027L38.143 185.964L39.1467 192.2C39.1506 192.225 39.1479 192.25 39.1391 192.274C39.1302 192.297 39.1155 192.318 39.0962 192.335L38.1753 193.819L36.1836 192.584L36.1854 192.581C35.8273 192.359 35.415 192.299 35.0388 192.381C34.8936 192.412 34.7537 192.466 34.6242 192.54L37.6707 194.429C37.721 194.46 37.7355 194.529 37.7031 194.581L37.1419 195.486C37.1094 195.538 37.0419 195.555 36.9917 195.524L33.9451 193.634C33.9365 193.783 33.9507 193.932 33.9873 194.076C34.081 194.45 34.318 194.793 34.6761 195.015L34.6779 195.012L36.6696 196.247L35.7188 197.78C35.6863 197.832 35.6188 197.85 35.5686 197.818L35.5685 197.818Z" fill="#FEFEFE"/>
</g>
<rect x="53.3718" y="221.022" width="61.6292" height="31.8546" transform="rotate(-148.192 53.3718 221.022)" stroke="black"/>
<g clip-path="url(#clip7_1050_2944)">
<path fill-rule="evenodd" clip-rule="evenodd" d="M335.09 201.043L378.474 155.874L402.169 178.633L358.785 223.802L335.09 201.043Z" fill="#B3DB9E"/>
<path fill-rule="evenodd" clip-rule="evenodd" d="M374.956 166.854C376.696 168.571 379.767 168.565 381.526 166.777L390.902 175.782C389.047 177.665 389.085 180.734 391.164 182.772L362.301 212.823C360.398 210.949 357.327 210.956 355.567 212.744L346.192 203.739C348.052 201.847 348.015 198.777 346.101 196.897L374.956 166.854Z" fill="#E0F2DA"/>
<path fill-rule="evenodd" clip-rule="evenodd" d="M359.187 192.883C357.449 187.651 360.268 182.047 365.484 180.365C370.699 178.682 376.336 181.559 378.074 186.791C379.812 192.022 376.993 197.627 371.777 199.309C366.561 200.992 360.925 198.115 359.187 192.883Z" fill="#B3DB9E"/>
<path fill-rule="evenodd" clip-rule="evenodd" d="M362.204 188.456L366.994 183.47C367.035 183.427 367.105 183.427 367.149 183.47L367.917 184.207C367.938 184.228 367.951 184.255 367.952 184.284C367.953 184.313 367.942 184.341 367.923 184.363L366.427 185.92C366.951 185.951 367.467 186.11 367.926 186.397L368.941 185.34C368.982 185.298 369.052 185.297 369.096 185.34L369.864 186.078C369.908 186.12 369.911 186.19 369.87 186.233L368.855 187.29C369.221 187.824 369.406 188.45 369.409 189.08C369.413 189.905 369.105 190.74 368.484 191.387L368.486 191.389L368.417 191.461L374.326 191.76C374.486 191.768 374.553 192.087 374.496 192.146L373.262 193.446L366.953 193.128C366.928 193.126 366.904 193.118 366.883 193.105C366.861 193.091 366.844 193.072 366.832 193.05L365.572 191.84L367.195 190.149L367.198 190.152C367.49 189.848 367.634 189.457 367.633 189.072C367.633 188.924 367.609 188.776 367.564 188.634L365.081 191.219C365.04 191.262 364.97 191.262 364.926 191.219L364.158 190.482C364.113 190.439 364.111 190.369 364.152 190.327L366.635 187.741C366.491 187.702 366.343 187.685 366.194 187.69C365.809 187.704 365.425 187.864 365.133 188.168L365.135 188.171L363.512 189.861L362.211 188.611C362.166 188.569 362.163 188.499 362.204 188.456L362.204 188.456Z" fill="#FEFEFE"/>
</g>
<rect x="335.797" y="201.029" width="61.6292" height="31.8546" transform="rotate(-46.1546 335.797 201.029)" stroke="black"/>
<g clip-path="url(#clip8_1050_2944)">
<path fill-rule="evenodd" clip-rule="evenodd" d="M329.787 198.426L363.607 145.713L391.259 163.454L357.44 216.167L329.787 198.426Z" fill="#B3DB9E"/>
<path fill-rule="evenodd" clip-rule="evenodd" d="M362.282 157.164C364.321 158.512 367.333 157.911 368.713 155.816L379.654 162.836C378.199 165.042 378.831 168.046 381.265 169.643L358.765 204.713C356.535 203.243 353.524 203.844 352.144 205.938L341.203 198.919C342.661 196.703 342.031 193.698 339.789 192.224L362.282 157.164Z" fill="#E0F2DA"/>
<path fill-rule="evenodd" clip-rule="evenodd" d="M351.847 185.757C349.129 180.961 350.81 174.917 355.602 172.257C360.393 169.596 366.48 171.327 369.198 176.124C371.916 180.92 370.235 186.964 365.443 189.624C360.652 192.285 354.565 190.553 351.847 185.757Z" fill="#B3DB9E"/>
<path fill-rule="evenodd" clip-rule="evenodd" d="M353.953 180.829L357.686 175.01C357.718 174.96 357.786 174.947 357.838 174.98L358.734 175.555C358.759 175.57 358.777 175.595 358.783 175.623C358.79 175.652 358.785 175.681 358.77 175.706L357.604 177.523C358.125 177.453 358.662 177.508 359.167 177.702L359.958 176.468C359.99 176.418 360.059 176.405 360.111 176.438L361.007 177.013C361.058 177.046 361.075 177.114 361.043 177.164L360.251 178.397C360.714 178.851 361.016 179.429 361.141 180.047C361.305 180.855 361.164 181.734 360.68 182.489L360.683 182.491L360.629 182.575L366.485 181.724C366.643 181.701 366.77 182 366.726 182.07L365.767 183.584L359.516 184.493C359.491 184.496 359.466 184.493 359.442 184.484C359.419 184.475 359.398 184.46 359.382 184.44L357.911 183.497L359.177 181.524L359.18 181.526C359.407 181.171 359.474 180.76 359.398 180.383C359.368 180.237 359.317 180.096 359.245 179.966L357.309 182.983C357.277 183.033 357.209 183.046 357.157 183.013L356.261 182.438C356.209 182.405 356.193 182.337 356.225 182.287L358.161 179.27C358.012 179.259 357.863 179.271 357.718 179.305C357.343 179.393 356.997 179.625 356.77 179.98L356.772 179.982L355.507 181.954L353.989 180.98C353.937 180.947 353.921 180.879 353.953 180.829L353.953 180.829Z" fill="#FEFEFE"/>
</g>
<rect x="330.478" y="198.275" width="61.6292" height="31.8546" transform="rotate(-57.3167 330.478 198.275)" stroke="black"/>
<g clip-path="url(#clip9_1050_2944)">
<path fill-rule="evenodd" clip-rule="evenodd" d="M328.02 198.07L352.471 140.412L382.719 153.239L358.267 210.898L328.02 198.07Z" fill="#B3DB9E"/>
<path fill-rule="evenodd" clip-rule="evenodd" d="M353.097 151.924C355.334 152.908 358.201 151.809 359.208 149.511L371.176 154.587C370.113 157.006 371.242 159.861 373.911 161.025L357.643 199.385C355.198 198.312 352.33 199.412 351.323 201.709L339.355 196.634C340.419 194.204 339.292 191.348 336.834 190.273L353.097 151.924Z" fill="#E0F2DA"/>
<path fill-rule="evenodd" clip-rule="evenodd" d="M347.629 181.864C344.142 177.594 344.78 171.354 349.055 167.924C353.329 164.494 359.621 165.175 363.108 169.444C366.596 173.713 365.957 179.954 361.683 183.384C357.408 186.814 351.117 186.133 347.629 181.864Z" fill="#B3DB9E"/>
<path fill-rule="evenodd" clip-rule="evenodd" d="M348.875 176.652L351.574 170.287C351.597 170.233 351.662 170.208 351.719 170.232L352.699 170.647C352.726 170.659 352.748 170.68 352.759 170.707C352.771 170.733 352.771 170.763 352.76 170.79L351.917 172.778C352.418 172.621 352.957 172.585 353.488 172.69L354.06 171.341C354.083 171.287 354.148 171.262 354.205 171.286L355.185 171.702C355.242 171.726 355.269 171.79 355.246 171.844L354.674 173.193C355.206 173.563 355.602 174.082 355.829 174.669C356.126 175.439 356.136 176.329 355.786 177.154L355.789 177.155L355.75 177.247L361.379 175.422C361.531 175.372 361.707 175.646 361.675 175.722L360.984 177.377L354.976 179.326C354.952 179.333 354.926 179.335 354.902 179.33C354.877 179.324 354.854 179.313 354.835 179.297L353.227 178.614L354.142 176.457L354.145 176.458C354.309 176.07 354.305 175.653 354.167 175.294C354.113 175.156 354.039 175.026 353.946 174.909L352.547 178.209C352.524 178.264 352.458 178.289 352.402 178.265L351.421 177.849C351.365 177.825 351.338 177.761 351.361 177.706L352.76 174.406C352.612 174.42 352.467 174.457 352.33 174.515C351.975 174.665 351.673 174.952 351.508 175.34L351.512 175.341L350.597 177.499L348.936 176.795C348.879 176.771 348.852 176.707 348.875 176.652L348.875 176.652Z" fill="#FEFEFE"/>
</g>
<rect x="328.675" y="197.805" width="61.6292" height="31.8546" transform="rotate(-67.0193 328.675 197.805)" stroke="black"/>
<g clip-path="url(#clip10_1050_2944)">
<path fill-rule="evenodd" clip-rule="evenodd" d="M331.73 206.566L327.22 144.1L359.989 141.734L364.5 204.2L331.73 206.566Z" fill="#B3DB9E"/>
<path fill-rule="evenodd" clip-rule="evenodd" d="M333.022 154.063C335.462 153.92 337.513 151.635 337.363 149.13L350.328 148.194C350.485 150.832 352.791 152.859 355.697 152.679L358.698 194.238C356.032 194.397 353.981 196.683 354.131 199.186L341.166 200.123C341.005 197.475 338.701 195.447 336.022 195.61L333.022 154.063Z" fill="#E0F2DA"/>
<path fill-rule="evenodd" clip-rule="evenodd" d="M341.8 183.204C336.75 180.993 334.474 175.147 336.716 170.146C338.957 165.145 344.868 162.884 349.918 165.095C354.968 167.306 357.244 173.152 355.002 178.153C352.76 183.154 346.85 185.415 341.8 183.204Z" fill="#B3DB9E"/>
<path fill-rule="evenodd" clip-rule="evenodd" d="M340.533 177.999L340.035 171.103C340.031 171.044 340.077 170.992 340.139 170.988L341.201 170.911C341.23 170.909 341.259 170.918 341.281 170.936C341.303 170.955 341.317 170.982 341.32 171.01L341.475 173.164C341.85 172.796 342.313 172.518 342.833 172.37L342.728 170.909C342.724 170.85 342.77 170.798 342.831 170.793L343.893 170.717C343.955 170.712 344.009 170.757 344.013 170.816L344.118 172.277C344.76 172.364 345.349 172.645 345.819 173.065C346.435 173.614 346.849 174.402 346.913 175.296L346.917 175.296L346.924 175.395L351.102 171.206C351.215 171.092 351.496 171.256 351.503 171.338L351.642 173.126L347.182 177.598C347.164 177.616 347.142 177.629 347.118 177.636C347.093 177.642 347.068 177.643 347.043 177.637L345.301 177.762L345.132 175.425L345.135 175.424C345.105 175.004 344.911 174.635 344.624 174.379C344.514 174.279 344.388 174.198 344.253 174.136L344.511 177.712C344.515 177.771 344.468 177.822 344.407 177.827L343.345 177.904C343.283 177.908 343.23 177.863 343.226 177.804L342.967 174.229C342.842 174.309 342.73 174.408 342.634 174.522C342.387 174.817 342.249 175.21 342.279 175.631L342.282 175.631L342.451 177.968L340.652 178.098C340.591 178.102 340.537 178.058 340.533 177.999L340.533 177.999Z" fill="#FEFEFE"/>
</g>
<rect x="332.193" y="206.032" width="61.6292" height="31.8546" transform="rotate(-94.1302 332.193 206.032)" stroke="black"/>
<g clip-path="url(#clip11_1050_2944)">
<path fill-rule="evenodd" clip-rule="evenodd" d="M329.76 211.926L307.691 153.314L338.439 141.737L360.507 200.349L329.76 211.926Z" fill="#B3DB9E"/>
<path fill-rule="evenodd" clip-rule="evenodd" d="M316.084 161.219C318.383 160.389 319.7 157.615 318.845 155.257L331.01 150.676C331.91 153.161 334.696 154.449 337.432 153.451L352.114 192.446C349.603 193.356 348.286 196.13 349.141 198.488L336.975 203.069C336.069 200.575 333.284 199.285 330.762 200.203L316.084 161.219Z" fill="#E0F2DA"/>
<path fill-rule="evenodd" clip-rule="evenodd" d="M332.78 186.667C327.31 185.981 323.467 181.023 324.196 175.591C324.925 170.159 329.95 166.312 335.42 166.998C340.89 167.683 344.732 172.642 344.003 178.074C343.274 183.506 338.25 187.353 332.78 186.667Z" fill="#B3DB9E"/>
<path fill-rule="evenodd" clip-rule="evenodd" d="M330.085 182.033L327.648 175.563C327.628 175.508 327.657 175.444 327.715 175.423L328.712 175.048C328.739 175.037 328.769 175.038 328.796 175.049C328.822 175.061 328.843 175.082 328.854 175.109L329.615 177.13C329.869 176.67 330.235 176.273 330.692 175.983L330.175 174.612C330.154 174.556 330.184 174.493 330.242 174.472L331.238 174.096C331.296 174.075 331.36 174.102 331.381 174.158L331.897 175.529C332.537 175.429 333.182 175.532 333.751 175.801C334.498 176.153 335.119 176.791 335.434 177.629L335.438 177.628L335.473 177.721L338.289 172.518C338.365 172.377 338.681 172.454 338.711 172.531L339.352 174.205L336.346 179.761C336.334 179.783 336.316 179.801 336.295 179.814C336.274 179.828 336.249 179.835 336.224 179.837L334.589 180.452L333.763 178.259L333.766 178.258C333.618 177.863 333.327 177.564 332.979 177.4C332.845 177.336 332.702 177.293 332.554 177.273L333.817 180.628C333.838 180.683 333.808 180.746 333.75 180.768L332.754 181.143C332.696 181.165 332.632 181.137 332.611 181.082L331.348 177.727C331.251 177.84 331.171 177.966 331.112 178.103C330.959 178.456 330.938 178.872 331.086 179.267L331.089 179.265L331.915 181.459L330.227 182.094C330.169 182.116 330.105 182.089 330.085 182.033L330.085 182.033Z" fill="#FEFEFE"/>
</g>
<rect x="330.052" y="211.282" width="61.6292" height="31.8546" transform="rotate(-110.632 330.052 211.282)" stroke="black"/>
<g clip-path="url(#clip12_1050_2944)">
<path fill-rule="evenodd" clip-rule="evenodd" d="M331.348 216.156L288.689 170.302L312.744 147.923L355.403 193.778L331.348 216.156Z" fill="#B3DB9E"/>
<path fill-rule="evenodd" clip-rule="evenodd" d="M299.453 174.431C301.265 172.791 301.432 169.725 299.746 167.867L309.263 159.013C311.038 160.97 314.105 161.105 316.257 159.144L344.638 189.651C342.66 191.445 342.494 194.512 344.18 196.369L334.663 205.223C332.878 203.26 329.811 203.124 327.826 204.929L299.453 174.431Z" fill="#E0F2DA"/>
<path fill-rule="evenodd" clip-rule="evenodd" d="M324.557 191.64C319.236 193.081 313.799 189.952 312.412 184.65C311.025 179.348 314.215 173.882 319.536 172.44C324.857 170.999 330.294 174.129 331.681 179.431C333.067 184.733 329.878 190.199 324.557 191.64Z" fill="#B3DB9E"/>
<path fill-rule="evenodd" clip-rule="evenodd" d="M320.305 188.377L315.596 183.315C315.555 183.272 315.559 183.202 315.604 183.16L316.384 182.435C316.405 182.415 316.433 182.404 316.462 182.404C316.491 182.405 316.519 182.417 316.539 182.438L318.009 184.019C318.071 183.497 318.258 182.99 318.571 182.549L317.572 181.476C317.532 181.433 317.536 181.363 317.581 181.321L318.36 180.596C318.405 180.554 318.475 180.555 318.516 180.598L319.514 181.671C320.068 181.336 320.703 181.187 321.332 181.219C322.157 181.262 322.973 181.616 323.583 182.272L323.586 182.27L323.654 182.343L324.284 176.46C324.301 176.301 324.623 176.252 324.68 176.312L325.908 177.618L325.235 183.898C325.233 183.923 325.223 183.947 325.209 183.968C325.194 183.988 325.174 184.004 325.151 184.015L323.872 185.205L322.276 183.489L322.278 183.487C321.991 183.178 321.609 183.012 321.225 182.992C321.076 182.984 320.927 182.999 320.783 183.036L323.225 185.66C323.265 185.704 323.261 185.773 323.216 185.815L322.436 186.541C322.391 186.583 322.322 186.581 322.282 186.538L319.84 183.913C319.792 184.054 319.767 184.202 319.764 184.351C319.756 184.736 319.895 185.129 320.182 185.437L320.184 185.435L321.781 187.151L320.46 188.379C320.415 188.421 320.345 188.42 320.305 188.377L320.305 188.377Z" fill="#FEFEFE"/>
</g>
<rect x="331.373" y="215.45" width="61.6292" height="31.8546" transform="rotate(-132.932 331.373 215.45)" stroke="black"/>
<g clip-path="url(#clip13_1050_2944)">
<path fill-rule="evenodd" clip-rule="evenodd" d="M333.453 221.711L280.23 188.7L297.547 160.78L350.77 193.79L333.453 221.711Z" fill="#B3DB9E"/>
<path fill-rule="evenodd" clip-rule="evenodd" d="M291.701 189.852C293.017 187.792 292.371 184.79 290.255 183.442L297.107 172.395C299.335 173.817 302.329 173.139 303.889 170.681L339.298 192.642C337.863 194.894 338.509 197.897 340.625 199.245L333.773 210.291C331.535 208.868 328.54 209.543 327.1 211.807L291.701 189.852Z" fill="#E0F2DA"/>
<path fill-rule="evenodd" clip-rule="evenodd" d="M320.449 199.847C315.694 202.638 309.626 201.049 306.892 196.299C304.159 191.549 305.797 185.436 310.551 182.646C315.305 179.855 321.374 181.443 324.108 186.194C326.841 190.944 325.203 197.056 320.449 199.847Z" fill="#B3DB9E"/>
<path fill-rule="evenodd" clip-rule="evenodd" d="M315.488 197.818L309.613 194.174C309.563 194.143 309.548 194.075 309.58 194.023L310.142 193.118C310.157 193.093 310.181 193.075 310.209 193.068C310.238 193.061 310.267 193.065 310.292 193.08L312.127 194.218C312.049 193.698 312.096 193.161 312.282 192.652L311.036 191.88C310.986 191.849 310.971 191.781 311.004 191.728L311.565 190.823C311.597 190.771 311.665 190.754 311.715 190.785L312.961 191.557C313.407 191.088 313.981 190.777 314.596 190.643C315.402 190.467 316.283 190.594 317.045 191.066L317.047 191.063L317.132 191.116L316.191 185.274C316.166 185.116 316.464 184.984 316.534 185.027L318.063 185.964L319.067 192.2C319.07 192.225 319.068 192.25 319.059 192.274C319.05 192.297 319.035 192.318 319.016 192.335L318.095 193.819L316.104 192.584L316.105 192.581C315.747 192.359 315.335 192.299 314.959 192.381C314.813 192.412 314.674 192.466 314.544 192.54L317.591 194.429C317.641 194.46 317.655 194.529 317.623 194.581L317.062 195.486C317.029 195.538 316.962 195.555 316.912 195.524L313.865 193.634C313.856 193.783 313.871 193.932 313.907 194.076C314.001 194.45 314.238 194.793 314.596 195.015L314.598 195.012L316.59 196.247L315.639 197.78C315.606 197.832 315.539 197.85 315.489 197.818L315.488 197.818Z" fill="#FEFEFE"/>
</g>
<rect x="333.292" y="221.022" width="61.6292" height="31.8546" transform="rotate(-148.192 333.292 221.022)" stroke="black"/>
<defs>
<linearGradient id="paint0_linear_1050_2944" x1="97.7019" y1="290.926" x2="257.786" y2="138.189" gradientUnits="userSpaceOnUse">
<stop stop-color="#D9B430"/>
<stop offset="1" stop-color="#303030" stop-opacity="0"/>
</linearGradient>
<clipPath id="clip0_1050_2944">
<rect x="55.1699" y="201.043" width="62.6292" height="32.8546" transform="rotate(-46.1546 55.1699 201.043)" fill="white"/>
</clipPath>
<clipPath id="clip1_1050_2944">
<rect x="49.8672" y="198.426" width="62.6292" height="32.8546" transform="rotate(-57.3167 49.8672 198.426)" fill="white"/>
</clipPath>
<clipPath id="clip2_1050_2944">
<rect x="48.0996" y="198.07" width="62.6292" height="32.8546" transform="rotate(-67.0193 48.0996 198.07)" fill="white"/>
</clipPath>
<clipPath id="clip3_1050_2944">
<rect x="51.8105" y="206.566" width="62.6292" height="32.8546" transform="rotate(-94.1302 51.8105 206.566)" fill="white"/>
</clipPath>
<clipPath id="clip4_1050_2944">
<rect x="49.8398" y="211.926" width="62.6292" height="32.8546" transform="rotate(-110.632 49.8398 211.926)" fill="white"/>
</clipPath>
<clipPath id="clip5_1050_2944">
<rect x="51.4277" y="216.156" width="62.6292" height="32.8546" transform="rotate(-132.932 51.4277 216.156)" fill="white"/>
</clipPath>
<clipPath id="clip6_1050_2944">
<rect x="53.5332" y="221.711" width="62.6292" height="32.8546" transform="rotate(-148.192 53.5332 221.711)" fill="white"/>
</clipPath>
<clipPath id="clip7_1050_2944">
<rect x="335.09" y="201.043" width="62.6292" height="32.8546" transform="rotate(-46.1546 335.09 201.043)" fill="white"/>
</clipPath>
<clipPath id="clip8_1050_2944">
<rect x="329.787" y="198.426" width="62.6292" height="32.8546" transform="rotate(-57.3167 329.787 198.426)" fill="white"/>
</clipPath>
<clipPath id="clip9_1050_2944">
<rect x="328.02" y="198.07" width="62.6292" height="32.8546" transform="rotate(-67.0193 328.02 198.07)" fill="white"/>
</clipPath>
<clipPath id="clip10_1050_2944">
<rect x="331.73" y="206.566" width="62.6292" height="32.8546" transform="rotate(-94.1302 331.73 206.566)" fill="white"/>
</clipPath>
<clipPath id="clip11_1050_2944">
<rect x="329.76" y="211.926" width="62.6292" height="32.8546" transform="rotate(-110.632 329.76 211.926)" fill="white"/>
</clipPath>
<clipPath id="clip12_1050_2944">
<rect x="331.348" y="216.156" width="62.6292" height="32.8546" transform="rotate(-132.932 331.348 216.156)" fill="white"/>
</clipPath>
<clipPath id="clip13_1050_2944">
<rect x="333.453" y="221.711" width="62.6292" height="32.8546" transform="rotate(-148.192 333.453 221.711)" fill="white"/>
</clipPath>
</defs>
</svg>
