<svg width="328" height="312" viewBox="0 0 328 312" fill="none" xmlns="http://www.w3.org/2000/svg">
<path d="M250.07 213.148C250.07 266.329 205.169 309.577 149.611 309.577C94.0529 309.577 49.1523 266.329 49.1523 213.148C49.1523 159.966 94.0529 116.719 149.611 116.719C205.169 116.719 250.07 159.966 250.07 213.148Z" fill="url(#paint0_linear_693_3292)" stroke="white" stroke-width="4"/>
<path d="M160.84 182.398L133.461 174.555L133.461 142.837L169.244 150.903C169.208 150.907 169.849 167.316 170.267 172.053L160.84 182.398Z" fill="#F2DBC1"/>
<path d="M213.888 183.051L206.18 224.331C206.279 226.477 208.165 270.336 208.849 288.898C177.392 312.177 134.437 313.463 103.183 296.83V273.156L94.0742 180.831L125.894 169.567L132.948 158.883L155.793 172.147L172.082 159.748L177.687 168.404L213.888 183.051Z" fill="#7687C1"/>
<path d="M176.608 170.869C176.695 170.979 175.48 172.259 173.528 174.325C171.577 176.394 168.902 179.267 166.07 182.566C165.474 183.269 164.89 183.956 164.326 184.62L163.95 185.062L163.612 184.596C161.419 181.559 159.521 178.86 158.196 176.901C156.869 174.942 156.114 173.723 156.207 173.645C156.298 173.567 157.22 174.643 158.676 176.493C160.131 178.341 162.12 180.962 164.345 183.974L163.632 183.95C164.196 183.279 164.78 182.583 165.376 181.872C168.228 178.55 170.998 175.737 173.074 173.795C175.154 171.854 176.525 170.765 176.608 170.869Z" fill="#17282F"/>
<path d="M158.551 307.969C158.511 307.969 158.468 307.502 158.424 306.611C158.391 305.648 158.347 304.352 158.292 302.72C158.193 299.26 158.055 294.391 157.884 288.409C157.476 276.254 156.915 259.595 156.296 241.192C155.69 222.747 155.33 206.044 155.361 193.952C155.357 187.907 155.45 183.014 155.563 179.634C155.632 178.003 155.687 176.706 155.727 175.742C155.779 174.853 155.825 174.386 155.867 174.386C155.908 174.386 155.941 174.855 155.968 175.745C155.982 176.708 156.001 178.005 156.025 179.637C156.068 183.097 156.128 187.965 156.203 193.949C156.386 206.034 156.88 222.729 157.485 241.174C158.089 259.612 158.589 276.309 158.726 288.4C158.808 294.444 158.802 299.337 158.755 302.718C158.717 304.35 158.687 305.647 158.664 306.611C158.63 307.502 158.592 307.969 158.551 307.969Z" fill="#17282F"/>
<path d="M190.812 244.535C190.842 244.596 189.977 245.109 188.386 245.985C186.797 246.865 184.473 248.087 181.579 249.556C175.794 252.496 167.706 256.366 158.625 260.294C149.54 264.218 141.187 267.452 135.093 269.647C132.047 270.745 129.57 271.6 127.845 272.152C126.122 272.707 125.16 272.985 125.137 272.921C125.116 272.856 126.037 272.456 127.719 271.789C129.57 271.063 131.97 270.123 134.857 268.991C140.882 266.632 149.179 263.3 158.249 259.384C167.313 255.463 175.429 251.701 181.283 248.926C184.088 247.597 186.42 246.493 188.218 245.641C189.86 244.872 190.782 244.475 190.812 244.535Z" fill="#17282F"/>
<path d="M106.423 176.605C105.496 176.605 79.2863 184.25 75.8101 197.392C72.3339 210.535 63.3248 224.181 63.3248 224.181L53.2539 238.297C53.2539 238.297 56.5151 264.094 75.0559 259.193C75.0559 259.193 87.4275 261.38 91.3672 248.683C95.3069 235.987 108.284 200.288 108.284 200.288L106.423 176.605Z" fill="#7687C1"/>
<path d="M198.566 176.809C198.566 176.809 224.019 181.231 225.249 186.117C226.478 191.003 250.285 220.173 250.285 220.173L263.378 223.694L266.868 230.917C271.004 239.477 268.761 249.912 261.165 255.654C260.687 256.015 260.218 256.335 259.763 256.604C252.689 260.793 235.305 259.552 227.894 250.842C220.877 242.595 203.634 219.108 203.634 219.108L196.188 192.425L198.566 176.809Z" fill="#7687C1"/>
<path d="M256.988 225.698L275.819 214.551L284.892 225.698L283.015 231.094L258.739 249.164C258.739 249.164 254.187 245.811 253.108 239.376C251.974 232.605 256.988 225.698 256.988 225.698Z" fill="#F2DBC1"/>
<path d="M251.165 220.077C251.163 220.256 249.562 220.118 247.19 220.882C244.828 221.61 241.784 223.433 239.337 226.35C236.888 229.279 235.391 232.479 234.339 234.779C233.3 237.097 232.683 238.557 232.548 238.507C232.43 238.464 232.815 236.925 233.702 234.514C234.601 232.124 236.03 228.784 238.592 225.716C241.164 222.646 244.462 220.806 247.001 220.215C249.559 219.589 251.19 219.989 251.165 220.077Z" fill="#17282F"/>
<path d="M275.386 221.285C275.213 220.938 273.827 212.963 279.887 207.762C285.947 202.561 291.4 200.741 294.69 199.267C297.98 197.794 304.818 192.072 306.031 193.46C307.242 194.846 307.762 196.927 306.031 199.441C304.299 201.954 294.383 205.731 295.766 208.917C296.333 210.222 299.452 210.45 299.452 210.45C299.452 210.45 311.398 211.23 316.419 210.797C321.439 210.363 325.942 211.316 325.681 213.05C325.422 214.784 324.47 215.737 320.315 216.084C316.159 216.431 309.407 216.17 309.06 217.124C308.714 218.078 310.1 218.684 312.524 218.511C314.947 218.338 326.374 218.338 327.153 219.638C327.932 220.938 327.326 222.932 325.769 223.365L323.084 224.319C323.084 224.319 324.643 226.486 323.345 227.699C322.046 228.912 319.102 228.479 319.102 228.479L303.953 228.046C303.953 228.046 303.087 228.96 303.52 229.586C303.953 230.214 315.813 229.346 315.9 230.647C315.986 231.947 317.025 232.553 313.476 233.421C309.926 234.287 301.01 234.287 297.807 233.421C294.604 232.553 281.186 231.947 281.186 231.947L275.386 221.285Z" fill="#F2DBC1"/>
<path d="M69.7095 228.131L51.9249 213.662L41.7109 224.911L42.9604 230.419L65.1963 250.938C65.1963 250.938 70.004 248.657 72.1808 242.579C74.3917 236.403 69.7095 228.131 69.7095 228.131Z" fill="#F2DBC1"/>
<path d="M51.6963 220.721C51.9087 220.4 54.2114 212.727 48.8013 206.918C43.3912 201.11 38.1897 198.692 35.0963 196.865C32.002 195.038 25.8799 188.629 24.5157 189.852C23.1514 191.074 22.3935 193.058 23.8195 195.726C25.2455 198.396 32.0554 201.52 31.813 204.947C31.6371 207.428 29.0696 207.299 29.0696 207.299C29.0696 207.299 17.121 206.687 12.1871 205.681C7.25418 204.676 2.67494 205.093 2.73108 206.826C2.78722 208.559 3.62092 209.605 7.70517 210.425C11.7894 211.246 18.5226 211.77 18.7547 212.746C18.9876 213.722 17.542 214.159 15.156 213.708C12.771 213.259 1.42862 211.939 0.503228 213.127C-0.421227 214.314 -0.0516383 216.343 1.44452 216.948L3.998 218.194C3.998 218.194 2.19869 220.143 3.34677 221.485C4.49392 222.827 7.46658 222.741 7.46658 222.741L22.5535 224.064C22.5535 224.064 23.3067 225.062 22.8043 225.627C22.3018 226.193 10.6311 223.972 10.3934 225.24C10.1567 226.507 9.05443 226.983 12.4762 228.244C15.8989 229.505 24.7496 230.535 28.0291 230.052C31.3096 229.571 44.6993 230.523 44.6993 230.523L51.6963 220.721Z" fill="#F2DBC1"/>
<path d="M81.5833 248.273C81.4353 248.289 81.1797 246.365 80.5979 243.307C80.0029 240.268 79.0429 236.03 76.7874 231.909C74.528 227.799 71.2361 224.906 68.5364 223.501C65.8292 222.052 63.8622 221.874 63.8989 221.69C63.9055 221.632 64.3959 221.619 65.271 221.751C66.146 221.877 67.3983 222.214 68.8448 222.882C71.7425 224.184 75.2824 227.143 77.6389 231.435C79.9831 235.722 80.8497 240.095 81.2778 243.194C81.6908 246.316 81.7021 248.262 81.5833 248.273Z" fill="#17282F"/>
<path d="M86.0765 228.737C85.8799 228.97 83.0953 225.997 78.5798 224.435C74.0864 222.799 70.1336 223.38 70.1152 223.071C70.0118 222.847 74.127 221.778 78.8879 223.499C83.6665 225.164 86.2896 228.625 86.0765 228.737Z" fill="#17282F"/>
<path d="M261.815 250.923C261.792 250.977 261.378 250.88 260.672 250.583C259.964 250.288 258.98 249.751 257.888 248.909C255.713 247.264 253.139 244.098 252.314 239.878C251.507 235.653 252.717 231.757 254.123 229.422C254.823 228.233 255.537 227.37 256.084 226.833C256.628 226.294 256.977 226.05 257.018 226.092C257.144 226.207 255.908 227.375 254.71 229.74C253.508 232.06 252.487 235.751 253.241 239.7C254.011 243.642 256.334 246.688 258.314 248.395C260.307 250.145 261.889 250.77 261.815 250.923Z" fill="#17282F"/>
<path d="M298.193 204.789C298.309 204.901 297.484 205.684 296.433 207.057C295.92 207.755 295.43 208.625 295.226 209.717C294.996 210.807 295.012 212.087 294.823 213.482C294.45 216.361 292.662 218.52 291.173 219.577C289.647 220.665 288.466 220.833 288.444 220.733C288.382 220.583 289.437 220.186 290.74 219.045C292.019 217.921 293.522 215.929 293.857 213.347C294.035 212.055 294.045 210.731 294.347 209.522C294.627 208.299 295.279 207.306 295.894 206.631C297.159 205.282 298.119 204.713 298.193 204.789Z" fill="#E9C7A2"/>
<path d="M24.8511 219.44C24.853 219.757 20.065 220.057 14.1659 219.717C8.26488 219.387 3.52244 218.546 3.55091 218.232C3.57843 217.902 8.34079 218.218 14.2124 218.546C20.0811 218.885 24.8492 219.109 24.8511 219.44Z" fill="#E9C7A2"/>
<path d="M35.4974 218.071C35.4731 218.169 34.3288 217.986 32.9474 216.866C31.5951 215.792 30.0778 213.596 30.1807 210.871C30.2419 209.539 30.613 208.368 30.8607 207.332C31.1269 206.295 31.2629 205.378 31.2309 204.598C31.1978 203.027 30.4945 202.217 30.6208 202.129C30.6801 202.021 31.6971 202.774 31.9381 204.54C32.0702 205.394 31.9905 206.438 31.7651 207.515C31.5563 208.595 31.2338 209.735 31.1833 210.908C31.091 213.265 32.315 215.269 33.437 216.375C34.5716 217.519 35.5673 217.924 35.4974 218.071Z" fill="#E9C7A2"/>
<path d="M300.867 221.746C300.89 221.521 305.874 221.692 312.001 222.127C318.128 222.563 323.076 223.098 323.055 223.323C323.033 223.548 318.049 223.377 311.921 222.942C305.795 222.506 300.846 221.971 300.867 221.746Z" fill="#E9C7A2"/>
<path d="M155.303 172.69C155.425 172.746 154.596 174.839 153.157 178.18C152.782 179.04 152.386 179.949 151.968 180.906C151.492 181.896 151.178 182.901 150.473 184.063C150.134 184.621 149.319 185.203 148.468 185.032C147.658 184.884 147.115 184.411 146.583 184.069C145.497 183.327 144.38 182.564 143.235 181.78C138.651 178.632 134.534 175.737 131.582 173.603C128.628 171.467 126.84 170.092 126.916 169.982C126.993 169.872 128.919 171.049 131.971 173.039C135.024 175.03 139.202 177.835 143.786 180.984C144.928 181.773 146.041 182.542 147.123 183.289C147.67 183.666 148.166 184.046 148.619 184.121C149.056 184.205 149.435 183.976 149.744 183.547C150.822 181.59 151.721 179.48 152.532 177.895C154.131 174.627 155.18 172.634 155.303 172.69Z" fill="#17282F"/>
<path d="M206.864 201.924C206.949 201.919 207.101 202.796 207.302 204.385C207.509 205.974 207.724 208.279 207.917 211.13C208.32 216.831 208.531 224.718 208.557 233.421C208.557 242.026 208.556 249.808 208.556 255.705C208.559 258.408 208.562 260.672 208.564 262.457C208.556 264.052 208.51 264.936 208.425 264.937C208.34 264.94 208.222 264.061 208.083 262.469C207.937 260.876 207.803 258.569 207.682 255.716C207.436 250.012 207.345 242.127 207.321 233.424C207.295 224.724 207.222 216.853 207.043 211.156C206.955 208.455 206.881 206.192 206.822 204.408C206.768 202.814 206.779 201.929 206.864 201.924Z" fill="#5F6FA7"/>
<path d="M95.8774 205.47C95.9494 205.458 96.1479 206.162 96.4451 207.446C96.7484 208.73 97.1166 210.599 97.5207 212.916C98.3352 217.551 99.1959 223.989 99.9127 231.114C100.628 238.24 101.154 244.696 101.549 249.367C101.719 251.536 101.864 253.382 101.983 254.901C102.072 256.21 102.087 256.938 102.014 256.945C101.941 256.953 101.787 256.239 101.572 254.942C101.353 253.645 101.092 251.762 100.801 249.432C100.215 244.773 99.5702 238.322 98.8545 231.205C98.1398 224.089 97.3994 217.659 96.7772 213.013C96.4872 210.856 96.2404 209.02 96.0368 207.509C95.8661 206.208 95.8054 205.481 95.8774 205.47Z" fill="#5F6FA7"/>
<path d="M192.435 78.4241C192.579 75.9589 194.966 74.3231 197.098 73.0789C197.765 72.6907 198.455 72.2925 199.221 72.2029C199.988 72.1133 200.856 72.4136 201.194 73.1071C201.537 73.8105 201.25 74.6383 201.209 75.4197C201.146 76.6258 201.69 77.7721 201.884 78.9633C202.453 82.4654 200.028 85.644 198.487 88.8409C196.615 92.7213 195.975 97.0811 195.723 101.381C195.635 102.878 195.58 104.42 194.963 105.786C194.346 107.151 193 108.312 191.504 108.21C192.44 101.22 192.72 94.1413 192.338 87.099C192.181 84.1841 192.267 81.2826 192.435 78.4241Z" fill="#F2DBC1" stroke="#CEAC87" stroke-miterlimit="10"/>
<path d="M200.565 75.3672C198.992 75.7454 197.929 77.2883 197.578 78.8677C197.228 80.447 197.446 82.0861 197.57 83.6986C197.695 85.3111 197.711 87.0017 197.008 88.4582" stroke="#CEAC87" stroke-miterlimit="10"/>
<path d="M105.752 79.8799C104.875 78.5079 103.29 77.7929 101.794 77.1525C100.598 76.6399 99.1744 76.1372 98.0579 76.8058C97.8074 76.9568 97.5818 77.1691 97.4756 77.4412C97.3164 77.8427 97.4358 78.2956 97.5453 78.7136C98.2238 81.2884 98.544 83.956 98.4975 86.6171C98.4876 87.1496 98.4644 87.6921 98.6087 88.2047C98.826 88.9745 99.3917 89.5866 99.8662 90.2303C101.699 92.7171 102.267 95.8974 102.628 98.9649C102.99 102.032 103.219 105.193 104.525 107.993C104.896 108.791 105.367 109.566 106.058 110.113C106.746 110.661 107.688 110.949 108.763 110.717C109.526 109.353 109.619 107.704 109.399 106.158C109.178 104.612 108.667 103.124 108.286 101.609C107.194 97.2827 107.162 92.7636 107.272 88.3026C107.342 85.3595 107.275 82.2639 105.752 79.8799Z" fill="#F2DBC1" stroke="#CEAC87" stroke-miterlimit="10"/>
<path d="M97.8398 78.4062C99.6266 79.5675 100.899 81.4936 101.264 83.5939C101.725 86.2433 100.799 89.0005 101.34 91.635" stroke="#CEAC87" stroke-miterlimit="10"/>
<path d="M192.093 75.7505C193.475 73.8327 194.872 71.8867 195.705 69.6753C196.778 66.8285 196.853 63.7212 197.004 60.6836C197.274 55.2205 197.828 49.7724 198.661 44.3675C198.89 42.8843 199.139 41.3747 198.903 39.8932C198.339 36.3695 195.17 33.7267 194.445 30.2329C191.793 27.2351 192.302 22.4971 189.684 19.6121C188.785 18.6217 187.599 17.9498 186.461 17.2431C184.682 16.1382 182.98 14.9138 181.281 13.6912C180.298 12.9828 179.312 12.2744 178.328 11.566C175.491 9.5238 172.65 7.47827 170.012 5.18555C167.205 1.53413 162.301 -0.438406 157.679 0.215234C156.677 0.356248 155.688 0.61339 154.676 0.64657C153.374 0.691363 152.091 0.367861 150.801 0.182055C147.775 -0.25094 144.643 0.0924692 141.781 1.16915C139.637 2.67385 136.794 3.30427 134 3.63274C131.207 3.96122 128.371 4.02758 125.627 4.65136C120.961 5.71145 116.685 8.41892 113.736 12.1865C109.256 16.4401 106.463 22.3195 102.705 27.4209C101.799 28.6502 100.817 29.8729 100.371 31.3345C99.9629 32.6733 100.041 34.1017 100.031 35.5018C99.9927 41.0777 98.5295 46.8012 100.159 52.1348C100.806 56.5112 100.21 61.1282 100.66 65.6556C101.001 69.0913 101.952 72.4657 103.455 75.573C104.24 77.1954 105.177 78.7566 105.728 80.472C106.368 82.4644 106.464 84.5846 106.456 87.4148C122.528 90.756 139.16 89.3691 155.516 87.9672C162.084 87.4048 168.693 86.8342 175.049 85.0823C181.404 83.3337 188.334 80.9713 192.093 75.7505Z" fill="#17282F"/>
<path d="M106.566 86.884C107.676 82.0115 108.019 76.9665 107.581 71.9879C107.328 69.1013 106.822 66.1217 107.698 63.3612C108.831 59.7927 112.139 57.0753 112.646 53.3658C112.966 51.0283 112.112 48.5531 112.91 46.3334C113.321 45.187 114.138 44.2348 115.002 43.3771C116.62 41.7745 118.469 40.4091 120.545 39.4685C122.643 38.4665 124.989 37.9903 127.313 38.0949C129.57 38.1961 131.789 38.8348 134.049 38.7833C135.879 38.7419 137.667 38.2475 139.416 37.7067C145.065 35.9597 150.557 33.6869 156.304 32.295C162.051 30.9032 168.199 30.427 173.714 32.222C177.377 33.4945 180.676 35.7922 183.14 38.785C183.714 39.4818 184.25 40.23 184.54 41.0843C185.594 44.1916 183.138 47.5113 183.596 50.7595C183.714 51.5924 184.022 52.3903 184.432 53.1269C185.044 54.2268 185.874 55.1874 186.693 56.143C187.966 57.6261 189.24 59.1324 190.137 60.8677C191.035 62.603 191.534 64.6104 191.118 66.6029C191.206 70.2244 191.904 73.7979 192.394 77.3879C193.832 87.9092 193.474 98.6727 191.304 109.065C189.708 119.11 185.058 128.651 178.034 136.221C173.475 143.107 166.251 148.178 158.225 150.128C150.199 152.075 141.455 150.881 134.329 146.871C126.89 142.674 121.731 135.457 116.853 128.447C114.914 125.658 112.968 122.849 111.54 119.767C109.152 114.617 108.293 108.909 107.566 103.278C107.205 100.481 106.87 97.6806 106.559 94.8769C106.258 92.128 106.009 89.3343 106.566 86.884Z" fill="#F2DBC1"/>
<path d="M187.051 68.7876C186.921 68.2783 186.512 67.8951 186.105 67.5633C183.228 65.2109 179.642 63.8687 176.727 61.5628C175.489 61.2409 174.32 61.5793 173.165 61.7751C171.425 62.0704 169.65 62.0439 167.889 62.16C164.384 62.3923 160.917 63.2018 157.67 64.5456C156.947 64.8442 156.217 65.1827 155.669 65.7434C155.122 66.3041 154.79 67.1353 155.07 67.9913C155.301 68.9934 156.454 69.5425 157.479 69.4877C158.506 69.433 159.447 68.9353 160.386 68.5189C166.931 65.624 174.595 66.4617 181.331 68.8805C183.22 69.5591 185.121 70.367 187.129 70.3985C187.087 69.8577 187.18 69.3003 187.051 68.7876Z" fill="#17282F"/>
<path d="M147.218 65.4268C147.294 66.2944 147.34 67.1853 147.101 68.0231C146.864 68.8609 146.292 69.6489 145.469 69.9342C144.683 70.2063 143.818 69.9873 143.017 69.76C140.706 69.1047 138.412 68.3914 136.136 67.6249C134.656 67.1256 133.179 66.603 131.651 66.2878C125.611 65.0402 119.204 67.2185 114.395 71.0806C115.08 68.9521 115.914 66.754 117.601 65.2858C118.764 64.2738 120.242 63.6964 121.729 63.285C125.307 62.2946 129.06 62.1685 132.773 62.1055C134.306 62.0789 135.857 62.0657 137.345 62.434C138.569 62.7376 139.716 63.2917 140.898 63.728C142.919 64.4729 145.048 64.876 147.218 65.4268Z" fill="#17282F"/>
<path d="M142.837 84.3047C142.112 86.0898 141.385 87.8748 140.66 89.6599C139.962 91.3786 139.252 93.1487 139.227 95.0051C139.202 96.8615 140.02 98.849 141.679 99.6818C142.343 100.015 143.404 99.9572 143.535 99.2273C143.605 98.8341 143.346 98.4674 143.224 98.0859C143.005 97.4024 143.277 96.5928 143.862 96.1797C144.448 95.7666 145.304 95.7849 146.039 96.3075C147.846 96.6957 148.677 99.3401 150.525 99.3135C151.658 99.2969 152.459 98.2551 153.187 97.3875C153.861 96.5845 154.651 95.8313 155.636 95.4763C156.622 95.1229 157.841 95.2523 158.553 96.0221C159.264 96.7919 159.191 98.2286 158.277 98.7395C157.979 98.9071 157.542 99.136 157.683 99.4479C157.715 99.5192 157.776 99.574 157.836 99.6238C159.087 100.636 161.116 100.148 162.106 98.8789C163.097 97.6098 163.196 95.8297 162.8 94.2702C162.401 92.7108 161.569 91.3056 160.817 89.8822C160.066 88.4588 159.374 86.9491 159.299 85.3416" stroke="#CEAC87" stroke-miterlimit="10"/>
<path d="M143.444 97.0061C143.864 97.4191 144.356 97.7576 144.892 98.0048C145.191 98.1425 145.513 98.252 145.843 98.242C146.171 98.232 146.511 98.0844 146.684 97.804C146.909 97.4341 146.785 96.9281 146.491 96.6096C146.198 96.291 145.773 96.1285 145.353 96.0223C145.113 95.9609 144.864 95.9145 144.617 95.9344C144.321 95.9576 144.039 96.0737 143.786 96.2263C143.591 96.3425 143.397 96.4984 143.341 96.7174C143.283 96.9347 143.44 97.2134 143.444 97.0061Z" fill="#17282F"/>
<path d="M154.987 95.986C154.652 96.2813 154.284 96.6728 154.39 97.1074C154.519 97.635 155.218 97.7478 155.757 97.6864C156.389 97.6151 157.011 97.4542 157.598 97.2103C157.849 97.1058 158.101 96.9814 158.28 96.779C158.459 96.5766 158.557 96.2779 158.456 96.0258C158.376 95.8267 158.19 95.689 158.001 95.5861C156.946 95.0022 155.704 95.3556 154.987 95.986Z" fill="#17282F"/>
<path d="M137.842 118.135C137.381 117.444 137.661 116.476 138.191 115.838C138.721 115.197 139.456 114.766 140.064 114.197C141.2 113.132 141.842 111.631 142.952 110.537C144.367 109.142 146.522 108.545 148.453 109.014C149.477 109.263 150.479 109.791 151.521 109.645C152.388 109.524 153.133 108.948 153.989 108.767C155.431 108.462 156.841 109.305 158.075 110.101C160.333 111.894 162.584 113.694 164.831 115.501C165.371 115.936 165.94 116.413 166.133 117.08C166.41 118.039 165.823 119.018 165.214 119.809C164.401 120.866 163.495 121.863 162.422 122.655C161.096 123.632 159.545 124.272 157.949 124.685C153.83 125.752 149.336 125.307 145.505 123.451C144.785 123.102 144.088 122.706 143.363 122.369C142.461 121.949 141.512 121.621 140.651 121.12C139.437 120.41 138.594 119.262 137.842 118.135Z" fill="#99746C"/>
<path d="M138.828 117.382C138.448 117.284 138.199 117.868 138.418 118.193C138.637 118.518 139.065 118.613 139.451 118.679C140.629 118.878 141.824 119.058 143.015 118.98C144.261 118.897 145.5 118.535 146.739 118.694C147.451 118.787 148.136 119.049 148.851 119.096C149.579 119.142 150.306 118.961 151.034 118.978C151.643 118.991 152.24 119.142 152.849 119.18C154.377 119.273 155.857 118.646 157.385 118.532C158.629 118.439 159.87 118.688 161.113 118.781C162.357 118.873 163.679 118.789 164.724 118.109C164.821 118.046 164.917 117.974 164.97 117.873C165.142 117.541 164.771 117.196 164.447 117.009C162.67 115.977 160.839 115.044 159.009 114.112C158.244 113.722 157.47 113.329 156.633 113.137C155.842 112.954 155.023 112.957 154.21 112.962C152.104 112.974 149.999 112.986 147.894 112.996C147.215 112.999 146.529 113.004 145.872 113.18C145.1 113.387 144.412 113.82 143.737 114.246C141.998 115.351 140.256 116.453 138.828 117.382Z" fill="#5B372F"/>
<path d="M172.955 127.036C171.45 124.544 171.367 121.483 171.15 118.58C171.034 117.032 170.866 115.488 170.651 113.95C170.405 112.205 169.971 110.27 168.499 109.3C166.155 108.273 163.975 106.778 162.304 104.84C161.409 103.8 160.652 102.634 159.655 101.692C158.658 100.748 157.332 100.028 155.967 100.165C154.452 100.117 153.192 101.405 151.655 101.687C149.967 101.997 148.301 101.05 146.586 100.998C144.698 100.942 142.934 101.979 141.551 103.263C140.167 104.547 139.049 106.095 137.69 107.405C136.827 108.238 135.867 108.975 135.102 109.899C133.821 111.448 133.181 113.411 132.565 115.325C132.015 117.042 131.457 118.786 131.379 120.587C131.293 122.543 131.748 124.644 130.93 126.498C132.297 125.835 133.1 124.375 133.549 122.923C134.297 120.509 134.387 117.746 136.063 115.853C137.259 114.501 139.065 113.85 140.406 112.639C141.677 111.491 142.511 109.854 143.989 108.986C145.904 107.863 148.301 108.341 150.521 108.331C151.863 108.324 153.195 108.125 154.497 107.976C156.936 108.002 159.049 109.573 160.972 111.075C161.699 111.642 162.426 112.208 163.151 112.775C164.212 113.603 165.332 114.517 165.826 115.781C166.503 117.157 168.001 117.941 168.859 119.212C169.906 120.763 169.871 122.83 170.813 124.448C171.387 125.435 172.293 126.188 172.955 127.036Z" fill="#17282F"/>
<path d="M106.083 81.9057C107.209 87.7619 106.217 93.8089 106.607 99.7597C106.859 103.617 107.691 107.408 108.518 111.183C109.323 114.85 110.134 118.543 111.622 121.988C113.786 127 117.284 131.294 120.408 135.77C123.75 140.557 126.824 145.755 131.646 149.244C135.621 153.181 140.452 156.326 145.816 157.912C151.179 159.5 157.087 159.463 162.274 157.37C167.366 155.316 171.538 151.411 174.763 146.968C177.987 142.525 180.351 137.528 182.67 132.458C190.242 119.49 194.447 104.473 194.095 89.7013C194.152 85.3564 194.026 81.0082 193.717 76.6749C193.648 75.6928 193.472 74.5531 192.614 74.0703C192.123 74.8832 192.203 75.9035 192.285 76.8491C192.581 80.1804 192.73 83.5265 192.732 86.871C192.733 90.6253 192.511 94.5289 190.777 97.885C189.707 99.3798 188.616 100.87 187.307 102.16C186.184 103.267 184.911 104.211 183.758 105.287C180.407 108.413 178.159 112.55 176.447 116.801C174.735 121.051 173.502 125.484 171.621 129.694C171.075 132.387 169.153 134.761 166.633 135.853C165.277 136.44 163.797 136.667 162.333 136.851C156.883 137.536 151.367 137.706 145.885 137.354C144.163 137.243 142.428 137.079 140.784 136.551C136.479 135.167 133.348 131.499 130.679 127.85C129.569 126.332 128.496 124.787 127.348 122.917C125.34 116.155 121.792 109.856 117.049 104.635C114.146 101.44 110.707 98.4939 109.21 94.4443C107.686 90.3184 108.434 85.6782 107.317 81.4246C107.199 80.9767 106.961 80.4474 106.498 80.4176C106.219 81.0281 106.046 81.7166 106.083 81.9057Z" fill="#17282F"/>
<path d="M146.408 67.0957C148.274 68.471 150.808 68.8891 153.018 68.1874C154.079 67.8489 155.05 67.2766 156.082 66.8535C158.205 65.9826 160.531 65.7702 162.822 65.601C167.494 65.0187 172.219 64.8677 176.932 65.2028C179.672 65.2344 182.211 66.6462 184.923 67.036C186.745 67.2981 188.651 67.0991 190.331 67.766C190.58 68.5158 190.569 69.3486 190.3 70.0902C190.234 70.2727 190.144 70.4602 189.983 70.5697C189.807 70.6908 189.58 70.6957 189.371 70.7372C188.414 70.9313 187.838 71.8985 187.47 72.8027C186.182 75.9647 185.958 79.4751 184.714 82.6537C184.138 84.1269 183.231 85.6183 181.745 86.2305C177.574 87.0981 173.309 87.5029 168.99 87.4581C167.189 87.5261 165.427 86.9936 163.647 86.7083C162.827 86.5755 161.996 86.4959 161.193 86.2819C160.39 86.0696 159.602 85.7112 159.03 85.109C158.645 84.7042 158.371 84.2065 158.109 83.7121C157.44 82.4579 156.803 81.1872 156.228 79.8782C155.775 79.057 155.418 78.1844 155.168 77.2803C154.968 76.5652 154.836 75.8303 154.602 75.1252C154.411 74.5479 154.146 73.9805 153.721 73.5442C153.452 73.2688 153.127 73.0548 152.785 72.879C151.959 72.4543 151.022 72.2502 150.093 72.2917C149.794 72.305 149.494 72.3448 149.215 72.4526C148.434 72.7545 147.954 73.5276 147.578 74.2659C146.747 76.8522 145.723 79.3739 144.515 81.8076C143.943 82.9606 143.296 84.1335 142.256 84.895C141.363 85.547 140.265 85.8356 139.185 86.111C136.151 86.3931 133.11 86.6751 130.062 86.6436C127.015 86.612 123.949 86.2587 121.075 85.3479C120.105 85.0825 119.138 84.7092 118.381 84.0456C117.522 83.2924 116.999 82.2207 116.666 81.1274C116.332 80.0342 116.168 78.8961 115.85 77.7929C115.641 76.4723 115.463 75.1451 115.317 73.8146C115.181 72.5754 115.042 71.2482 114.265 70.3407C114.058 69.9359 113.698 69.6207 113.288 69.42C112.878 69.2192 112.424 69.1297 112.009 69.1064C111.74 68.9074 111.686 68.5308 111.681 68.1956C111.672 67.683 111.722 67.1687 111.812 66.6627C111.848 66.4537 111.895 66.238 112.011 66.0605C112.127 65.8814 112.328 65.7437 112.48 65.6126C114.386 66.1335 116.39 65.5297 118.343 65.2244C121.097 64.7947 123.937 64.9606 126.616 64.3435C130.956 63.8906 135.354 64.0017 139.664 64.6703C142.095 65.0469 144.527 65.7088 146.408 67.0957Z" fill="black"/>
<path d="M140.826 84.408C142.158 83.7825 142.918 82.3757 143.515 81.0303C144.681 78.3991 145.572 75.6469 146.168 72.8316C146.377 71.8478 146.539 70.7811 146.11 69.8736C145.929 68.9114 145.119 68.271 144.288 67.8414C143.191 67.2723 141.985 66.9505 140.776 66.6967C139.056 66.335 137.309 66.1044 135.553 66.0065C130.52 65.693 125.376 65.4591 120.435 66.6104C119.785 66.7614 119.126 66.9438 118.584 67.3337C117.349 68.2213 117.054 69.9035 116.847 71.3783C116.976 73.2264 116.762 75.0845 116.865 76.9359C116.966 78.7857 117.431 80.7084 118.75 82.0406C119.337 82.7407 119.974 83.4275 120.783 83.8522C121.309 84.1276 121.888 84.2835 122.467 84.4196C125.361 85.1031 128.352 85.3735 131.308 85.1429C134.619 85.3188 138.138 85.6688 140.826 84.408Z" fill="#F2DBC1"/>
<path d="M143.013 69.7559C143.814 69.9832 144.678 70.2022 145.465 69.9301C145.674 69.8576 145.867 69.7527 146.042 69.6228C145.679 68.084 142.769 67.0191 139.949 66.5213C136.88 65.8578 129.829 65.5261 124.769 65.9407C120.207 66.4384 118.216 66.6872 117.387 69.0131C121.696 66.4922 126.79 65.2806 131.647 66.2837C133.175 66.5989 134.651 67.1214 136.131 67.6208C138.407 68.3872 140.702 69.1006 143.013 69.7559Z" fill="#17282F"/>
<path d="M156.017 73.9674C155.837 72.4826 155.703 70.8253 156.615 69.6391C157.241 68.8262 158.241 68.4048 159.217 68.088C163.809 66.5949 168.743 66.6513 173.539 66.7956C176.483 66.9151 179.415 67.3464 182.27 68.0797C183.053 68.2804 183.904 68.5591 184.349 69.2028C184.994 71.0028 185.228 72.9355 185.185 74.8467C185.143 76.7595 184.83 78.6574 184.407 80.4773C184.153 81.325 183.896 82.1794 183.491 82.9657C183.086 83.7521 182.516 84.4771 181.754 84.9283C181.22 85.2452 180.613 85.4194 180.006 85.5421C179.068 85.7329 178.113 85.8126 177.159 85.8922C175.491 86.0316 173.826 86.1709 172.217 86.2821C169.856 86.4728 167.485 86.1825 165.134 85.8939C164.424 85.8059 163.713 85.718 163.014 85.5621C161.861 85.3016 160.687 84.8022 160.056 83.8268C157.745 81.0662 156.441 77.506 156.017 73.9674Z" fill="#F2DBC1"/>
<path d="M177.91 75.3748C175.994 73.7407 173.972 72.0536 171.515 71.5028C169.394 71.0266 167.125 71.4729 165.222 72.5197C164.247 73.0556 163.362 73.7407 162.483 74.4226C161.659 75.0613 160.834 75.7 160.074 76.5245C162.817 76.2259 165.426 77.6593 168.144 78.1288C171.533 78.716 175.161 77.709 177.91 75.3748Z" fill="white" stroke="black" stroke-width="0.5" stroke-miterlimit="10"/>
<path d="M170.426 71.9404C169.295 71.5974 167.991 72.1294 167.319 73.0906C166.647 74.0518 166.582 75.3561 167.021 76.4384C167.187 76.8475 167.427 77.2382 167.78 77.5097C168.1 77.7555 168.493 77.8876 168.886 77.9848C169.814 78.2141 170.871 78.2434 171.653 77.6968C172.339 77.218 172.678 76.3907 172.882 75.5872C172.996 75.1378 173.08 74.6737 173.033 74.2114C172.903 72.9292 171.625 71.8689 170.426 71.9404Z" fill="#17282F"/>
<path d="M161.057 73.8455C162.1 72.5847 163.175 71.2957 164.596 70.4828C166.498 69.3928 168.811 69.2817 170.991 69.5156C173.474 69.7827 176.028 70.5292 177.793 72.2961C178.149 72.6527 178.47 73.0476 178.858 73.3678C179.427 73.8356 180.225 74.325 180.105 75.0516C178.805 74.3831 177.999 73.0476 176.875 72.1102C175.839 71.2459 174.548 70.7399 173.244 70.3932C170.193 69.582 166.742 69.6367 164.105 71.3737C163.02 72.0887 162.124 73.0492 161.239 74.0015C161.107 74.0214 161.016 73.809 161.057 73.8455Z" fill="#CEAC87"/>
<path d="M160.385 68.5165C159.446 68.9329 158.506 69.4306 157.479 69.4854C157.251 69.4975 157.018 69.4799 156.789 69.4343C157.479 68.3477 161.351 67.2694 164.669 66.9376C165.905 66.814 167.192 66.7368 168.492 66.7025C168.976 66.6824 169.461 66.6758 169.948 66.6818C174.64 66.6716 179.336 67.1985 182.337 68.0989C183.25 68.3726 183.914 68.6215 184.328 69.1772L184.577 69.9933C183.479 69.6904 182.403 69.2634 181.33 68.8782C177.699 67.5742 173.798 66.7298 169.948 66.6818C169.462 66.6829 168.976 66.6897 168.492 66.7025C165.7 66.8182 162.956 67.3794 160.385 68.5165Z" fill="#17282F"/>
<path d="M141.237 76.7161C139.048 75.7157 137.356 73.8593 135.224 72.7412C133.191 71.6761 130.787 71.3343 128.537 71.7922C126.288 72.2501 124.209 73.5043 122.754 75.2794C123.912 76.0525 124.542 77.4129 125.609 78.3087C127.351 79.7719 129.916 79.7305 132.122 79.1697C134.329 78.609 136.436 77.6086 138.702 77.3963C139.573 77.315 140.553 77.31 141.237 76.7161Z" fill="white" stroke="black" stroke-width="0.5" stroke-miterlimit="10"/>
<path d="M120.962 75.2957C121.395 74.0183 122.038 72.7508 123.125 71.9512C123.96 71.339 124.983 71.0537 125.99 70.8131C127.501 70.4515 129.029 70.1628 130.561 69.9023C131.828 69.6883 133.132 69.4942 134.388 69.7663C136.644 70.2574 138.296 72.132 139.78 73.9005C139.746 74.0764 139.483 74.0399 139.327 73.9536C138.355 73.4111 137.553 72.6081 136.614 72.0093C133.968 70.3221 130.562 70.4481 127.478 71.0338C126.222 71.2727 124.958 71.5846 123.85 72.2216C122.74 72.8587 121.791 73.8607 121.463 75.0966C121.375 75.4251 121.247 75.8448 120.907 75.8614C120.842 75.5645 120.924 75.2393 120.962 75.2957Z" fill="#CEAC87"/>
<path d="M130.085 72.0496C129.087 71.9782 128.066 72.4333 127.439 73.229C126.813 74.0248 126.601 75.1389 126.887 76.1142C127.028 76.5917 127.278 77.0324 127.577 77.4262C127.86 77.7996 128.189 78.1383 128.574 78.4015C129.815 79.2483 131.611 79.134 132.738 78.1342C133.865 77.1344 134.224 75.3409 133.57 73.9717C132.916 72.6046 131.306 71.7844 130.085 72.0496Z" fill="#17282F"/>
<rect x="114.145" y="65.4297" width="3.60449" height="10" rx="1.80225" transform="rotate(92.4554 114.145 65.4297)" fill="black"/>
<rect width="3.60449" height="10" rx="1.80225" transform="matrix(0.0428423 0.999082 0.999082 -0.0428423 185 67.4297)" fill="black"/>
<defs>
<linearGradient id="paint0_linear_693_3292" x1="63.8203" y1="279.788" x2="216.662" y2="133.96" gradientUnits="userSpaceOnUse">
<stop stop-color="#D9B430"/>
<stop offset="1" stop-color="#303030" stop-opacity="0"/>
</linearGradient>
</defs>
</svg>
