<svg width="235" height="325" viewBox="0 0 235 325" fill="none" xmlns="http://www.w3.org/2000/svg">
<path d="M232.286 207.589C232.286 270.947 180.924 322.309 117.566 322.309C54.2074 322.309 2.84549 270.947 2.84549 207.589C2.84549 144.231 54.2074 92.8689 117.566 92.8689C180.924 92.8689 232.286 144.231 232.286 207.589Z" fill="url(#paint0_linear_910_1532)" stroke="white" stroke-width="4.99567"/>
<path d="M65.2197 189.421L133.494 187.828L134.218 203.901L75.7903 220.916L65.2197 189.421Z" fill="#5F6FA7"/>
<path fill-rule="evenodd" clip-rule="evenodd" d="M65.7985 176.244C65.6797 183.098 66.689 193.966 68.6077 201.695C67.771 204.613 71.7433 209.342 70.9066 212.26C69.9755 222.193 78.5317 216.981 84.1108 234.253C88.8166 231.515 93.3132 228.75 95.6782 225.719C90.5525 218.689 99.9666 220.941 105.862 216.674C114.544 212.329 122.561 201.498 130.643 191.136C130.643 187.249 133.396 170.908 133.856 166.832C114.407 170.223 85.2476 172.853 65.7985 176.244Z" fill="#F2DBC1"/>
<path d="M54.2059 211.054L29.3702 236.775L12.1518 255.524L19.1747 268.556C82.8286 315.179 100.285 342.999 190.694 273.045L192.354 233.668L146.016 206.537L133.679 187.836L93.8953 221.426L65.2343 189.349L54.2059 211.054Z" fill="#7687C1"/>
<path d="M186.851 224.919C179.42 215.634 129.51 202.797 129.51 202.797C119.251 222.824 88.8318 226.668 73.82 204.157L28.0702 213.997L25.1074 277.391C41.9046 299.256 64.1318 313.302 88.2415 319.622C117.854 327.565 160.426 324.017 185.042 298.387L186.851 224.919Z" fill="#7687C1"/>
<path d="M185.604 223.505C193.612 228.523 201.022 237.676 203.167 250.14C203.314 250.992 208.318 276.506 208.579 279.129C198.008 292.523 181.573 307.583 156.595 316.633C158.095 298.652 160.368 266.04 163.782 255.21C170.79 232.974 179.287 219.548 185.604 223.505Z" fill="#7687C1"/>
<path d="M28.0598 213.794C39.9585 214.478 32.3151 225.771 35.726 237.302C38.2069 245.681 62.9722 313.444 42.4824 295.923C21.9927 278.402 8.81575 253.93 4.44324 232.427C0.0707207 210.924 28.0598 213.794 28.0598 213.794Z" fill="#7687C1"/>
<path d="M156.148 263.203C156.643 260.804 156.956 259.49 157.042 259.508C157.128 259.526 156.976 260.877 156.632 263.295C156.236 265.704 155.845 269.218 155.449 273.557C155.158 277.908 154.845 283.098 155.069 288.862C155.234 294.626 155.751 300.95 156.515 307.576C156.771 309.671 158.155 313.947 158.4 315.973L155.793 316.987C155.513 314.74 155.551 310.065 155.265 307.725C154.499 301.076 154.014 294.698 153.911 288.888C153.75 283.07 154.155 277.838 154.561 273.466C155.077 269.105 155.603 265.592 156.148 263.203Z" fill="#17282F"/>
<path d="M38.8225 251.499C39.0145 250.125 39.157 249.369 39.2347 249.374C39.3146 249.38 39.3167 250.147 39.2584 251.528C39.1721 253.108 39.0642 255.061 38.939 257.373C38.6002 262.52 38.1621 269.229 37.6765 276.646C37.3101 281.677 36.8937 286.388 36.4619 290.426L35.5655 289.485C35.8786 285.648 36.2126 281.255 36.5541 276.586C37.1045 269.065 37.6419 262.25 38.147 257.326C38.3995 254.864 38.6261 252.872 38.8225 251.499Z" fill="#17282F"/>
<path d="M153.913 288.818C154.007 294.633 154.499 301.014 155.282 307.665C155.556 309.856 156.392 314.524 156.661 316.634C153.185 318.01 149.638 318.951 147.321 319.675C146.15 312.036 145.681 307.345 146.075 294.039C146.601 276.311 151.143 268.189 156.962 260.037L157.102 259.717C156.942 260.234 156.669 261.396 156.295 263.112C155.724 265.504 155.168 269.021 154.622 273.385C154.19 277.761 153.758 282.997 153.913 288.818Z" fill="#5F6FA7"/>
<path d="M57.6724 215.394C57.5186 215.585 59.6447 217.826 63.0607 221.442C66.475 225.061 71.1567 230.089 76.1124 235.863C77.1554 237.091 78.176 238.295 79.1629 239.456L79.8215 240.23L80.4127 239.415C84.2516 234.099 87.5714 229.377 89.8914 225.95C92.213 222.52 93.5333 220.387 93.3714 220.251C93.2112 220.114 91.5978 221.998 89.0503 225.234C86.5043 228.468 83.0243 233.055 79.1309 238.326L80.379 238.284C79.3921 237.109 78.3699 235.892 77.3268 234.647C72.3359 228.834 67.4892 223.912 63.8554 220.513C60.2168 217.117 57.8166 215.212 57.6724 215.394Z" fill="#17282F"/>
<path d="M94.955 218.579C94.7411 218.677 96.1919 222.34 98.7103 228.187C99.3666 229.691 100.059 231.283 100.789 232.958C101.623 234.69 102.173 236.449 103.406 238.481C104 239.458 105.425 240.477 106.915 240.177C108.333 239.918 109.282 239.091 110.213 238.492C112.113 237.194 114.069 235.859 116.072 234.487C124.093 228.978 131.297 223.912 136.464 220.177C141.632 216.44 144.761 214.034 144.628 213.841C144.495 213.649 141.124 215.708 135.783 219.19C130.44 222.675 123.129 227.583 115.108 233.094C113.11 234.474 111.162 235.819 109.269 237.127C108.312 237.788 107.443 238.451 106.65 238.582C105.885 238.73 105.222 238.328 104.681 237.578C102.796 234.154 101.222 230.461 99.8025 227.688C97.0045 221.97 95.1688 218.482 94.955 218.579Z" fill="#17282F"/>
<path d="M88.725 319.828C88.7974 319.828 88.8738 319.487 88.9524 318.836C89.0123 318.131 89.0909 317.183 89.1902 315.99C89.368 313.46 89.616 309.9 89.922 305.526C90.6559 296.639 91.6627 284.458 92.775 271.002C93.8624 257.514 94.5095 245.301 94.4537 236.46C94.462 232.04 94.2945 228.462 94.0919 225.99C93.9679 224.798 93.8686 223.849 93.7963 223.145C93.7032 222.494 93.6205 222.153 93.5461 222.154C93.4717 222.154 93.4117 222.496 93.3642 223.147C93.3394 223.851 93.3042 224.8 93.2608 225.993C93.1843 228.523 93.0768 232.082 92.9424 236.458C92.6137 245.294 91.7268 257.501 90.6394 270.988C89.554 284.47 88.6568 296.679 88.4108 305.519C88.264 309.939 88.2743 313.517 88.3591 315.989C88.4273 317.182 88.4811 318.131 88.5224 318.836C88.5824 319.487 88.6506 319.828 88.725 319.828Z" fill="#17282F"/>
<path fill-rule="evenodd" clip-rule="evenodd" d="M42.1962 108.162C42.5273 85.0876 47.2276 61.3608 60.0934 59.1804C70.334 49.4519 76.9879 48.7382 117.866 44.1094C127.259 45.3815 136.526 47.2191 144.869 53.2147C150.261 56.6118 149.023 59.895 145.497 62.6344C143.652 66.4367 141.807 68.9367 149.732 78.2099C156.931 85.1779 152.928 97.4866 154.916 106.278C154.602 117.791 154.289 129.304 153.975 140.816C151.367 155.749 142.657 171.635 125.402 188.856C109.009 203.982 92.329 203.301 75.4785 193.252C60.9099 185.198 51.4187 164.34 43.766 154.004C41.3692 143.337 36.2393 131.877 42.1962 108.162Z" fill="#F2DBC1"/>
<path fill-rule="evenodd" clip-rule="evenodd" d="M154.979 106.68C155.083 108.109 154.553 109.871 154.572 111.159C154.769 124.934 150.846 130.732 146.034 137.932C143.171 149.434 136.248 155.949 129.734 158.392C123.629 163.431 120.326 178.713 113.446 179.973C101.231 185.266 84.5364 184.045 75.4785 177.53C67.5975 173.105 67.4824 154.954 62.8957 153.629C51.9618 140.821 47.89 140.821 42.5469 120.684C42.43 116.511 42.3131 112.339 42.1962 108.167C36.2393 131.882 41.3692 143.342 43.766 154.008C51.4187 164.345 60.9099 185.203 75.4785 193.256C90.047 201.31 108.56 199.518 125.402 188.86C142.657 171.639 151.367 155.753 153.975 140.821C155.559 124.886 158.236 114.01 155.559 106.917C154.979 106.273 155.183 106.917 154.979 106.68Z" fill="#17282F"/>
<path d="M83.5269 111.879C79.1181 117.149 78.504 126.634 82.1314 127.228C83.8875 125.543 90.53 124.283 91.2786 126.917C95.4307 134.368 100.124 130.346 102.441 126.297C104.52 124.427 108.838 125.739 111.278 129.398C115.269 129.306 115.865 118.426 112.364 114.36" stroke="#CEAC87" stroke-width="0.944064" stroke-miterlimit="22.9256"/>
<path fill-rule="evenodd" clip-rule="evenodd" d="M82.0537 127.356C82.5907 127.92 87.9614 127.6 91.2785 126.911C90.2578 124.268 83.0742 125.58 82.0537 127.356Z" fill="#17282F"/>
<path fill-rule="evenodd" clip-rule="evenodd" d="M110.074 128.177C109.537 128.741 105.119 127.442 102.206 126.762C103.227 124.12 108.628 125.548 110.074 128.177Z" fill="#17282F"/>
<path fill-rule="evenodd" clip-rule="evenodd" d="M106.922 85.7668C115.966 83.1528 124.59 83.202 133.634 84.9807C136.396 86.2323 138.387 88.183 142.206 90.0769C142.243 91.7773 142.281 93.4775 142.318 95.178C131.544 90.3584 123.141 89.6881 115.472 90.3007C112.186 90.2778 108.842 90.6121 105.297 92.1415C104.033 91.0455 102.768 89.9497 101.504 88.8537C103.314 87.8789 105.63 87.5206 106.922 85.7668Z" fill="black"/>
<path fill-rule="evenodd" clip-rule="evenodd" d="M55.2577 89.0384C62.4281 87.2691 70.0553 86.2355 80.5971 89.9106C84.3493 91.0896 88.1309 91.9495 92.143 90.2731C92.9463 89.7199 93.7497 89.1667 94.5531 88.6136C92.3437 85.019 86.7199 83.3423 81.4691 82.0619C74.3824 80.999 67.6901 80.0568 61.1205 80.8024C56.816 83.1559 54.9114 85.91 55.2577 89.0384Z" fill="black"/>
<path fill-rule="evenodd" clip-rule="evenodd" d="M67.2811 155.994C71.145 151.857 67.6573 145.595 69.9367 141.597C77.7426 140.282 90.4584 136.771 92.5795 137.265C96.1906 138.876 99.9358 138.84 103.761 137.824C107.631 137.979 116.54 142.655 122.93 145.071C123.815 145.003 125.185 145.644 126.135 146.641C127.679 147.72 122.214 155.905 124.76 159.149C126.995 151.547 130.472 144.823 130.006 141.468C129.225 136.043 125.911 135.764 123.458 133.266C121.914 132.987 119.592 132.229 116.673 131.284C115.014 130.746 113.045 131.113 110.602 129.892C106.937 128.67 105.775 127.773 102.458 127.042C97.1647 133.964 93.4726 131.341 91.2831 126.914C84.6802 130.783 76.3996 130.181 71.474 132.652C59.329 140.97 70.1181 147.946 67.2811 155.994Z" fill="#17282F"/>
<path fill-rule="evenodd" clip-rule="evenodd" d="M157.415 103.422C156.253 102.707 162.969 96.443 168.221 97.3709C169.202 99.0579 168.759 100.948 167.93 102.894C168.155 106.529 170.158 106.544 162.697 118.107C158.547 126.559 160.501 143.828 153.444 143.462C154.456 134.215 157.154 125.439 155.786 115.637C155.262 111.502 156.39 107.558 157.415 103.422Z" fill="#F2DBC1"/>
<path d="M162.218 112.04C162.218 112.04 160.978 103.978 167.645 99.6367" stroke="#CEAC87" stroke-width="0.944064" stroke-miterlimit="22.9256"/>
<path fill-rule="evenodd" clip-rule="evenodd" d="M41.598 103.204C40.2901 94.6458 35.8904 91.9158 31.0553 94.6763C29.9962 96.6143 31.8048 108.397 34.6212 115.606C36.571 123.34 34.025 139.29 40.2385 138.806C40.5339 130.608 40.8292 122.41 41.1245 114.212C41.2824 110.542 41.4401 106.873 41.598 103.204Z" fill="#F2DBC1"/>
<path d="M31.4834 95.5586C31.4834 95.5586 35.2043 96.4118 36.6771 105.791" stroke="#CEAC87" stroke-width="0.944064" stroke-miterlimit="22.9256"/>
<path d="M63.7754 139.25C63.7754 139.25 64.0854 133.669 71.4498 130.336" stroke="#CEAC87" stroke-width="0.944064" stroke-miterlimit="22.9256"/>
<path d="M120.593 124.211C120.593 124.211 121.6 130.49 129.817 137.854" stroke="#CEAC87" stroke-width="0.944064" stroke-miterlimit="22.9256"/>
<path fill-rule="evenodd" clip-rule="evenodd" d="M154.916 106.284C152.927 97.4925 156.931 85.1837 149.732 78.2157C141.806 68.9426 143.652 66.4425 145.496 62.6402C149.022 59.9008 150.26 56.6177 144.868 53.2205C136.525 47.2249 127.258 45.3874 117.866 44.1152C76.9873 48.7441 70.3334 49.4578 60.0928 59.1862C47.227 61.3666 42.5267 85.0935 42.1956 108.168C41.8646 131.242 40.552 105.526 40.552 105.526C40.1225 102.585 39.693 99.6451 39.2635 96.7047C37.0304 84.071 34.7976 71.4373 32.5645 58.8036C33.4053 23.0059 59.2039 10.8471 87.0744 0C94.9377 0.0527368 105.66 2.91605 113.184 5.87576C116.613 8.41181 137.298 2.04003 158.072 35.1312C161.348 47.0418 169.468 56.2391 167.899 70.8631C163.949 83.7297 159.999 96.596 156.05 109.463C155.672 108.403 155.294 107.343 154.916 106.284Z" fill="#17282F"/>
<path fill-rule="evenodd" clip-rule="evenodd" d="M94.1822 88.6298C96.5264 88.4948 101.075 88.5701 102.992 89.1481C106.402 89.3418 106.443 85.6935 122.353 86.2748C128.58 86.6364 135.583 88.161 142.198 90.073C144.3 91.046 146.866 91.5555 149.872 91.6235C149.846 93.0963 149.82 94.5692 149.795 96.042C146.177 95.664 146.048 97.4178 145.919 98.8326C144.827 105.735 143.595 113.042 138.554 115.267C128.995 117.493 119.767 117.64 111.113 114.181C105.824 111.617 103.8 104.735 102.731 96.3326C101.335 92.6976 95.7345 93.4503 94.9891 95.267C91.9022 99.8692 89.4869 109.263 84.4464 111.313C75.2098 113.666 63.2058 112.4 57.0048 109.046C53.3332 106.883 51.9043 102.159 52.0437 99.2689C52.3927 95.9259 52.4024 92.4371 51.3945 89.9664C50.7192 88.4578 48.7363 88.161 47.625 87.2824C47.7542 85.8872 47.8834 84.4917 48.0126 83.0965C52.1366 83.6227 56.9014 83.1871 61.3459 81.4688C68.7645 81.576 86.2052 81.0296 94.1822 88.6298Z" fill="#17282F"/>
<path fill-rule="evenodd" clip-rule="evenodd" d="M55.2453 89.0402C53.9834 93.2293 53.7294 97.7063 54.2761 102.412C54.9031 104.814 56.5447 107.316 59.3148 108.323C66.6145 110.076 73.9142 110.898 81.2138 110.067C84.4609 109.556 87.1236 107.689 88.8205 103.817C91.1547 100.103 93.6459 93.5267 92.6477 90.5907C83.6107 84.9347 72.1182 84.9285 60.4777 85.261C57.4406 85.6082 56.0844 87.1417 55.2453 89.0402Z" fill="#FDE6CD"/>
<path fill-rule="evenodd" clip-rule="evenodd" d="M142.47 95.6561C143.063 99.9907 142.615 104.453 141.341 109.015C140.347 111.29 138.335 113.505 135.441 114.067C127.958 114.66 120.619 114.333 113.538 112.373C110.411 111.361 108.072 109.102 107 105.013C105.274 100.98 103.839 94.0954 105.284 91.3513C115.093 87.1745 126.445 88.9617 137.891 91.1066C140.837 91.9235 141.937 93.6497 142.47 95.6561Z" fill="#FDE6CD"/>
<path d="M58.0977 97.536C58.0977 97.536 72.8265 86.4507 83.3688 95.7529" stroke="#CEAC87" stroke-width="0.944064" stroke-miterlimit="22.9256"/>
<path d="M81.3037 101.754C81.3037 101.754 76.852 107.477 63.2139 104.666" stroke="#CEAC87" stroke-width="0.944064" stroke-miterlimit="22.9256"/>
<path fill-rule="evenodd" clip-rule="evenodd" d="M110.558 101.115C117.553 94.1195 131.544 95.3914 135.996 103.659C132.18 110.654 113.101 104.931 110.558 101.115Z" fill="#ECD2B4"/>
<path fill-rule="evenodd" clip-rule="evenodd" d="M83.8484 98.6619C78.7613 91.5771 62.8621 92.2131 58.4104 100.48C63.498 106.84 85.1208 101.116 83.8484 98.6619Z" fill="#ECD2B4"/>
<path d="M112.126 98.229C112.126 98.229 125.072 88.5389 138.25 101.872" stroke="#CEAC87" stroke-width="0.944064" stroke-miterlimit="22.9256"/>
<path d="M114.997 106.289C114.997 106.289 118.02 110.94 133.834 109.157" stroke="#CEAC87" stroke-width="0.944064" stroke-miterlimit="22.9256"/>
<path fill-rule="evenodd" clip-rule="evenodd" d="M55.2422 89.0378C62.4126 87.2685 70.0398 86.2349 80.5816 89.91C84.3339 91.089 88.1154 91.9489 92.1275 90.2724C91.3241 90.8256 92.9308 89.7193 92.1275 90.2724C88.1634 87.6003 84.4295 87.0837 79.1787 85.8033C72.092 84.7404 66.8802 84.6082 60.3107 85.3539C57.6154 85.3541 56.2677 87.151 55.2422 89.0378Z" fill="black"/>
<path fill-rule="evenodd" clip-rule="evenodd" d="M110.181 89.8501C116.47 88.0531 128.15 88.9516 133.092 90.2993C136.237 90.7485 138.932 90.7485 140.729 92.5452C141.178 92.9947 142.077 93.8932 142.317 95.1789C131.542 90.3594 123.14 89.689 115.47 90.3016C112.184 90.2788 108.335 91.0161 104.79 92.5455C105.183 92.0499 104.79 91.1977 105.689 91.1977C107.499 90.2229 109.732 89.8501 110.181 89.8501Z" fill="black"/>
<path fill-rule="evenodd" clip-rule="evenodd" d="M41.2058 88.5509C41.6409 86.6553 45.8742 88.2479 47.6271 87.2822C47.7464 85.996 47.8653 84.7096 47.9846 83.4234C45.8282 83.298 43.6722 83.1723 41.5158 83.0469C37.7976 83.8646 38.6452 88.69 41.2058 88.5509Z" fill="white"/>
<path fill-rule="evenodd" clip-rule="evenodd" d="M156.019 97.6424C155.583 95.7468 151.474 96.6762 149.721 95.7105C149.601 94.4243 150.004 93.1123 149.884 91.8261C152.041 91.7007 153.471 92.8328 155.627 92.7074C157.314 93.0783 157.889 97.5378 156.019 97.6424Z" fill="white"/>
<path d="M72.4561 141.957L95.3671 141.059L107.047 141.957H111.54L120.524 145.551L119.626 148.696L108.395 151.391L82.3392 148.696L74.253 145.551L72.4561 141.957Z" fill="white"/>
<path fill-rule="evenodd" clip-rule="evenodd" d="M71.7061 141.68C79.4062 142.714 88.5021 135.841 95.1945 139.665C96.0567 140.514 98.2793 141.497 99.3803 140.13C101.645 138.715 103.394 138.509 106.434 139.51C113.046 141.112 117.579 144.261 122.946 145.091C120.104 146.59 114.075 143.771 110.466 142.688C103 143.754 96.7104 144.653 89.4579 142.223C85.2424 141.446 80.6821 142.048 75.7372 143.386C73.5108 143.195 72.4825 142.492 71.7061 141.68Z" fill="#99746C"/>
<path fill-rule="evenodd" clip-rule="evenodd" d="M71.2727 141.668C70.1828 141.908 73.0912 146.607 78.4965 150.172C83.4455 153.436 90.6298 154.552 96.7461 154.735C108.932 156.031 119.254 152.252 122.939 145.098C122.84 144.784 119.619 147.473 117.054 148.243C113.22 149.394 109.369 149.109 105.769 149.265C100.124 149.395 94.7209 149.186 90.11 147.869C82.0685 146.044 77.299 148.764 71.2727 141.668Z" fill="#99746C"/>
<path fill-rule="evenodd" clip-rule="evenodd" d="M88.6064 153.918C95.1214 154.732 100.413 155.14 106.364 154.732C107.335 155.547 103.672 158.804 97.5644 158.804C91.0495 158.397 88.6064 155.547 88.6064 153.918Z" fill="#17282F"/>
<path fill-rule="evenodd" clip-rule="evenodd" d="M110.954 101.255C120.593 95.3504 127.898 97.1142 133.919 103.097C125.819 107.476 113.931 101.068 110.954 101.255Z" fill="white" stroke="#2B2B2A" stroke-width="0.374675" stroke-miterlimit="22.9256"/>
<path fill-rule="evenodd" clip-rule="evenodd" d="M119.046 98.0672C118.548 99.2541 118.55 103.481 121.285 103.876C121.285 103.876 123.905 104.928 125.736 104.512C127.489 103.818 128.322 100.221 127.721 98.5688C124.541 97.2968 121.995 97.35 119.046 98.0672Z" fill="#17282F"/>
<path fill-rule="evenodd" clip-rule="evenodd" d="M60.1523 99.8014C66.8892 93.6884 74.5003 92.0884 83.7181 98.7936C80.0488 99.5172 63.4985 103.661 60.1523 99.8014Z" fill="white" stroke="#2B2B2A" stroke-width="0.374675" stroke-miterlimit="22.9256"/>
<path fill-rule="evenodd" clip-rule="evenodd" d="M77.0284 95.2371C77.2716 96.3495 77.6799 100.082 74.9449 100.477C73.6479 100.634 71.7903 100.956 70.4933 101.113C68.663 100.846 68.0207 96.5484 68.8346 94.838C71.6803 94.2954 74.5058 94.4035 77.0284 95.2371Z" fill="#17282F"/>
<defs>
<linearGradient id="paint0_linear_910_1532" x1="19.4166" y1="286.95" x2="200.946" y2="120.564" gradientUnits="userSpaceOnUse">
<stop stop-color="#D9B430"/>
<stop offset="1" stop-color="#303030" stop-opacity="0"/>
</linearGradient>
</defs>
</svg>
