<svg width="22" height="32" viewBox="0 0 22 32" fill="none" xmlns="http://www.w3.org/2000/svg">
<path d="M21.9441 21.4777H21.8895C21.8895 21.6043 21.8393 21.7184 21.758 21.8013C21.6767 21.8842 21.5648 21.9353 21.4409 21.9354C21.3168 21.9353 21.2049 21.8842 21.1236 21.8013C21.0422 21.7184 20.9921 21.6043 20.9921 21.4777C20.9921 21.3512 21.0422 21.2372 21.1236 21.1543C21.2049 21.0713 21.3168 21.0202 21.4409 21.0202C21.5648 21.0202 21.6767 21.0713 21.758 21.1543C21.8393 21.2372 21.8895 21.3512 21.8895 21.4777H21.9441H21.9988C21.9988 21.1634 21.749 20.9087 21.4409 20.9087C21.1325 20.9087 20.8828 21.1634 20.8828 21.4777C20.8828 21.7921 21.1325 22.0468 21.4409 22.0469C21.749 22.0468 21.9988 21.7921 21.9988 21.4777H21.9441Z" fill="#AEC7EB"/>
<path d="M17.5671 26.8139H17.5125C17.5123 26.9241 17.4248 27.0133 17.3168 27.0135C17.2087 27.0133 17.1213 26.9241 17.1211 26.8139C17.1213 26.7037 17.2087 26.6145 17.3168 26.6143C17.4248 26.6145 17.5123 26.7037 17.5125 26.8139H17.5671H17.6218C17.6218 26.6421 17.4852 26.5028 17.3168 26.5028C17.1483 26.5028 17.0118 26.6421 17.0117 26.8139C17.0118 26.9857 17.1483 27.125 17.3168 27.125C17.4852 27.125 17.6218 26.9857 17.6218 26.8139H17.5671Z" fill="#AEC7EB"/>
<path d="M16.375 3.83594H16.4843V3.23158H16.375V3.83594Z" fill="#AEC7EB"/>
<path d="M16.1328 3.59375H16.7254V3.48224H16.1328V3.59375Z" fill="#AEC7EB"/>
<path d="M2.17578 15.626C2.51122 15.2883 3.32555 14.1475 3.41804 14.1756C3.51054 14.2037 3.22922 14.6088 3.30948 14.6174C3.38962 14.6261 3.8638 14.0325 3.94886 14.0857C4.0641 14.1579 3.54651 14.7391 3.54651 14.7391C3.54651 14.7391 4.14457 14.1313 4.22668 14.2233C4.28507 14.2886 3.84959 14.7739 3.70592 14.9807C3.88961 14.7767 4.22537 14.4823 4.28452 14.5514C4.34302 14.6197 4.05361 14.9566 3.84522 15.2268C3.99063 15.0705 4.27042 14.8009 4.32793 14.862C4.38533 14.923 3.68471 16.0109 3.04303 16.8047" fill="#F466BA"/>
<path d="M0.589844 14.0849C0.589844 8.68865 4.87926 4.31404 10.1704 4.31404C15.4616 4.31404 19.751 8.68865 19.751 14.0849C19.751 16.2359 19.0688 18.2242 17.9139 19.8381C16.5464 21.9398 12.9931 24.3127 12.9931 25.7343V27.3583C12.9931 27.6825 12.7354 27.9453 12.4176 27.9453H10.8779H9.46301H7.92325C7.60542 27.9453 7.34782 27.6825 7.34782 27.3583V25.7343C7.34782 24.3127 3.79444 21.9398 2.42689 19.8381C1.27198 18.2242 0.589844 16.2359 0.589844 14.0849Z" fill="url(#paint0_linear_783_1370)"/>
<path d="M5.8533 14.3982C5.63211 14.3982 5.42635 14.4538 5.2454 14.5642C4.75853 14.8611 4.48312 15.7077 4.60481 16.5336C4.8226 18.0112 6.04092 19.5764 8.76292 19.9765C8.60777 18.3453 8.34187 16.8524 7.89709 15.9661C7.51737 15.2096 6.91308 14.6476 6.28058 14.4625C6.13363 14.4195 5.99051 14.3982 5.8533 14.3982ZM14.4879 14.3982C14.3507 14.3982 14.2076 14.4195 14.0606 14.4625C13.4281 14.6476 12.8237 15.2096 12.4441 15.9661C11.9993 16.8524 11.7334 18.3453 11.5782 19.9765C14.3003 19.5764 15.5186 18.0112 15.7364 16.5336C15.8581 15.7077 15.5828 14.8611 15.0959 14.5642C14.9149 14.4538 14.7092 14.3982 14.4879 14.3982ZM11.2585 27.7812C11.2473 27.5363 11.0758 23.614 11.3838 20.1766C11.0065 20.2223 10.6024 20.2464 10.1706 20.2464C9.73873 20.2464 9.33485 20.2223 8.95753 20.1766C9.26542 23.614 9.09387 27.5363 9.08261 27.7812L8.91369 27.773C8.91642 27.7127 9.09409 23.6559 8.77932 20.1532C5.93782 19.7504 4.66592 18.1085 4.43752 16.5592C4.30414 15.6536 4.60732 14.7523 5.15859 14.4161C5.49304 14.2122 5.89714 14.1708 6.32727 14.2967C7.00394 14.4947 7.64705 15.0894 8.04765 15.8875C8.51013 16.8092 8.78358 18.3395 8.94124 20.0008C9.32238 20.0485 9.73162 20.0741 10.1706 20.0741C10.6097 20.0741 11.0189 20.0485 11.3998 20.0008C11.5576 18.3395 11.831 16.8092 12.2937 15.8875C12.6942 15.0894 13.3373 14.4947 14.0139 14.2967C14.4441 14.1709 14.8483 14.2122 15.1827 14.4161C15.7339 14.7523 16.0372 15.6536 15.9037 16.5592C15.6753 18.1085 14.4034 19.7504 11.5619 20.1532C11.2471 23.6559 11.4248 27.7127 11.4275 27.773L11.2585 27.7812Z" fill="white"/>
<path d="M18.1553 14.6484C17.8518 14.6484 17.6057 14.3974 17.6057 14.0878C17.6057 10.6111 15.3009 7.58787 12.0009 6.73585C11.7066 6.65991 11.5284 6.35494 11.6029 6.05477C11.6774 5.75448 11.9762 5.57262 12.2707 5.64889C16.0591 6.62702 18.7049 10.0972 18.7049 14.0878C18.7049 14.3974 18.4588 14.6484 18.1553 14.6484Z" fill="#FCF181"/>
<path d="M9.98438 5.92372C9.98438 6.23337 10.2305 6.48438 10.534 6.48438C10.8376 6.48438 11.0836 6.23337 11.0836 5.92372C11.0836 5.61407 10.8376 5.36318 10.534 5.36318C10.2305 5.36318 9.98438 5.61407 9.98438 5.92372Z" fill="#FCF181"/>
<path d="M2.41746 19.8281C2.41645 19.8266 2.4152 19.8249 2.41406 19.8233C2.4152 19.8249 2.41633 19.8266 2.41746 19.8281Z" fill="#FCDA83"/>
<path d="M17.9297 19.8203C17.9311 19.8185 17.9324 19.8167 17.9336 19.8147C17.9324 19.8165 17.931 19.8185 17.9297 19.8203Z" fill="#E2CB82"/>
<path d="M17.9336 19.8047C17.9347 19.803 17.9357 19.8015 17.9369 19.7999C17.9359 19.8015 17.9347 19.8031 17.9336 19.8047Z" fill="#E2CB82"/>
<path d="M17.9414 19.7969C17.9424 19.7957 17.9433 19.7943 17.9443 19.7929C17.9433 19.7942 17.9424 19.7957 17.9414 19.7969Z" fill="#E2CB82"/>
<path d="M12.4186 27.9453H7.92431C7.60647 27.9453 7.34888 27.6825 7.34888 27.3583V25.7343C7.34888 24.3127 3.7955 21.9398 2.42794 19.8381C2.42586 19.8352 2.42368 19.8322 2.4216 19.8292C2.4204 19.8277 2.41941 19.8262 2.41821 19.8245C2.41723 19.8232 2.41624 19.8218 2.41526 19.8204C2.41395 19.8184 2.41252 19.8165 2.4111 19.8145C2.41045 19.8136 2.40979 19.8126 2.40913 19.8117C2.40749 19.8094 2.40596 19.8073 2.40422 19.8049C2.40389 19.8043 2.40345 19.8037 2.40301 19.8031C2.40126 19.8006 2.3994 19.7981 2.39765 19.7956C2.39744 19.7953 2.39722 19.795 2.397 19.7947C1.36444 18.3348 0.71871 16.5724 0.609375 14.6627C1.20929 18.1967 3.87651 22.1857 8.93226 22.7492C9.01875 25.3981 8.91663 27.7297 8.91455 27.7753L9.08347 27.7835C9.09189 27.5994 9.19095 25.3387 9.10895 22.7674C9.45215 22.8 9.8065 22.8168 10.1715 22.8168C10.536 22.8168 10.8902 22.8008 11.234 22.7698C11.1521 25.3399 11.2509 27.5994 11.2593 27.7835L11.4284 27.7753C11.4263 27.7297 11.3242 25.3998 11.4106 22.7524C16.4818 22.213 19.2433 18.3771 19.7335 14.6627C19.6245 16.5646 18.9837 18.3206 17.9584 19.7769C17.9582 19.7774 17.9578 19.7778 17.9575 19.7783C17.956 19.7805 17.9543 19.7828 17.9527 19.7851C17.9522 19.786 17.9515 19.7869 17.9508 19.7877C17.9494 19.7896 17.9481 19.7917 17.9467 19.7937C17.9459 19.7948 17.9452 19.7959 17.9444 19.7969C17.9431 19.7988 17.9418 19.8006 17.9405 19.8024C17.9395 19.8037 17.9386 19.805 17.9376 19.8065C17.9364 19.808 17.9353 19.8096 17.9342 19.8112C17.9331 19.8128 17.932 19.8144 17.9308 19.816C17.9299 19.8174 17.9289 19.8186 17.9279 19.8201C17.9265 19.8221 17.9252 19.824 17.9237 19.826C17.923 19.827 17.9222 19.8281 17.9214 19.8291C17.9192 19.8321 17.9172 19.8351 17.915 19.8381C17.4832 20.5017 16.8336 21.1923 16.1466 21.8715C14.6579 23.3433 12.9942 24.7615 12.9942 25.7343V27.3583C12.9942 27.6825 12.7365 27.9453 12.4186 27.9453Z" fill="#F9AF0B"/>
<path d="M11.2589 27.7812C11.2504 27.5972 11.1516 25.3376 11.2335 22.7675C11.2925 22.7621 11.3517 22.7563 11.4101 22.7501C11.3237 25.3976 11.4258 27.7274 11.4279 27.773L11.2589 27.7812ZM9.08298 27.7812L8.91406 27.773C8.91614 27.7274 9.01826 25.3958 8.93177 22.747C8.99027 22.7536 9.0492 22.7596 9.10846 22.7651C9.19046 25.3365 9.0914 27.5972 9.08298 27.7812Z" fill="#FCDA83"/>
<path d="M13.2193 26.4288H7.12109V29.3929C7.12109 29.8769 7.25623 30.3509 7.51054 30.7596C7.99129 31.5321 8.82617 32 9.72326 32H10.6173C11.5144 32 12.3492 31.5321 12.8299 30.7596C13.0842 30.3509 13.2193 29.8769 13.2193 29.3929V26.4288Z" fill="#273148"/>
<path d="M7.11829 28.4295C7.13578 28.43 7.15328 28.4295 7.1711 28.4276L13.2692 27.7829C13.4774 27.7609 13.6227 27.57 13.5939 27.3567C13.565 27.1434 13.3726 26.988 13.1647 27.0103L7.06658 27.6551C6.8584 27.677 6.71298 27.8678 6.74196 28.0811C6.7682 28.2763 6.93133 28.4228 7.11829 28.4295Z" fill="#424E77"/>
<path d="M7.11829 29.781C7.13578 29.7816 7.15328 29.781 7.1711 29.7791L13.2692 29.1344C13.4774 29.1125 13.6227 28.9217 13.5939 28.7082C13.565 28.4949 13.3726 28.3399 13.1647 28.3619L7.06658 29.0066C6.8584 29.0286 6.71298 29.2194 6.74196 29.4327C6.7682 29.6279 6.93133 29.7744 7.11829 29.781Z" fill="#424E77"/>
<path d="M7.36449 31.1247C7.38188 31.1254 7.39948 31.1247 7.41719 31.123L13.1975 30.5117C13.4057 30.4897 13.551 30.2989 13.5221 30.0856C13.4934 29.8723 13.3005 29.717 13.0929 29.7392L7.31267 30.3503C7.1045 30.3723 6.95908 30.5631 6.98805 30.7765C7.0144 30.9716 7.17753 31.1182 7.36449 31.1247Z" fill="#424E77"/>
<path d="M10.0039 0.168555V3.23899C10.0039 3.33132 10.0774 3.40625 10.1679 3.40625C10.2584 3.40625 10.3319 3.33132 10.3319 3.23899V0.168555C10.3319 0.0762279 10.2584 0.0012958 10.1679 0.0012958C10.0774 0.0012958 10.0039 0.0762279 10.0039 0.168555Z" fill="#FAB92C"/>
<path d="M15.5987 1.38647L14.3828 4.19531L15.5987 1.38647Z" fill="#FBC941"/>
<path d="M15.4487 1.32347L14.2328 4.13231C14.1962 4.21683 14.2337 4.31562 14.3165 4.35287C14.3994 4.39022 14.4963 4.35197 14.5328 4.26745L15.7487 1.4585C15.7853 1.37409 15.7478 1.2753 15.665 1.23794C15.5821 1.2007 15.4853 1.23895 15.4487 1.32347Z" fill="#FAB92C"/>
<path d="M20.1739 4.7906L17.9492 6.85938L20.1739 4.7906Z" fill="#FBC941"/>
<path d="M20.0633 4.66381L17.8386 6.73259C17.7717 6.79481 17.7669 6.90063 17.828 6.96887C17.889 7.03711 17.9928 7.04202 18.0597 6.9798L20.2842 4.91102C20.3513 4.8488 20.356 4.74298 20.295 4.67474C20.234 4.6065 20.1302 4.60159 20.0633 4.66381Z" fill="#FAB92C"/>
<path d="M4.74219 1.38647L5.9581 4.19531L4.74219 1.38647Z" fill="#FBC941"/>
<path d="M4.58824 1.45852L5.80415 4.26747C5.84067 4.35188 5.93754 4.39024 6.02042 4.35288C6.10329 4.31564 6.1408 4.21684 6.10417 4.13232L4.88826 1.32348C4.85174 1.23896 4.75487 1.20072 4.672 1.23796C4.58923 1.27532 4.55162 1.37411 4.58824 1.45852Z" fill="#FAB92C"/>
<path d="M0.164062 4.7906L2.3887 6.85938L0.164062 4.7906Z" fill="#FBC941"/>
<path d="M0.0535044 4.91102L2.27814 6.9798C2.34505 7.04202 2.44881 7.03711 2.50982 6.96887C2.57083 6.90063 2.56612 6.79481 2.49921 6.73259L0.274469 4.66381C0.207557 4.60159 0.103799 4.6065 0.0427899 4.67474C-0.0182189 4.74309 -0.0134084 4.8488 0.0535044 4.91102Z" fill="#FAB92C"/>
<defs>
<linearGradient id="paint0_linear_783_1370" x1="16.6959" y1="20.367" x2="3.87364" y2="7.01356" gradientUnits="userSpaceOnUse">
<stop stop-color="#FFE767"/>
<stop offset="1" stop-color="#B4990C"/>
</linearGradient>
</defs>
</svg>
