<svg width="631" height="211" viewBox="0 0 631 211" fill="none" xmlns="http://www.w3.org/2000/svg">
<g filter="url(#filter0_d_702_2618)">
<path d="M0 48.9157C0 32.8845 13.3804 19.3547 31.2301 17.3371C49.0797 15.3194 85.0239 10.3047 119.684 7.33869C172.004 2.86134 201.564 2.62166 254.105 1.37024C314.978 -0.0796347 349.189 -0.798807 410.035 1.37024C449.655 2.78261 471.936 3.45706 511.349 7.33869C541.13 10.2716 585.834 16.9635 593.367 18.1027C593.75 18.1607 593.942 18.1897 594.107 18.2111C594.273 18.2325 594.712 18.28 595.591 18.375C613.458 20.3058 627 33.8328 627 49.9737V166.092C627 182.879 612.369 196.78 593.567 197.858C574.765 198.936 520.904 202.775 474.269 204.695C359.841 209.408 183.599 205.083 169.291 204.719C168.851 204.708 168.631 204.703 168.404 204.703C168.176 204.704 167.893 204.713 167.326 204.732C164.292 204.83 155.128 205.07 147 204.695C138.825 204.318 125.613 203.22 123.339 203.029C123.163 203.014 123.075 203.006 122.993 203C122.911 202.994 122.828 202.989 122.662 202.979C119.54 202.782 95.6551 201.276 88.3402 200.874C59.18 199.27 35.8171 197.826 33.7883 197.7C33.7426 197.697 33.7197 197.696 33.696 197.694C33.6724 197.693 33.6097 197.689 33.4844 197.682C14.6709 196.63 0 182.725 0 165.913V48.9157Z" fill="#FFF2CD"/>
<path d="M626.214 49.9737V166.092C626.214 182.386 611.988 196.015 593.522 197.074C588.651 197.353 581.434 197.817 572.604 198.385C547.316 200.01 508.796 202.487 474.237 203.91C359.839 208.622 183.624 204.298 169.311 203.934C168.875 203.923 168.642 203.917 168.401 203.918C168.159 203.919 167.861 203.928 167.3 203.947C164.27 204.045 155.132 204.284 147.036 203.911C138.879 203.534 125.682 202.437 123.404 202.246C123.231 202.231 123.138 202.223 123.051 202.217C122.964 202.21 122.876 202.205 122.712 202.195C119.592 201.998 95.7023 200.492 88.3834 200.089C59.2257 198.486 35.8648 197.042 33.8369 196.916L33.7423 196.91L33.5283 196.898C15.0505 195.864 0.785714 182.232 0.785714 165.913V48.9157C0.785714 33.3535 13.7932 20.0988 31.3183 18.1178C36.3584 17.5481 42.83 16.741 50.3017 15.8091C69.3391 13.4348 94.8686 10.2509 119.751 8.12155C165.965 4.16676 194.404 3.52016 236.662 2.55935C242.22 2.43299 248.016 2.3012 254.123 2.15573C314.993 0.705946 349.185 -0.0127336 410.007 2.15546C411.786 2.21886 413.529 2.28077 415.241 2.34156C451.66 3.6348 473.654 4.4158 511.272 8.12062C541.029 11.0513 585.713 17.7399 593.249 18.8795L593.263 18.8816C593.634 18.9377 593.833 18.9678 594.006 18.9903C594.18 19.0128 594.621 19.0605 595.467 19.1519L595.507 19.1562C613.049 21.0519 626.214 34.305 626.214 49.9737Z" stroke="#FBBC09" stroke-width="1.57143"/>
</g>
<defs>
<filter id="filter0_d_702_2618" x="0" y="0" width="630.143" height="210.026" filterUnits="userSpaceOnUse" color-interpolation-filters="sRGB">
<feFlood flood-opacity="0" result="BackgroundImageFix"/>
<feColorMatrix in="SourceAlpha" type="matrix" values="0 0 0 0 0 0 0 0 0 0 0 0 0 0 0 0 0 0 127 0" result="hardAlpha"/>
<feOffset dx="3.14286" dy="3.14286"/>
<feComposite in2="hardAlpha" operator="out"/>
<feColorMatrix type="matrix" values="0 0 0 0 1 0 0 0 0 0.884083 0 0 0 0 0.554167 0 0 0 1 0"/>
<feBlend mode="normal" in2="BackgroundImageFix" result="effect1_dropShadow_702_2618"/>
<feBlend mode="normal" in="SourceGraphic" in2="effect1_dropShadow_702_2618" result="shape"/>
</filter>
</defs>
</svg>
