<svg width="511" height="314" viewBox="0 0 511 314" fill="none" xmlns="http://www.w3.org/2000/svg">
<g filter="url(#filter0_ii_765_1452)">
<path d="M511 147.864C511 229.528 393.801 295.729 249.228 295.729C204.667 295.729 176.341 289.617 139.612 278.525C139.154 278.007 131.337 290.222 117.252 300.3C103.998 309.784 86.2913 315.03 79.0768 312.968C76.3501 308.41 87.612 300.041 90.5294 286.643C93.2732 274.042 95.4376 263.731 90.5294 258.857C40.7884 231.941 0 189.845 0 147.864C0 66.2012 104.656 0 249.228 0C393.801 0 511 66.2012 511 147.864Z" fill="#D8E1F3"/>
</g>
<path d="M90.8052 258.579L90.7652 258.539L90.7157 258.512C65.8777 245.072 43.2862 227.847 26.909 208.755C10.5288 189.659 0.391463 168.727 0.391463 147.864C0.391463 107.217 26.4368 70.3592 70.6021 43.6434C114.764 16.9298 176.997 0.391463 249.228 0.391463C321.46 0.391463 386.834 16.93 434.136 43.6493C481.451 70.3754 510.609 107.236 510.609 147.864C510.609 188.493 481.451 225.353 434.136 252.079C386.834 278.799 321.46 295.337 249.228 295.337C204.739 295.337 176.457 289.241 139.78 278.167C139.653 278.1 139.518 278.114 139.439 278.137C139.342 278.164 139.261 278.218 139.207 278.258C139.091 278.344 138.956 278.476 138.812 278.631C138.517 278.945 138.111 279.429 137.604 280.042C137.476 280.196 137.342 280.359 137.201 280.531C136.214 281.727 134.894 283.326 133.249 285.179C129.489 289.415 124.035 294.965 117.024 299.982C110.433 304.698 102.73 308.363 95.78 310.591C92.3053 311.705 89.0261 312.457 86.1742 312.804C83.3991 313.141 81.0568 313.09 79.3385 312.634C78.845 311.686 78.9919 310.504 79.6641 308.973C80.3598 307.389 81.5662 305.547 82.977 303.392L83.014 303.335C85.8504 299.003 89.4358 293.505 90.9118 286.727C92.2818 280.435 93.5171 274.674 93.7897 269.875C94.0618 265.086 93.3839 261.14 90.8052 258.579Z" stroke="#4689FF" stroke-width="0.782927"/>
<defs>
<filter id="filter0_ii_765_1452" x="-15.6585" y="-19.5732" width="546.232" height="352.56" filterUnits="userSpaceOnUse" color-interpolation-filters="sRGB">
<feFlood flood-opacity="0" result="BackgroundImageFix"/>
<feBlend mode="normal" in="SourceGraphic" in2="BackgroundImageFix" result="shape"/>
<feColorMatrix in="SourceAlpha" type="matrix" values="0 0 0 0 0 0 0 0 0 0 0 0 0 0 0 0 0 0 127 0" result="hardAlpha"/>
<feOffset dx="23.4878" dy="23.4878"/>
<feGaussianBlur stdDeviation="9.78658"/>
<feComposite in2="hardAlpha" operator="arithmetic" k2="-1" k3="1"/>
<feColorMatrix type="matrix" values="0 0 0 0 0.682353 0 0 0 0 0.792157 0 0 0 0 0.988235 0 0 0 0.3 0"/>
<feBlend mode="normal" in2="shape" result="effect1_innerShadow_765_1452"/>
<feColorMatrix in="SourceAlpha" type="matrix" values="0 0 0 0 0 0 0 0 0 0 0 0 0 0 0 0 0 0 127 0" result="hardAlpha"/>
<feOffset dx="-15.6585" dy="-23.4878"/>
<feGaussianBlur stdDeviation="9.78658"/>
<feComposite in2="hardAlpha" operator="arithmetic" k2="-1" k3="1"/>
<feColorMatrix type="matrix" values="0 0 0 0 0.682353 0 0 0 0 0.792157 0 0 0 0 0.988235 0 0 0 0.3 0"/>
<feBlend mode="normal" in2="effect1_innerShadow_765_1452" result="effect2_innerShadow_765_1452"/>
</filter>
</defs>
</svg>
